<svg width="14" height="13" viewBox="0 0 14 13" fill="none" xmlns="http://www.w3.org/2000/svg">
<path d="M3.9431 12.6325L13.8254 12.0006L13.2448 2.11514C13.2524 2.01131 13.2376 1.90705 13.2015 1.80943C13.1653 1.7118 13.1086 1.62309 13.0351 1.54929C12.9617 1.47549 12.8733 1.41834 12.7758 1.38169C12.6784 1.34504 12.5742 1.32976 12.4703 1.33687C12.3665 1.34399 12.2653 1.37334 12.1738 1.42293C12.0823 1.47253 12.0025 1.54121 11.9398 1.62434C11.8771 1.70746 11.833 1.80308 11.8105 1.90473C11.788 2.00637 11.7875 2.11167 11.8093 2.21349L12.2328 9.62187L1.81886 0.411656C1.67448 0.283966 1.4853 0.21886 1.29292 0.230661C1.10053 0.242461 0.92072 0.330201 0.79303 0.474578C0.665341 0.618956 0.600235 0.808145 0.612035 1.00053C0.623835 1.19291 0.711575 1.37272 0.855953 1.50041L11.2699 10.7106L3.86526 11.1957C3.67282 11.2082 3.49321 11.2966 3.36596 11.4415C3.23871 11.5864 3.17424 11.776 3.18673 11.9684C3.19921 12.1608 3.28764 12.3404 3.43255 12.4677C3.57746 12.5949 3.76698 12.6594 3.95943 12.6469L3.9431 12.6325Z" fill="#1636FF"/>
</svg>
