<svg width="64" height="49" viewBox="0 0 64 49" fill="none" xmlns="http://www.w3.org/2000/svg">
<rect width="63.6026" height="49" fill="#FFFE00"/>
<path d="M12.5574 23.5909C12.9622 23.7933 13.412 23.9282 13.8842 23.9282V30C12.5574 30 11.7254 29.3703 11.1857 28.5608C10.4661 29.3928 9.38662 30 7.78997 30H4.12441V23.9282H7.78997C9.63399 23.9282 11.0957 22.3765 10.4661 21.432L8.80193 18.9134L9.11677 18.7559L10.7584 21.0497V20.9823V21.0497L12.5574 23.5684V23.5909ZM27.8353 23.9282L28.0602 24.5579V29.4153L27.8353 30H25.8788V30.967C25.3391 32.856 23.9224 35.1723 20.6391 35.1723C16.4788 35.1723 15.8267 30.967 15.8267 30.967V30H13.8927L13.6678 29.4603V24.5354L13.8927 23.9282H15.8267H16.2314H27.8353ZM16.2314 30.967H25.3391C25.6315 30.8545 25.609 30.1574 25.3391 30.0225H16.2314V30.967ZM44.4117 22.9837V23.9282H46.8629V30H27.8379V23.9282L43.872 23.9057C44.1418 23.7708 44.1643 23.0962 43.872 22.9837H30.1992C30.1542 22.9837 31.9533 18.7784 36.9231 18.7784C40.6562 18.7784 43.872 21.0947 44.4117 22.9837ZM53.6251 18.7559C56.8859 18.7559 58.3026 21.0722 58.8424 22.9612V30H46.8562L46.5863 29.2129V24.5804L46.8562 23.9282H48.7902V22.9612C48.7902 22.9612 49.4423 18.7559 53.6251 18.7559ZM49.195 23.9057H58.3026C58.5725 23.7708 58.595 23.0737 58.3026 22.9612H49.195V23.9057Z" fill="#1636FF"/>
</svg>
