<svg width="22" height="17" viewBox="0 0 22 17" fill="none" xmlns="http://www.w3.org/2000/svg">
<rect width="21.6211" height="16.6571" fill="#FFFE00"/>
<path d="M5.79636 8.51666C5.9014 8.56918 6.0181 8.60419 6.14064 8.60419V10.1797C5.79636 10.1797 5.58046 10.0163 5.44042 9.80624C5.25369 10.0221 4.9736 10.1797 4.5593 10.1797H3.60817V8.60419H4.5593C5.03779 8.60419 5.41707 8.20156 5.25369 7.95648L4.82189 7.30294L4.90358 7.26209L5.32955 7.85728V7.83978V7.85728L5.79636 8.51082V8.51666ZM9.76064 8.60419L9.819 8.76757V10.028L9.76064 10.1797H9.25298V10.4306C9.11294 10.9208 8.74532 11.5218 7.89338 11.5218C6.81387 11.5218 6.64465 10.4306 6.64465 10.4306V10.1797H6.14283L6.08447 10.0396V8.76174L6.14283 8.60419H6.64465H6.74969H9.76064ZM6.74969 10.4306H9.11294C9.1888 10.4014 9.18296 10.2205 9.11294 10.1855H6.74969V10.4306ZM14.0619 8.35911V8.60419H14.6979V10.1797H9.76133V8.60419L13.9218 8.59835C13.9918 8.56334 13.9977 8.38828 13.9218 8.35911H10.374C10.3624 8.35911 10.8292 7.26793 12.1187 7.26793C13.0874 7.26793 13.9218 7.86895 14.0619 8.35911ZM16.4526 7.26209C17.2987 7.26209 17.6663 7.86312 17.8063 8.35327V10.1797H14.6962L14.6261 9.97546V8.77341L14.6962 8.60419H15.198V8.35327C15.198 8.35327 15.3672 7.26209 16.4526 7.26209ZM15.303 8.59835H17.6663C17.7363 8.56334 17.7421 8.38245 17.6663 8.35327H15.303V8.59835Z" fill="#1636FF"/>
</svg>
