<svg width="22" height="17" viewBox="0 0 22 17" fill="none" xmlns="http://www.w3.org/2000/svg">
<rect width="21.6211" height="16.6571" fill="#FFFE00"/>
<path d="M5.03479 7.96491C5.16332 8.02917 5.30613 8.07202 5.45609 8.07202V10C5.03479 10 4.77058 9.80006 4.5992 9.543C4.3707 9.8072 4.02795 10 3.52096 10H2.35703V8.07202H3.52096C4.1065 8.07202 4.57064 7.57931 4.3707 7.2794L3.84229 6.47965L3.94226 6.42966L4.46353 7.15801V7.13659V7.15801L5.03479 7.95777V7.96491ZM9.88598 8.07202L9.95739 8.27196V9.81434L9.88598 10H9.26474V10.307C9.09336 10.9069 8.6435 11.6424 7.60096 11.6424C6.27994 11.6424 6.07286 10.307 6.07286 10.307V10H5.45876L5.38736 9.82862V8.26482L5.45876 8.07202H6.07286H6.20139H9.88598ZM6.20139 10.307H9.09336C9.18619 10.2713 9.17905 10.05 9.09336 10.0071H6.20139V10.307ZM15.1495 7.77211V8.07202H15.9278V10H9.88682V8.07202L14.9781 8.06488C15.0638 8.02203 15.0709 7.80781 14.9781 7.77211H10.6366C10.6223 7.77211 11.1936 6.4368 12.7716 6.4368C13.957 6.4368 14.9781 7.17229 15.1495 7.77211ZM18.075 6.42966C19.1104 6.42966 19.5603 7.16515 19.7317 7.76497V10H15.9257L15.84 9.75008V8.2791L15.9257 8.07202H16.5398V7.76497C16.5398 7.76497 16.7469 6.42966 18.075 6.42966ZM16.6683 8.06488H19.5603C19.646 8.02203 19.6531 7.80067 19.5603 7.76497H16.6683V8.06488Z" fill="#1636FF"/>
</svg>
