<svg width="512" height="512" viewBox="0 0 512 512" fill="none" xmlns="http://www.w3.org/2000/svg">
<rect width="512" height="512" fill="#FFFE00"/>
<path d="M106.181 276.584C109.365 278.176 112.903 279.238 116.618 279.238V327C106.181 327 99.636 322.047 95.3905 315.679C89.7298 322.224 81.2387 327 68.679 327H39.8448V279.238H68.679C83.1846 279.238 94.6829 267.032 89.7298 259.602L76.6394 239.79L79.116 238.552L92.0294 256.595V256.064V256.595L106.181 276.407V276.584ZM226.361 279.238L228.13 284.191V322.401L226.361 327H210.971V334.607C206.725 349.466 195.58 367.686 169.754 367.686C137.028 367.686 131.898 334.607 131.898 334.607V327H116.684L114.915 322.754V284.014L116.684 279.238H131.898H135.082H226.361ZM135.082 334.607H206.725C209.025 333.722 208.848 328.238 206.725 327.177H135.082V334.607ZM356.754 271.808V279.238H376.036V327H226.381V279.238L352.509 279.061C354.632 278 354.808 272.693 352.509 271.808H244.955C244.602 271.808 258.753 238.728 297.848 238.728C327.213 238.728 352.509 256.949 356.754 271.808ZM429.23 238.552C454.88 238.552 466.024 256.772 470.27 271.631V327H375.984L373.861 320.809V284.368L375.984 279.238H391.197V271.631C391.197 271.631 396.327 238.552 429.23 238.552ZM394.381 279.061H466.024C468.147 278 468.324 272.516 466.024 271.631H394.381V279.061Z" fill="#1636FF"/>
</svg>
