<svg width="579" height="328" viewBox="0 0 579 328" fill="none" xmlns="http://www.w3.org/2000/svg">
<rect width="579" height="328" fill="#EAF9FF"/>
<g clip-path="url(#clip0_417_12307)">
<path d="M384.097 222.418C382.726 222.007 381.483 221.294 380.03 221.559C378.577 221.824 377.383 222.513 376.008 222.823C374.098 223.25 372.27 223.99 370.351 224.401C368.178 224.871 365.902 224.871 363.73 224.401C361.064 230.611 360.345 236.817 361.104 243.529C361.378 245.948 361.54 248.382 361.591 250.817C361.768 259.25 360.601 267.656 359.084 275.952C358.536 278.956 357.862 282.326 358.426 285.327C358.621 286.366 358.858 287.395 359.133 288.416C358.898 288.468 358.831 288.535 358.593 288.535H240.71C240.667 276.769 239.32 265.005 240.204 253.236C240.292 252.06 240.381 250.884 240.469 249.708C240.524 248.976 240.579 248.239 240.493 247.511C240.408 246.78 240.186 246.073 239.963 245.372C238.93 242.115 237.675 238.852 236.843 235.546C236.6 234.571 236.536 233.496 236.176 232.561C235.817 231.625 235.53 230.69 235.244 229.715C235.082 229.17 234.918 228.627 234.741 228.085C234.641 227.774 234.171 226.915 234.248 226.616C233.976 227.677 233.705 228.737 233.434 229.797C233.099 231.101 232.736 232.466 231.819 233.453C231.439 233.865 230.975 234.191 230.518 234.514C227.776 236.436 224.989 238.295 222.204 240.153C221.442 240.662 220.674 241.174 219.846 241.561C219.212 241.859 218.548 242.082 217.899 242.347C216.985 242.721 216.107 243.175 215.233 243.629C213.707 244.421 212.183 245.211 210.657 246.003C209.901 246.396 209.015 246.929 208.372 246.368C201.45 240.315 194.457 234.343 187.395 228.454C183.84 225.489 180.677 222.016 176.302 220.499C176.031 219.88 176.183 219.152 176.467 218.54C176.75 217.927 177.158 217.376 177.429 216.757C177.722 216.093 177.847 215.371 178.048 214.673C179.148 210.868 182.414 208.065 185.887 206.167C186.999 205.561 188.154 205.015 189.168 204.26C190.183 203.504 191.069 202.496 191.402 201.274C191.938 199.303 193.211 197.441 194.186 195.659C195.435 193.374 196.746 191.119 198.095 188.889C200.749 184.505 203.552 180.212 206.352 175.919C208.92 171.986 211.583 168.18 214.703 164.683C217.561 161.481 219.508 157.483 222.88 154.741C224.236 153.638 225.775 152.788 227.301 151.941C230.317 150.272 233.358 148.596 236.606 147.405C239.854 146.214 243.299 146.125 246.767 145.467C254.578 143.98 262.372 142.408 270.15 140.751C279.05 138.856 287.961 139.325 297.031 138.597C300.751 138.298 304.484 138 308.21 138.213C311.159 138.38 314.081 138.868 317.036 138.959C318.425 139.002 319.815 138.941 321.195 138.889C322.715 138.834 324.223 139.109 325.716 139.364C328.339 139.815 331.206 139.931 333.76 140.659C336.313 141.388 338.79 141.781 341.328 142.259C342.101 142.405 342.872 142.551 343.646 142.695C348.372 143.584 353.097 144.474 357.789 145.519C360.473 146.116 362.917 147.012 365.485 147.947C367.694 148.751 369.074 150.202 370.829 151.606C372.861 153.23 374.86 154.906 376.694 156.755C379.466 159.552 381.831 162.718 384.049 165.962C386.392 169.393 388.497 172.967 390.7 176.486C392.814 179.861 394.301 183.777 396.169 187.317C400.154 194.867 404.2 202.383 408.307 209.869C408.816 210.795 409.327 211.724 409.958 212.571C411.789 215.027 414.431 216.553 416.853 218.369C417.261 218.677 417.688 219.006 417.886 219.478C418.513 220.962 417.325 223.871 416.996 225.395C416.502 227.689 415.963 229.971 415.372 232.244C414.802 231.744 414.327 231.388 413.846 230.803C413.431 230.3 413.054 229.767 412.609 229.291C412.051 228.697 411.402 228.198 410.756 227.701C409.772 226.946 408.788 226.193 407.804 225.437C407.195 224.968 406.582 224.499 405.93 224.091C403.6 222.625 400.836 221.964 398.091 221.781C395.922 221.638 393.676 221.711 391.519 221.989C390.694 222.095 389.88 222.04 389.051 222.229C388.092 222.449 387.147 222.805 386.151 222.802C385.453 222.802 384.768 222.616 384.097 222.415V222.418Z" fill="#1F3A57"/>
<path d="M322.316 128.891C323.206 129.15 324.126 129.424 324.821 130.036C326.173 131.224 325.786 133.512 325.671 135.146C325.533 137.092 325.174 139.021 324.607 140.886C321.887 149.846 314.331 156.957 305.084 158.812C299.676 159.9 293.979 159.37 288.79 157.493C287.995 157.204 287.209 156.887 286.444 156.521C284.869 155.769 283.391 154.83 281.984 153.804C279.552 152.034 277.283 149.959 275.732 147.381C274.653 145.59 274.154 143.551 274.026 141.48C273.898 139.408 274.385 137.239 274.19 135.17C274.215 135.414 275.86 135.213 276.103 135.194C277.243 135.103 278.386 135.008 279.525 134.911C281.807 134.713 284.086 134.503 286.362 134.274C287.852 134.125 289.342 133.97 290.816 133.717C292.891 133.36 294.929 132.818 296.992 132.4C305.303 130.716 314.139 131.145 322.313 128.891H322.316Z" fill="#EAAD92"/>
<path d="M331.456 111.414C331.901 107.28 331.809 103.118 331.468 98.8859C331.218 95.8026 331.438 92.4451 330.566 89.4959C329.494 85.8673 328.236 82.2782 326.557 78.8842C325.789 77.3304 324.884 76.0081 324.302 74.4116C323.641 72.5988 323.282 70.7342 322.444 68.9702C321.377 66.7339 319.805 64.6712 317.66 63.4343C316.64 62.8462 315.519 62.4593 314.4 62.0998C309.495 60.5246 304.48 59.3212 299.322 59.0653C297.704 58.9861 295.739 58.657 294.161 59.0744C292.702 59.4583 291.422 59.763 289.893 59.9762C286.026 60.5125 283.644 62.8066 280.451 64.6438C277.413 66.3926 274.781 69.3114 273.114 72.3733C271.372 75.5724 269.864 78.4394 268.892 81.9278C268.109 84.74 267.426 87.5795 266.884 90.4495C265.814 96.1073 265.236 101.945 265.836 107.691C266.116 110.387 266.399 112.995 267.097 115.628C268.032 119.162 269.236 122.699 270.589 126.075C271.914 129.384 272.724 132.915 274.534 136.016C277.039 140.309 280.621 143.563 284.159 147.055C285.195 148.078 286.234 149.102 287.385 149.992C291.483 153.157 296.556 154.26 301.629 153.389C306.449 152.56 310.683 149.821 314.675 147.079C317.731 144.98 319.903 141.854 322.002 138.801C322.965 137.399 323.931 135.995 324.714 134.487C325.558 132.857 326.173 131.12 326.773 129.387C328.138 125.426 329.415 121.432 330.423 117.364C330.914 115.384 331.249 113.404 331.462 111.417L331.456 111.414Z" fill="#FDBF9F"/>
<path d="M319.953 201.725C319.072 200.506 317.756 199.665 316.26 199.446C315.425 199.321 314.639 199.489 313.807 199.553C312.726 199.635 311.845 199.217 310.87 198.827C309.167 198.145 307.33 197.807 305.496 197.837C304.53 197.852 303.595 198.044 302.635 198.118C302.096 198.16 301.56 198.142 301.042 197.977C300.475 197.795 299.966 197.466 299.421 197.231C297.806 196.539 296.015 196.646 294.339 197.027C293.504 197.219 292.688 197.481 291.877 197.758C290.732 198.148 289.662 198.444 288.565 197.74C287.865 197.292 287.261 196.798 286.433 196.606C285.61 196.414 284.754 196.469 283.934 196.631C282.128 196.987 280.522 197.953 278.734 198.367C276.552 198.873 274.499 197.743 272.326 198.108C270.638 198.392 269.152 199.385 268.201 200.796C268.155 200.863 268.162 200.927 268.192 200.978C268.213 201.052 268.271 201.103 268.372 201.091C281.811 199.455 295.262 201.713 308.692 202.267C310.566 202.343 312.439 202.389 314.313 202.386C316.129 202.383 318.07 202.493 319.84 202.017C319.956 201.987 320.035 201.831 319.959 201.725H319.953Z" fill="#F7E5CD"/>
<path d="M321.27 225.352H271.925L264.488 199.82H325.855L321.27 225.352Z" fill="white"/>
<path d="M414.706 231.034C414.746 231.269 414.776 231.509 414.801 231.753C414.993 233.81 414.795 235.891 415.087 237.935C415.337 239.668 415.937 241.384 415.751 243.126C415.495 245.527 413.798 247.52 411.979 249.11C410.407 250.487 408.655 251.709 406.675 252.379C404.515 253.111 402.995 252.568 400.88 252.401C399.597 252.3 398.041 252.836 396.737 252.998C393.696 253.376 390.631 253.519 387.569 253.513C380.671 253.501 373.777 252.76 366.979 251.609C353.598 249.342 340.095 245.619 327.893 239.589C327.43 239.361 326.967 239.126 326.507 238.888C326.507 238.888 317.047 239.857 297.84 235.738C297.84 235.738 294.446 237.024 292.012 236.798C289.983 236.61 289.011 235.461 287.902 234.553C287.902 234.553 283.968 234.62 281.025 234.017C278.96 233.593 278 232.649 270.282 224.648C268.168 222.454 264.954 219.591 265.722 218.689C267.553 216.538 270.834 219.755 275.407 222.826C275.407 222.826 275.453 221.175 276.818 220.895C279.039 220.438 281.351 223.725 285.641 225.596C285.641 225.596 288.642 226.903 292.417 226.811C296.533 226.711 298.98 224.697 306.389 219.067C318.207 210.085 318.217 209.469 318.887 207.465C320.779 201.807 318.661 198.751 320.099 193.642C321.51 188.63 324.715 187.271 326.092 188.103C326.948 188.618 327.789 190.464 327.387 193.876C326.75 199.305 330.013 203.714 331.372 208.552C333.094 214.685 334.401 222.582 334.401 222.582C338.867 226.982 351.225 226.793 360.417 225.361C375.449 223.021 380.863 218.299 388.62 218.606C392.221 218.75 395.682 218.936 399.217 219.792C405.31 221.269 413.539 224.094 414.697 231.037L414.706 231.034Z" fill="#FD9F88"/>
<path d="M449.676 273.234L472.99 315.977H115L144.355 273.234H449.676Z" fill="#B4D5F6"/>
<path d="M472.987 315.969H115V327.875H472.987V315.969Z" fill="#C0E0F9"/>
<path d="M290.269 116.938C291.988 117.023 290.446 117.822 296.738 119.293C298.883 119.796 302.594 117.233 304.011 117.151C305.427 117.069 302.74 122.858 296.841 122.757C290.693 122.651 289.142 116.88 290.269 116.938Z" fill="#DE9B7F"/>
<path d="M287.814 89.4662C287.814 89.4662 287.778 91.4406 287.138 91.5502C286.501 91.6599 279.414 89.9568 276.739 89.9019C274.064 89.8471 272.656 89.9568 272.656 89.9568C272.656 89.9568 274.487 87.7448 277.537 87.3426C280.587 86.9404 285.892 87.7661 287.814 89.4662Z" fill="black"/>
<path d="M283.492 103.22C284.961 103.22 286.152 101.87 286.152 100.204C286.152 98.538 284.961 97.1875 283.492 97.1875C282.023 97.1875 280.832 98.538 280.832 100.204C280.832 101.87 282.023 103.22 283.492 103.22Z" fill="black"/>
<path d="M307.173 90.4273C307.173 90.4273 307.113 92.4017 307.746 92.5418C308.377 92.682 315.54 91.3353 318.215 91.4114C320.89 91.4876 322.289 91.6674 322.289 91.6674C322.289 91.6674 320.57 89.367 317.542 88.8156C314.516 88.2641 309.178 88.8247 307.173 90.4273Z" fill="black"/>
<path d="M309.859 101.938C309.859 103.605 311.051 104.955 312.519 104.955C313.988 104.955 315.179 103.605 315.179 101.938C315.179 100.272 313.988 98.9219 312.519 98.9219C311.051 98.9219 309.859 100.272 309.859 101.938Z" fill="black"/>
<path d="M336.665 75.5004C337.03 72.5725 336.077 69.8853 334.62 67.3809C333.051 64.6815 331.22 62.1436 329.633 59.4503C328.947 58.2864 328.225 57.1652 327.439 56.0958C330.218 53.6158 330.693 49.5088 332.003 46.2123C332.119 45.9198 331.653 45.7461 331.504 46.0081C330.465 47.824 328.57 48.9056 326.522 48.9421C328.244 47.4767 329.219 45.3196 329.127 43.0254C329.118 42.806 328.819 42.6506 328.658 42.8365C327.08 44.7011 324.846 45.7979 322.43 45.932C324.712 43.3118 325.139 39.3724 323.408 36.3226C323.29 36.1124 322.973 36.1733 322.912 36.3927C322.232 38.7783 320.831 40.85 318.896 42.3643C320.176 38.7691 319.103 34.5403 316.133 32.0663C315.904 31.8774 315.539 32.1242 315.709 32.4015C317.291 34.979 315.353 37.4042 313.376 39.1469C314.043 37.5779 313.994 35.7772 313.159 34.2143C313.022 33.9584 312.669 34.1076 312.653 34.3575C312.455 37.4347 309.884 39.6313 307.209 40.7404C305.932 41.2705 304.598 41.6239 303.254 41.9438C302.145 41.6513 301.018 41.4441 299.863 41.3954C296.515 41.2492 293.279 42.3003 290.059 43.0528C286.973 43.7718 283.865 43.8236 280.739 44.2258C278.238 44.5457 275.7 45.2282 273.857 47.0501C271.898 48.9878 271.148 51.7268 269.935 54.1215C268.564 56.827 266.261 58.4083 264.116 60.4374C262.075 62.3629 260.908 64.7211 260.649 67.5241C260.387 70.3819 260.945 73.2489 261.441 76.0518C261.743 77.7519 262.041 79.4611 262.047 81.1917C262.054 82.8613 261.843 84.5187 261.798 86.1852C261.755 87.7817 261.871 89.4026 262.459 90.9016C262.709 91.5383 263.032 92.1416 263.312 92.7631C263.729 93.6954 263.921 94.6216 264.07 95.627C264.256 96.8792 264.457 99.0759 265.445 99.9716C265.445 99.9716 266.392 99.5116 267.196 99.3318C267.196 99.3318 268.439 99.8528 269.247 100.383C270.673 101.321 271.529 102.869 272.147 104.417C272.275 104.74 272.802 104.594 272.671 104.264C272.665 104.252 272.662 104.24 272.656 104.228C273.296 102.714 272.696 101.266 271.858 99.9442C270.731 98.1619 269.491 96.6233 268.906 94.5485C267.684 90.2069 268.744 85.6825 270.097 81.5085C270.782 79.3941 271.529 77.301 272.172 75.1713C272.79 73.1178 273.433 70.9851 274.938 69.3856C276.294 67.9445 278.098 67.0153 279.463 65.5803C280.188 64.8155 280.785 63.8619 281.869 63.5847C283.024 63.2891 284.38 63.6578 285.507 63.932C287.558 64.4317 289.553 65.1872 291.659 65.431C293.715 65.6717 295.689 65.2329 297.688 64.7912C298.77 64.5535 299.86 64.322 300.972 64.2671C302.261 64.2031 303.526 64.4195 304.787 64.6662C306.801 65.0593 308.726 65.3609 310.774 65.0227C311.749 64.8612 312.702 64.5992 313.638 64.2885C314.152 64.1178 314.655 63.8985 315.176 63.7492C316.182 63.4628 316.834 63.7644 317.614 64.3859C319.125 65.5894 320.63 66.9543 321.693 68.5813C322.939 70.4885 323.131 72.4384 322.656 74.6321C322.266 76.4327 321.763 78.2242 322.366 80.04C322.954 81.8132 324.243 83.2238 325.185 84.8081C325.821 85.8806 326.23 86.9926 326.275 88.2509C326.321 89.5153 326.09 90.7675 325.949 92.0227C325.7 94.2499 326.041 96.4039 326.37 98.6006C326.738 101.056 327.025 103.619 325.779 105.882C325.69 106.044 325.803 106.321 326.019 106.291C328.423 105.943 330.455 104.386 331.342 102.11C331.613 101.416 332.719 99.8102 332.719 99.8102C333.505 99.9625 334.313 100.307 334.313 100.307C335.281 99.5938 335.83 96.6111 336.232 95.4838C337.286 92.5102 336.613 89.168 336.202 86.1426C335.97 84.4456 335.766 82.7363 335.827 81.0241C335.894 79.1473 336.436 77.3558 336.668 75.5004H336.665Z" fill="black"/>
<path d="M287.373 163.431C287.674 163.498 287.863 163.793 287.796 164.095C287.732 164.387 287.449 164.573 287.16 164.524L206.76 150.781C205.437 150.555 204.548 149.297 204.773 147.975C204.999 146.652 206.257 145.763 207.579 145.988C207.683 146.006 206.12 145.668 287.373 163.431Z" fill="#B4D5F6"/>
<path d="M287.055 163.684C287.36 163.72 287.579 163.998 287.542 164.302C287.506 164.598 287.244 164.814 286.948 164.793L205.595 158.888C204.254 158.791 203.249 157.627 203.346 156.286C203.444 154.946 204.608 153.94 205.948 154.038C206.052 154.044 204.465 153.861 287.055 163.684Z" fill="#B4D5F6"/>
<path d="M228.427 203.865C227.769 205.035 227.23 206.266 226.694 207.497C224.573 212.344 222.422 217.2 220.302 222.027C219.802 223.163 219.342 224.318 218.876 225.466C218.12 227.322 217.337 229.165 216.557 231.011C214.857 235.045 213.054 239.228 209.742 242.092C207.329 244.182 204.383 245.063 201.65 246.562C198.917 248.061 195.62 248.734 192.638 249.535C189.496 250.382 184.704 252.341 181.709 250.224C180.923 249.669 180.286 248.935 179.658 248.207C178.775 247.183 177.888 246.16 177.005 245.136C176.228 244.237 175.445 243.329 174.9 242.272C173.867 240.264 173.809 237.778 174.747 235.725C175.064 235.033 175.491 234.375 175.649 233.631C175.78 233.019 175.722 232.382 175.67 231.761C175.369 228.272 175.198 224.747 175.561 221.256C175.899 217.99 176.676 214.367 178.546 211.61C180.774 208.328 184.393 205.912 188.205 204.895C188.869 204.718 189.542 204.581 190.191 204.356C192.12 203.682 193.774 202.259 195.358 201.01C198.027 198.905 199.962 196.075 202.055 193.439C204.148 190.804 206.418 187.94 208.831 185.365C210.379 183.717 211.99 182.13 213.663 180.609C215.086 182.94 216.685 185.298 218.26 187.528C218.961 188.519 219.674 189.5 220.335 190.517C221.137 191.751 221.856 193.034 222.596 194.307C224.451 197.5 226.337 200.821 228.433 203.862L228.427 203.865Z" fill="#FD9F88"/>
<path d="M238.701 190.47C238.689 191.308 238.741 193.651 239.71 194.178C240.901 194.824 244.399 191.661 245.599 190.363C245.66 190.296 248.195 190.433 251.668 186.47C251.668 186.47 251.909 187.371 252.418 188.17C252.872 188.883 253.938 189.181 254.465 189.041C255.873 188.672 258.136 184.501 258.538 182.713C258.843 181.376 260.638 168.141 255.799 163.616C252.472 160.502 247.241 158.641 247.241 158.641C248.576 157.02 250.781 154.893 252.774 155.585C254.922 156.331 255.483 158.903 257.688 162.458C258.377 163.571 259.742 164.966 260.991 164.561C262.651 164.021 262.265 158.589 260.178 153.909C258.477 150.092 253.7 146.216 250.571 145.832C247.485 145.452 243.366 150.595 235.38 154.181C235.38 154.181 233.251 154.424 231.77 155.457C228.352 157.846 227.684 161.453 223.724 167.111C220.016 172.406 216.375 177.57 211.93 182.323C216.579 190.275 221.588 198.017 226.935 205.515C227.154 205.822 227.06 205.685 227.27 206.002C227.965 204.461 228.982 203.09 230 201.737C232.827 197.977 235.752 194.132 238.701 190.467V190.47Z" fill="#FD9F88"/>
<path d="M287.996 133.466C292.057 132.131 296.53 131.641 300.957 132.043C302.688 132.201 304.446 132.503 306.003 133.243" stroke="black" stroke-width="0.298579" stroke-miterlimit="10"/>
<path d="M306.215 130.219C306.099 130.923 306.023 131.636 305.983 132.348C305.91 133.695 305.989 135.106 306.65 136.279" stroke="black" stroke-width="0.304672" stroke-miterlimit="10"/>
<path d="M287.653 130.594C287.796 131.295 287.903 132.001 287.97 132.711C288.098 134.052 288.076 135.466 287.461 136.666" stroke="black" stroke-width="0.304672" stroke-miterlimit="10"/>
</g>
<defs>
<clipPath id="clip0_417_12307">
<rect width="357.99" height="295.882" fill="white" transform="translate(115 32)"/>
</clipPath>
</defs>
</svg>
