<svg width="116" height="35" viewBox="0 0 116 35" fill="none" xmlns="http://www.w3.org/2000/svg">
<path d="M18.1873 10.4626C19.0423 10.8901 19.9923 11.1751 20.9898 11.1751V24C18.1873 24 16.4298 22.67 15.2899 20.96C13.7699 22.7175 11.4899 24 8.11742 24H0.37498V11.1751H8.11742C12.0124 11.1751 15.0999 7.89764 13.7699 5.90265L10.2549 0.582696L10.9199 0.2502L14.3874 5.09516V4.95266V5.09516L18.1873 10.4151V10.4626ZM50.4574 11.1751L50.9324 12.5051V22.765L50.4574 24H46.3249V26.0425C45.1849 30.0324 42.1924 34.9249 35.2575 34.9249C26.4701 34.9249 25.0926 26.0425 25.0926 26.0425V24H21.0076L20.5326 22.86V12.4576L21.0076 11.1751H25.0926H25.9476H50.4574ZM25.9476 26.0425H45.1849C45.8024 25.805 45.7549 24.3325 45.1849 24.0475H25.9476V26.0425ZM85.4701 9.18012V11.1751H90.6476V24H50.4629V11.1751L84.3302 11.1276C84.9001 10.8426 84.9476 9.41762 84.3302 9.18012H55.4504C55.3554 9.18012 59.1554 0.297699 69.6528 0.297699C77.5377 0.297699 84.3302 5.19016 85.4701 9.18012ZM104.931 0.2502C111.818 0.2502 114.811 5.14266 115.951 9.13262V24H90.6335L90.0635 22.3375V12.5526L90.6335 11.1751H94.7185V9.13262C94.7185 9.13262 96.096 0.2502 104.931 0.2502ZM95.5735 11.1276H114.811C115.381 10.8426 115.428 9.37012 114.811 9.13262H95.5735V11.1276Z" fill="#1636FF"/>
</svg>
