<svg width="1600" height="1200" viewBox="0 0 1600 1200" fill="none" xmlns="http://www.w3.org/2000/svg">
<path d="M179.637 457.023V624H141.683V511.272L126.522 624H99.6035L83.6174 513.851V624H45.6634V457.023H101.872C103.523 467.062 105.276 478.888 107.132 492.502L113.114 534.994L123.015 457.023H179.637ZM295.768 457.023V568.616C295.768 581.267 295.355 590.171 294.53 595.328C293.705 600.416 291.264 605.676 287.208 611.108C283.151 616.471 277.788 620.562 271.118 623.381C264.518 626.131 256.714 627.507 247.707 627.507C237.737 627.507 228.936 625.856 221.304 622.556C213.672 619.256 207.965 614.958 204.183 609.664C200.402 604.37 198.167 598.8 197.479 592.956C196.792 587.043 196.448 574.667 196.448 555.827V457.023H239.868V582.23C239.868 589.518 240.246 594.194 241.003 596.256C241.828 598.25 243.444 599.247 245.85 599.247C248.6 599.247 250.354 598.147 251.11 595.947C251.935 593.678 252.348 588.384 252.348 580.064V457.023H295.768ZM412.415 457.023V624H368.994V553.868H355.999V624H312.579V457.023H355.999V516.739H368.994V457.023H412.415ZM504.927 457.023L529.783 624H485.332L483.166 593.987H467.592L465.014 624H420.047L442.118 457.023H504.927ZM481.928 564.387C479.728 545.479 477.528 522.136 475.328 494.358C470.927 526.262 468.177 549.605 467.077 564.387H481.928ZM671.183 457.023V624H633.229V511.272L618.068 624H591.149L575.163 513.851V624H537.209V457.023H593.418C595.068 467.062 596.822 478.888 598.678 492.502L604.66 534.994L614.561 457.023H671.183ZM822.586 457.023V624H784.632V511.272L769.471 624H742.553L726.567 513.851V624H688.613V457.023H744.822C746.472 467.062 748.225 478.888 750.081 492.502L756.063 534.994L765.964 457.023H822.586ZM840.016 457.023H912.417V490.439H883.436V522.102H910.561V553.868H883.436V590.584H915.305V624H840.016V457.023ZM927.888 457.023H960.376C981.346 457.023 995.51 457.986 1002.87 459.911C1010.29 461.836 1015.93 464.999 1019.78 469.399C1023.63 473.8 1026.04 478.716 1027 484.148C1027.96 489.511 1028.45 500.099 1028.45 515.914V574.392C1028.45 589.381 1027.72 599.419 1026.28 604.507C1024.9 609.527 1022.46 613.48 1018.96 616.368C1015.45 619.187 1011.12 621.181 1005.96 622.35C1000.8 623.45 993.035 624 982.653 624H927.888V457.023ZM971.308 485.592V595.431C977.565 595.431 981.415 594.194 982.859 591.718C984.303 589.174 985.025 582.333 985.025 571.194V506.322C985.025 498.759 984.784 493.911 984.303 491.78C983.822 489.648 982.722 488.101 981.003 487.139C979.284 486.107 976.052 485.592 971.308 485.592ZM1181.6 518.492H1138.18V503.331C1138.18 493.774 1137.77 487.792 1136.94 485.385C1136.12 482.979 1134.16 481.776 1131.07 481.776C1128.38 481.776 1126.56 482.807 1125.6 484.87C1124.64 486.932 1124.16 492.227 1124.16 500.753V580.889C1124.16 588.384 1124.64 593.334 1125.6 595.741C1126.56 598.079 1128.49 599.247 1131.37 599.247C1134.54 599.247 1136.67 597.907 1137.77 595.225C1138.94 592.544 1139.52 587.318 1139.52 579.548V559.746H1130.76V534.375H1181.6V624H1154.27L1150.25 612.036C1147.29 617.193 1143.54 621.078 1139.01 623.691C1134.54 626.235 1129.24 627.507 1123.12 627.507C1115.84 627.507 1108.99 625.753 1102.6 622.247C1096.27 618.671 1091.46 614.271 1088.16 609.045C1084.86 603.82 1082.8 598.354 1081.97 592.647C1081.15 586.871 1080.74 578.242 1080.74 566.76V517.151C1080.74 501.2 1081.59 489.614 1083.31 482.394C1085.03 475.175 1089.95 468.574 1098.06 462.592C1106.24 456.542 1116.8 453.516 1129.72 453.516C1142.44 453.516 1153 456.129 1161.39 461.355C1169.78 466.58 1175.24 472.803 1177.79 480.022C1180.33 487.173 1181.6 497.59 1181.6 511.272V518.492ZM1297.73 554.796C1297.73 571.573 1297.32 583.468 1296.5 590.481C1295.74 597.425 1293.26 603.785 1289.07 609.561C1284.94 615.337 1279.34 619.771 1272.26 622.866C1265.18 625.96 1256.93 627.507 1247.51 627.507C1238.57 627.507 1230.52 626.063 1223.37 623.175C1216.29 620.218 1210.58 615.818 1206.25 609.974C1201.92 604.129 1199.34 597.769 1198.52 590.893C1197.69 584.018 1197.28 571.985 1197.28 554.796V526.227C1197.28 509.45 1197.66 497.59 1198.41 490.645C1199.24 483.632 1201.71 477.238 1205.84 471.462C1210.03 465.686 1215.67 461.252 1222.75 458.158C1229.84 455.063 1238.09 453.516 1247.51 453.516C1256.44 453.516 1264.45 454.995 1271.54 457.951C1278.69 460.839 1284.43 465.205 1288.76 471.049C1293.09 476.894 1295.67 483.254 1296.5 490.13C1297.32 497.005 1297.73 509.038 1297.73 526.227V554.796ZM1254.31 499.928C1254.31 492.158 1253.87 487.207 1252.97 485.076C1252.15 482.876 1250.39 481.776 1247.71 481.776C1245.44 481.776 1243.69 482.669 1242.45 484.457C1241.28 486.176 1240.7 491.333 1240.7 499.928V577.898C1240.7 587.593 1241.08 593.575 1241.83 595.844C1242.66 598.113 1244.51 599.247 1247.4 599.247C1250.36 599.247 1252.25 597.941 1253.08 595.328C1253.9 592.715 1254.31 586.493 1254.31 576.661V499.928ZM1314.03 457.023H1346.52C1367.49 457.023 1381.65 457.986 1389.01 459.911C1396.43 461.836 1402.07 464.999 1405.92 469.399C1409.77 473.8 1412.18 478.716 1413.14 484.148C1414.1 489.511 1414.59 500.099 1414.59 515.914V574.392C1414.59 589.381 1413.86 599.419 1412.42 604.507C1411.04 609.527 1408.6 613.48 1405.1 616.368C1401.59 619.187 1397.26 621.181 1392.1 622.35C1386.95 623.45 1379.18 624 1368.79 624H1314.03V457.023ZM1357.45 485.592V595.431C1363.71 595.431 1367.56 594.194 1369 591.718C1370.44 589.174 1371.17 582.333 1371.17 571.194V506.322C1371.17 498.759 1370.93 493.911 1370.44 491.78C1369.96 489.648 1368.86 488.101 1367.14 487.139C1365.42 486.107 1362.19 485.592 1357.45 485.592ZM1474.2 457.023V624H1430.78V457.023H1474.2ZM1535.05 457.023V590.584H1561.45V624H1491.63V457.023H1535.05Z" fill="#1636FF"/>
</svg>
