<svg width="1176" height="135" viewBox="0 0 1176 135" fill="none" xmlns="http://www.w3.org/2000/svg">
<path d="M103.854 2.71673V132.156H74.4327V44.7706L62.6801 132.156H41.813L29.4207 46.7693V132.156H-0.000972688V2.71673H43.5719C44.8511 10.4986 46.2103 19.6662 47.6494 30.2196L52.2865 63.1592L59.9617 2.71673H103.854ZM193.878 2.71673V89.2229C193.878 99.0302 193.559 105.933 192.919 109.93C192.279 113.874 190.387 117.952 187.243 122.162C184.098 126.32 179.94 129.491 174.77 131.677C169.654 133.809 163.604 134.875 156.622 134.875C148.893 134.875 142.071 133.595 136.154 131.037C130.238 128.479 125.814 125.147 122.883 121.043C119.951 116.939 118.219 112.622 117.686 108.091C117.153 103.507 116.886 93.9134 116.886 79.3091V2.71673H150.545V99.7764C150.545 105.426 150.839 109.051 151.425 110.65C152.064 112.195 153.317 112.968 155.183 112.968C157.315 112.968 158.674 112.115 159.26 110.41C159.9 108.651 160.219 104.547 160.219 98.0974V2.71673H193.878ZM284.302 2.71673V132.156H250.643V77.7901H240.569V132.156H206.91V2.71673H240.569V49.008H250.643V2.71673H284.302ZM356.018 2.71673L375.286 132.156H340.827L339.148 108.891H327.076L325.077 132.156H290.219L307.328 2.71673H356.018ZM338.189 85.945C336.483 71.2874 334.778 53.192 333.072 31.6587C329.661 56.39 327.529 74.4854 326.676 85.945H338.189ZM484.898 2.71673V132.156H455.476V44.7706L443.723 132.156H422.856L410.464 46.7693V132.156H381.042V2.71673H424.615C425.894 10.4986 427.253 19.6662 428.692 30.2196L433.33 63.1592L441.005 2.71673H484.898ZM602.265 2.71673V132.156H572.843V44.7706L561.09 132.156H540.223L527.831 46.7693V132.156H498.409V2.71673H541.982C543.261 10.4986 544.62 19.6662 546.059 30.2196L550.697 63.1592L558.372 2.71673H602.265ZM615.776 2.71673H671.901V28.6206H649.435V53.1654H670.462V77.7901H649.435V106.252H674.14V132.156H615.776V2.71673ZM683.894 2.71673H709.078C725.335 2.71673 736.315 3.46294 742.018 4.95534C747.774 6.44775 752.145 8.89956 755.13 12.3108C758.114 15.722 759.98 19.5329 760.726 23.7437C761.472 27.9011 761.845 36.1093 761.845 48.3683V93.7002C761.845 105.32 761.286 113.101 760.166 117.046C759.1 120.937 757.208 124.001 754.49 126.24C751.772 128.425 748.414 129.971 744.416 130.877C740.419 131.73 734.396 132.156 726.347 132.156H683.894V2.71673ZM717.553 24.863V110.01C722.403 110.01 725.388 109.051 726.507 107.132C727.627 105.16 728.186 99.8563 728.186 91.2217V40.933C728.186 35.07 728 31.3123 727.627 29.66C727.254 28.0077 726.401 26.8084 725.068 26.0622C723.736 25.2627 721.231 24.863 717.553 24.863ZM880.571 50.3671H846.912V38.6144C846.912 31.2057 846.593 26.5686 845.953 24.7031C845.313 22.8376 843.794 21.9048 841.396 21.9048C839.317 21.9048 837.905 22.7043 837.158 24.3033C836.412 25.9023 836.039 30.0064 836.039 36.6157V98.737C836.039 104.547 836.412 108.384 837.158 110.25C837.905 112.062 839.397 112.968 841.636 112.968C844.087 112.968 845.74 111.929 846.593 109.85C847.499 107.771 847.952 103.721 847.952 97.6977V82.3472H841.156V62.6794H880.571V132.156H859.385L856.267 122.882C853.975 126.88 851.07 129.891 847.552 131.916C844.087 133.889 839.983 134.875 835.24 134.875C829.59 134.875 824.286 133.515 819.33 130.797C814.426 128.025 810.695 124.614 808.136 120.563C805.578 116.513 803.979 112.275 803.339 107.851C802.7 103.374 802.38 96.685 802.38 87.7838V49.3278C802.38 36.9621 803.046 27.981 804.379 22.3845C805.711 16.788 809.522 11.6712 815.812 7.03405C822.154 2.34363 830.336 -0.00157596 840.356 -0.00157596C850.217 -0.00157596 858.399 2.02383 864.901 6.07465C871.404 10.1255 875.641 14.9491 877.613 20.5456C879.585 26.0889 880.571 34.1638 880.571 44.7706V50.3671ZM970.596 78.5096C970.596 91.5149 970.276 100.736 969.636 106.172C969.05 111.556 967.131 116.486 963.88 120.963C960.682 125.44 956.338 128.878 950.848 131.277C945.358 133.675 938.962 134.875 931.66 134.875C924.731 134.875 918.495 133.755 912.951 131.517C907.461 129.225 903.038 125.814 899.68 121.283C896.322 116.752 894.323 111.822 893.683 106.492C893.044 101.162 892.724 91.8347 892.724 78.5096V56.3634C892.724 43.3581 893.017 34.1638 893.603 28.7805C894.243 23.3439 896.162 18.387 899.36 13.9098C902.611 9.43256 906.982 5.9947 912.472 3.59619C917.962 1.19768 924.358 -0.00157596 931.66 -0.00157596C938.589 -0.00157596 944.798 1.14438 950.288 3.43629C955.831 5.67489 960.282 9.05946 963.64 13.59C966.998 18.1205 968.997 23.0508 969.636 28.3808C970.276 33.7108 970.596 43.0383 970.596 56.3634V78.5096ZM936.936 35.9761C936.936 29.9531 936.59 26.1155 935.897 24.4632C935.258 22.7576 933.898 21.9048 931.82 21.9048C930.061 21.9048 928.702 22.5977 927.742 23.9835C926.836 25.316 926.383 29.3135 926.383 35.9761V96.4185C926.383 103.934 926.676 108.571 927.262 110.33C927.902 112.089 929.341 112.968 931.58 112.968C933.872 112.968 935.337 111.955 935.977 109.93C936.617 107.905 936.936 103.081 936.936 95.4591V35.9761ZM983.228 2.71673H1008.41C1024.67 2.71673 1035.65 3.46294 1041.35 4.95534C1047.11 6.44775 1051.48 8.89956 1054.46 12.3108C1057.45 15.722 1059.31 19.5329 1060.06 23.7437C1060.81 27.9011 1061.18 36.1093 1061.18 48.3683V93.7002C1061.18 105.32 1060.62 113.101 1059.5 117.046C1058.43 120.937 1056.54 124.001 1053.82 126.24C1051.11 128.425 1047.75 129.971 1043.75 130.877C1039.75 131.73 1033.73 132.156 1025.68 132.156H983.228V2.71673ZM1016.89 24.863V110.01C1021.74 110.01 1024.72 109.051 1025.84 107.132C1026.96 105.16 1027.52 99.8563 1027.52 91.2217V40.933C1027.52 35.07 1027.33 31.3123 1026.96 29.66C1026.59 28.0077 1025.73 26.8084 1024.4 26.0622C1023.07 25.2627 1020.56 24.863 1016.89 24.863ZM1107.39 2.71673V132.156H1073.73V2.71673H1107.39ZM1154.56 2.71673V106.252H1175.03V132.156H1120.9V2.71673H1154.56Z" fill="#1636FF"/>
</svg>
