<svg width="354" height="166" viewBox="0 0 354 166" fill="none" xmlns="http://www.w3.org/2000/svg">
<path d="M50.5423 15.8329V75H37.0936V35.0558L31.7214 75H22.1831L16.5185 35.9695V75H3.06982V15.8329H22.9871C23.5718 19.39 24.1931 23.5806 24.8509 28.4046L26.9705 43.4613L30.4789 15.8329H50.5423ZM91.8752 50.478C91.8752 56.4227 91.729 60.6376 91.4367 63.1227C91.1687 65.5835 90.2916 67.8371 88.8054 69.8836C87.3436 71.9302 85.3579 73.5016 82.8485 74.598C80.339 75.6944 77.4154 76.2425 74.0776 76.2425C70.9103 76.2425 68.0598 75.7309 65.526 74.7076C63.0165 73.66 60.9943 72.1007 59.4594 70.0298C57.9245 67.9589 57.0109 65.7053 56.7185 63.2689C56.4261 60.8326 56.28 56.5689 56.28 50.478V40.3549C56.28 34.4102 56.414 30.2075 56.682 27.7468C56.9743 25.2617 57.8514 22.9959 59.3132 20.9493C60.7994 18.9028 62.7972 17.3313 65.3067 16.2349C67.8161 15.1386 70.7398 14.5904 74.0776 14.5904C77.2449 14.5904 80.0832 15.1142 82.5927 16.1619C85.1265 17.1851 87.1608 18.7322 88.6958 20.8031C90.2307 22.874 91.1443 25.1277 91.4367 27.564C91.729 30.0004 91.8752 34.264 91.8752 40.3549V50.478ZM76.4896 31.0358C76.4896 28.2828 76.3312 26.5286 76.0145 25.7733C75.7221 24.9937 75.1009 24.6039 74.1507 24.6039C73.3467 24.6039 72.7254 24.9206 72.2869 25.554C71.8727 26.1631 71.6656 27.9904 71.6656 31.0358V58.6642C71.6656 62.0995 71.7996 64.2191 72.0676 65.0231C72.3599 65.8271 73.0178 66.2291 74.041 66.2291C75.0887 66.2291 75.7587 65.7662 76.051 64.8404C76.3434 63.9146 76.4896 61.7096 76.4896 58.2256V31.0358ZM133.025 15.8329V75H117.64V50.1491H113.035V75H97.6494V15.8329H113.035V36.9928H117.64V15.8329H133.025ZM165.807 15.8329L174.614 75H158.863L158.096 64.3653H152.577L151.664 75H135.73L143.55 15.8329H165.807ZM157.657 53.8767C156.877 47.1767 156.098 38.9053 155.318 29.0624C153.759 40.3671 152.784 48.6386 152.394 53.8767H157.657ZM224.718 15.8329V75H211.269V35.0558L205.897 75H196.359L190.694 35.9695V75H177.245V15.8329H197.163C197.747 19.39 198.369 23.5806 199.026 28.4046L201.146 43.4613L204.654 15.8329H224.718ZM278.367 15.8329V75H264.918V35.0558L259.546 75H250.007L244.343 35.9695V75H230.894V15.8329H250.811C251.396 19.39 252.017 23.5806 252.675 28.4046L254.795 43.4613L258.303 15.8329H278.367ZM284.543 15.8329H310.198V27.6737H299.928V38.8931H309.54V50.1491H299.928V63.1593H311.221V75H284.543V15.8329ZM315.679 15.8329H327.191C334.622 15.8329 339.641 16.174 342.248 16.8562C344.879 17.5384 346.877 18.6591 348.241 20.2184C349.606 21.7777 350.458 23.5197 350.8 25.4444C351.141 27.3448 351.311 31.0968 351.311 36.7004V57.4216C351.311 62.7329 351.055 66.29 350.544 68.0929C350.056 69.8715 349.192 71.2724 347.949 72.2956C346.706 73.2945 345.172 74.0011 343.344 74.4153C341.517 74.8051 338.764 75 335.085 75H315.679V15.8329ZM331.065 25.956V64.8769C333.282 64.8769 334.646 64.4384 335.158 63.5613C335.67 62.6598 335.926 60.2356 335.926 56.2887V33.3017C335.926 30.6217 335.84 28.904 335.67 28.1488C335.499 27.3935 335.109 26.8453 334.5 26.5042C333.891 26.1388 332.746 25.956 331.065 25.956Z" fill="#1636FF"/>
<path d="M217.373 112.614H201.987V107.242C201.987 103.855 201.841 101.736 201.549 100.883C201.256 100.03 200.562 99.6039 199.465 99.6039C198.515 99.6039 197.87 99.9693 197.529 100.7C197.187 101.431 197.017 103.307 197.017 106.328V134.724C197.017 137.38 197.187 139.134 197.529 139.987C197.87 140.815 198.552 141.229 199.575 141.229C200.696 141.229 201.451 140.754 201.841 139.804C202.255 138.854 202.462 137.002 202.462 134.249V127.232H199.356V118.242H217.373V150H207.688L206.263 145.761C205.215 147.588 203.887 148.965 202.279 149.89C200.696 150.792 198.82 151.243 196.651 151.243C194.069 151.243 191.645 150.621 189.379 149.379C187.137 148.112 185.432 146.553 184.263 144.701C183.093 142.849 182.362 140.912 182.07 138.89C181.777 136.844 181.631 133.786 181.631 129.717V112.139C181.631 106.487 181.936 102.381 182.545 99.8231C183.154 97.2649 184.896 94.926 187.771 92.8064C190.67 90.6624 194.41 89.5904 198.99 89.5904C203.498 89.5904 207.237 90.5162 210.21 92.3679C213.182 94.2195 215.119 96.4244 216.021 98.9826C216.922 101.516 217.373 105.207 217.373 110.056V112.614ZM258.523 125.478C258.523 131.423 258.377 135.638 258.084 138.123C257.816 140.583 256.939 142.837 255.453 144.884C253.991 146.93 252.006 148.502 249.496 149.598C246.987 150.694 244.063 151.243 240.725 151.243C237.558 151.243 234.707 150.731 232.174 149.708C229.664 148.66 227.642 147.101 226.107 145.03C224.572 142.959 223.659 140.705 223.366 138.269C223.074 135.833 222.928 131.569 222.928 125.478V115.355C222.928 109.41 223.062 105.207 223.33 102.747C223.622 100.262 224.499 97.9959 225.961 95.9493C227.447 93.9028 229.445 92.3313 231.954 91.2349C234.464 90.1386 237.387 89.5904 240.725 89.5904C243.892 89.5904 246.731 90.1142 249.24 91.1619C251.774 92.1851 253.808 93.7322 255.343 95.8031C256.878 97.874 257.792 100.128 258.084 102.564C258.377 105 258.523 109.264 258.523 115.355V125.478ZM243.137 106.036C243.137 103.283 242.979 101.529 242.662 100.773C242.37 99.9937 241.749 99.6039 240.798 99.6039C239.994 99.6039 239.373 99.9206 238.935 100.554C238.52 101.163 238.313 102.99 238.313 106.036V133.664C238.313 137.099 238.447 139.219 238.715 140.023C239.008 140.827 239.665 141.229 240.689 141.229C241.736 141.229 242.406 140.766 242.699 139.84C242.991 138.915 243.137 136.71 243.137 133.226V106.036ZM264.297 90.8329H275.809C283.24 90.8329 288.259 91.174 290.866 91.8562C293.497 92.5384 295.495 93.6591 296.859 95.2184C298.223 96.7777 299.076 98.5197 299.417 100.444C299.758 102.345 299.929 106.097 299.929 111.7V132.422C299.929 137.733 299.673 141.29 299.161 143.093C298.674 144.871 297.809 146.272 296.567 147.296C295.324 148.295 293.789 149.001 291.962 149.415C290.135 149.805 287.382 150 283.703 150H264.297V90.8329ZM279.683 100.956V139.877C281.9 139.877 283.264 139.438 283.776 138.561C284.287 137.66 284.543 135.236 284.543 131.289V108.302C284.543 105.622 284.458 103.904 284.287 103.149C284.117 102.393 283.727 101.845 283.118 101.504C282.509 101.139 281.364 100.956 279.683 100.956ZM321.052 90.8329V150H305.666V90.8329H321.052ZM342.614 90.8329V138.159H351.97V150H327.228V90.8329H342.614Z" fill="#1636FF"/>
</svg>
