<svg width="44" height="67" viewBox="0 0 44 67" fill="none" xmlns="http://www.w3.org/2000/svg">
<g clip-path="url(#clip0_235_5253)">
<path d="M1.28883 7.77235C1.33609 8.8249 1.40912 9.89892 1.34468 10.741C1.31461 11.1276 1.50793 11.9009 1.41342 12.2274C1.35757 12.4293 1.29313 12.6141 1.23728 12.8546C1.16854 13.164 1.22439 13.6709 1.4263 14.3669C1.53371 14.7449 1.65829 15.0542 1.61104 15.4581C1.56378 15.8576 1.55948 16.313 1.67548 16.9531C1.77859 17.5159 1.83873 18.083 1.92895 18.6458C2.11798 19.7842 1.7657 20.317 2.0922 21.6745C2.33278 22.6369 2.28982 23.5605 2.34137 24.4756C2.40152 25.5281 2.44878 26.5678 2.48315 27.5988C2.49174 27.8437 2.44448 28.0542 2.40582 28.2476C2.31989 28.6815 2.37145 29.1798 2.48744 29.7555C2.69365 30.8166 2.90846 31.8949 3.11897 32.9733C3.20919 33.433 3.13615 33.5575 2.87839 33.3986C2.6464 33.2568 2.55188 33.5146 2.66788 34C2.82683 34.6616 2.96431 35.3361 3.16622 35.9548C3.49273 36.9729 3.45406 37.7376 3.27363 38.5109C3.20059 38.8203 3.15334 39.1725 3.12756 39.5334C3.11038 39.7697 3.23496 39.9544 3.35096 40.1735C3.59154 40.6246 3.6345 40.8523 3.49273 41.1359C3.192 41.7502 3.0846 42.545 3.15334 43.5116C3.22207 44.431 3.24355 45.3675 3.49273 46.2568C3.60872 46.6735 3.60013 47 3.47554 47.3008C3.27363 47.7776 3.07601 48.2416 2.87409 48.7185C2.78387 48.9419 2.80535 49.191 2.88268 49.4617C3.02016 49.9429 3.16193 50.4455 3.29511 50.931C3.49273 51.5883 3.27792 51.8288 3.06312 52.1253C2.94712 52.2885 3.01157 52.499 3.18771 52.6709C3.37673 52.8513 3.57865 53.0189 3.7419 53.2723C4.08129 53.8136 4.21018 54.7674 4.05552 55.4333C3.97389 55.7813 3.89227 56.1378 3.77197 56.4343C3.58295 56.8939 3.49273 57.4095 3.49702 57.9852L2.11368 57.4954C2.17383 57.431 2.23827 57.3579 2.29841 57.2849L5.14673 53.8953C5.75248 53.1864 6.35393 52.4389 7.09716 51.9277C7.88764 51.3821 8.42035 50.6947 8.807 49.8655C9.11632 49.2039 9.4729 48.5509 9.68341 47.8936C9.97125 46.9914 10.0185 46.97 11.0496 46.5275C11.2944 46.4244 11.3976 46.2912 11.4276 46.0291C11.4491 45.8487 11.505 45.505 11.5565 45.4706C12.3685 44.9379 13.0902 44.0443 13.9151 43.546L15.4874 42.6008L15.6979 43.7479C15.7194 43.8768 15.7366 44.0014 15.7409 44.1259C15.771 44.7274 16.149 44.9594 16.5099 45.0711C16.6989 45.1312 16.8278 45.3374 16.888 45.6382C16.9395 45.9174 17.077 46.0936 17.2703 46.2826C18.0694 47.0602 18.5334 48.3189 19.311 49.1395C19.5601 49.7452 19.7664 50.3682 20.0628 50.9524C20.5439 51.9105 21.081 52.8255 21.3044 53.848C21.3645 54.1187 21.6996 54.5483 21.9359 54.7889C22.3354 55.1927 22.2839 55.7598 22.6576 56.1507C23.0958 56.6061 23.0271 57.0486 23.1044 57.4954C23.1689 57.852 23.2419 58.1871 23.5555 58.5093C24.0023 58.9647 24.2558 59.6091 24.5952 60.1762C24.9432 60.7604 24.9947 61.465 25.4329 61.9247C25.9355 62.4574 26.2792 63.2049 26.7475 63.7634L24.6897 63.2307C24.8014 63.119 24.9045 63.0116 24.9904 62.8913C25.3255 62.4402 25.8196 62.277 26.2363 62.3027C26.9065 62.3414 27.5638 61.9977 28.2254 61.465C28.9256 60.9022 29.5314 60.2707 30.4422 59.8883C30.7257 59.768 31.0092 59.39 31.3057 59.1365C31.5377 58.9389 31.7739 58.7284 32.0188 58.5479L31.5591 60.3953C31.5162 60.3265 31.4732 60.2535 31.4346 60.1848C31.0436 59.4759 31.0178 58.7069 30.5324 58.0238C30.0856 57.388 29.5786 56.8252 29.1276 56.1937C28.8268 55.7684 28.5691 55.2829 28.3027 54.8146C27.7098 53.7707 27.0311 52.7396 26.842 51.6097C26.5843 51.1501 26.3909 50.6173 25.9957 50.3037C25.4973 49.9128 25.1751 49.3973 24.999 48.7314C24.9689 48.6111 24.9303 48.4478 24.8658 48.3705C24.3589 47.7776 23.8777 47.1805 23.6973 46.3771C23.3278 45.8315 23.0271 45.2816 22.7908 44.6544C22.5674 44.0529 21.9488 43.6877 21.7554 43.0175C21.6352 42.6008 21.4289 42.27 21.1798 41.9607L19.6547 40.0704L22.5674 39.7869C22.6791 39.774 22.7951 39.7611 22.9068 39.7439C23.4223 39.6666 23.9422 39.7224 24.4749 39.8341C24.8443 39.9158 25.2825 40.0146 25.6305 39.9845C27.6196 39.8084 29.5572 39.9201 31.5291 40.384C32.2637 40.5559 33.1315 40.6547 33.9005 40.5344C34.5492 40.4313 34.8242 40.5988 35.1335 40.8566C35.2925 40.9898 35.4901 40.9253 35.7135 40.7922C36.3536 40.4184 36.6586 40.4184 37.2472 40.7707C37.5092 40.9296 37.6424 41.1444 38.1837 41.08C38.841 41.0027 39.5026 40.9769 40.1771 41.1402L39.0558 43.4944C38.9957 43.3999 38.9355 43.3054 38.8797 43.2023C38.7207 42.9101 38.4114 42.4934 38.1622 42.3431C37.5952 41.9951 37.2386 41.5741 36.8648 41.0113C36.3622 40.2552 35.7435 39.585 34.9702 39.1811C34.3473 38.8546 33.8189 38.2446 33.2905 37.6689C32.6074 36.9257 32.0962 35.9548 31.2498 35.4177C31.1639 35.3662 31.0608 35.2287 30.9964 35.1256C30.2231 33.8497 29.2951 32.8014 28.1738 32.1226C27.9289 31.9723 27.5981 31.5985 27.4048 31.2892C26.7475 30.2324 26.0172 29.3474 25.1322 28.7975C24.9689 28.6986 24.7412 28.4624 24.6166 28.2604C23.5813 26.5936 22.271 25.3907 21.0638 24.0889C20.0929 23.045 19.1434 21.9924 18.2069 20.8153C17.9534 20.4931 17.7171 20.1881 17.4465 19.9733C16.7376 19.4105 16.0674 18.62 15.3972 17.6534C14.9762 17.0476 14.5251 16.5536 14.117 16.2314C13.4253 15.6901 12.7809 14.9254 12.072 13.9373C11.7455 13.4819 11.3718 13.005 11.0324 12.6355C10.1603 11.6818 9.24091 10.5047 8.39458 9.67552C7.53965 8.83349 6.6117 7.62629 5.75248 6.74129C5.24554 6.21716 4.82452 5.90785 4.24884 5.17751C3.67316 4.45147 3.1963 3.9789 2.68936 3.44618C2.24256 2.97361 1.77429 2.3249 1.3232 1.74922C0.829147 1.12199 0.378057 0.206922 0.62723 0.322917C0.644415 0.331509 0.790482 0.507649 0.85922 0.597867C0.945142 0.709566 1.00958 0.812672 1.08262 0.920075C1.29742 1.23799 1.51652 1.46998 1.47786 1.3368C1.30601 0.761119 1.85162 1.2208 2.71513 2.12298C3.18771 2.61703 3.65598 3.07672 4.14144 3.67387C4.54527 4.16793 4.88466 4.5245 5.20258 4.7522C5.58493 5.02715 6.07468 5.48683 6.54725 6.04102C8.09815 7.86687 9.5846 9.35761 11.0968 10.9601C11.5651 11.4584 12.0334 11.9696 12.5016 12.4852C12.6821 12.6871 12.8797 12.9792 13.0387 13.1124C14.8817 14.6934 16.7977 16.8586 18.688 18.663C19.2594 19.2043 19.805 19.6811 20.385 20.1236C21.3387 20.8497 22.3354 21.7948 23.1474 23.0794C23.4438 23.5476 23.8133 23.9944 24.1226 24.4584C24.3718 24.8322 24.6295 25.12 24.9303 25.3477C26.3179 26.4045 27.6411 27.8781 29.0159 29.1283C30.0727 30.0906 30.8761 31.1216 31.3229 32.3331C31.4131 32.5737 31.6365 32.7069 31.8169 32.6554C32.1348 32.5694 32.5344 32.8057 32.9253 33.231C33.385 33.7337 33.8189 34.275 34.2442 34.8077C34.5836 35.233 34.8886 35.6798 35.2237 36.1051C35.6619 36.6593 36.1517 37.0932 36.693 37.3682C37.2558 37.6517 37.7283 38.1028 38.0849 38.7043C38.7079 39.7697 39.4854 40.6289 40.5036 41.3034C40.6798 41.4194 40.8473 41.544 41.0106 41.6729L43.3777 43.5503L39.9924 43.808C39.0215 43.8811 38.0634 43.7565 37.0968 43.4944C36.0743 43.2152 35.0347 43.1464 33.9907 43.3526C33.2217 43.503 32.4313 43.3913 31.6537 43.1851C31.2885 43.0863 30.8331 42.923 30.5367 42.9617C29.8493 43.0519 29.3209 43.1593 29.2178 42.6008C29.1963 42.4762 28.9987 42.3474 28.8827 42.2228C28.7624 42.3345 28.6249 42.4376 28.5175 42.5536C28.4101 42.6696 28.3843 42.8285 28.2168 42.9101C28.0535 42.9918 27.7442 43.0605 27.5251 43.0304C26.8764 42.9488 26.2449 42.7555 25.6047 42.7211C24.956 42.6825 24.3073 42.8113 23.6457 42.807C23.2333 42.807 22.735 42.7984 22.3569 42.7168L23.7488 40.5344C23.7875 40.6332 23.8176 40.7234 23.8348 40.8051C24.0367 41.7717 24.7928 42.3517 25.1408 43.2023C25.4372 43.9197 25.8239 44.6415 26.2062 45.3417C26.6573 46.1666 27.1471 46.9485 27.7915 47.5628C28.1394 47.8936 28.3843 48.4177 28.6163 48.9075C28.8741 49.4531 28.9213 49.8483 28.7194 50.119C28.5862 50.2951 28.423 50.4283 28.2855 50.6002C28.2426 50.6517 28.2168 50.7548 28.234 50.8536C28.2597 51.0341 28.4101 51.1587 28.5948 51.1157C28.8741 51.0513 29.1233 50.931 29.3982 50.8622C29.5872 50.815 30.0211 51.193 30.0942 51.498C30.3992 52.7654 31.1038 53.9039 31.8126 55.0337C32.1649 55.5922 32.6074 56.0777 32.9468 56.6405C33.2088 57.083 33.342 57.6071 33.5869 58.0711C33.7459 58.3761 34.1712 58.6081 34.1411 58.9604L33.9478 61.0483L33.6213 61.0354H33.5998C33.1315 60.9967 32.8437 61.1557 32.4012 61.581C31.8771 62.0879 31.4775 62.6679 30.6527 63.046C30.0985 63.2994 29.6646 63.7978 29.0201 64.077C28.3285 64.382 27.5767 64.8288 26.9752 65.31C26.7604 65.4818 26.5327 65.6193 26.3007 65.7396L24.6983 66.5774L24.1054 65.1682C23.8476 64.5539 23.693 63.931 23.302 63.4154C22.7779 62.7238 22.6061 62.0106 22.3053 61.2889C21.734 59.9313 21.0466 58.6468 20.1014 57.5427C19.1649 56.4472 18.456 55.1497 18.0007 53.7578C17.6699 52.7439 17.2059 51.8245 16.6603 50.8794C15.9256 49.6078 15.1395 48.3361 14.7313 46.9399C14.611 46.5318 14.3619 46.2611 14.1513 45.9346C13.9322 45.5952 13.7131 45.2515 13.5026 44.9078L15.7667 45.1699C14.7958 46.4286 13.7561 47.6144 12.4931 48.6111C12.0162 48.9848 11.5694 49.5691 11.157 50.0846C10.7488 50.6045 10.4052 51.1587 10.0314 51.7C8.88863 52.5463 8.0423 53.8738 6.90383 54.7158C6.67184 54.8877 6.53007 55.038 6.40548 55.2829C6.23364 55.6094 6.0532 55.9789 5.79973 56.2495C5.03932 57.0744 4.37343 57.9895 3.6388 58.8401L1.57237 61.2373L1.4263 58.0539C1.39194 57.2935 1.39623 56.5331 1.50363 55.7813C1.40482 54.9908 1.27594 54.2003 1.2115 53.3969C1.0998 52.0265 1.08691 50.6302 0.919365 49.2727C0.816259 48.4392 0.794778 47.6874 0.790482 46.8668C0.78189 44.6715 0.678784 42.4505 0.622934 40.2337C0.562789 38.0212 0.498347 35.8001 0.468275 33.5962C0.459683 32.9174 0.50694 32.2601 0.549901 31.62C0.588566 31.0916 0.614342 30.5503 0.50694 29.9875C0.287839 28.8189 0.266358 27.7191 0.236285 26.5979C0.163252 23.3844 0.085922 20.1752 0.0128883 16.9617C-0.0085922 15.8447 0.120291 14.9812 0.0601454 13.7998C0.0171844 12.8589 0 11.8408 0.111699 11.1233L0.0257766 3.35167L0 0.924371C0 0.503353 0.0343688 0.232699 0.0988103 0.155369C0.184732 0.0565589 0.270654 -0.0207709 0.360872 0.00500569C0.399537 0.0135979 0.481163 0.271364 0.511236 0.481873C0.721745 1.92966 0.910773 3.429 1.06973 4.87249C1.18143 5.86488 1.2158 6.81003 1.28883 7.77235Z" fill="#1636FF"/>
</g>
<defs>
<clipPath id="clip0_235_5253">
<rect width="43.3734" height="66.5895" fill="white"/>
</clipPath>
</defs>
</svg>
