<svg width="86" height="107" viewBox="0 0 86 107" fill="none" xmlns="http://www.w3.org/2000/svg">
<g clip-path="url(#clip0_235_5247)">
<path d="M42.4063 76.4752C42.1722 76.6587 41.9621 76.8518 41.6411 76.9749C41.4962 77.0305 41.5324 77.2043 41.3248 77.2333C41.1969 77.2526 41.0665 77.2646 40.9434 77.2912C40.7816 77.325 40.7189 77.4191 40.7696 77.5833C40.7961 77.6726 40.8517 77.7547 40.6923 77.8078C40.533 77.8609 40.4147 77.9333 40.3664 78.0685C40.3254 78.1868 40.2361 78.2955 40.1757 78.4138C40.0502 78.6527 39.5867 78.6383 39.5311 78.9521C39.4901 79.179 39.2076 79.3166 39.0145 79.4808C38.79 79.6691 38.5607 79.8525 38.3241 80.0312C38.2686 80.0722 38.1817 80.0915 38.1068 80.1109C37.9402 80.1543 37.8558 80.2509 37.7906 80.3812C37.6699 80.6275 37.5299 80.8689 37.3922 81.1127C37.3319 81.2189 37.2546 81.2141 37.1388 81.1006C37.035 80.9968 36.9167 81.0065 36.8684 81.1248C36.8008 81.2865 36.7163 81.4434 36.6753 81.6148C36.6053 81.8973 36.388 82.0108 36.1104 82.0687C35.9993 82.0928 35.8907 82.1315 35.7893 82.1797C35.7241 82.2111 35.741 82.2884 35.7458 82.368C35.7531 82.5322 35.7169 82.5853 35.5841 82.5781C35.2944 82.5636 35.0626 82.6481 34.8695 82.8315C34.686 83.0054 34.4808 83.1647 34.377 83.4085C34.3288 83.522 34.2467 83.5727 34.1284 83.5678C33.9425 83.5582 33.7566 83.5461 33.5707 83.5365C33.4862 83.5316 33.438 83.5775 33.4066 83.6523C33.3511 83.7875 33.281 83.9155 33.2255 84.0507C33.1459 84.2341 33.0107 84.1762 32.8658 84.1279C32.7862 84.1014 32.762 84.1593 32.7837 84.2607C32.8079 84.3717 32.8393 84.4852 32.8368 84.5938C32.8272 84.8232 32.6389 85.026 32.4265 85.0501C32.3178 85.0646 32.2044 85.0767 32.0933 85.0622C31.8978 85.038 31.7264 85.0791 31.5743 85.1901C31.2508 85.4243 30.9297 85.6585 30.5917 85.8733C30.3793 86.0109 30.1644 86.1582 29.8989 86.1654C29.6309 86.1582 29.474 86.3151 29.3171 86.5686C29.1843 86.7665 29.0322 86.979 28.6605 87.1745C28.6291 87.1914 28.5977 87.2059 28.5663 87.218C28.5301 87.2276 28.4939 87.2373 28.4601 87.2445C28.3901 87.259 28.3297 87.2687 28.2645 87.2662C28.1318 87.2566 28.0135 87.23 27.9145 87.1649C27.8179 87.1021 27.7069 87.0055 27.6538 86.8896C27.6224 86.8293 27.591 86.7617 27.5669 86.6869C27.5548 86.6193 27.5476 86.5468 27.5427 86.4648C27.5355 86.3827 27.5427 86.3489 27.5234 86.3127C27.5065 86.2789 27.4727 86.2523 27.4172 86.2258C27.3424 86.1896 27.2144 86.0978 27.2168 86.0713C27.2699 85.615 27.2555 85.1443 27.5548 84.8932C27.7214 84.7556 27.6224 84.6325 27.4945 84.519C27.4269 84.4611 27.4341 84.3911 27.5041 84.321C27.5693 84.2607 27.5645 84.1955 27.5355 84.1158C27.4269 83.7851 27.5886 83.534 27.48 83.2009C27.55 83.0416 27.6441 82.8871 27.6852 82.7205C27.7528 82.4477 27.7817 82.1701 27.9869 81.9383C28.04 81.878 28.0159 81.7283 27.9773 81.6342C27.9121 81.4772 28.1076 81.3855 28.0497 81.2358C27.9821 81.062 28.1487 80.9944 28.2428 80.8979C28.3201 80.8182 28.3877 80.7434 28.337 80.6178C28.2645 80.4416 28.337 80.2702 28.349 80.0964C28.3611 79.9153 28.547 79.7753 28.4794 79.6015C28.3853 79.3601 28.4939 79.1042 28.3587 78.8676C28.2718 78.7131 28.3635 78.5948 28.5156 78.5272C28.757 78.421 28.827 78.2327 28.8101 78.0058C28.7932 77.7644 28.7136 77.5254 28.8488 77.2864C28.8898 77.2115 28.815 77.0812 28.8005 76.9774C28.786 76.8736 28.7667 76.7649 28.7812 76.6635C28.8125 76.4535 29.0346 76.3014 29.0153 76.0745C28.9984 75.8669 28.9308 75.6593 28.9115 75.4516C28.8995 75.3116 28.926 75.1692 28.9429 75.0268C28.9815 74.7105 28.9719 74.3822 29.2278 74.1287C29.2471 73.9911 29.3171 73.8511 29.2229 73.7135C29.1071 73.5421 29.1119 73.3804 29.2302 73.2186C29.2519 73.1896 29.2833 73.151 29.2761 73.1245C29.2157 72.912 29.1722 72.7044 29.3292 72.5137C29.3195 72.3375 29.3437 72.1733 29.4257 72.0067C29.503 71.8474 29.3219 71.6591 29.433 71.4901C29.5223 71.3573 29.503 71.2222 29.4547 71.0821C29.4064 70.9397 29.433 70.8214 29.4885 70.6862C29.5295 70.5945 29.5802 70.4834 29.5585 70.3917C29.4306 69.8654 29.4571 69.3247 29.7251 68.7839C29.8265 68.5811 29.8892 68.3421 29.8458 68.0983C29.8047 67.8907 29.9158 67.8231 30.0679 67.7676C30.1451 67.7386 30.1234 67.671 30.0655 67.5817C29.8989 67.3282 29.9303 67.2196 30.1669 67.1085C30.2731 67.0627 30.4034 67.0578 30.4083 66.8985C30.4203 66.8671 30.4372 66.8309 30.4759 66.773C30.5193 66.715 30.57 66.6257 30.7656 66.5195C30.8235 66.4929 30.8718 66.4736 30.9418 66.4567C30.978 66.4495 31.0142 66.4447 31.0504 66.4398C31.0818 66.4374 31.1397 66.4398 31.1228 66.4374H31.1325L31.1518 66.4278C31.1784 66.4205 31.2049 66.4133 31.2315 66.406C31.2846 66.394 31.3401 66.3867 31.3932 66.3867C31.5019 66.3867 31.6129 66.4084 31.7215 66.476C31.8109 66.5291 31.9533 66.5726 32.0378 66.5388C32.2333 66.4567 32.3951 66.4929 32.5785 66.5823C32.8248 66.7006 33.0783 66.7561 33.3679 66.6547C33.6045 66.5774 33.8484 66.6619 34.0849 66.7512C34.3964 66.8671 34.616 67.1423 34.9854 67.1906C35.0216 67.1954 35.0675 67.2292 35.094 67.263C35.1689 67.3668 35.2509 67.4537 35.3282 67.5455C35.4054 67.6348 35.4948 67.7193 35.5672 67.7821C35.7217 67.9148 35.9028 68.0138 36.1273 68.079C36.2262 68.1056 36.3276 68.2166 36.3687 68.3156C36.5063 68.6536 36.6849 68.9119 37.0325 69.0471C37.0977 69.0712 37.1653 69.1412 37.1822 69.2064C37.3343 69.7351 37.7206 70.0779 38.0368 70.4641C38.1261 70.5728 38.213 70.6838 38.2975 70.7949L37.117 70.6404C37.4309 70.3965 37.8026 70.2565 38.1575 70.2324C38.3072 70.2203 38.44 70.23 38.5824 70.1793C38.959 70.0489 39.3622 70.1213 39.6687 70.3458C39.8595 70.4834 40.0502 70.5655 40.2674 70.5872C40.6296 70.6259 40.8975 70.8214 41.0689 71.1014C41.1486 71.2318 41.2476 71.3598 41.3634 71.4443C41.658 71.6639 41.8607 71.9874 42.1866 72.183C42.5222 72.3858 42.6839 72.7551 42.9664 73.0303C43.1306 73.1945 43.3865 73.3055 43.4444 73.5711C43.5023 73.827 43.6472 74.0225 43.763 74.2615C43.8089 74.3701 43.821 74.4788 43.8017 74.5874C43.7824 74.7081 43.7534 74.7588 43.7244 74.9785C43.681 75.1837 43.5216 75.2392 43.384 75.1958C43.244 75.1571 43.0943 75.0557 42.9978 75.0123C42.9857 75.0075 42.9978 74.9881 43.0147 74.9737C43.034 74.9592 43.0702 74.9447 43.0992 74.923C43.1764 74.8505 43.1595 74.766 43.0654 74.7805C42.6622 74.8361 42.527 74.696 42.4256 74.4522C42.3653 74.317 42.2808 74.1963 42.2663 74.0297C42.2591 73.8897 42.1818 73.7932 42.0442 73.7473C41.8776 73.6942 41.7497 73.588 41.6797 73.4407C41.4576 72.9458 40.9941 72.6103 40.5837 72.2457L40.2071 71.9126C40.1588 71.8716 40.1298 71.7895 40.0743 71.775C39.7508 71.6808 39.466 71.5674 39.1883 71.5046C38.9131 71.4418 38.6138 71.4249 38.3772 71.5239C38.2372 71.5843 38.1285 71.676 38.0803 71.804L38.061 71.8498L37.8702 72.2988L37.0688 71.7195C36.8032 71.5263 36.6004 71.2753 36.5521 70.9228C36.5328 70.7828 36.4677 70.6524 36.4363 70.5148C36.4121 70.4038 36.3542 70.3217 36.2625 70.2662C35.8352 70.0103 35.5455 69.6168 35.1616 69.344C34.8695 69.1364 34.7005 68.8781 34.6909 68.4966C34.686 68.4194 34.6136 68.4121 34.5315 68.4749C34.3891 68.5835 34.2732 68.586 34.167 68.5232C34.0463 68.4435 33.928 68.3494 33.7977 68.2601C33.6987 68.1876 33.5997 68.1031 33.4887 68.0355C33.3414 67.9511 33.1748 67.9414 33.0131 68.0211C32.8441 68.1056 32.6944 68.0983 32.552 67.9848C32.2985 67.7869 32.0016 67.741 31.6974 67.8762C31.5453 67.9438 31.4005 67.9704 31.2532 67.9631C31.217 67.9631 31.1808 67.9583 31.1422 67.9511L31.0866 67.9414H31.0842C31.0721 67.9414 31.1204 67.9414 31.1397 67.9414C31.1663 67.9414 31.1928 67.9366 31.2194 67.9317C31.2749 67.9221 31.3184 67.91 31.357 67.8955C31.3956 67.881 31.4439 67.8569 31.4681 67.8424C31.5236 67.811 31.5743 67.7676 31.5984 67.7434C31.6322 67.7096 31.6491 67.6903 31.666 67.6686C31.7239 67.5865 31.7288 67.5576 31.7384 67.5382C31.7433 67.5213 31.7433 67.5117 31.7336 67.531L31.7215 67.5576L31.7022 67.5962C31.7022 67.5962 31.6998 67.601 31.6974 67.6034L31.6877 67.6131L31.6515 67.6493C31.6274 67.6734 31.5984 67.6976 31.5719 67.7193C31.3739 67.8859 31.2967 68.1369 31.3908 68.4097C31.4608 68.6101 31.3908 68.7839 31.2798 68.9626C31.2242 69.0446 31.1349 69.1509 31.1566 69.2281C31.2122 69.4092 31.2773 69.5468 30.9683 69.5492C30.8983 69.5492 30.8307 69.5951 30.7607 69.6192C30.8235 69.6554 30.8838 69.6964 30.949 69.7278C31.0166 69.7616 31.1035 69.7737 31.1542 69.822C31.2025 69.8678 31.246 69.9523 31.2315 70.0079C31.1953 70.1744 31.0987 70.3386 31.0866 70.51C31.0746 70.6838 31.1542 70.8673 31.1591 71.0508C31.1591 71.2004 31.159 71.3767 31.0746 71.4708C30.8766 71.6953 31.0577 71.9536 30.9659 72.1854C30.8887 72.3809 30.8525 72.5958 30.8211 72.8058C30.7849 73.052 30.7776 73.2983 30.8959 73.5421C30.9611 73.6725 30.9176 73.8221 30.8766 73.9622C30.8331 74.1167 30.7342 74.2036 30.5604 74.218C30.4445 74.2277 30.3262 74.2205 30.2103 74.2277C30.1741 74.2277 30.1331 74.2446 30.1089 74.2663C30.0679 74.3074 30.0993 74.3605 30.1982 74.387C30.3479 74.4281 30.5024 74.4546 30.6521 74.4933C30.7535 74.5198 30.8452 74.6791 30.7873 74.7516C30.5459 75.0557 30.5338 75.413 30.5241 75.7679C30.5193 75.9441 30.5821 76.1252 30.5676 76.299C30.5579 76.4342 30.4614 76.5621 30.4324 76.6997C30.4131 76.7915 30.5483 76.9242 30.4131 76.9846C30.2393 77.0594 30.2127 77.1439 30.2562 77.3129C30.3069 77.5133 30.4324 77.7064 30.3262 77.9309C30.2538 78.083 30.3286 78.2641 30.2393 78.4379C30.1427 78.6238 30.0896 78.8507 30.0993 79.0607C30.1113 79.3263 29.8772 79.5194 29.9182 79.7681C29.9568 80.0071 29.8241 80.176 29.7516 80.3764C29.614 80.7506 29.5464 81.132 29.6575 81.5376C29.7613 81.9383 29.7009 82.3318 29.4861 82.6843C29.3316 82.9402 29.2664 83.2081 29.2278 83.4978L29.1916 83.7924L29.1698 83.9396C29.1602 83.9951 29.1481 84.0483 29.1336 84.1014C29.0805 84.3114 29.0008 84.49 28.8777 84.6445C28.8053 84.7339 28.8343 84.8304 28.8343 84.9222C28.8343 85.1587 28.8488 85.3567 28.8536 85.5136C28.8608 85.5884 28.856 85.6609 28.8536 85.7285C28.8488 85.7647 28.8536 85.7985 28.8439 85.8371C28.827 85.8323 28.8029 85.8419 28.7522 85.8202C28.6991 85.8057 28.6049 85.7743 28.5663 85.7719C28.518 85.7719 28.5398 85.7623 28.5663 85.7429C28.6315 85.7019 28.7208 85.586 28.8198 85.4726C28.9091 85.4677 28.9984 85.4364 29.0926 85.3929C29.1916 85.3446 29.2905 85.2939 29.3895 85.2432C29.5585 85.1587 29.7275 85.0718 29.9254 85.0549C30.0051 85.0477 30.0534 85.0211 30.0944 84.956C30.15 84.8666 30.2055 84.7628 30.2876 84.717C30.71 84.4828 31.019 84.0724 31.5188 83.9541C31.6612 83.8044 31.7915 83.6427 31.9412 83.5075C32.1971 83.2733 32.4916 83.0754 32.7161 82.8098C32.8513 82.6481 32.9986 82.5298 33.17 82.4091C33.6238 82.0808 34.027 81.7138 34.4543 81.3614C34.8792 81.0089 35.2968 80.654 35.7289 80.3112C35.8617 80.205 36.021 80.1229 36.1804 80.0408C36.3107 79.9733 36.4387 79.8984 36.4894 79.7777C36.5932 79.5266 36.7984 79.3504 37.0036 79.1718C37.595 78.6552 38.1841 78.1434 38.761 77.6243C38.9614 77.4457 39.2608 77.3491 39.4442 77.1488C39.5915 76.9894 39.7725 76.8277 40.0526 76.7456L41.5686 75.5048C41.728 75.3744 41.8897 75.2465 42.0563 75.1185C42.1432 75.0509 42.2711 75.0171 42.4063 75.0171C42.585 75.0171 42.766 75.0195 42.9398 75.0388C43.0099 75.0461 43.1064 75.1016 43.1088 75.1426C43.133 75.4154 43.0485 75.6955 42.8964 75.9659C42.7926 76.1517 42.5729 76.3159 42.4039 76.4897L42.4063 76.4752Z" fill="#1636FF"/>
<path d="M29.2737 79.7106C29.3075 79.7227 29.3413 79.7106 29.3727 79.8314C29.3872 79.8869 29.4041 79.7203 29.4186 79.8386C29.4282 79.911 29.4355 79.9883 29.4427 80.0534C29.4548 80.1379 29.4668 80.1017 29.4837 79.9352C29.4934 79.8434 29.5006 79.7396 29.5151 79.8072C29.5272 79.8748 29.5417 79.8965 29.561 79.8217C29.5779 79.7541 29.5972 79.7275 29.6141 79.6768C29.6527 79.573 29.6624 79.8965 29.7107 79.6889C29.7445 79.5392 29.7734 79.6213 29.8024 79.6213C29.8362 79.6237 29.87 79.6358 29.9014 79.6551C29.9086 79.6599 29.9135 79.701 29.9159 79.7372C29.9231 79.8144 29.94 79.7951 29.9641 79.7372C30.0076 79.6286 30.0511 79.5392 30.0969 79.4427C30.1162 79.4016 30.1162 79.4572 30.0921 79.6189C30.0728 79.7638 30.0728 79.8338 30.0921 79.7782C30.1211 79.701 30.1524 79.6358 30.1862 79.5344C30.2418 79.3678 30.2635 79.4258 30.2683 79.5634C30.2707 79.6189 30.2756 79.6599 30.2828 79.6889C30.2876 79.7082 30.3045 79.6406 30.3214 79.5779C30.3576 79.4523 30.3673 79.4354 30.3625 79.5272C30.3504 79.7251 30.3625 79.812 30.3939 79.8024C30.4252 79.7927 30.4518 79.8072 30.5049 79.6937C30.529 79.6406 30.5387 79.6575 30.5315 79.7348C30.5194 79.8603 30.5073 79.9883 30.4952 80.1114C30.4904 80.1693 30.4977 80.1645 30.5146 80.1283C30.5459 80.0631 30.5725 80.0076 30.6039 79.9424C30.6473 79.8507 30.6232 79.9786 30.6039 80.1041C30.5918 80.1717 30.6039 80.1428 30.6329 80.051C30.6642 79.952 30.6956 79.8458 30.7246 79.7662C30.7849 79.5972 30.8308 79.5561 30.826 79.6599C30.8236 79.7131 30.8212 79.7686 30.8091 79.8434C30.7898 79.9762 30.7898 80.039 30.8139 80.039C30.8598 80.039 30.9105 80.0293 30.9563 80.0317C30.9853 80.0341 31.0215 80.0221 31.007 80.15C30.9926 80.2852 31.0239 80.2659 31.0964 80.1404C31.1543 80.0414 31.2074 79.9617 31.2774 79.8241C31.3764 79.6358 31.3764 79.6479 31.3112 79.9134C31.2967 79.9762 31.3016 79.9738 31.3378 79.8965C31.3619 79.8434 31.4102 79.7517 31.4078 79.7613C31.3812 79.9279 31.4416 79.8917 31.374 80.1379C31.3354 80.278 31.3933 80.1645 31.4585 80.0293C31.4923 79.9593 31.5043 79.9545 31.4923 80.0052C31.4826 80.051 31.4971 80.0365 31.5212 79.9955C31.6275 79.8313 31.6275 79.9424 31.7288 79.8024C31.7337 79.8458 31.7289 79.9086 31.7433 79.9255C31.7699 79.9521 31.8109 79.9472 31.7723 80.1017C31.7626 80.1428 31.7989 80.1017 31.8327 80.0583C31.8906 79.9834 31.8254 80.1476 31.8761 80.0824C31.9389 80.0052 31.8785 80.1452 31.8568 80.22C31.8375 80.2804 31.823 80.3311 31.8665 80.2755C31.9316 80.1959 31.9292 80.2442 31.9558 80.2393C31.9847 80.2345 31.9244 80.3842 31.9872 80.3093C32.0741 80.2079 32.0692 80.2804 32.1755 80.1476C32.2455 80.0607 32.2237 80.1331 32.161 80.2586C32.0644 80.4614 32.062 80.5049 32.1103 80.4759C32.161 80.4445 32.2406 80.3624 32.2165 80.4614C32.2093 80.4928 32.2696 80.4204 32.2938 80.4011C32.3179 80.3842 32.3469 80.36 32.3589 80.3673C32.3807 80.3818 32.2913 80.5604 32.3396 80.5314C32.3831 80.5049 32.4531 80.4373 32.4989 80.4107C32.5303 80.3914 32.54 80.4083 32.5545 80.4156C32.5883 80.4325 32.6486 80.4107 32.5545 80.6087C32.5665 80.6183 32.5545 80.669 32.6269 80.587C32.7186 80.4832 32.7452 80.4807 32.7066 80.5701C32.6993 80.587 32.6872 80.6111 32.6969 80.6039C32.7645 80.5459 32.8249 80.5001 32.7693 80.6208C32.8031 80.6063 32.8176 80.6208 32.8007 80.6763C32.7838 80.7318 32.9166 80.5773 32.8828 80.6594C32.8538 80.727 32.8876 80.7053 32.9383 80.6594C32.989 80.6159 32.9938 80.6328 32.9842 80.6763C32.9769 80.7053 32.9625 80.7463 32.989 80.727C33.1411 80.6159 33.1966 80.6328 33.1363 80.8115C33.1145 80.8791 33.1218 80.908 33.199 80.8404C33.2642 80.7825 33.2208 80.8549 33.1508 80.966C33.1145 81.0239 33.1459 80.9901 33.199 80.9273C33.3535 80.7463 33.368 80.7415 33.2763 80.8936C33.2352 80.9611 33.1725 81.0553 33.2184 81.0167C33.2835 80.9636 33.327 80.9418 33.2763 81.0481C33.2546 81.0915 33.2473 81.1277 33.2811 81.0963C33.356 81.0287 33.3584 81.0505 33.3366 81.1132C33.3077 81.1977 33.3246 81.2146 33.4453 81.0988C33.5418 81.007 33.5515 81.0336 33.5684 81.0505C33.5901 81.0722 33.5153 81.2219 33.6312 81.1229C33.6432 81.1132 33.6432 81.1229 33.636 81.135C33.566 81.2967 33.5829 81.3402 33.7543 81.1977C33.7929 81.1663 33.8001 81.1808 33.7857 81.2195C33.7301 81.3498 33.7301 81.4029 33.8726 81.2895C33.8991 81.2701 33.9112 81.2726 33.8991 81.2967C33.8001 81.5043 33.9088 81.4681 33.9667 81.4971C34.0126 81.5188 34.0512 81.5502 34.0416 81.6323C34.0391 81.654 34.0319 81.6805 34.0705 81.6588C34.1767 81.6033 34.1912 81.6419 34.1309 81.7481C34.0947 81.8157 34.1091 81.8302 34.1816 81.794C34.3023 81.7312 34.3168 81.7699 34.2492 81.8785C34.2178 81.9292 34.2009 81.9678 34.2178 81.9775C34.2588 82.004 34.1985 82.1127 34.2902 82.0982C34.3844 82.0861 34.3023 82.2068 34.3699 82.2141C34.4109 82.2189 34.5437 82.161 34.493 82.231C34.4423 82.2986 34.5002 82.2937 34.5413 82.3034C34.5775 82.313 34.4737 82.3999 34.4061 82.4651C34.3312 82.5351 33.916 82.7814 33.7736 82.8514C33.7639 82.8562 33.7808 82.8417 33.7977 82.8297C33.817 82.8152 33.8484 82.7934 33.875 82.7765C33.9498 82.7234 33.9474 82.7162 33.8653 82.7645C33.5177 82.9721 33.4235 83.0107 33.4187 82.9866C33.4139 82.9721 33.3922 82.9721 33.4525 82.9141C33.5032 82.8659 33.4936 82.8562 33.4235 82.8948C33.3366 82.9407 33.3053 82.9479 33.3391 82.9069C33.4525 82.7669 33.3849 82.7524 33.3729 82.6993C33.368 82.6824 33.3704 82.6607 33.3729 82.6365C33.3729 82.6269 33.4067 82.5882 33.3922 82.5955C33.2087 82.68 33.2425 82.5617 33.1363 82.5786C33.1049 82.5834 33.0638 82.6027 33.0011 82.6438C32.8973 82.7114 32.8562 82.7162 32.9625 82.5496C33.0011 82.4893 33.0083 82.4579 33.0397 82.4048C33.0638 82.3613 33.0614 82.3493 33.0301 82.371C32.8852 82.47 32.8755 82.4096 32.7911 82.441C32.7259 82.4651 32.75 82.3855 32.9093 82.1368C32.9407 82.0861 32.9093 82.1151 32.849 82.1899C32.7428 82.3179 32.6872 82.3686 32.6776 82.3565C32.6679 82.342 32.6752 82.3034 32.68 82.2672C32.6848 82.2382 32.7041 82.1923 32.709 82.161C32.7162 82.1223 32.6824 82.1392 32.5979 82.2213C32.5134 82.3082 32.4869 82.3155 32.5255 82.2334C32.5931 82.0909 32.5762 82.062 32.4555 82.1682C32.3372 82.2744 32.3203 82.243 32.3734 82.1175C32.4193 82.0089 32.3927 81.9944 32.2769 82.1054C32.1924 82.1875 32.1924 82.1489 32.2237 82.0692C32.2382 82.0306 32.272 81.963 32.2455 81.9871C32.1851 82.0402 32.1248 82.0958 32.3034 81.8471C32.3444 81.7916 32.3758 81.7361 32.412 81.6805C32.371 81.7337 32.33 81.7844 32.2865 81.8375C32.2431 81.893 32.1899 81.9654 32.1537 82.004C32.1199 82.0451 32.0837 82.0813 32.0813 82.0716C32.0789 82.0451 32.1127 81.9702 32.0958 81.9654C32.0789 81.9606 32.0065 82.0306 31.9775 82.0402C31.9558 82.0475 31.9292 82.0547 31.9606 81.992C32.0379 81.8423 31.8954 82.0016 31.9099 81.9389C31.9244 81.8857 31.9099 81.8664 31.8954 81.8519C31.8785 81.835 31.8447 81.8423 31.7409 81.9533C31.6854 82.0137 31.6878 81.9847 31.6878 81.9606C31.6878 81.9316 31.7289 81.8568 31.823 81.7119C31.8858 81.6178 31.9485 81.5188 32.0113 81.4246C32.0306 81.3957 32.0523 81.3595 32.0596 81.3426C32.0765 81.3088 32.0499 81.3402 31.992 81.4222C31.9051 81.5502 31.8158 81.6781 31.7288 81.8037C31.6685 81.8906 31.5961 81.9751 31.6178 81.9316C31.7023 81.7506 31.654 81.7602 31.6057 81.7747C31.5816 81.7819 31.5212 81.8471 31.5019 81.8471C31.4874 81.8471 31.5188 81.7747 31.5116 81.7602C31.5068 81.7506 31.4174 81.8761 31.4778 81.765C31.555 81.625 31.555 81.6081 31.5068 81.6564C31.4512 81.7143 31.3595 81.8375 31.3788 81.7626C31.3909 81.7119 31.3281 81.7916 31.345 81.7312C31.3643 81.6636 31.3547 81.6395 31.3185 81.6661C31.2726 81.7023 31.3547 81.5164 31.2967 81.5767C31.2436 81.6347 31.2774 81.5381 31.2798 81.4922C31.2847 81.4102 31.2509 81.3957 31.1422 81.5381C31.0336 81.6805 31.0046 81.6757 31.036 81.5333C31.0577 81.4295 31.0408 81.4078 31.0095 81.4174C30.966 81.4295 30.9153 81.4657 30.9491 81.3015C30.9588 81.2533 30.9322 81.2967 30.9153 81.3112C30.8356 81.3812 30.7777 81.415 30.8067 81.205C30.8163 81.1422 30.7898 81.1591 30.768 81.1712C30.7463 81.1832 30.7125 81.2364 30.6835 81.2702C30.7077 81.0987 30.6304 81.2122 30.6522 81.0408C30.657 81.0046 30.6522 80.9998 30.6353 81.0336C30.6135 81.077 30.587 81.1301 30.5797 81.1229C30.5435 81.0843 30.4542 81.2364 30.4639 81.0408C30.4349 81.0746 30.4035 81.1229 30.3794 81.1374C30.3407 81.1639 30.3142 81.1374 30.2683 81.1977C30.2418 81.2363 30.2249 81.2315 30.2104 81.2146C30.1693 81.1712 30.1162 81.1808 30.068 81.1712C30.0197 81.1639 29.969 81.1591 29.9231 81.1446C29.9086 81.1398 29.899 81.0988 29.8893 81.0601C29.8821 81.0263 29.87 80.9998 29.8507 81.0601C29.8121 81.1857 29.7879 81.1905 29.7614 81.1953C29.6889 81.2122 29.6189 81.2339 29.5489 81.2677C29.5248 81.2798 29.5079 81.1615 29.4813 81.2001C29.4596 81.2315 29.4403 81.2436 29.421 81.1229L29.2472 81.135C29.2278 81.135 29.2109 81.135 29.1916 81.1301C29.182 81.1277 29.1699 81.0698 29.1603 80.9708C29.1482 80.8429 29.1337 80.7101 29.1192 80.5701C29.1144 80.5121 29.1096 80.3962 29.112 80.3576C29.1265 80.1041 29.1554 79.9231 29.1892 79.8024C29.2134 79.7179 29.2447 79.7372 29.2737 79.7106Z" fill="#1636FF"/>
<path d="M33.5739 62.3167C34.0785 61.5563 34.5516 60.7934 35.1262 60.1247C35.3869 59.8205 35.4883 59.3522 35.8166 59.0601C36.0194 58.879 36.2222 58.7052 36.4274 58.5048C36.6954 58.2417 36.874 57.9013 36.9416 57.4837C36.9778 57.2568 36.9657 57.0829 37.2482 56.7643C37.5306 56.4456 37.7721 56.1125 37.9555 55.6852C38.1149 55.311 38.337 54.9151 38.5228 54.5288C38.8994 53.7467 39.6068 53.2421 39.9327 52.3441C40.1644 51.7019 40.7076 51.0042 41.1325 50.3428C41.6201 49.5823 42.1174 48.8243 42.6196 48.0735C42.7379 47.8949 42.8899 47.7356 43.0275 47.5859C43.3269 47.2576 43.5321 46.9027 43.7228 46.4971C44.0825 45.7319 44.4615 44.9618 44.8381 44.1917C44.9999 43.8585 45.1254 43.7644 45.2533 43.8682C45.3692 43.9623 45.572 43.7716 45.7241 43.424C45.9317 42.9484 46.1683 42.4583 46.3324 42.0069C46.6076 41.2609 47.0349 40.6912 47.5491 40.1408C47.7543 39.9211 47.9644 39.6652 48.1647 39.4069C48.2951 39.2355 48.3048 39.0955 48.3361 38.9241C48.4037 38.5765 48.4931 38.4051 48.7248 38.2119C49.2269 37.7919 49.6856 37.2366 50.1177 36.5317C50.5306 35.8606 50.9723 35.1895 51.2669 34.5039C51.4045 34.1852 51.5734 33.9462 51.7883 33.7555C52.1287 33.4562 52.4642 33.1665 52.8046 32.8671C52.9616 32.7271 53.0702 32.5485 53.1571 32.3384C53.3188 31.9643 53.4854 31.5756 53.6472 31.2014C53.862 30.6872 54.0913 30.5665 54.34 30.412C54.4776 30.3275 54.5452 30.1609 54.5404 29.9944C54.5331 29.8157 54.5114 29.6443 54.5549 29.4198C54.649 28.9442 55.0522 28.2176 55.4505 27.7879C55.6557 27.5634 55.8705 27.334 56.0685 27.1602C56.4282 26.8488 56.7565 26.4481 57.0679 25.9532L59.0402 22.7907C59.4603 22.1268 59.8779 21.4364 60.3777 20.886C60.9136 20.2969 61.2829 19.6693 61.563 18.9692C61.7851 18.4115 62.041 17.8442 62.1979 17.3155C62.4152 16.5865 62.4441 16.5599 63.1346 15.9902C63.2987 15.855 63.3711 15.7343 63.3977 15.5339C63.417 15.3963 63.4653 15.1308 63.4991 15.0921C64.1219 14.4283 64.6796 13.4578 65.3314 12.9098C65.7007 12.6008 65.7683 12.2628 65.7659 11.99C65.7659 11.85 65.8673 11.669 66.0435 11.4903C66.2077 11.3237 66.2898 11.1572 66.3694 10.9471C66.6905 10.0925 67.3809 9.20416 67.7334 8.34233C68.0617 7.90055 68.4045 7.47566 68.7111 7.01457C69.2108 6.26379 69.6719 5.50093 70.2634 4.87085C70.4203 4.70428 70.6207 4.2963 70.7196 4.03799C70.8886 3.60345 71.2532 3.35963 71.4197 2.94923C71.6129 2.46641 71.905 2.29501 72.1657 2.03188C72.3733 1.82185 72.5713 1.61424 72.7064 1.27144C72.7861 1.06141 72.9648 0.708951 73.2858 0.436159C73.3631 0.36615 73.4548 0.303383 73.5538 0.247859C73.6479 0.187507 73.759 0.146467 73.8652 0.105427C74.0825 0.0330044 74.3094 0.00162115 74.5098 0.00403525C74.9347 0.00644935 75.2582 0.148881 75.5334 0.274414C75.8086 0.402361 76.0476 0.527894 76.2962 0.57859C77.0253 0.735507 77.8026 1.17246 78.5027 1.35593C78.9638 1.47422 79.3114 1.76391 79.4925 2.0367C79.7822 2.47366 80.294 2.84784 80.9095 3.251C81.5614 3.67588 82.2132 4.08386 82.7418 4.76946C82.8263 4.87327 82.947 4.98673 83.0822 5.10019C83.2174 5.21366 83.3623 5.33195 83.4806 5.45989C83.7244 5.70372 83.9634 5.96927 84.1638 6.25896C84.579 6.86731 84.7045 7.50946 85.0401 8.17575C85.3491 8.801 85.6315 9.42625 85.8005 10.1215C85.815 10.1746 85.8295 10.2301 85.844 10.2881L85.9091 10.5392L85.7208 10.8675C85.5277 11.2054 85.3008 11.5434 85.0859 11.8814C84.5403 12.7336 84.0237 13.6316 83.3454 14.2762C83.104 14.6479 82.807 15.0173 82.6863 15.406C82.5342 15.8936 82.2711 16.333 81.8873 16.7506C81.8197 16.8255 81.7207 16.9244 81.6869 16.9993C81.4117 17.5859 81.1268 18.1605 80.6537 18.6481C80.3809 19.1285 80.0912 19.5727 79.7411 20.0097C79.4056 20.4273 79.2945 20.9753 78.9083 21.4098C78.6017 21.755 78.4085 22.122 78.2323 22.5131C78.0537 22.909 77.8074 23.2735 77.5274 23.6308C77.3319 23.8819 77.0953 24.174 76.9649 24.4323C76.2141 25.9242 75.3451 27.3075 74.2804 28.6232C73.8845 29.1132 73.4693 29.7216 73.2086 30.3106C72.9865 30.8103 72.7885 30.9672 72.5254 31.1266C72.3902 31.2086 72.3419 31.368 72.3129 31.5659C72.2309 32.1284 72.1053 32.3481 71.678 32.6861C71.4873 32.8382 71.3256 32.8792 71.1276 33.2896C70.85 33.8714 70.5338 34.4387 70.0678 34.9457C69.8771 35.1533 69.6116 35.5057 69.515 35.7327C69.2953 36.2541 69.0249 36.6452 68.6628 37.0894C68.1776 37.6857 67.7527 38.3375 67.4896 39.0448C67.2771 39.6169 66.8836 40.1963 66.5119 40.7661C66.0339 41.5024 65.4231 42.1421 65.0658 42.9701C65.0296 43.0522 64.9451 43.1705 64.8799 43.2453C64.0785 44.1699 63.4194 45.1525 62.9487 46.2823C62.8449 46.5309 62.6059 46.893 62.4152 47.1151C61.7609 47.8756 61.2081 48.6602 60.8194 49.5872C60.7494 49.7562 60.5949 50.0048 60.4718 50.1472C59.4555 51.3108 58.6733 52.7014 57.8429 54.0243C57.179 55.0816 56.5103 56.1221 55.786 57.1191C55.5881 57.3895 55.4022 57.6382 55.2574 57.9424C54.8735 58.7487 54.3786 59.4826 53.8041 60.1561C53.4444 60.5786 53.1354 61.059 52.9109 61.5466C52.5367 62.365 52.0635 63.0747 51.4769 63.7531C51.2065 64.0669 50.9192 64.4387 50.6875 64.808C50.0888 65.7592 49.3839 66.6403 48.8479 67.6181C48.3048 68.6127 47.5878 69.4648 47.0229 70.4353C46.6921 71.005 46.4676 71.6134 46.0307 72.1397C45.5986 72.6635 45.2944 73.226 44.9564 73.8006C44.6571 74.3099 44.2829 74.6431 43.9401 75.0052C43.5659 75.3987 43.0831 75.2538 43.1869 74.8048C43.1941 74.7759 43.3003 74.6503 43.3534 74.6045C43.4186 74.5465 43.4766 74.5272 43.5393 74.4886C43.7204 74.3775 43.8652 74.1554 43.8001 74.0806C43.52 73.7643 43.8339 73.0981 44.3987 72.2386C44.7102 71.7655 45.0023 71.2778 45.362 70.8771C45.6589 70.5439 45.881 70.1963 46.0476 69.7907C46.2455 69.3055 46.5425 68.7889 46.878 68.3664C47.9861 66.9711 48.9324 65.4261 49.9319 63.9269C50.2433 63.461 50.5595 62.9999 50.8782 62.5388C51.0013 62.3602 51.1703 62.1912 51.262 62.0222C52.3049 60.0523 53.6327 58.191 54.7794 56.2621C55.1222 55.6852 55.4312 55.1275 55.7233 54.5409C56.2061 53.5728 56.7951 52.6048 57.5483 51.7985C57.8235 51.504 58.0963 51.1322 58.3715 50.8184C58.5936 50.5673 58.7699 50.3017 58.9195 50.0048C59.6076 48.6288 60.5104 47.301 61.2926 45.9467C61.8913 44.9086 62.5141 44.0879 63.2384 43.5061C63.3832 43.3902 63.4677 43.1802 63.446 43.0401C63.4073 42.7939 63.557 42.4245 63.8177 42.031C64.1267 41.5651 64.4575 41.1137 64.7834 40.6671C65.0441 40.3098 65.3193 39.9742 65.58 39.6194C65.9228 39.1534 66.1908 38.6755 66.3574 38.1999C66.5288 37.7098 66.804 37.2463 67.1782 36.8287C67.8372 36.0924 68.3731 35.2861 68.7763 34.3735C69.177 33.4658 69.7202 32.6547 70.3744 31.8822C70.9442 31.2087 71.4173 30.4699 71.7529 29.6588C71.9991 29.0625 72.3902 28.5121 72.8199 28.0027C73.0227 27.7613 73.2979 27.474 73.4041 27.2471C73.6479 26.7233 73.8169 26.3129 74.1404 26.378C74.2128 26.3925 74.3601 26.2839 74.4712 26.2308C74.4663 26.1149 74.4712 25.9894 74.4567 25.8832C74.4422 25.7745 74.3746 25.7166 74.4011 25.5766C74.4277 25.439 74.5243 25.1951 74.6305 25.043C74.9443 24.5916 75.3064 24.1788 75.5961 23.7225C75.8882 23.259 76.0958 22.7545 76.3759 22.2765C76.5956 21.8999 76.8756 21.4267 77.117 21.1829C77.6867 20.6059 77.9064 19.8721 78.3747 19.2613C78.7707 18.7423 79.1497 18.1677 79.519 17.6052C79.9512 16.9438 80.3495 16.2799 80.615 15.5943C80.7575 15.2249 81.0399 14.8314 81.303 14.4621C81.5976 14.0492 81.839 13.8344 82.0466 13.8296C82.1842 13.8296 82.2977 13.8658 82.4328 13.8682C82.4739 13.8682 82.5415 13.8392 82.6042 13.7813C82.7129 13.6799 82.7636 13.5302 82.7008 13.4385C82.6067 13.2985 82.486 13.1995 82.3894 13.0667C82.3242 12.975 82.4787 12.5308 82.6574 12.3425C83.3092 11.6569 83.8378 10.8264 84.3472 9.9815L84.2289 10.5392L84.142 10.1819C84.0406 9.68698 83.7944 9.25485 83.6061 8.801C83.524 8.62477 83.4685 8.43647 83.3912 8.253L83.2826 7.97297C83.2391 7.88365 83.1933 7.79191 83.145 7.705C83.0822 7.5843 82.9712 7.47808 82.8722 7.37427C82.7756 7.26805 82.6984 7.157 82.6791 7.02906C82.6405 6.70315 82.4908 6.48106 82.1311 6.16722C81.699 5.79304 81.233 5.5468 80.7502 5.03018C80.4219 4.68014 79.9608 4.4508 79.5432 4.08627C79.0966 3.69036 78.5027 3.30169 77.9402 3.04097C77.2305 2.71265 76.6849 2.22983 75.9824 2.01739C75.2871 1.80978 74.7705 1.45491 74.4518 1.43318C74.3167 1.42835 74.2394 1.43318 74.1115 1.55871C74.0825 1.5901 74.0487 1.61665 74.0197 1.66493C73.9883 1.70839 73.9642 1.73736 73.9159 1.81219L73.6721 2.20086C73.3534 2.72231 73.0637 3.25582 72.8151 3.80865C72.3226 4.90224 71.6563 5.9572 70.879 6.90352C70.3141 7.59154 69.8361 8.31577 69.3581 9.09794C68.7159 10.1529 68.081 11.2392 67.294 12.159C67.0623 12.4294 66.944 12.7094 66.7847 12.9943C65.959 14.4596 65.102 15.8888 64.0278 17.1803C63.7043 17.569 63.3929 18.1025 63.108 18.5781C62.8231 19.0561 62.5817 19.5461 62.321 20.029C61.5485 20.9198 60.9498 22.0978 60.1773 22.9814C60.0204 23.1625 59.9238 23.3073 59.8321 23.5149C59.709 23.7925 59.5786 24.1088 59.4048 24.3671C58.5333 25.6755 57.8187 27.1023 56.8193 28.3069C56.4982 28.879 56.194 29.456 55.8536 30.0233C55.2743 30.989 54.6369 31.9449 54.0986 32.913C53.7703 33.5045 53.4395 34.0187 53.0629 34.5811C52.0587 36.0803 51.0979 37.6157 50.1202 39.1365L47.187 43.6968C46.8829 44.1651 46.5473 44.6141 46.219 45.0583C45.9486 45.4228 45.6758 45.8019 45.5044 46.1833C45.1495 46.9751 44.6715 47.7307 44.1887 48.4984C42.8103 50.7025 41.4294 52.9065 40.051 55.1082C39.5778 55.8711 39.0201 56.518 38.5518 57.3195C38.18 57.9593 37.7455 58.6569 37.2458 59.2122L33.7743 64.6366L32.6711 66.3434C32.4755 66.6403 32.2631 66.8649 32.0724 66.9783C31.8261 67.1256 31.5799 67.2608 31.3675 67.3332C31.2805 67.3622 31.2105 67.2535 31.2492 67.128C31.5075 66.2589 31.9082 65.3029 32.379 64.3445C32.7049 63.6855 33.1684 62.9975 33.5715 62.3239L33.5739 62.3167Z" fill="#1636FF"/>
<path d="M38.4767 68.8352C38.7085 68.4779 38.9161 68.1134 39.2323 67.8285C39.3772 67.7006 39.341 67.4326 39.5462 67.3264C39.6717 67.2612 39.7996 67.1985 39.9228 67.1212C40.0821 67.0198 40.1473 66.8484 40.0966 66.607C40.07 66.4766 40.0145 66.3656 40.1738 66.2328C40.3331 66.1 40.4514 65.948 40.4973 65.7259C40.5383 65.5303 40.6228 65.3348 40.6832 65.1392C40.8015 64.7409 41.2746 64.5864 41.3205 64.106C41.3543 63.7608 41.6343 63.4518 41.8251 63.1379C42.0447 62.7782 42.2717 62.421 42.5058 62.0685C42.5614 61.9864 42.6483 61.9212 42.7279 61.8585C42.8993 61.7233 42.9814 61.5495 43.0393 61.3419C43.148 60.9508 43.2735 60.5597 43.3942 60.1686C43.4473 59.9996 43.5294 59.9682 43.6646 60.06C43.7853 60.1445 43.9108 60.072 43.9519 59.891C44.0074 59.6448 44.0798 59.3937 44.1064 59.1523C44.1474 58.7539 44.3647 58.4981 44.6616 58.2711C44.7799 58.1818 44.8934 58.0708 44.9948 57.9549C45.0624 57.88 45.0334 57.7931 45.0165 57.6966C44.9851 57.4986 45.0165 57.4117 45.1638 57.3441C45.4848 57.1969 45.7287 56.9579 45.917 56.6175C46.0956 56.2964 46.2984 55.9802 46.3732 55.6229C46.407 55.4563 46.4915 55.3477 46.6243 55.2776C46.8367 55.169 47.0492 55.0652 47.2592 54.9566C47.3558 54.9059 47.4016 54.819 47.4233 54.7103C47.4596 54.5124 47.5103 54.3144 47.5465 54.1189C47.5972 53.8485 47.7613 53.8268 47.9327 53.7857C48.0269 53.764 48.0438 53.6771 47.9955 53.5733C47.9424 53.4622 47.882 53.3512 47.8603 53.2208C47.8168 52.948 47.9738 52.5908 48.2007 52.4145C48.319 52.3228 48.4397 52.2286 48.5652 52.1659C48.7897 52.0524 48.9684 51.881 49.1036 51.6444C49.3933 51.1423 49.6733 50.6353 49.9678 50.1356C50.1537 49.8194 50.3323 49.4862 50.6148 49.2593C50.919 49.0155 51.071 48.7113 51.129 48.3419C51.1749 48.0474 51.2449 47.7553 51.2449 47.4632C51.2424 47.0625 51.2593 47.0528 51.6987 46.8549C51.8025 46.809 51.8339 46.7511 51.8049 46.6328C51.7856 46.5531 51.7591 46.3986 51.7784 46.3841C52.1357 46.1137 52.3626 45.6382 52.7754 45.4474C53.0096 45.3388 52.9806 45.1457 52.9082 44.9767C52.8696 44.8898 52.913 44.8029 53.0168 44.7305C53.1134 44.6629 53.1399 44.5808 53.152 44.4673C53.2051 44.0111 53.5648 43.6176 53.6421 43.1637C53.8062 42.9658 53.9897 42.7799 54.1321 42.5626C54.3639 42.2101 54.5594 41.8432 54.8998 41.5849C54.9891 41.5173 55.0567 41.3097 55.076 41.1721C55.1098 40.9403 55.3561 40.8727 55.3923 40.6555C55.4333 40.3996 55.6361 40.3609 55.7906 40.2547C55.9137 40.1702 56.0272 40.0882 56.0537 39.9047C56.0924 39.6464 56.271 39.4388 56.3917 39.2094C56.5148 38.9704 56.7852 38.8377 56.8287 38.5842C56.889 38.2293 57.1546 37.9227 57.1763 37.563C57.1908 37.3288 57.3549 37.1985 57.5432 37.1574C57.845 37.0923 58.0285 36.8629 58.1588 36.5563C58.2964 36.228 58.3737 35.8852 58.6561 35.61C58.7455 35.5231 58.7551 35.3276 58.8106 35.1827C58.8662 35.0403 58.9144 34.8882 58.9941 34.7578C59.1607 34.4875 59.4697 34.3595 59.5976 34.0553C59.7159 33.7729 59.7859 33.4759 59.9042 33.1911C59.9839 33.0004 60.1022 32.8193 60.2108 32.6383C60.4522 32.2327 60.6598 31.7933 61.0678 31.5447C61.1765 31.3684 61.3334 31.2067 61.3358 30.9942C61.3358 30.7263 61.4468 30.5138 61.6665 30.34C61.7051 30.3086 61.7607 30.2676 61.7727 30.2314C61.8548 29.9296 61.949 29.6375 62.2218 29.442C62.328 29.2054 62.4583 28.9954 62.6442 28.8047C62.8205 28.6212 62.7746 28.3074 62.9894 28.1239C63.1608 27.979 63.2284 27.7956 63.2767 27.5928C63.325 27.3876 63.4409 27.2186 63.5857 27.0593C63.6871 26.9482 63.8126 26.8203 63.8561 26.6899C64.1072 25.9343 64.4862 25.2753 65.0487 24.6983C65.2587 24.4834 65.4542 24.201 65.5218 23.8944C65.5798 23.6361 65.7077 23.583 65.8888 23.5419C65.9805 23.5202 65.9829 23.4333 65.9564 23.3174C65.8791 22.9891 65.9298 22.8805 66.205 22.767C66.3281 22.7163 66.4561 22.726 66.514 22.5159C66.5985 22.219 66.7216 21.9366 66.9848 21.7265C67.0934 21.6396 67.2262 21.4827 67.2503 21.362C67.301 21.0892 67.4314 20.9082 67.6221 20.7126C67.8804 20.4519 68.0711 20.1429 68.1122 19.7639C68.1435 19.4573 68.3294 19.1869 68.496 18.9189C68.7108 18.5713 69.0633 18.3106 69.1526 17.8785C69.1623 17.835 69.2033 17.7819 69.2395 17.7481C69.6813 17.3546 69.9855 16.8935 70.0917 16.3021C70.1159 16.1717 70.2245 16.0003 70.3283 15.9061C70.6856 15.5802 70.9535 15.2205 71.0429 14.7329C71.0598 14.6436 71.1249 14.5229 71.1925 14.4649C71.755 13.9725 72.0568 13.2869 72.4213 12.6544C72.711 12.1498 73.0104 11.6549 73.3652 11.1987C73.4618 11.0755 73.5559 10.9645 73.6018 10.8076C73.7201 10.3948 73.9494 10.052 74.2633 9.76227C74.4612 9.58122 74.5988 9.35429 74.6616 9.10081C74.7678 8.67834 74.9851 8.3452 75.3062 8.05551C75.4534 7.92273 75.6007 7.75616 75.7021 7.57751C75.9628 7.12125 76.3346 6.735 76.5349 6.24976C76.7401 5.75729 77.1264 5.38793 77.3533 4.91477C77.4885 4.63715 77.5199 4.31124 77.7541 4.0819C77.9858 3.85498 78.0993 3.57494 78.2345 3.29249C78.3552 3.04384 78.5869 2.92072 78.7849 2.77346C78.9997 2.61172 79.4463 2.80967 79.4753 3.06315C79.4753 3.08005 79.4198 3.13316 79.386 3.15006C79.3449 3.17179 79.3015 3.17179 79.258 3.18145C79.1325 3.21041 79.0673 3.31422 79.1422 3.37457C79.4608 3.63047 79.3691 3.97327 79.1108 4.37884C78.9683 4.60093 78.8476 4.83752 78.6473 5.0065C78.4807 5.14652 78.3817 5.31309 78.3479 5.52553C78.3069 5.78143 78.1862 6.03249 78.0124 6.22079C77.433 6.83639 77.0298 7.58234 76.5712 8.28485C76.4287 8.50453 76.279 8.71938 76.127 8.93182C76.069 9.0139 75.9676 9.0815 75.9362 9.16599C75.5596 10.1509 74.9151 11.0055 74.4419 11.9422C74.2995 12.2222 74.1812 12.4974 74.087 12.7968C73.9277 13.2869 73.6791 13.7552 73.2494 14.0859C73.0924 14.2066 72.9572 14.3756 72.8052 14.5084C72.682 14.6146 72.6 14.7377 72.5517 14.8898C72.3248 15.5875 71.9023 16.2055 71.5885 16.8694C71.3495 17.3787 71.0332 17.7457 70.5673 17.9461C70.4731 17.9871 70.4562 18.0957 70.5118 18.1875C70.6083 18.3492 70.5769 18.5423 70.4587 18.7282C70.3186 18.9479 70.1545 19.1531 69.9927 19.3559C69.8624 19.5176 69.7175 19.6649 69.5872 19.8266C69.4158 20.0391 69.312 20.2732 69.2927 20.5291C69.2733 20.7947 69.1599 21.0192 68.9523 21.193C68.5829 21.502 68.3367 21.881 68.2305 22.3542C68.1266 22.8249 67.8732 23.2064 67.5183 23.5371C67.2069 23.8268 66.9993 24.1768 66.9244 24.6041C66.8689 24.918 66.6806 25.169 66.4464 25.3911C66.3378 25.4949 66.1785 25.6132 66.1471 25.7291C66.0747 25.9971 66.0384 26.2143 65.7463 26.1009C65.6812 26.0767 65.5846 26.1105 65.5025 26.1178C65.5363 26.1902 65.5653 26.2674 65.6039 26.335C65.6425 26.4051 65.7174 26.4557 65.7294 26.5378C65.7415 26.6175 65.7246 26.7454 65.6739 26.8154C65.5242 27.0231 65.3239 27.1993 65.1959 27.4166C65.068 27.6387 65.0221 27.9018 64.9087 28.136C64.8193 28.3194 64.7035 28.5488 64.561 28.6477C64.2255 28.8771 64.2303 29.2802 63.9913 29.5554C63.7885 29.7872 63.6171 30.0576 63.4505 30.3255C63.255 30.6394 63.0884 30.9605 63.0426 31.325C63.0184 31.5205 62.8808 31.7016 62.7529 31.873C62.6104 32.0637 62.4608 32.1434 62.2869 32.0999C62.1711 32.0709 62.0648 32.0227 61.949 31.9913C61.9128 31.9816 61.8645 31.9864 61.8258 32.0082C61.7607 32.0468 61.7558 32.1289 61.8331 32.1989C61.949 32.3051 62.0769 32.3944 62.1952 32.4982C62.2749 32.5682 62.258 32.8097 62.1566 32.8869C61.7293 33.2056 61.4855 33.6715 61.2465 34.1374C61.1282 34.3692 61.0702 34.6275 60.9447 34.8544C60.8481 35.0306 60.6743 35.1658 60.5584 35.3372C60.4812 35.4531 60.5271 35.6728 60.3581 35.7042C60.1456 35.7452 60.066 35.849 60.0008 36.0856C59.9235 36.3656 59.9187 36.665 59.6725 36.9257C59.5083 37.1019 59.4649 37.3675 59.2693 37.5678C59.0593 37.7827 58.8662 38.0676 58.7455 38.3452C58.591 38.7 58.2457 38.8835 58.1299 39.2239C58.0188 39.5522 57.7871 39.7357 57.5939 39.9771C57.2294 40.4285 56.9325 40.9186 56.7949 41.4883C56.6573 42.0532 56.3627 42.5529 55.9451 42.9633C55.6433 43.2603 55.4212 43.6007 55.2161 43.9773C54.9408 44.4842 54.6825 45.0129 54.248 45.404C54.1201 45.5199 54.0911 45.6647 54.0283 45.8047C53.7024 46.5241 53.3427 47.2146 52.7609 47.7722C52.5871 47.9388 52.4567 48.1995 52.3384 48.4289C52.2202 48.6606 52.1405 48.9068 52.0415 49.1483C51.6118 49.5249 51.409 50.1187 50.9793 50.4929C50.8924 50.5702 50.8465 50.6378 50.8224 50.744C50.791 50.8888 50.7596 51.053 50.68 51.1737C50.2768 51.7869 50.0354 52.5063 49.4946 53.0277C49.3691 53.3102 49.2581 53.5974 49.1156 53.8702C48.8718 54.3362 48.5749 54.7852 48.3673 55.2607C48.2393 55.5529 48.0896 55.7967 47.9158 56.0574C47.4475 56.7575 47.025 57.4914 46.5857 58.2108C46.1463 58.9302 45.7142 59.6544 45.2651 60.369C45.1275 60.5887 44.9586 60.7939 44.792 60.9918C44.6544 61.156 44.5216 61.3298 44.4733 61.5253C44.3768 61.9357 44.1643 62.293 43.9495 62.66C43.3387 63.7077 42.7303 64.7578 42.1316 65.8128C41.924 66.1773 41.6174 66.4525 41.4267 66.8436C41.2746 67.155 41.0863 67.4881 40.8039 67.7199C40.2849 68.5769 39.7682 69.4363 39.2492 70.2933C39.0851 70.5637 38.9209 70.8317 38.7495 71.0996C38.6602 71.2397 38.5371 71.3314 38.4043 71.3579C38.2329 71.3942 38.0591 71.4231 37.8949 71.4183C37.8297 71.4183 37.7404 71.3338 37.7404 71.2638C37.7356 70.7858 37.8321 70.2861 37.9866 69.8009C38.0929 69.4677 38.3125 69.1466 38.4791 68.8207L38.4767 68.8352Z" fill="#1636FF"/>
<path d="M25.3057 90.0168C24.917 90.2582 24.5646 90.5286 24.1638 90.7241C23.9803 90.8135 23.8934 91.0573 23.6738 91.1225C23.541 91.1659 23.4082 91.2118 23.273 91.2721C23.092 91.347 22.9761 91.5111 22.9326 91.7356C22.9109 91.8588 22.9157 91.9553 22.7467 92.0833C22.5753 92.2064 22.4257 92.3512 22.346 92.5685C22.3074 92.6627 22.2615 92.7544 22.2132 92.8485C22.1722 92.9475 22.1287 93.0441 22.0925 93.1406C21.9453 93.5197 21.5663 93.7731 21.5566 94.2487C21.5566 94.4153 21.53 94.5939 21.4745 94.7726C21.4335 94.9536 21.3804 95.1395 21.3562 95.323C21.2959 95.7406 21.3007 96.1655 21.3273 96.5904C21.3369 96.6918 21.32 96.7956 21.3055 96.8946C21.291 97.1094 21.3321 97.305 21.4359 97.4981C21.6097 97.8674 21.827 98.2199 22.0539 98.5555C22.1577 98.6979 22.1505 98.7776 22.037 98.8234C21.9356 98.8645 21.9404 99.0093 22.0708 99.1445C22.2398 99.3352 22.4233 99.5283 22.6091 99.6732C22.9254 99.9025 23.0871 100.187 23.2465 100.518C23.3068 100.653 23.3913 100.788 23.4903 100.914C23.5531 100.999 23.6303 101.003 23.7196 101.023C23.9031 101.059 23.9779 101.11 24.0359 101.254C24.1638 101.561 24.3956 101.839 24.7335 102.066C25.0522 102.285 25.3878 102.503 25.7426 102.611C25.9092 102.659 26.0299 102.737 26.1192 102.857C26.2641 103.038 26.4065 103.227 26.5634 103.405C26.6359 103.487 26.7324 103.531 26.8483 103.553C27.0559 103.586 27.2635 103.64 27.4711 103.666C27.7512 103.71 27.8188 103.84 27.9081 103.978C27.9564 104.052 28.0481 104.064 28.1398 104.023C28.2364 103.978 28.3281 103.924 28.4513 103.903C28.7096 103.859 29.1103 103.963 29.359 104.13C29.4869 104.217 29.6221 104.303 29.7259 104.398C29.9118 104.567 30.1484 104.687 30.4308 104.772C31.0343 104.946 31.6427 105.102 32.2535 105.245C32.6397 105.339 33.038 105.411 33.3808 105.583C33.7478 105.762 34.1171 105.81 34.5034 105.766C34.81 105.733 35.1262 105.708 35.4039 105.631C35.7853 105.515 35.7974 105.532 36.2005 105.776C36.2971 105.834 36.3671 105.836 36.4636 105.781C36.5288 105.742 36.6592 105.677 36.6833 105.687C36.9006 105.762 37.1468 105.798 37.3907 105.841C37.6345 105.875 37.8735 105.921 38.0763 106.02C38.3056 106.126 38.4673 106.029 38.5784 105.916C38.6363 105.858 38.7377 105.851 38.8608 105.882C38.9743 105.911 39.066 105.892 39.1723 105.853C39.6044 105.692 40.1596 105.713 40.5893 105.527C40.8597 105.523 41.1156 105.523 41.3667 105.472C41.7795 105.385 42.1392 105.243 42.5134 105.172C42.6123 105.153 42.7572 105.016 42.8151 104.914C42.9117 104.755 43.1097 104.733 43.1603 104.559C43.2086 104.366 43.3511 104.33 43.4549 104.214C43.5394 104.125 43.6045 104.016 43.5732 103.859C43.5249 103.644 43.5514 103.408 43.4959 103.171C43.438 102.937 43.4766 102.667 43.3197 102.481C43.1072 102.235 42.931 101.882 42.6461 101.716C42.5496 101.665 42.4844 101.597 42.4409 101.52C42.3951 101.445 42.3661 101.361 42.3589 101.279C42.3347 101.011 42.1223 100.786 41.8326 100.607C41.5188 100.419 41.1856 100.311 40.8766 100.05C40.7776 99.9701 40.5869 99.9436 40.4348 99.8929C40.2852 99.8398 40.1258 99.7963 39.981 99.7287C39.6792 99.5911 39.4716 99.3425 39.1288 99.2507C38.815 99.1638 38.4963 99.1252 38.1728 99.0576C37.9556 99.0117 37.7359 98.9321 37.521 98.862C37.0358 98.7051 36.5337 98.5724 36.1426 98.2778C35.9277 98.2175 35.708 98.1185 35.4932 98.1451C35.2252 98.1789 34.9741 98.1209 34.7207 97.9761C34.6748 97.9495 34.6144 97.9109 34.5734 97.9085C34.2427 97.8892 33.924 97.8409 33.6198 97.6767C33.3422 97.6405 33.0839 97.5802 32.8184 97.4764C32.5649 97.3774 32.2752 97.4691 32.0072 97.3412C31.7924 97.2398 31.5848 97.218 31.3651 97.2253C31.143 97.2374 30.9257 97.1915 30.706 97.1215C30.5515 97.0732 30.3729 97.0104 30.2256 97.0104C29.8007 97.0056 29.3879 96.9718 28.9775 96.9066C28.5647 96.8608 28.1543 96.7787 27.7415 96.6604C27.4349 96.5711 27.0656 96.5131 26.7397 96.5493C26.4645 96.5759 26.3486 96.518 26.2182 96.4045C26.1506 96.349 26.0661 96.3755 25.9696 96.4311C25.6944 96.5904 25.5688 96.5904 25.3178 96.4407C25.2067 96.3731 25.1488 96.2838 24.9194 96.3104C24.5935 96.3538 24.2676 96.3466 23.9272 96.2548C23.7872 96.2162 23.5675 96.1872 23.4444 96.2162C23.1596 96.2838 22.9206 96.2645 22.6357 96.2114C22.2519 96.1414 21.8559 96.1172 21.4842 96.2476C21.1848 96.3538 20.8324 96.349 20.4896 96.3562C20.0478 96.3659 19.606 96.25 19.1618 96.3755C19.1184 96.39 19.0435 96.39 18.9928 96.3828C18.3772 96.2983 17.7761 96.3248 17.1847 96.5324C17.0543 96.5783 16.8346 96.5856 16.6874 96.5735C16.1804 96.5324 15.6952 96.5614 15.2172 96.7521C15.1303 96.7883 14.9854 96.8101 14.8889 96.8004C14.6933 96.7835 14.4954 96.7787 14.2974 96.7883C14.1019 96.8052 13.9063 96.8318 13.7108 96.8656C13.3197 96.9308 12.931 97.0201 12.5448 97.0925C11.9244 97.1963 11.3184 97.346 10.7004 97.4305C10.5314 97.4546 10.3769 97.4715 10.2176 97.5391C10.01 97.6284 9.79512 97.696 9.57785 97.7395C9.36058 97.7878 9.1409 97.8264 8.91639 97.8409C8.63394 97.8602 8.35632 97.9375 8.11249 98.0654C7.70692 98.2851 7.28446 98.3672 6.83543 98.4251C6.62541 98.4492 6.39365 98.4951 6.18363 98.5675C5.65011 98.7582 5.07556 98.8403 4.5686 99.0914C4.05681 99.3545 3.49915 99.4583 2.98254 99.6973C2.67836 99.8373 2.42246 100.05 2.08932 100.139C1.75376 100.224 1.47373 100.388 1.17679 100.545C0.913655 100.682 0.648104 100.692 0.39221 100.731C0.114589 100.772 -0.109922 100.475 0.0445797 100.277C0.0542361 100.265 0.136315 100.245 0.174941 100.245C0.220809 100.245 0.25702 100.26 0.29806 100.267C0.416351 100.289 0.541884 100.236 0.522571 100.166C0.447734 99.8663 0.761566 99.6442 1.24921 99.4366C1.51718 99.3207 1.78032 99.1904 2.05311 99.1373C2.28245 99.0962 2.4804 99.0238 2.66387 98.8862C2.88356 98.722 3.16118 98.5917 3.43639 98.5289C3.6609 98.4782 3.88299 98.4154 4.10268 98.3478C4.32236 98.2778 4.54204 98.2054 4.76414 98.1427C5.20592 98.005 5.6477 97.865 6.08948 97.725C6.36468 97.6429 6.63989 97.5608 6.91993 97.4884C7.02856 97.4643 7.15651 97.4691 7.24583 97.4305C7.77452 97.2108 8.32976 97.0418 8.88983 96.8825C9.16745 96.798 9.4499 96.7328 9.73476 96.6701C10.0172 96.6049 10.2972 96.5349 10.5773 96.4576C10.9104 96.3635 11.2218 96.2621 11.5405 96.1365C12.0668 95.941 12.6438 95.8299 13.2183 95.8758C13.4283 95.8951 13.6649 95.8758 13.8822 95.8855C14.056 95.8927 14.2177 95.8686 14.3819 95.8251C15.1448 95.6078 15.9704 95.5282 16.7622 95.3857C17.373 95.2964 17.9089 95.3157 18.3748 95.504C18.469 95.5402 18.58 95.5016 18.6283 95.4268C18.7152 95.2964 18.9156 95.224 19.157 95.2119C19.4443 95.2119 19.734 95.2264 20.0188 95.2457C20.2457 95.2602 20.4678 95.2916 20.6948 95.3061C20.9917 95.3254 21.2741 95.294 21.5252 95.1999C21.7859 95.1033 22.0636 95.1033 22.3484 95.1733C22.8506 95.3013 23.3454 95.323 23.8572 95.2168C24.1131 95.1588 24.3666 95.1516 24.6201 95.1733C24.8736 95.1926 25.127 95.2385 25.3805 95.3061C25.8247 95.4244 26.2737 95.4509 26.73 95.3713C27.0632 95.323 27.4084 95.3882 27.7391 95.492C27.896 95.5403 28.0891 95.6199 28.2195 95.6103C28.5189 95.5885 28.753 95.5547 28.782 95.7913C28.7892 95.8444 28.8689 95.9024 28.9148 95.9579C28.9703 95.9144 29.0331 95.8734 29.0813 95.8275C29.132 95.7817 29.1465 95.7141 29.2214 95.6851C29.2938 95.6585 29.4314 95.6416 29.5231 95.6634C29.8007 95.7261 30.0663 95.8324 30.3415 95.8758C30.6215 95.9193 30.9064 95.8927 31.1913 95.9241C31.4158 95.9482 31.6982 95.9772 31.8575 96.0714C32.2317 96.2838 32.6349 96.209 33.0139 96.3417C33.3326 96.4528 33.6778 96.5349 34.0158 96.6145C34.4092 96.7183 34.7979 96.8125 35.1866 96.8004C35.3966 96.7956 35.6332 96.8801 35.8553 96.9573C36.1039 97.0442 36.2415 97.148 36.2609 97.2881C36.2753 97.3798 36.2633 97.4691 36.2753 97.5609C36.2778 97.5898 36.3019 97.626 36.3357 97.6526C36.3985 97.696 36.483 97.6936 36.5264 97.6284C36.5916 97.5295 36.635 97.4208 36.6978 97.3194C36.7413 97.2518 36.9923 97.247 37.1058 97.3219C37.579 97.6357 38.139 97.795 38.6967 97.9519C38.9743 98.0268 39.2592 98.0654 39.5344 98.1644C39.7492 98.2392 39.9424 98.3816 40.1548 98.4806C40.2972 98.5458 40.5169 98.5168 40.5966 98.6617C40.698 98.8403 40.8235 98.9152 41.0891 98.9924C41.4005 99.0914 41.7215 99.1348 42.0426 99.4125C42.2575 99.5935 42.5423 99.7094 42.7669 99.958C43.0058 100.224 43.298 100.516 43.5538 100.784C43.7252 100.948 43.8291 101.151 43.9304 101.341C44.0246 101.539 44.1163 101.728 44.2394 101.918C44.476 102.28 44.5122 102.655 44.5509 103.046C44.6185 103.78 44.5147 104.564 44.155 105.281C43.9836 105.638 43.6963 105.945 43.3752 106.16C43.0541 106.377 42.6993 106.507 42.3516 106.573C41.8664 106.662 41.3932 106.749 40.8935 106.843C40.2514 106.949 39.5875 107.058 38.9526 106.952C38.7667 106.925 38.6122 106.964 38.4408 106.981C37.5621 107.063 36.6761 107.053 35.8263 106.807C35.5728 106.727 35.2494 106.715 34.9645 106.681C34.6772 106.652 34.3899 106.655 34.1027 106.633C33.5257 106.406 32.8401 106.355 32.2848 106.09C32.1714 106.034 32.0869 106.01 31.9662 106.008C31.8069 106.005 31.6258 106.005 31.4713 105.957C30.6915 105.728 29.8683 105.607 29.1513 105.214C28.8206 105.131 28.4899 105.059 28.1616 104.95C27.6039 104.767 27.0535 104.523 26.5055 104.323C26.1699 104.2 25.8802 104.05 25.5688 103.871C24.7408 103.388 23.9248 102.855 23.1909 102.203C22.8264 101.88 22.4788 101.52 22.1601 101.143C21.8463 100.762 21.5638 100.354 21.3104 99.9291C21.2379 99.7939 21.1703 99.6563 21.1052 99.5187C21.0448 99.3787 20.9941 99.2338 20.941 99.0914C20.8613 98.8548 20.7793 98.6158 20.6634 98.4154C20.4075 98.005 20.2868 97.5102 20.2023 97.0104C20.0888 96.2862 20.0864 95.5354 20.2168 94.7991C20.3544 94.0652 20.6079 93.3579 20.9603 92.7085C21.2138 92.2643 21.5542 91.9239 21.8656 91.5208C21.9284 91.4411 21.9935 91.3566 22.0587 91.2721C22.1287 91.1925 22.2036 91.1176 22.2808 91.0428C22.3581 90.968 22.4353 90.8955 22.5174 90.8279C22.6019 90.7652 22.6888 90.7072 22.7781 90.6565C23.6279 89.8647 24.5718 89.225 25.523 88.6359C25.8247 88.4549 26.1289 88.2738 26.4355 88.1048C26.5972 88.0131 26.7541 87.9769 26.8797 87.9914C27.0414 88.0107 27.2008 88.0372 27.3311 88.0855C27.3842 88.1048 27.4035 88.1966 27.3601 88.2521C27.0631 88.6359 26.6745 89.0029 26.2641 89.3578C25.9792 89.5992 25.6171 89.8068 25.3009 90.0409L25.3057 90.0168Z" fill="#1636FF"/>
</g>
<defs>
<clipPath id="clip0_235_5247">
<rect width="85.9056" height="107" fill="white"/>
</clipPath>
</defs>
</svg>
