<svg width="150" height="183" viewBox="0 0 150 183" fill="none" xmlns="http://www.w3.org/2000/svg">
<g clip-path="url(#clip0_321_153)">
<path d="M71.8041 128.148C71.3998 128.421 71.0451 128.716 70.4724 128.861C70.2102 128.924 70.3119 129.247 69.9319 129.251C69.6969 129.252 69.4624 129.246 69.2384 129.26C68.9437 129.277 68.8481 129.432 68.97 129.745C69.0341 129.913 69.1533 130.077 68.864 130.133C68.5787 130.19 68.3731 130.288 68.3039 130.522C68.2484 130.726 68.1007 130.901 68.0103 131.099C67.8174 131.503 66.9613 131.353 66.9078 131.909C66.8677 132.31 66.3714 132.487 66.039 132.737C65.6575 133.023 65.261 133.296 64.8575 133.558C64.7598 133.618 64.6102 133.633 64.4722 133.648C64.1766 133.681 64.0342 133.832 63.9344 134.057C63.7444 134.476 63.52 134.882 63.299 135.295C63.202 135.473 63.063 135.441 62.8428 135.201C62.6409 134.981 62.4305 134.964 62.3591 135.171C62.2559 135.451 62.122 135.72 62.0644 136.022C61.9711 136.526 61.5901 136.675 61.095 136.703C60.8986 136.715 60.708 136.758 60.5321 136.818C60.4161 136.857 60.458 137.005 60.4724 137.154C60.5006 137.462 60.4403 137.552 60.2009 137.498C59.6829 137.388 59.2745 137.473 58.9478 137.758C58.6337 138.029 58.2828 138.262 58.1199 138.687C58.0412 138.886 57.9041 138.952 57.6953 138.907C57.3632 138.832 57.0391 138.754 56.707 138.679C56.5563 138.646 56.4738 138.716 56.4264 138.85C56.3376 139.087 56.2302 139.308 56.1374 139.545C56.0119 139.87 55.7705 139.718 55.5127 139.581C55.3724 139.506 55.3309 139.609 55.3775 139.808C55.427 140.022 55.4954 140.249 55.4947 140.453C55.4959 140.884 55.1782 141.213 54.8111 141.198C54.6197 141.19 54.4245 141.182 54.2323 141.124C53.8865 141.016 53.5947 141.05 53.3419 141.214C52.7998 141.565 52.2573 141.923 51.6898 142.241C51.3329 142.442 50.9706 142.671 50.5161 142.612C50.0674 142.522 49.8096 142.768 49.5431 143.222C49.4381 143.404 49.2982 143.579 49.1266 143.76C49.0234 143.848 48.9431 143.945 48.8045 144.034L48.6044 144.171C48.5272 144.217 48.4346 144.258 48.3498 144.3C48.2894 144.328 48.229 144.356 48.1691 144.375C48.0974 144.395 48.0302 144.406 47.9629 144.418C47.8286 144.437 47.7143 144.449 47.5895 144.442C47.333 144.411 47.1137 144.346 46.9302 144.21C46.7543 144.078 46.555 143.878 46.4711 143.649C46.4195 143.533 46.373 143.397 46.3389 143.25C46.327 143.124 46.3238 142.983 46.3331 142.83C46.3348 142.674 46.354 142.616 46.3264 142.556C46.2987 142.496 46.2389 142.449 46.1326 142.395C45.9877 142.332 45.7475 142.161 45.7545 142.11C45.9405 141.307 45.9508 140.497 46.5643 140.131C46.9053 139.933 46.7077 139.706 46.4543 139.494C46.324 139.385 46.339 139.268 46.4743 139.167C46.6012 139.077 46.5959 138.971 46.5377 138.834C46.4256 138.553 46.4601 138.308 46.4812 138.09C46.4872 137.993 46.5065 137.869 46.5029 137.735C46.5029 137.606 46.4835 137.476 46.4289 137.343C46.5731 137.098 46.7634 136.867 46.85 136.602C46.99 136.168 47.0561 135.725 47.4722 135.387C47.5794 135.299 47.5358 135.05 47.4595 134.889C47.3351 134.619 47.7293 134.51 47.6156 134.256C47.4849 133.959 47.8183 133.885 48.0151 133.74C48.1707 133.628 48.3107 133.516 48.2101 133.302C48.0717 133.004 48.2251 132.735 48.254 132.455C48.2835 132.163 48.6635 131.967 48.5326 131.673C48.3502 131.263 48.578 130.866 48.317 130.458C48.1455 130.189 48.34 130.017 48.6426 129.934C49.1322 129.803 49.2792 129.511 49.255 129.137C49.2322 128.74 49.0805 128.34 49.3612 127.973C49.4466 127.857 49.2995 127.637 49.2788 127.463C49.2581 127.289 49.2181 127.111 49.2554 126.949C49.3268 126.612 49.7779 126.405 49.7535 126.036C49.7274 125.693 49.6037 125.345 49.5737 125.003C49.5524 124.774 49.6135 124.543 49.6546 124.319C49.7482 123.811 49.7456 123.275 50.2653 122.907C50.3101 122.687 50.4565 122.469 50.2752 122.231C50.0508 121.931 50.0667 121.67 50.3125 121.426C50.3583 121.382 50.4245 121.323 50.4115 121.28C50.304 120.925 50.2194 120.579 50.5497 120.297C50.54 120.007 50.5952 119.744 50.7635 119.488C50.9233 119.244 50.572 118.905 50.803 118.649C50.9874 118.449 50.954 118.228 50.8668 117.987C50.7797 117.747 50.8338 117.566 50.9561 117.358C51.0429 117.219 51.1511 117.049 51.1094 116.898C50.8807 116.027 50.9737 115.144 51.5343 114.297C51.7454 113.981 51.8787 113.594 51.7986 113.174C51.7225 112.817 51.9437 112.721 52.2488 112.661C52.4033 112.631 52.3597 112.511 52.2407 112.343C51.9092 111.873 51.9755 111.685 52.4341 111.548C52.6409 111.495 52.8981 111.514 52.9029 111.244C52.934 111.184 52.9655 111.115 53.0468 111.002C53.1434 110.895 53.2521 110.717 53.655 110.531C53.7715 110.483 53.8753 110.45 54.0176 110.427C54.0888 110.416 54.1636 110.409 54.2379 110.41C54.3008 110.406 54.4176 110.417 54.3864 110.415L54.4025 110.408L54.4344 110.398C54.4782 110.385 54.526 110.372 54.5696 110.363C54.6608 110.345 54.7475 110.335 54.8375 110.336C55.0169 110.347 55.1937 110.401 55.3653 110.541C55.5032 110.655 55.7323 110.751 55.877 110.69C56.2112 110.538 56.4724 110.62 56.7623 110.81C57.1502 111.061 57.558 111.18 58.0672 110.984C58.4833 110.837 58.8802 111.006 59.2651 111.178C59.7759 111.405 60.0878 111.941 60.7331 112.015C60.7992 112.023 60.8697 112.086 60.9088 112.151C61.0184 112.346 61.1376 112.51 61.2563 112.682C61.3755 112.846 61.5147 113.003 61.6255 113.111C61.8696 113.345 62.1685 113.516 62.5616 113.619C62.7352 113.661 62.8876 113.858 62.9359 114.029C63.0911 114.63 63.3417 115.08 63.9512 115.293C64.0624 115.331 64.1686 115.451 64.1851 115.566C64.3086 116.493 64.9392 117.068 65.4162 117.72C65.5537 117.904 65.6835 118.088 65.8051 118.276L63.4409 117.818C64.0209 117.423 64.691 117.221 65.3092 117.228C65.5715 117.228 65.8002 117.265 66.0482 117.179C66.7117 116.957 67.4055 117.136 67.8912 117.581C68.1954 117.858 68.5069 118.014 68.8804 118.052C69.5107 118.118 69.9427 118.481 70.1658 118.996C70.2727 119.233 70.4112 119.465 70.594 119.613C71.0522 119.997 71.3222 120.578 71.8619 120.908C72.4163 121.255 72.6071 121.913 73.0637 122.387C73.3286 122.665 73.7869 122.854 73.8366 123.323C73.8836 123.772 74.1216 124.108 74.3038 124.522C74.3784 124.711 74.3751 124.894 74.3166 125.083C74.2569 125.29 74.1861 125.361 74.0985 125.77C73.9857 126.143 73.6526 126.213 73.3772 126.106C73.0974 126.007 72.8131 125.79 72.6258 125.716C72.6029 125.706 72.6275 125.688 72.6674 125.675C72.7115 125.658 72.7871 125.639 72.8477 125.608C73.0189 125.497 73.0002 125.355 72.8069 125.378C71.9879 125.454 71.75 125.247 71.6204 124.867C71.5433 124.655 71.4141 124.463 71.4429 124.183C71.473 123.946 71.3614 123.787 71.1187 123.721C70.8258 123.644 70.6245 123.479 70.55 123.224C70.3045 122.371 69.5801 121.795 68.9609 121.162L68.4052 120.58C68.3354 120.505 68.3091 120.359 68.2167 120.334C67.6892 120.188 67.2506 119.997 66.835 119.877C66.4234 119.758 65.9684 119.707 65.6227 119.854C65.4176 119.944 65.2638 120.091 65.22 120.296L65.2038 120.369L64.9935 121.249L63.2148 119.985C62.7721 119.669 62.4648 119.251 62.4868 118.633C62.4937 118.391 62.4095 118.167 62.3928 117.927C62.3811 117.734 62.2995 117.596 62.1445 117.504C61.4258 117.093 61.0162 116.426 60.4054 115.977C59.9444 115.64 59.7253 115.188 59.8344 114.49C59.8547 114.35 59.726 114.342 59.5655 114.47C59.286 114.687 59.0891 114.707 58.9312 114.599C58.7555 114.463 58.5897 114.293 58.4037 114.132C58.2592 113.998 58.1202 113.837 57.9596 113.71C57.7424 113.548 57.4733 113.531 57.1935 113.691C56.9012 113.861 56.6674 113.843 56.4623 113.611C56.0955 113.205 55.6205 113.097 55.1158 113.349C54.8654 113.474 54.6278 113.518 54.3944 113.492C54.3359 113.489 54.2779 113.478 54.2201 113.462L54.1316 113.437L54.1277 113.437L54.1628 113.439L54.2408 113.444C54.2954 113.447 54.3466 113.443 54.4017 113.438C54.516 113.426 54.6035 113.403 54.687 113.381C54.7667 113.359 54.8673 113.314 54.9199 113.286C55.0371 113.226 55.1479 113.143 55.1976 113.099C55.2721 113.033 55.3056 112.996 55.3436 112.951C55.4747 112.791 55.4903 112.729 55.5124 112.688C55.5265 112.649 55.5315 112.63 55.514 112.66L55.4875 112.71L55.4477 112.785C55.4477 112.785 55.4433 112.793 55.4392 112.797L55.4228 112.807L55.3573 112.854C55.3123 112.887 55.2636 112.915 55.2068 112.947C54.8376 113.159 54.6922 113.554 54.8798 114.008C55.0198 114.345 54.8827 114.603 54.6513 114.867C54.5383 114.985 54.3565 115.142 54.3957 115.27C54.4987 115.57 54.6215 115.805 54.002 115.755C53.8616 115.746 53.721 115.804 53.5782 115.835C53.7031 115.905 53.8239 115.979 53.9532 116.042C54.0861 116.109 54.2641 116.143 54.3608 116.227C54.4538 116.307 54.5352 116.449 54.5063 116.537C54.4236 116.803 54.2167 117.048 54.184 117.328C54.151 117.612 54.3004 117.923 54.2977 118.224C54.2944 118.47 54.2807 118.759 54.1081 118.894C53.7003 119.225 54.0525 119.677 53.8544 120.037C53.6869 120.344 53.6074 120.684 53.536 121.02C53.4493 121.414 53.4251 121.812 53.6541 122.229C53.7773 122.456 53.6809 122.689 53.5971 122.907C53.5 123.151 53.3005 123.276 52.9488 123.267C52.7142 123.26 52.4812 123.23 52.2466 123.224C52.1764 123.22 52.0892 123.238 52.0402 123.27C51.9545 123.327 52.0193 123.421 52.2153 123.48C52.5151 123.573 52.824 123.643 53.124 123.731C53.3279 123.791 53.5028 124.068 53.3828 124.174C52.8855 124.625 52.8422 125.206 52.807 125.783C52.7897 126.068 52.9081 126.373 52.8712 126.656C52.8421 126.878 52.6427 127.065 52.5823 127.285C52.5421 127.431 52.8055 127.67 52.5309 127.744C52.1807 127.836 52.1217 127.969 52.2025 128.248C52.2996 128.583 52.5412 128.923 52.3164 129.269C52.1652 129.503 52.3104 129.817 52.1222 130.079C51.9208 130.365 51.8048 130.726 51.8189 131.071C51.8354 131.507 51.3569 131.779 51.4294 132.195C51.4992 132.59 51.2293 132.844 51.0732 133.155C50.7831 133.741 50.6401 134.351 50.845 135.037C51.0425 135.714 50.9098 136.348 50.4702 136.881C50.1529 137.269 50.0209 137.699 49.9377 138.164L49.8578 138.641L49.8082 138.877C49.7871 138.965 49.7619 139.058 49.7332 139.142C49.6224 139.484 49.4643 139.764 49.2199 139.984C49.0751 140.112 49.1355 140.276 49.1345 140.421C49.1312 140.797 49.156 141.096 49.1512 141.303C49.1528 141.405 49.1356 141.494 49.1107 141.583C49.0922 141.628 49.0857 141.671 49.0548 141.728C49.0099 141.694 48.9519 141.683 48.8345 141.617C48.7089 141.558 48.4879 141.458 48.3789 141.448C48.2465 141.436 48.2551 141.425 48.2723 141.398C48.3424 141.34 48.4714 141.152 48.6276 140.966C48.7753 140.983 48.9259 140.953 49.0901 140.892C49.1742 140.862 49.2626 140.824 49.3752 140.777L49.6039 140.685C49.8851 140.569 50.1664 140.449 50.5017 140.473C50.6382 140.482 50.7186 140.447 50.7803 140.334C50.8681 140.179 50.9536 139.996 51.0947 139.93C51.8035 139.605 52.2998 138.915 53.1538 138.842C53.3877 138.602 53.5997 138.337 53.8514 138.125C54.2806 137.763 54.7755 137.48 55.1425 137.049C55.3661 136.784 55.6155 136.612 55.9002 136.437C56.6688 135.967 57.3449 135.409 58.0657 134.89C58.7786 134.369 59.4843 133.841 60.2121 133.333C60.4369 133.178 60.7134 133.074 60.986 132.969C61.2104 132.885 61.4319 132.785 61.5071 132.578C61.6588 132.145 62.0034 131.888 62.3489 131.615C63.3396 130.842 64.3262 130.072 65.2896 129.297C65.6232 129.028 66.1537 128.931 66.4543 128.624C66.6965 128.377 66.9969 128.136 67.4948 128.061L70.0497 126.228C70.3197 126.037 70.5937 125.846 70.8752 125.66C71.0221 125.563 71.2511 125.53 71.5076 125.561C71.8419 125.601 72.1835 125.649 72.5156 125.725C72.6468 125.756 72.8393 125.874 72.8545 125.945C72.9579 126.433 72.8582 126.912 72.6275 127.356C72.4717 127.664 72.0889 127.907 71.806 128.179L71.8041 128.148Z" fill="#1636FF"/>
<path d="M50.0739 131.74C50.1269 131.771 50.1871 131.747 50.2228 131.996C50.2393 132.111 50.2873 131.773 50.2962 132.012C50.2988 132.161 50.3049 132.318 50.3088 132.448C50.3178 132.62 50.3418 132.547 50.3937 132.21C50.4205 132.028 50.449 131.818 50.4643 131.952C50.4757 132.086 50.4962 132.134 50.5406 131.984C50.5799 131.853 50.6108 131.796 50.6482 131.697C50.7273 131.49 50.6991 132.146 50.8069 131.726C50.8877 131.43 50.9208 131.592 50.9713 131.599C51.0256 131.606 51.0827 131.633 51.1311 131.676C51.1423 131.684 51.141 131.77 51.1445 131.841C51.1467 131.997 51.1763 131.96 51.2225 131.846C51.3138 131.632 51.4033 131.449 51.4929 131.263C51.533 131.183 51.5225 131.292 51.4557 131.617C51.3986 131.911 51.3864 132.047 51.4323 131.937C51.4966 131.78 51.5552 131.654 51.63 131.455C51.7518 131.126 51.7762 131.241 51.7632 131.518C51.7565 131.628 51.7593 131.71 51.7674 131.769C51.7729 131.809 51.8126 131.67 51.8514 131.547C51.9335 131.294 51.9549 131.264 51.9281 131.446C51.8726 131.842 51.8697 132.018 51.9296 131.998C51.9857 131.978 52.0269 132.008 52.1385 131.784C52.1919 131.678 52.2017 131.709 52.1725 131.868C52.1261 132.116 52.0791 132.371 52.0366 132.619C52.0141 132.732 52.0302 132.725 52.0659 132.653C52.1325 132.524 52.1862 132.413 52.2531 132.28C52.3423 132.102 52.28 132.352 52.2177 132.603C52.1821 132.738 52.213 132.681 52.2787 132.501C52.3494 132.306 52.4249 132.095 52.4934 131.935C52.6313 131.599 52.7185 131.518 52.6864 131.723C52.6719 131.832 52.6536 131.941 52.6211 132.087C52.5579 132.354 52.5464 132.478 52.5856 132.477C52.6641 132.474 52.7513 132.456 52.8291 132.464C52.8759 132.467 52.9398 132.447 52.8855 132.695C52.8262 132.961 52.8873 132.922 53.0396 132.673C53.1612 132.477 53.2687 132.319 53.4223 132.046C53.637 131.672 53.6356 131.695 53.4587 132.221C53.4159 132.343 53.4279 132.34 53.5115 132.189C53.5689 132.083 53.67 131.901 53.6649 131.92C53.5784 132.248 53.6924 132.176 53.5139 132.663C53.4151 132.935 53.5381 132.715 53.6874 132.45C53.7623 132.314 53.7827 132.299 53.7531 132.399C53.724 132.491 53.7496 132.458 53.8053 132.379C54.0325 132.056 54.0036 132.274 54.2162 131.997C54.2112 132.079 54.1877 132.206 54.2134 132.235C54.2532 132.289 54.3285 132.274 54.2198 132.58C54.1914 132.661 54.2666 132.583 54.3383 132.498C54.4568 132.352 54.3003 132.671 54.4101 132.541C54.5368 132.388 54.4025 132.666 54.3388 132.811C54.2924 132.929 54.2472 133.028 54.3441 132.917C54.4791 132.757 54.4615 132.853 54.5132 132.841C54.5648 132.828 54.4178 133.121 54.548 132.976C54.7286 132.776 54.7002 132.919 54.9239 132.655C55.0713 132.484 55.0118 132.625 54.8718 132.867C54.6442 133.26 54.6314 133.342 54.721 133.284C54.8187 133.224 54.9854 133.058 54.9111 133.249C54.8878 133.31 55.0141 133.165 55.0633 133.129C55.1125 133.093 55.1702 133.045 55.1851 133.058C55.2187 133.084 55.0096 133.431 55.1031 133.374C55.1886 133.321 55.3337 133.189 55.4231 133.135C55.484 133.1 55.4979 133.128 55.5206 133.141C55.5736 133.172 55.69 133.124 55.4629 133.51C55.4815 133.526 55.4404 133.622 55.595 133.463C55.7914 133.26 55.8348 133.254 55.738 133.429C55.7205 133.459 55.694 133.508 55.7106 133.493C55.8466 133.38 55.9696 133.29 55.8342 133.521C55.8987 133.489 55.9207 133.514 55.8709 133.625C55.8252 133.731 56.1061 133.428 56.0178 133.591C55.9473 133.719 56.0129 133.672 56.1158 133.589C56.2191 133.501 56.225 133.533 56.1924 133.617C56.1694 133.674 56.1334 133.75 56.1867 133.71C56.4899 133.49 56.586 133.519 56.4244 133.858C56.3658 133.984 56.3703 134.039 56.5271 133.907C56.6593 133.794 56.5649 133.929 56.4029 134.146C56.3219 134.255 56.3844 134.192 56.5015 134.07C56.832 133.722 56.8561 133.712 56.6506 134.001C56.5564 134.132 56.4163 134.312 56.511 134.235C56.6466 134.13 56.7275 134.088 56.6054 134.292C56.5534 134.375 56.5298 134.44 56.5999 134.382C56.7531 134.246 56.7502 134.293 56.6924 134.407C56.6161 134.567 56.6415 134.599 56.8903 134.372C57.0891 134.192 57.0978 134.244 57.1273 134.273C57.1603 134.31 56.9822 134.597 57.2211 134.404C57.2457 134.386 57.2406 134.405 57.2275 134.428C57.0519 134.738 57.0747 134.814 57.4244 134.538C57.5025 134.476 57.5125 134.504 57.4729 134.576C57.3326 134.822 57.3189 134.919 57.6101 134.702C57.6634 134.662 57.6866 134.667 57.6564 134.712C57.4172 135.105 57.6252 135.031 57.724 135.081C57.804 135.117 57.867 135.175 57.8224 135.329C57.812 135.372 57.7896 135.417 57.8705 135.375C58.0807 135.267 58.1001 135.334 57.9585 135.537C57.8685 135.665 57.8944 135.69 58.0396 135.62C58.2819 135.498 58.301 135.57 58.1439 135.772C58.0716 135.865 58.0281 135.937 58.0544 135.954C58.1259 136.002 57.9807 136.2 58.1588 136.168C58.3404 136.144 58.1509 136.363 58.2835 136.371C58.3615 136.376 58.6302 136.271 58.5168 136.397C58.4034 136.524 58.5138 136.511 58.5911 136.527C58.6606 136.543 58.4395 136.702 58.2876 136.818C58.1271 136.945 57.2544 137.389 56.9608 137.516C56.9408 137.523 56.9776 137.498 57.0102 137.476C57.0509 137.451 57.1159 137.412 57.1727 137.38C57.3312 137.284 57.3283 137.268 57.1583 137.36C56.4305 137.738 56.2419 137.813 56.2404 137.774C56.2418 137.75 56.1948 137.751 56.3301 137.65C56.4412 137.563 56.4263 137.55 56.2809 137.623C56.1033 137.711 56.0394 137.73 56.1186 137.653C56.3766 137.402 56.2561 137.387 56.2538 137.297C56.2516 137.269 56.2617 137.231 56.2761 137.189C56.2809 137.173 56.3559 137.1 56.3237 137.113C55.961 137.283 56.0638 137.074 55.8696 137.113C55.8101 137.125 55.7295 137.163 55.6031 137.245C55.3951 137.382 55.3237 137.397 55.566 137.083C55.6553 136.967 55.6782 136.913 55.7509 136.812C55.8107 136.73 55.808 136.71 55.7428 136.753C55.4566 136.951 55.4555 136.841 55.2947 136.91C55.1702 136.961 55.2419 136.812 55.6034 136.341C55.6757 136.248 55.6097 136.302 55.4798 136.443C55.2493 136.691 55.1336 136.79 55.1273 136.766C55.1172 136.738 55.1371 136.669 55.1607 136.604C55.1796 136.55 55.2243 136.459 55.2433 136.405C55.2673 136.332 55.2025 136.368 55.0282 136.529C54.8495 136.698 54.8015 136.715 54.8932 136.56C55.0585 136.288 55.0343 136.236 54.7906 136.444C54.5469 136.652 54.5308 136.597 54.6589 136.358C54.7734 136.15 54.7316 136.127 54.4914 136.344C54.3134 136.501 54.3294 136.432 54.4091 136.28C54.4488 136.208 54.531 136.08 54.4735 136.123C54.3498 136.225 54.2254 136.339 54.6189 135.858C54.7077 135.75 54.7807 135.645 54.8653 135.54C54.777 135.641 54.6887 135.741 54.5964 135.841C54.5037 135.949 54.3859 136.083 54.3105 136.164C54.2392 136.242 54.1605 136.312 54.1615 136.296C54.1643 136.249 54.2475 136.106 54.2207 136.096C54.1899 136.087 54.0446 136.223 53.9922 136.247C53.952 136.264 53.9001 136.28 53.978 136.16C54.1599 135.873 53.859 136.184 53.9093 136.065C53.9509 135.962 53.933 135.934 53.9113 135.905C53.8859 135.872 53.8259 135.892 53.6093 136.106C53.4925 136.224 53.5036 136.17 53.5143 136.124C53.5252 136.073 53.6202 135.926 53.8253 135.645C53.9618 135.462 54.1066 135.271 54.243 135.087C54.2856 135.031 54.3328 134.964 54.3544 134.93C54.3936 134.866 54.3388 134.929 54.2118 135.086C54.0206 135.332 53.8255 135.579 53.6342 135.826C53.5026 135.994 53.3517 136.157 53.3999 136.074C53.6051 135.726 53.5176 135.748 53.4294 135.782C53.3853 135.799 53.2641 135.924 53.2288 135.926C53.2054 135.925 53.2802 135.788 53.2739 135.764C53.2709 135.749 53.076 135.991 53.2183 135.777C53.3953 135.506 53.4014 135.471 53.3053 135.571C53.1887 135.685 52.9979 135.924 53.0533 135.786C53.0904 135.691 52.9556 135.847 53.0098 135.729C53.0647 135.599 53.0558 135.551 52.9857 135.61C52.8991 135.683 53.0933 135.323 52.9765 135.441C52.8677 135.556 52.9573 135.369 52.9743 135.284C53.0113 135.126 52.9579 135.103 52.7331 135.387C52.5122 135.671 52.4656 135.664 52.5607 135.388C52.6316 135.189 52.6067 135.148 52.5546 135.169C52.4786 135.195 52.3877 135.272 52.4899 134.945C52.5192 134.849 52.4628 134.94 52.4338 134.965C52.2841 135.109 52.1821 135.177 52.2856 134.765C52.3166 134.641 52.2713 134.678 52.2306 134.702C52.1939 134.728 52.1209 134.833 52.0698 134.9C52.1531 134.561 51.9982 134.79 52.0777 134.45C52.0936 134.381 52.0863 134.373 52.0511 134.437C52.0027 134.524 51.9453 134.63 51.9385 134.614C51.8884 134.537 51.7131 134.843 51.772 134.455C51.717 134.522 51.6564 134.617 51.6153 134.649C51.5454 134.704 51.5134 134.651 51.4278 134.771C51.3762 134.846 51.3533 134.837 51.3318 134.804C51.2783 134.719 51.1949 134.737 51.1215 134.721C51.0481 134.705 50.9703 134.696 50.9018 134.664C50.8789 134.655 50.8722 134.573 50.8652 134.494C50.8576 134.427 50.8489 134.375 50.8065 134.494C50.7245 134.748 50.685 134.753 50.6452 134.762C50.5339 134.791 50.4218 134.831 50.3081 134.898C50.2713 134.924 50.2627 134.68 50.215 134.756C50.1797 134.82 50.1471 134.842 50.1348 134.594L49.8681 134.601C49.8408 134.6 49.8135 134.598 49.7828 134.588C49.7674 134.584 49.7592 134.462 49.7516 134.265C49.7439 134.007 49.7369 133.736 49.7269 133.45C49.726 133.336 49.7289 133.097 49.7375 133.02C49.7882 132.51 49.8532 132.15 49.9228 131.907C49.972 131.742 50.0206 131.78 50.0705 131.732L50.0739 131.74Z" fill="#1636FF"/>
<path d="M58.5443 104.145C59.4381 102.97 60.2742 101.78 61.3058 100.786C61.7758 100.333 61.9294 99.5472 62.5302 99.1336C62.902 98.8783 63.269 98.6384 63.643 98.348C64.128 97.9704 64.4392 97.4256 64.5332 96.7188C64.5841 96.3343 64.548 96.0267 65.0583 95.5567C65.5685 95.0866 65.9989 94.5765 66.3111 93.8869C66.5828 93.2849 66.9736 92.6549 67.2929 92.0401C67.9448 90.7878 69.2424 90.1192 69.7862 88.6489C70.1754 87.596 71.144 86.5432 71.8957 85.5163C72.7586 84.3356 73.6407 83.16 74.5297 82.0006C74.7384 81.7236 75.015 81.4899 75.2631 81.274C75.8052 80.7942 76.1644 80.2327 76.494 79.5794C77.113 78.3526 77.7715 77.1203 78.422 75.8915C78.7049 75.3606 78.9322 75.2296 79.1812 75.4484C79.404 75.646 79.7768 75.3751 80.038 74.8155C80.394 74.0502 80.8021 73.2647 81.0782 72.5259C81.5363 71.3049 82.3017 70.4393 83.2319 69.6308C83.6039 69.309 83.9797 68.9247 84.3364 68.5315C84.5715 68.2717 84.5746 68.0292 84.6234 67.7424C84.7256 67.1575 84.8795 66.8811 85.3028 66.6171C86.2231 66.0351 87.0412 65.2041 87.8052 64.1035C88.5308 63.0555 89.3146 62.0148 89.8205 60.9103C90.0554 60.3961 90.3557 60.0307 90.7519 59.7612C91.3726 59.341 91.9809 58.9318 92.6053 58.5157C92.8912 58.3217 93.0807 58.0396 93.2306 57.7003C93.5061 57.0985 93.7913 56.466 94.0669 55.8642C94.431 55.029 94.8545 54.8904 95.3166 54.6954C95.5697 54.5895 95.688 54.3187 95.6627 54.0275C95.635 53.7126 95.5792 53.4077 95.6454 53.028C95.7843 52.2261 96.4925 51.0791 97.2121 50.4495C97.5846 50.1199 97.9692 49.7831 98.3326 49.5391C98.9857 49.1013 99.5781 48.5031 100.126 47.73L103.61 42.8058C104.35 41.7704 105.085 40.6955 105.992 39.8816C106.957 39.0165 107.609 38.0304 108.081 36.8925C108.458 35.9876 108.897 35.0747 109.154 34.1978C109.506 32.9899 109.563 32.9542 110.82 32.1656C111.118 31.9802 111.247 31.7923 111.283 31.4461C111.309 31.2127 111.38 30.7629 111.442 30.7079C112.566 29.739 113.548 28.2093 114.738 27.4479C115.41 27.0191 115.511 26.4498 115.485 25.9705C115.473 25.7231 115.655 25.4406 115.972 25.1819C116.269 24.9377 116.41 24.6723 116.545 24.332C117.084 22.9359 118.325 21.5943 118.919 20.1937C119.504 19.5207 120.123 18.8811 120.663 18.1702C121.549 17.0066 122.361 15.815 123.431 14.8976C123.712 14.6563 124.061 14.0003 124.232 13.5839C124.518 12.877 125.191 12.5618 125.47 11.8937C125.8 11.1112 126.337 10.8973 126.811 10.5151C127.19 10.2094 127.545 9.90996 127.775 9.34846C127.901 9.01553 128.239 8.42144 128.833 7.97615C128.907 7.92193 128.981 7.8638 129.063 7.81395L129.326 7.67338C129.496 7.57415 129.699 7.51608 129.891 7.45338C130.285 7.34821 130.686 7.31787 131.041 7.33952C131.782 7.38471 132.309 7.67522 132.748 7.92126C133.187 8.17119 133.56 8.40538 133.962 8.49253C135.155 8.77277 136.362 9.58246 137.522 9.8959C138.284 10.099 138.812 10.6323 139.047 11.1361C139.424 11.95 140.213 12.6206 141.189 13.3222C142.22 14.0624 143.277 14.765 144.046 15.9669C144.168 16.1505 144.36 16.3384 144.575 16.5355C144.794 16.729 145.028 16.9312 145.211 17.1459C145.593 17.5646 145.972 18.0185 146.275 18.5146C146.896 19.5587 146.97 20.6555 147.47 21.7744C147.93 22.8243 148.367 23.8768 148.594 25.0377C148.612 25.1289 148.63 25.22 148.652 25.3153L148.754 25.811L148.33 26.4742C147.993 27.0056 147.593 27.5293 147.212 28.0542C146.25 29.3777 145.342 30.7904 144.111 31.7137C143.685 32.2907 143.15 32.8453 142.954 33.4872C142.705 34.2942 142.24 34.9823 141.549 35.5979C141.425 35.7078 141.251 35.8538 141.189 35.9753C140.713 36.9172 140.218 37.8345 139.364 38.5459C138.888 39.3038 138.376 39.993 137.745 40.6475C137.142 41.2763 136.976 42.2019 136.279 42.8446C135.728 43.3551 135.391 43.9375 135.09 44.5691C134.785 45.2082 134.347 45.7688 133.845 46.3058C133.493 46.6837 133.07 47.1239 132.845 47.5369C131.545 49.9164 130.008 52.0699 128.103 54.0483C127.392 54.7841 126.654 55.7218 126.208 56.6695C125.83 57.4764 125.465 57.6891 124.983 57.8907C124.738 57.9932 124.655 58.2583 124.615 58.5925C124.506 59.549 124.281 59.8955 123.501 60.3569C123.152 60.5627 122.849 60.5873 122.511 61.2479C122.031 62.1818 121.48 63.076 120.639 63.8235C120.295 64.1314 119.821 64.6623 119.657 65.0321C119.284 65.8785 118.801 66.4794 118.154 67.1446C117.281 68.0389 116.531 69.0502 116.088 70.2095C115.733 71.1432 115.033 72.0362 114.376 72.9201C113.527 74.0625 112.429 74.9938 111.815 76.3345C111.756 76.468 111.6 76.6503 111.483 76.7606C110.041 78.133 108.872 79.6513 108.071 81.4817C107.894 81.882 107.468 82.4433 107.127 82.7749C105.954 83.9092 104.968 85.1098 104.305 86.6119C104.183 86.8863 103.916 87.2772 103.692 87.4828C101.864 89.2076 100.493 91.4026 99.0247 93.4624C97.8518 95.1058 96.6724 96.7252 95.3815 98.2478C95.0314 98.661 94.6953 99.0359 94.4461 99.5258C93.7802 100.816 92.9043 101.953 91.8722 102.955C91.2231 103.585 90.6767 104.327 90.2959 105.114C89.6516 106.433 88.8137 107.525 87.7615 108.538C87.2749 109.006 86.7628 109.569 86.352 110.143C85.2984 111.626 84.0311 112.954 83.0952 114.498C82.1459 116.069 80.8583 117.345 79.8687 118.87C79.2855 119.767 78.9116 120.762 78.1276 121.548C77.3516 122.331 76.8194 123.226 76.2281 124.126C75.7055 124.928 75.0231 125.395 74.4035 125.925C73.7262 126.502 72.8069 126.106 72.9666 125.348C72.9773 125.302 73.1688 125.114 73.2667 125.049C73.3851 124.97 73.4921 124.949 73.6085 124.902C73.942 124.761 74.2016 124.421 74.07 124.268C73.5176 123.631 74.0565 122.564 75.0578 121.231C75.6074 120.501 76.1238 119.738 76.7708 119.143C77.3059 118.651 77.6992 118.108 77.9781 117.451C78.3121 116.661 78.8352 115.851 79.4378 115.215C81.4218 113.112 83.0921 110.696 84.8584 108.377C85.4075 107.654 85.9715 106.945 86.5392 106.24C86.7596 105.963 87.0681 105.72 87.2215 105.451C89.0409 102.324 91.4031 99.4772 93.416 96.4522C94.0194 95.5454 94.5583 94.67 95.0659 93.73C95.9001 92.1835 96.94 90.6691 98.3001 89.4874C98.7963 89.0557 99.281 88.4902 99.7793 88.0233C100.178 87.6522 100.492 87.2446 100.752 86.7672C101.944 84.569 103.548 82.5253 104.919 80.3968C105.97 78.7618 107.08 77.5178 108.405 76.7177C108.669 76.5577 108.811 76.2179 108.76 75.9681C108.665 75.5278 108.921 74.9248 109.381 74.3186C109.926 73.5962 110.516 72.9079 111.098 72.2269C111.562 71.6836 112.055 71.1811 112.522 70.638C113.133 69.9275 113.606 69.1733 113.881 68.3953C114.169 67.5907 114.651 66.8645 115.323 66.2477C116.513 65.1614 117.463 63.9116 118.151 62.4384C118.836 60.9729 119.801 59.7201 120.979 58.5666C122.004 57.5641 122.841 56.4132 123.411 55.0972C123.83 54.1284 124.527 53.29 125.298 52.5226C125.661 52.1611 126.16 51.7413 126.343 51.3766C126.766 50.5371 127.05 49.8693 127.667 50.0831C127.805 50.1307 128.073 49.9825 128.284 49.9249C128.269 49.7204 128.262 49.5008 128.231 49.311C128.196 49.117 128.062 48.9953 128.104 48.759C128.146 48.5266 128.307 48.1293 128.497 47.8943C129.057 47.2001 129.708 46.59 130.218 45.8772C130.736 45.1531 131.087 44.3406 131.579 43.5876C131.967 42.9966 132.455 42.255 132.895 41.9021C133.929 41.0686 134.285 39.8531 135.125 38.9255C135.834 38.1388 136.503 37.2517 137.155 36.3792C137.923 35.3533 138.62 34.3113 139.068 33.1993C139.308 32.5993 139.811 31.9918 140.28 31.4292C140.804 30.7956 141.241 30.4934 141.634 30.5486C141.89 30.5838 142.111 30.6834 142.366 30.7303C142.444 30.7429 142.571 30.7115 142.682 30.6282C142.879 30.4836 142.96 30.238 142.838 30.0583C142.651 29.7885 142.413 29.5782 142.218 29.3157C142.088 29.1355 142.348 28.4036 142.666 28.1333C143.843 27.1284 144.775 25.8384 145.674 24.519L145.367 25.6279L145.261 25.0576C145.141 24.2673 144.76 23.5785 144.499 22.85C144.387 22.5691 144.323 22.2637 144.228 21.9643L144.095 21.5099C144.038 21.3615 143.98 21.2131 143.911 21.0679C143.825 20.8709 143.648 20.6995 143.494 20.5296C143.34 20.3558 143.229 20.1768 143.235 19.9579C143.265 19.3998 143.053 19.0267 142.489 18.5108C141.814 17.8941 141.051 17.5069 140.353 16.6148C139.877 16.0102 139.141 15.6325 138.53 14.9923C137.876 14.2947 136.966 13.6088 136.082 13.1556C134.97 12.5788 134.183 11.6812 133.063 11.2997C132.928 11.2562 132.802 11.2094 132.672 11.1545C132.538 11.0993 132.405 11.0364 132.287 10.9822C132.044 10.8617 131.84 10.7474 131.647 10.6378C131.268 10.4189 130.961 10.2593 130.784 10.2132C130.636 10.1886 130.608 10.1438 130.419 10.2888C130.377 10.3294 130.329 10.3577 130.286 10.4216C130.235 10.4851 130.202 10.5105 130.116 10.6306C129.967 10.829 129.825 11.0318 129.684 11.2345C129.121 12.0498 128.616 12.896 128.19 13.7822C127.346 15.5435 126.161 17.1861 124.767 18.6045C123.753 19.635 122.906 20.7539 122.064 21.9789C120.934 23.6248 119.815 25.3302 118.401 26.7004C117.985 27.1018 117.781 27.5552 117.503 28.0042C116.055 30.3119 114.548 32.5496 112.617 34.4795C112.038 35.0627 111.486 35.8982 110.986 36.6429C110.486 37.3916 110.067 38.1725 109.609 38.9394C108.217 40.26 107.178 42.1386 105.786 43.4514C105.5 43.7198 105.33 43.9443 105.176 44.2795C104.968 44.7288 104.742 45.2396 104.435 45.6398C102.891 47.6598 101.652 49.9373 99.8543 51.7422C99.2943 52.6437 98.7608 53.5587 98.1625 54.4461C97.1463 55.9581 96.0109 57.4353 95.0722 58.9598C94.4986 59.8919 93.9094 60.6938 93.2418 61.5614C91.4601 63.8762 89.7639 66.2667 88.0341 68.6317L82.8454 75.711C82.3078 76.4377 81.7101 77.1217 81.1209 77.7944C80.6369 78.3482 80.1512 78.9294 79.8594 79.5419C79.2529 80.8204 78.4063 81.9903 77.5542 83.1873C75.1173 86.6171 72.6802 90.0509 70.2472 93.4809C69.4111 94.6711 68.409 95.6318 67.5881 96.8933C66.9317 97.8986 66.1687 98.9836 65.2689 99.8057L59.1289 108.233L57.1784 110.878C56.8331 111.338 56.4451 111.667 56.096 111.806C55.6423 111.99 55.1899 112.154 54.7871 112.212C54.625 112.237 54.4852 112.025 54.5449 111.817C54.9615 110.378 55.6471 108.831 56.4648 107.299C57.0263 106.245 57.8543 105.187 58.5608 104.13L58.5443 104.145Z" fill="#1636FF"/>
<path d="M65.8219 115.169C66.2391 114.619 66.6029 114.046 67.1832 113.647C67.4489 113.464 67.3602 112.992 67.7398 112.867C67.9756 112.787 68.2147 112.719 68.44 112.62C68.7377 112.489 68.8448 112.21 68.7303 111.776C68.6702 111.541 68.5536 111.334 68.8468 111.149C69.1401 110.963 69.3535 110.737 69.4234 110.362C69.4863 110.037 69.6347 109.721 69.7327 109.398C69.9294 108.74 70.8141 108.614 70.8643 107.791C70.9003 107.202 71.4095 106.748 71.7525 106.26C72.1429 105.7 72.5487 105.146 72.9652 104.607C73.063 104.48 73.225 104.392 73.3711 104.307C73.6877 104.123 73.8299 103.846 73.9252 103.503C74.1017 102.856 74.3091 102.215 74.5129 101.569C74.6003 101.293 74.7548 101.263 75.0167 101.463C75.2524 101.642 75.4848 101.554 75.546 101.257C75.6298 100.847 75.753 100.431 75.7819 100.022C75.8313 99.3398 76.2264 98.9607 76.7695 98.6571C76.9885 98.5334 77.1937 98.3776 77.3804 98.205C77.5048 98.0912 77.44 97.9345 77.4037 97.76C77.3273 97.4069 77.3829 97.2655 77.6575 97.1922C78.2545 97.0328 78.7023 96.6882 79.0323 96.1563C79.345 95.6507 79.7077 95.16 79.8224 94.564C79.8746 94.2853 80.0255 94.1222 80.2733 94.0395C80.6688 93.9109 81.0632 93.7979 81.4587 93.6694C81.6385 93.6098 81.7212 93.4739 81.7521 93.2879C81.8074 92.9585 81.8903 92.6268 81.9417 92.2972C82.0164 91.8437 82.325 91.8546 82.6511 91.8354C82.8278 91.8266 82.8525 91.6793 82.7547 91.4854C82.6461 91.2752 82.522 91.0641 82.4734 90.834C82.37 90.3461 82.6439 89.7717 83.0616 89.5348C83.2805 89.4111 83.5036 89.2838 83.7351 89.2118C84.1539 89.0846 84.4785 88.8343 84.7203 88.4653C85.2342 87.6784 85.729 86.8825 86.2505 86.0999C86.5781 85.607 86.892 85.082 87.4161 84.7694C87.9729 84.4353 88.2413 83.9506 88.3225 83.3252C88.388 82.828 88.4999 82.3415 88.476 81.835C88.4401 81.1398 88.4762 81.1264 89.2956 80.9141C89.4906 80.8633 89.5431 80.7725 89.4818 80.5574C89.4399 80.41 89.3742 80.1397 89.4146 80.1187C90.0749 79.7557 90.4658 78.9965 91.2382 78.7852C91.6761 78.6671 91.6031 78.322 91.454 78.0075C91.3777 77.8463 91.4489 77.7057 91.6386 77.6116C91.8162 77.5246 91.8638 77.3865 91.8793 77.1956C91.9462 76.4206 92.6001 75.8419 92.713 75.0814C93.0092 74.7823 93.3465 74.5171 93.5978 74.1839C94.0106 73.6414 94.3554 73.0595 94.9833 72.7141C95.1494 72.6225 95.2603 72.2808 95.2861 72.0513C95.3294 71.6625 95.7942 71.6164 95.848 71.2478C95.9056 70.8167 96.2897 70.8088 96.5762 70.6697C96.802 70.5621 97.0125 70.4496 97.0507 70.1427C97.1047 69.7075 97.4289 69.3984 97.639 69.0353C97.8539 68.6569 98.3564 68.5074 98.4215 68.0808C98.5128 67.4834 98.9906 67.031 99.0048 66.4132C99.0137 66.0105 99.3181 65.8333 99.6713 65.8196C100.24 65.7956 100.571 65.4555 100.797 64.9564C101.036 64.4308 101.158 63.8548 101.671 63.4594C101.831 63.336 101.836 62.9957 101.929 62.7625C102.021 62.5293 102.107 62.284 102.248 62.0812C102.544 61.6607 103.124 61.5317 103.346 61.0401C103.55 60.5828 103.662 60.0885 103.862 59.6309C103.998 59.322 104.211 59.0453 104.401 58.7632C104.831 58.1317 105.191 57.4293 105.945 57.1191C106.138 56.845 106.427 56.6121 106.41 56.2391C106.392 55.776 106.588 55.4356 106.99 55.2017C107.063 55.1592 107.164 55.1067 107.184 55.0413C107.316 54.5443 107.475 54.0646 107.98 53.8056C108.164 53.4253 108.399 53.103 108.733 52.8219C109.054 52.5557 108.944 51.9969 109.339 51.743C109.653 51.5429 109.769 51.2446 109.844 50.9047C109.92 50.5647 110.128 50.3034 110.392 50.0689C110.578 49.908 110.805 49.7222 110.877 49.5073C111.297 48.2683 111.971 47.2367 112.996 46.4026C113.379 46.0932 113.727 45.6563 113.837 45.1462C113.929 44.7134 114.168 44.6613 114.509 44.643C114.682 44.634 114.68 44.4812 114.618 44.2738C114.447 43.68 114.535 43.5092 115.052 43.3919C115.282 43.3394 115.525 43.3934 115.621 43.0469C115.76 42.5542 115.972 42.1051 116.455 41.8175C116.654 41.7004 116.9 41.4648 116.931 41.2632C117.007 40.8019 117.239 40.5263 117.589 40.2462C118.058 39.8715 118.4 39.3913 118.448 38.7442C118.487 38.222 118.814 37.8074 119.114 37.3871C119.499 36.8469 120.147 36.4988 120.285 35.775C120.297 35.7014 120.376 35.6201 120.442 35.5771C121.251 35.0235 121.795 34.3167 121.954 33.3163C121.987 33.0991 122.187 32.8333 122.375 32.6999C123.029 32.2426 123.509 31.6924 123.645 30.8746C123.67 30.7234 123.783 30.5346 123.91 30.4523C124.938 29.7633 125.464 28.6599 126.108 27.6695C126.622 26.8787 127.15 26.1083 127.795 25.4233C127.971 25.2383 128.141 25.0725 128.216 24.8147C128.41 24.1336 128.818 23.6025 129.391 23.1951C129.751 22.939 129.996 22.5859 130.096 22.1653C130.264 21.463 130.656 20.9505 131.244 20.544C131.514 20.3568 131.784 20.1109 131.961 19.832C132.423 19.1203 133.1 18.5547 133.445 17.7731C133.795 16.9762 134.505 16.4518 134.903 15.697C135.138 15.2532 135.175 14.6956 135.603 14.3693C136.026 14.0428 136.218 13.5886 136.457 13.1411C136.669 12.7469 137.1 12.601 137.465 12.4039C137.861 12.1893 138.725 12.6609 138.8 13.1118C138.806 13.1396 138.699 13.2153 138.636 13.2349C138.56 13.2577 138.478 13.2449 138.396 13.2516C138.16 13.2646 138.041 13.4257 138.189 13.5522C138.814 14.0915 138.666 14.658 138.205 15.2876C137.953 15.6324 137.738 16.0069 137.368 16.2388C137.062 16.4316 136.886 16.691 136.837 17.0521C136.775 17.4829 136.571 17.8854 136.248 18.1594C135.195 19.0583 134.482 20.2324 133.664 21.3179C133.408 21.6547 133.142 21.983 132.867 22.3108C132.761 22.4375 132.576 22.524 132.521 22.6616C131.879 24.259 130.719 25.5547 129.889 27.0388C129.642 27.4857 129.435 27.9273 129.276 28.4148C129.012 29.2209 128.572 29.9575 127.781 30.4064C127.493 30.569 127.246 30.8241 126.969 31.0069C126.745 31.1537 126.596 31.3443 126.514 31.5938C126.135 32.7374 125.377 33.6856 124.83 34.7446C124.413 35.557 123.843 36.1017 122.973 36.3109C122.798 36.3512 122.775 36.5377 122.886 36.7128C123.082 37.0223 123.039 37.3486 122.826 37.637C122.574 37.974 122.277 38.2848 121.985 38.588C121.75 38.8321 121.483 39.0429 121.249 39.2831C120.94 39.601 120.761 39.9776 120.745 40.4191C120.729 40.8723 120.532 41.2283 120.145 41.4709C119.465 41.8993 119.026 42.4833 118.86 43.2758C118.695 44.0644 118.248 44.6518 117.597 45.121C117.028 45.5287 116.657 46.0817 116.547 46.7993C116.464 47.3267 116.123 47.7092 115.697 48.0238C115.496 48.172 115.205 48.3265 115.154 48.5231C115.037 48.9662 114.983 49.3349 114.42 49.0539C114.291 48.9912 114.113 49.0234 113.961 49.0102C114.031 49.1476 114.093 49.2884 114.171 49.4185C114.253 49.5527 114.395 49.6631 114.425 49.8059C114.456 49.9487 114.431 50.1665 114.338 50.2743C114.068 50.5907 113.701 50.8345 113.477 51.1771C113.248 51.5233 113.182 51.9695 112.983 52.3411C112.828 52.6331 112.626 52.9966 112.363 53.1255C111.746 53.4246 111.781 54.1275 111.346 54.5316C110.98 54.8735 110.669 55.293 110.374 55.7056C110.023 56.1893 109.734 56.7002 109.672 57.319C109.64 57.6537 109.393 57.9244 109.161 58.1844C108.905 58.4741 108.629 58.5669 108.293 58.4368C108.071 58.3528 107.862 58.2383 107.645 58.1467C107.576 58.119 107.482 58.1133 107.414 58.1405C107.29 58.1877 107.293 58.3288 107.441 58.471C107.666 58.6883 107.921 58.88 108.15 59.0976C108.306 59.2441 108.292 59.6583 108.102 59.7602C107.317 60.1861 106.888 60.9273 106.467 61.6651C106.261 62.0323 106.171 62.4653 105.95 62.8199C105.777 63.0951 105.456 63.2791 105.252 63.5447C105.116 63.7204 105.217 64.1181 104.9 64.1261C104.5 64.1369 104.353 64.2885 104.247 64.6814C104.121 65.1474 104.133 65.661 103.686 66.0449C103.385 66.3045 103.322 66.7509 102.968 67.0386C102.585 67.348 102.237 67.7849 102.03 68.2343C101.764 68.8014 101.12 69.0206 100.926 69.5764C100.741 70.1132 100.314 70.3652 99.9634 70.7236C99.3036 71.3998 98.7794 72.1626 98.5571 73.1122C98.3393 74.0503 97.814 74.8326 97.0538 75.4205C96.4992 75.8487 96.107 76.3729 95.7459 76.9655C95.2625 77.7661 94.8082 78.6036 94.0148 79.1581C93.7817 79.3201 93.7395 79.5642 93.6279 79.7884C93.0643 80.9403 92.43 82.0331 91.3676 82.8257C91.0477 83.0646 90.8228 83.4777 90.6127 83.8407C90.4024 84.2076 90.2719 84.6147 90.1033 85.0038C89.3155 85.5312 88.9745 86.501 88.1869 87.0246C88.0277 87.1323 87.9469 87.237 87.9086 87.4148C87.8588 87.6545 87.8105 87.9334 87.6698 88.1206C86.9507 89.0634 86.5458 90.2445 85.557 90.9868C85.3415 91.4396 85.1486 91.9055 84.8992 92.3366C84.4705 93.0739 83.9428 93.766 83.583 94.531C83.3626 94.9992 83.0967 95.3784 82.7824 95.782C81.9454 96.8586 81.198 98.0071 80.417 99.1301C79.6362 100.249 78.8664 101.381 78.0707 102.487C77.8267 102.829 77.5185 103.131 77.2184 103.43C76.9687 103.673 76.7294 103.936 76.6546 104.264C76.4994 104.948 76.1246 105.508 75.7452 106.08C74.6624 107.721 73.5835 109.363 72.5273 111.017C72.1635 111.59 71.5997 111.974 71.2643 112.596C70.9991 113.093 70.6657 113.617 70.1491 113.934C69.2299 115.267 68.3105 116.605 67.3874 117.939C67.0955 118.359 66.8038 118.776 66.5005 119.192C66.3424 119.41 66.112 119.529 65.8645 119.541C65.5428 119.553 65.2139 119.552 64.904 119.498C64.7802 119.475 64.6063 119.308 64.5981 119.186C64.5549 118.353 64.6999 117.516 64.9561 116.718C65.1345 116.169 65.5245 115.68 65.8185 115.161L65.8219 115.169Z" fill="#1636FF"/>
<path d="M42.8676 148.615C42.2204 148.955 41.6399 149.358 40.9279 149.542C40.6016 149.628 40.5209 150.116 40.1056 150.122C39.8545 150.13 39.5995 150.138 39.3424 150.181C38.9988 150.231 38.8137 150.505 38.8212 150.96C38.8255 151.211 38.8867 151.426 38.5727 151.567C38.2551 151.704 37.9882 151.907 37.8871 152.281C37.842 152.443 37.774 152.595 37.706 152.747C37.6492 152.908 37.5887 153.065 37.5402 153.219C37.4351 153.53 37.2033 153.735 36.9702 153.963C36.7296 154.184 36.567 154.475 36.61 154.861C36.6594 155.142 36.6155 155.414 36.5132 155.678C36.4342 155.947 36.3198 156.218 36.268 156.489C36.14 157.111 36.0968 157.755 36.0844 158.408C36.0868 158.561 36.0142 158.725 35.954 158.877C35.8475 159.212 35.9067 159.525 36.0999 159.822C36.4294 160.39 36.8117 160.927 37.2042 161.424C37.3832 161.635 37.32 161.772 37.0113 161.89C36.7312 161.99 36.6767 162.242 36.9108 162.448C37.2184 162.733 37.5376 163.018 37.8858 163.216C38.4818 163.522 38.6531 163.987 38.7774 164.582C38.8214 164.823 38.9124 165.064 39.0363 165.279C39.1136 165.424 39.2793 165.403 39.4555 165.402C39.8197 165.401 39.9408 165.471 39.9585 165.758C40.0077 166.364 40.3012 166.879 40.8222 167.259C41.3089 167.626 41.8179 168.009 42.4214 168.128C42.7079 168.181 42.8793 168.324 42.9735 168.577C43.1299 168.966 43.2814 169.371 43.4653 169.758C43.5482 169.939 43.7043 170.011 43.9028 170.031C44.2616 170.053 44.6103 170.113 44.9657 170.127C45.446 170.149 45.4896 170.461 45.5757 170.783C45.6235 170.962 45.7797 170.968 45.9599 170.838C46.1564 170.697 46.3461 170.54 46.5707 170.452C47.0475 170.274 47.6874 170.438 48.037 170.804C48.2172 170.995 48.405 171.19 48.5406 171.406C48.783 171.797 49.1312 172.057 49.5795 172.217C50.5383 172.546 51.5072 172.836 52.4727 173.118C53.0839 173.304 53.7215 173.441 54.2255 173.844C54.7671 174.272 55.3684 174.364 56.0154 174.219C56.5315 174.102 57.0533 174.02 57.5246 173.802C58.1745 173.482 58.1877 173.522 58.7669 174.168C58.9064 174.321 59.0192 174.332 59.1889 174.182C59.3048 174.079 59.5269 173.905 59.5647 173.927C59.8887 174.134 60.2779 174.236 60.6579 174.361C61.0388 174.471 61.4103 174.607 61.7142 174.888C62.0635 175.195 62.3364 174.957 62.5305 174.663C62.6297 174.513 62.7908 174.503 62.9843 174.605C63.1624 174.702 63.3096 174.664 63.4835 174.573C64.1838 174.197 65.0579 174.371 65.7399 173.974C66.1675 174.024 66.5545 174.098 66.9447 174.056C67.2564 174.016 67.5506 173.944 67.8352 173.898C68.1201 173.849 68.3882 173.819 68.6915 173.853C68.851 173.87 69.0449 173.643 69.0907 173.47C69.1385 173.328 69.2382 173.299 69.3461 173.262C69.4462 173.225 69.5622 173.186 69.5547 173.052C69.5372 172.761 69.8462 172.831 70.0722 172.719C70.2493 172.64 70.3985 172.504 70.299 172.275C70.1496 171.965 70.2507 171.654 70.1774 171.316C70.0991 170.994 70.3254 170.558 70.0242 170.297C69.6288 169.975 69.4485 169.4 68.9151 169.223C68.7342 169.173 68.6424 169.073 68.5995 168.942C68.5525 168.813 68.5581 168.657 68.6035 168.492C68.7419 167.956 68.4568 167.559 67.9956 167.288C67.4965 166.999 66.9359 166.882 66.5282 166.376C66.393 166.219 66.0558 166.226 65.8095 166.156C65.5715 166.079 65.3086 166.024 65.0888 165.905C64.6299 165.661 64.3982 165.095 63.8432 164.952C63.3345 164.819 62.7996 164.794 62.2734 164.691C61.9215 164.619 61.5786 164.465 61.2381 164.335C60.4729 164.041 59.6684 163.816 59.134 163.141C58.7928 163.023 58.4656 162.803 58.0911 162.909C57.6208 163.045 57.2199 162.942 56.8528 162.607C56.7859 162.548 56.7012 162.461 56.6307 162.46C56.0783 162.466 55.561 162.411 55.1192 162.016C54.6688 161.953 54.2613 161.83 53.8607 161.594C53.4752 161.367 52.9571 161.645 52.5605 161.343C52.2423 161.104 51.9034 161.076 51.5366 161.12C51.1657 161.168 50.8272 161.069 50.489 160.899C50.2534 160.783 49.9765 160.637 49.7374 160.642C49.0429 160.666 48.3729 160.61 47.7238 160.468C47.065 160.358 46.4275 160.154 45.792 159.853C45.3163 159.629 44.7342 159.48 44.1991 159.588C43.7436 159.674 43.5739 159.503 43.3926 159.202C43.3 159.051 43.1548 159.121 42.9851 159.271C42.5016 159.688 42.2981 159.687 41.9313 159.281C41.7662 159.099 41.6988 158.856 41.3187 158.927C40.7837 159.031 40.2557 159.022 39.7322 158.748C39.516 158.633 39.1656 158.537 38.9617 158.607C38.4897 158.77 38.114 158.704 37.6623 158.535C37.0569 158.318 36.4237 158.237 35.8099 158.544C35.3132 158.791 34.7488 158.737 34.202 158.716C33.4953 158.684 32.7971 158.321 32.0713 158.602C31.9989 158.632 31.8824 158.617 31.8019 158.589C30.8241 158.251 29.8551 158.22 28.8917 158.674C28.682 158.775 28.3304 158.761 28.0917 158.696C27.2793 158.47 26.4946 158.434 25.7183 158.837C25.5768 158.91 25.344 158.939 25.1902 158.894C24.8748 158.801 24.5571 158.746 24.2375 158.723C23.9211 158.711 23.6027 158.731 23.2876 158.763C22.6532 158.83 22.0269 158.956 21.399 159.043C20.3934 159.162 19.4113 159.345 18.4039 159.365C18.1294 159.372 17.8754 159.364 17.6208 159.494C17.2854 159.665 16.9384 159.769 16.5872 159.814C16.2317 159.867 15.8746 159.881 15.5015 159.834C15.0351 159.779 14.5828 159.876 14.1922 160.119C13.5405 160.533 12.8583 160.613 12.1057 160.563C11.759 160.534 11.37 160.557 11.0311 160.658C10.1576 160.922 9.20318 160.907 8.38304 161.323C7.55781 161.758 6.61784 161.763 5.77691 162.135C5.28215 162.351 4.88813 162.777 4.32534 162.825C3.75912 162.865 3.3076 163.143 2.82286 163.387C2.39465 163.604 1.9279 163.489 1.4876 163.455C1.0044 163.417 0.528477 162.554 0.746253 162.129C0.759621 162.103 0.904897 162.096 0.970494 162.112C1.05146 162.132 1.11858 162.187 1.19445 162.227C1.4106 162.342 1.61843 162.273 1.56744 162.081C1.35781 161.282 1.85986 160.882 2.67605 160.595C3.12411 160.438 3.55917 160.238 4.03282 160.239C4.42774 160.247 4.75473 160.15 5.04514 159.882C5.39349 159.562 5.85244 159.356 6.31652 159.321C6.69798 159.294 7.0694 159.238 7.44177 159.167C7.80682 159.087 8.17576 159.008 8.54471 158.929C9.27894 158.766 10.0075 158.568 10.742 158.401C11.1984 158.3 11.6583 158.206 12.1208 158.133C12.3024 158.108 12.5141 158.168 12.6629 158.103C13.5277 157.725 14.4427 157.487 15.3638 157.277C15.8249 157.164 16.2877 157.087 16.7546 157.006C17.2179 156.92 17.6814 156.831 18.1388 156.714C18.6875 156.576 19.199 156.407 19.722 156.177C20.5819 155.814 21.5344 155.669 22.4799 155.957C22.8257 156.064 23.2126 156.076 23.5674 156.164C23.853 156.233 24.1162 156.218 24.3876 156.132C25.6383 155.719 26.99 155.704 28.2914 155.486C29.294 155.351 30.1621 155.498 30.9016 156.083C31.0509 156.202 31.2326 156.111 31.3225 155.921C31.4763 155.582 31.8069 155.426 32.2057 155.435C32.6738 155.463 33.1424 155.546 33.6033 155.629C33.9712 155.695 34.3285 155.807 34.6923 155.876C35.1724 155.964 35.6336 155.914 36.0542 155.693C36.4912 155.461 36.9485 155.473 37.3976 155.685C38.1927 156.066 38.9894 156.161 39.8462 155.916C40.273 155.786 40.6889 155.772 41.1002 155.832C41.5118 155.889 41.9149 156.019 42.3145 156.208C43.011 156.536 43.738 156.619 44.5065 156.408C45.0707 156.274 45.6206 156.437 46.1368 156.703C46.3798 156.828 46.6763 157.037 46.8934 157.008C47.3948 156.94 47.7922 156.843 47.7656 157.472C47.757 157.612 47.877 157.765 47.9345 157.913C48.0396 157.794 48.156 157.684 48.2496 157.56C48.3474 157.433 48.3935 157.256 48.5274 157.178C48.6575 157.1 48.8878 157.047 49.0375 157.095C49.479 157.24 49.8896 157.504 50.3341 157.597C50.7865 157.691 51.2697 157.599 51.7398 157.659C52.1089 157.705 52.5712 157.765 52.8041 157.991C53.3563 158.502 54.0682 158.256 54.6566 158.558C55.1541 158.811 55.7072 158.986 56.2454 159.148C56.8747 159.359 57.5024 159.53 58.1775 159.438C58.5406 159.39 58.9134 159.569 59.2598 159.731C59.6518 159.916 59.8404 160.162 59.8107 160.52C59.7923 160.758 59.7351 160.99 59.7091 161.223C59.7046 161.297 59.7225 161.388 59.7736 161.45C59.861 161.557 60.0074 161.531 60.1125 161.349C60.2739 161.077 60.3973 160.787 60.5549 160.515C60.6602 160.329 61.1025 160.266 61.2683 160.437C61.9534 161.144 62.856 161.43 63.7627 161.713C64.2127 161.846 64.7042 161.876 65.151 162.06C65.4989 162.198 65.7814 162.509 66.1183 162.698C66.3454 162.826 66.7684 162.695 66.842 163.028C66.9341 163.445 67.1288 163.59 67.588 163.7C68.1275 163.843 68.7335 163.856 69.2167 164.406C69.5356 164.762 70.0654 164.936 70.3922 165.418C70.7404 165.936 71.1968 166.477 71.6417 166.95C71.9332 167.242 72.0783 167.623 72.2132 167.98C72.3356 168.347 72.4558 168.687 72.674 169.026C73.1006 169.67 73.0621 170.365 73.0588 171.061C73.0452 172.376 72.7923 173.762 72.1335 175.128C71.814 175.809 71.2588 176.374 70.6535 176.733C70.0442 177.095 69.3836 177.27 68.7596 177.295C67.8531 177.329 67.0605 177.422 66.2313 177.536C65.166 177.67 64.0525 177.826 63.0181 177.453C62.7149 177.353 62.455 177.442 62.1717 177.464C60.7157 177.587 59.2398 177.52 57.9012 176.871C57.5026 176.667 56.9721 176.634 56.5025 176.567C56.0325 176.507 55.5496 176.528 55.0737 176.499C54.188 175.936 53.0434 175.894 52.2005 175.271C52.0321 175.143 51.8943 175.091 51.69 175.102C51.419 175.117 51.1119 175.145 50.8631 175.052C49.6233 174.581 48.2426 174.43 47.171 173.578C46.6271 173.443 46.0743 173.327 45.5458 173.134C44.638 172.805 43.7663 172.333 42.8551 171.995C42.2963 171.785 41.8315 171.51 41.3393 171.171C40.0323 170.261 38.7126 169.303 37.5463 168.14C36.9709 167.561 36.4149 166.92 35.9193 166.252C35.428 165.576 34.9901 164.86 34.6128 164.112C34.5018 163.879 34.411 163.634 34.3282 163.386C34.2494 163.139 34.1946 162.881 34.1353 162.635C34.0471 162.218 33.9551 161.802 33.7328 161.467C33.2466 160.772 33.0876 159.912 32.988 159.041C32.857 157.788 32.9245 156.488 33.2212 155.218C33.525 153.961 34.0292 152.754 34.6948 151.663C35.1709 150.917 35.8588 150.423 36.4046 149.755C36.5148 149.617 36.6289 149.479 36.7467 149.345C36.8721 149.216 37.0047 149.095 37.145 148.978C37.2852 148.861 37.4289 148.753 37.5796 148.656C37.7338 148.568 37.899 148.492 38.0668 148.435C39.5675 147.196 41.1925 146.23 42.8118 145.358C43.3255 145.088 43.8387 144.825 44.3583 144.587C44.6323 144.459 44.9144 144.456 45.1508 144.561C45.4554 144.701 45.7594 144.852 46.0135 145.052C46.1143 145.132 46.1785 145.363 46.1167 145.477C45.6898 146.25 45.088 146.937 44.4398 147.552C43.9914 147.971 43.3831 148.251 42.8715 148.615L42.8676 148.615Z" fill="#1636FF"/>
</g>
<defs>
<clipPath id="clip0_321_153">
<rect width="139.457" height="174.14" fill="white" transform="translate(10.6016) rotate(3.49)"/>
</clipPath>
</defs>
</svg>
