<svg width="71" height="44" viewBox="0 0 71 44" fill="none" xmlns="http://www.w3.org/2000/svg">
<g clip-path="url(#clip0_235_5243)">
<path d="M47.6106 10.3807C47.8469 10.5356 48.1036 10.6374 48.2218 10.9878C48.2748 11.1467 48.56 10.8982 48.56 11.1793C48.56 11.3545 48.5559 11.5338 48.5681 11.6927C48.5885 11.9005 48.727 11.8883 48.9959 11.6275C49.1426 11.4849 49.2811 11.3097 49.33 11.493C49.383 11.6764 49.4726 11.7742 49.6682 11.6968C49.8434 11.6275 49.9941 11.6356 50.1571 11.5949C50.4912 11.5134 50.4056 12.2346 50.862 11.9616C51.1879 11.766 51.3509 12.0349 51.5668 12.1409C51.8154 12.2631 52.0517 12.3975 52.288 12.5483C52.345 12.585 52.3654 12.6909 52.3898 12.7846C52.4387 12.9883 52.5732 13.0046 52.7484 12.9476C53.0784 12.8457 53.4003 12.7724 53.7222 12.6868C53.8607 12.6502 53.8525 12.7765 53.7018 13.082C53.5673 13.3632 53.5796 13.5302 53.7344 13.461C53.9462 13.3713 54.154 13.3102 54.3781 13.1676C54.7407 12.9313 54.8915 13.1228 54.9771 13.4732C55.0137 13.6117 55.0708 13.7299 55.136 13.8236C55.1808 13.8847 55.2745 13.7665 55.3723 13.6606C55.5719 13.4487 55.6412 13.4365 55.6453 13.6484C55.6534 14.1047 55.7838 14.3573 56.0323 14.4266C56.2686 14.4918 56.4886 14.6099 56.7983 14.4673C56.945 14.4021 57.0142 14.4632 57.0265 14.6507L57.0713 15.5348C57.0794 15.6692 57.1446 15.6855 57.2424 15.6367L57.7598 15.4003C58.0002 15.2781 57.9513 15.5552 57.9187 15.8322C57.8984 15.983 57.9758 15.9463 58.098 15.7793C58.2284 15.6 58.3588 15.4044 58.4932 15.2659C58.7743 14.9766 59.0555 14.9807 59.1288 15.2496C59.1696 15.3881 59.2062 15.5348 59.2144 15.71C59.2266 16.0237 59.3203 16.2071 59.4914 16.2682C59.854 16.3986 60.2248 16.5126 60.5834 16.6512C60.8115 16.7408 61.056 16.806 61.1538 17.136C61.2556 17.4905 61.4879 17.5312 61.822 17.352C62.0868 17.2134 62.3435 17.1156 62.6287 16.8916C63.0239 16.586 63.0239 16.6104 63.0198 17.2419C63.0198 17.3927 63.0606 17.4049 63.1909 17.2623C63.2806 17.1686 63.4435 17.0056 63.4476 17.0301C63.5495 17.462 63.9162 17.5109 63.908 18.1016C63.908 18.4357 64.1077 18.2402 64.3114 17.9876C64.4173 17.8572 64.4825 17.8653 64.5029 17.9957C64.5232 18.1179 64.5925 18.1016 64.6984 18.0446C65.1263 17.8001 65.3463 18.1505 65.7618 17.955C65.88 18.1016 65.9778 18.2891 66.1245 18.3828C66.3649 18.5376 66.6338 18.6191 66.7193 19.0347C66.7397 19.1447 66.919 19.1121 67.0453 19.0469C67.2612 18.941 67.2042 19.328 67.4038 19.2343C67.6401 19.1243 67.5749 19.4543 67.5994 19.6499C67.6198 19.8047 67.6442 19.9473 67.8153 19.8658C68.0557 19.7517 68.1739 19.9188 68.345 19.9677C68.5243 20.0166 68.512 20.3955 68.7483 20.2977C69.0539 20.1714 69.221 20.3751 69.5265 20.2407L70.4392 21.9723C70.4596 21.9926 70.484 22.013 70.5085 22.0293C70.7285 22.1882 70.5574 22.3023 70.2599 22.3634C69.7792 22.4612 69.6773 22.6405 69.7588 22.8808C69.8444 23.1294 70.0521 23.4105 69.7995 23.6631C69.7221 23.7405 69.8932 23.9035 69.9299 24.0257C69.9544 24.1113 69.987 24.1969 69.9992 24.2783L70.0195 24.4413L69.1639 25.3947C69.1436 25.4192 69.1191 25.4395 69.0906 25.4518C68.9032 25.5495 68.5487 25.2603 68.4102 25.4518C68.2798 25.631 68.2024 25.8959 68.0761 26.0792C67.9905 26.2014 67.8561 26.2544 67.7338 26.3237C67.4649 26.4785 67.2327 26.723 66.7682 26.45C66.646 26.5152 66.4708 26.4866 66.4708 26.7474C66.4708 27.0774 66.3526 27.1793 66.1041 27.0815C66.0593 27.0652 65.9941 27.0326 65.9859 27.0652C65.8963 27.3178 65.7944 27.546 65.4848 27.3952C65.3666 27.5337 65.22 27.6071 65.0122 27.5786C64.8125 27.5541 64.8736 28.0064 64.6292 27.9249C64.4336 27.8597 64.3603 27.9901 64.3073 28.1693C64.2543 28.3527 64.124 28.3975 63.961 28.3853C63.8469 28.3771 63.7043 28.3568 63.6595 28.4546C63.3865 29.029 62.9628 29.302 62.3272 29.2083C62.0909 29.1757 61.8709 29.245 61.7975 29.522C61.7364 29.7583 61.5897 29.6402 61.3819 29.4324C61.276 29.3265 61.276 29.4324 61.3086 29.6117C61.4023 30.1291 61.3453 30.1861 61.0315 29.9376C60.893 29.8235 60.7463 29.632 60.6811 29.8032C60.5874 30.0476 60.453 30.2228 60.1556 30.1047C60.0333 30.0558 59.8826 30.0598 59.8581 30.1739C59.8052 30.4388 59.6585 30.4754 59.4425 30.4428C59.1492 30.3939 58.9373 30.4999 58.8966 30.9114C58.864 31.2455 58.6603 31.3147 58.4728 31.4085C58.2325 31.5307 57.8332 31.3473 57.7395 31.7548C57.7313 31.7955 57.6824 31.7996 57.6417 31.7914C57.1405 31.6448 56.7983 31.7792 56.6883 32.3578C56.6638 32.4841 56.5416 32.537 56.4234 32.5085C56.0201 32.3985 55.7186 32.4637 55.6249 32.9323C55.6086 33.0178 55.5352 33.0749 55.4578 33.0504C54.8222 32.8548 54.4881 33.2704 54.0807 33.5312C53.7548 33.739 53.4247 33.9264 53.0214 33.9753C52.9114 33.9875 52.8054 33.9916 52.7565 34.122C52.6302 34.4642 52.3735 34.5579 52.0191 34.4683C51.795 34.4112 51.6442 34.4927 51.575 34.7168C51.4609 35.0876 51.2164 35.1854 50.8538 35.0835C50.6868 35.0387 50.5197 35.0305 50.4056 35.1039C50.1164 35.2913 49.6967 35.2424 49.4726 35.5521C49.2485 35.8699 48.8085 35.768 48.5559 36.0288C48.4051 36.1795 48.3766 36.5381 48.1118 36.4851C47.851 36.4362 47.7247 36.6195 47.574 36.7703C47.4395 36.9047 47.1747 36.7255 46.9506 36.6236C46.7061 36.5136 46.1887 35.6335 46.152 35.2791C46.152 35.2546 46.2172 35.275 46.2539 35.2995C46.2987 35.332 46.3517 35.3932 46.4006 35.4421C46.5432 35.5847 46.6165 35.5521 46.5309 35.3687C46.1602 34.5946 46.258 34.3053 46.5472 34.1709C46.7061 34.0975 46.8406 33.9834 47.0687 34.0608C47.2562 34.126 47.3662 34.0609 47.4028 33.849C47.4477 33.5923 47.578 33.4497 47.7777 33.4701C48.4337 33.5393 48.8818 33.1971 49.3952 32.9811C49.5541 32.916 49.7252 32.863 49.8923 32.8182C49.9575 32.8019 50.0715 32.863 50.1082 32.8019C50.5197 32.1215 51.245 31.9911 51.7705 31.5103C51.9294 31.3677 52.0598 31.1966 52.1617 30.9643C52.3328 30.5854 52.6139 30.3654 53.0988 30.5691C53.2781 30.6425 53.4288 30.6303 53.604 30.6832C53.7425 30.728 53.8362 30.6914 53.8892 30.5773C54.1377 30.0395 54.6104 29.8806 54.9567 29.5098C55.2215 29.2246 55.576 29.2205 56.1097 29.6402C56.2157 29.7257 56.236 29.6117 56.1668 29.4202C56.0527 29.082 56.0853 28.8864 56.2197 28.8294C56.3786 28.7601 56.562 28.7398 56.7453 28.7194C56.892 28.7031 57.055 28.7316 57.2016 28.7194C57.3931 28.7031 57.5072 28.5605 57.5235 28.2712C57.5398 27.9738 57.6661 27.8556 57.9024 27.9412C58.3221 28.0879 58.5991 27.9738 58.7092 27.5378C58.8192 27.1059 59.1003 26.9959 59.5037 27.0937C59.854 27.1793 60.0904 27.0448 60.1678 26.6252C60.2248 26.3155 60.4367 26.2788 60.7015 26.3359C60.8237 26.3644 61.0071 26.4459 61.0397 26.3481C61.1171 26.12 61.1538 25.904 61.4919 26.4581C61.5693 26.5844 61.6794 26.6781 61.7731 26.7841C61.7323 26.6455 61.6957 26.5111 61.6508 26.3685C61.6019 26.2259 61.5205 26.0588 61.5001 25.9407C61.4838 25.8225 61.5001 25.6921 61.5612 25.6758C61.7282 25.631 61.9564 25.7044 62.099 25.6147C62.2416 25.5251 62.2905 25.2643 62.4168 25.138C62.5146 25.0402 62.645 24.918 62.8039 25.0036C63.1828 25.1991 63.1746 24.6939 63.4436 24.698C63.6717 24.698 63.8673 24.6124 64.0506 24.5228C64.2706 24.4169 64.454 24.258 64.5029 23.875C64.5273 23.6672 64.6822 23.6427 64.8288 23.6142C64.9918 23.5857 65.1588 23.6998 65.3626 24.0013L65.7537 24.6165C65.7944 24.6776 65.8515 24.7428 65.8922 24.7713C65.9696 24.8202 65.9696 24.7224 65.88 24.5269L65.4604 23.6427C65.3666 23.4431 65.3829 23.1701 65.497 23.2231C65.9819 23.439 66.2508 23.2109 66.5197 22.9786C66.6501 22.8645 66.7112 22.6242 66.8497 22.5223C66.9597 22.4449 67.1553 22.5223 67.2857 22.4775C67.3712 22.4449 67.3183 22.1108 67.5097 22.3104C67.5301 22.3308 67.5505 22.3512 67.5668 22.3675L66.6704 23.5694C66.9434 23.545 66.976 23.4716 66.8701 23.329C66.7356 23.1416 66.4382 22.9705 66.6134 22.7953C66.7315 22.6731 66.536 22.5019 66.6867 22.343C66.8456 22.1719 66.9067 21.9519 66.8375 21.7482C66.8212 21.6952 66.8253 21.6504 66.8375 21.6015L67.7827 23.3942C67.6361 23.2638 67.5994 22.9623 67.3753 22.9949C67.1064 23.0316 67.0534 22.7586 66.9149 22.5916C66.6623 22.2778 66.3282 22.1026 65.8352 22.2738C65.3463 22.4367 65.004 22.286 64.8125 21.85C64.674 21.5322 64.4458 21.3937 64.1769 21.3122C63.8143 21.1981 63.4232 21.1329 63.248 20.6603C63.195 20.5218 63.0687 20.5788 62.9587 20.5707C62.4087 20.534 61.9075 20.4118 61.6345 19.8006C61.5531 19.6173 61.3575 19.5847 61.1904 19.548C61.0193 19.5114 60.8156 19.5603 60.6241 19.5684C60.453 19.0917 59.9681 19.1813 59.797 18.7046C59.7603 18.6069 59.7155 18.5783 59.6218 18.6191C59.4955 18.672 59.3529 18.7454 59.2673 18.6965C58.8518 18.448 58.261 18.5743 57.9921 18.012C57.7761 18.0038 57.5439 18.0324 57.3443 17.9876C56.9979 17.9142 56.6964 17.7309 56.3257 17.7309C56.1016 17.7309 55.9305 17.6535 55.7512 17.5434C55.2745 17.2542 54.7489 17.0708 54.2396 16.8467C53.7222 16.6186 53.1966 16.3986 52.6914 16.1419C52.5365 16.0645 52.4102 15.9137 52.288 15.767C52.1861 15.6448 52.0802 15.5389 51.905 15.6041C51.5465 15.7385 51.2857 15.6285 51.0249 15.5185C50.2671 15.2129 49.5174 14.8992 48.7555 14.6099C48.4948 14.5081 48.3725 14.1658 48.0751 14.1088C47.8388 14.064 47.5984 13.9702 47.5129 13.6443L45.7324 12.7479C45.5449 12.6542 45.3616 12.5524 45.1823 12.4464C45.0886 12.3894 45.0642 12.2346 45.1049 12.0268C45.1579 11.7538 45.2231 11.4686 45.3127 11.1752C45.3494 11.0571 45.4798 10.8452 45.549 10.7963C46.0339 10.4459 46.4861 10.2585 46.8936 10.1852C47.1747 10.1363 47.3784 10.2911 47.6188 10.3522L47.6106 10.3807Z" fill="#1636FF"/>
<path d="M23.6199 13.8715C23.3592 13.9774 23.1269 14.1282 22.7724 14.0222C22.6095 13.9733 22.6502 14.3523 22.4221 14.1893C22.2794 14.0874 22.1368 13.9815 21.9983 13.9C21.819 13.7941 21.7498 13.9163 21.8027 14.283C21.8313 14.4826 21.8965 14.6986 21.7172 14.6334C21.5379 14.5682 21.4035 14.5845 21.3546 14.7923C21.3098 14.9756 21.212 15.0897 21.1427 15.2486C21.0083 15.5664 20.4786 15.0693 20.4215 15.599C20.3808 15.9779 20.063 15.9494 19.843 16.0553C19.5904 16.1776 19.3337 16.2876 19.0648 16.3772C19.0037 16.3976 18.9018 16.3487 18.8163 16.312C18.6248 16.2265 18.531 16.3202 18.4577 16.4913C18.3273 16.8172 18.1725 17.1147 18.0218 17.4162C17.9566 17.5465 17.8669 17.461 17.7243 17.1473C17.598 16.862 17.4595 16.7683 17.4106 16.9313C17.3373 17.1554 17.2476 17.351 17.2069 17.6158C17.1376 18.0477 16.8891 18.0355 16.5631 17.8725C16.4328 17.8073 16.3065 17.7747 16.1883 17.7625C16.1109 17.7543 16.1353 17.9051 16.1435 18.0477C16.1598 18.341 16.1231 18.4022 15.9601 18.2636C15.6138 17.9621 15.3408 17.8847 15.1167 18.0192C14.9049 18.1495 14.6686 18.227 14.5545 18.5488C14.5015 18.6996 14.4078 18.7077 14.2652 18.5896L13.5929 18.0069C13.4911 17.9173 13.434 17.954 13.4014 18.0599C13.3444 18.2473 13.2711 18.4103 13.21 18.5977C13.1285 18.8544 12.9655 18.6262 12.7903 18.4062C12.6966 18.2881 12.6681 18.3655 12.7047 18.5692C12.7414 18.7892 12.7903 19.0215 12.7944 19.2089C12.8025 19.6122 12.6029 19.8078 12.3584 19.6693C12.2321 19.6 12.1017 19.5267 11.9714 19.4085C11.7391 19.1966 11.5476 19.1315 11.3846 19.2089C11.0383 19.3718 10.7002 19.5552 10.3538 19.71C10.1338 19.8078 9.92196 19.9341 9.61638 19.7711C9.29451 19.5959 9.10709 19.7304 9.00523 20.093C8.92374 20.3823 8.82188 20.6308 8.78929 20.9894C8.74447 21.4864 8.72817 21.4661 8.27999 21.026C8.17406 20.9201 8.13739 20.9445 8.15369 21.132C8.16591 21.2623 8.17406 21.4905 8.15369 21.4783C7.77477 21.2542 7.50587 21.4864 7.08213 21.0831C6.83767 20.8549 6.8499 21.136 6.91101 21.4579C6.93953 21.6209 6.89064 21.6657 6.78471 21.5924C6.68285 21.5272 6.64618 21.5883 6.62581 21.7024C6.54025 22.1791 6.14911 22.1098 6.04725 22.5498C5.86798 22.5458 5.67241 22.4969 5.51759 22.5458C5.2609 22.6272 5.04904 22.7861 4.68234 22.5906C4.58456 22.5417 4.51122 22.6965 4.49085 22.835C4.45418 23.0673 4.18527 22.7902 4.15268 23.0021C4.11194 23.2547 3.88785 23.0021 3.71672 22.9084C3.58227 22.831 3.45597 22.7658 3.42745 22.9491C3.39078 23.2099 3.19928 23.2058 3.07298 23.3158C2.97112 23.4054 2.75518 23.2832 2.65332 23.3566L3.31744 22.0935C3.32559 22.1343 3.34596 22.1709 3.39078 22.2035C3.69228 22.4561 3.55782 22.7861 3.90822 23.0347C4.13638 23.2017 3.97341 23.3525 3.67598 23.434C3.19928 23.5643 3.10557 23.7558 3.19521 23.9759C3.28892 24.2081 3.52116 24.4077 3.31744 24.5707C3.25225 24.6237 3.45597 24.6766 3.51708 24.697H3.5619H3.58227H3.59449L3.56597 24.7052L2.77962 23.6051C2.84481 23.6051 2.90593 23.6092 2.95482 23.6377C3.13817 23.7395 3.09742 24.1918 3.33781 24.1999C3.55782 24.2081 3.82266 24.1225 4.04675 24.1307C4.1975 24.1307 4.31565 24.2162 4.43788 24.2774C4.71494 24.42 5.04904 24.4729 5.07348 25.0107C5.19164 25.0759 5.26905 25.2389 5.48499 25.0922C5.75797 24.9089 5.9128 24.9537 5.96576 25.2145C5.97391 25.2593 5.98614 25.3326 6.01873 25.3245C6.27949 25.2593 6.52395 25.2226 6.56877 25.5649C6.75211 25.5852 6.89064 25.6708 6.98028 25.8582C7.06584 26.0375 7.41623 25.74 7.47735 25.9886C7.52624 26.1882 7.67699 26.1801 7.85626 26.123C8.03961 26.066 8.14554 26.1516 8.22295 26.2942C8.27592 26.396 8.33703 26.5223 8.44704 26.5101C9.07449 26.4286 9.53489 26.6364 9.79565 27.2231C9.89343 27.4391 10.0727 27.5857 10.3457 27.4961C10.5779 27.4187 10.5576 27.6061 10.4924 27.8954C10.4598 28.0421 10.5494 27.985 10.6839 27.8587C11.0668 27.5002 11.1483 27.5165 11.1035 27.9157C11.0831 28.095 10.9976 28.3232 11.1809 28.2824C11.4376 28.2254 11.6536 28.2458 11.7147 28.5636C11.7391 28.694 11.8247 28.8203 11.9306 28.7754C12.1832 28.6777 12.2932 28.7754 12.3788 28.9792C12.4929 29.2481 12.6966 29.3744 13.0633 29.1829C13.3607 29.028 13.5278 29.1666 13.707 29.2725C13.9393 29.411 13.9963 29.8429 14.3874 29.7044C14.4282 29.6922 14.4567 29.7288 14.4689 29.7696C14.6115 30.2666 14.9049 30.4867 15.4508 30.2666C15.569 30.2178 15.679 30.2952 15.7157 30.4093C15.8379 30.8085 16.0498 31.0245 16.498 30.8493C16.5794 30.8167 16.665 30.8493 16.6854 30.9267C16.8606 31.5664 17.3862 31.6234 17.8221 31.823C18.1684 31.9819 18.5025 32.1571 18.7592 32.4668C18.8285 32.5524 18.8896 32.6379 19.02 32.6094C19.3744 32.532 19.5904 32.6909 19.7045 33.0372C19.7737 33.2531 19.9286 33.3387 20.1486 33.2735C20.5193 33.1635 20.7312 33.3143 20.8412 33.6728C20.8942 33.8358 20.9797 33.9784 21.102 34.0313C21.4157 34.1699 21.599 34.5488 21.9779 34.561C22.3609 34.5732 22.5198 34.9929 22.8702 35.0581C23.078 35.0988 23.3877 34.9236 23.4895 35.1722C23.5914 35.4166 23.8114 35.4166 24.0192 35.4574C24.2025 35.494 24.1985 35.8118 24.2392 36.0522C24.284 36.3171 23.8399 37.2379 23.5669 37.466C23.5506 37.4823 23.5262 37.4171 23.5303 37.3682C23.5303 37.3112 23.5547 37.2338 23.5669 37.1686C23.6077 36.969 23.5384 36.9282 23.4366 37.1034C23.0006 37.8409 22.7073 37.9223 22.4343 37.7553C22.2876 37.6657 22.1124 37.6168 22.0554 37.3845C22.0065 37.193 21.8924 37.136 21.6927 37.2216C21.4564 37.3275 21.2649 37.2949 21.1753 37.1197C20.8738 36.5371 20.3401 36.3537 19.8837 36.04C19.7411 35.9422 19.6067 35.8322 19.4763 35.7141C19.4233 35.6692 19.4152 35.5389 19.3459 35.5429C18.5555 35.5674 18.0503 35.0336 17.3658 34.8544C17.1621 34.8014 16.9461 34.7851 16.6976 34.8218C16.2861 34.8829 15.952 34.7688 15.8624 34.2473C15.8298 34.0558 15.736 33.9376 15.6872 33.7624C15.6505 33.6239 15.5731 33.5628 15.4468 33.5791C14.8641 33.6606 14.4771 33.3469 13.98 33.2572C13.597 33.188 13.4055 32.8905 13.4748 32.2183C13.487 32.0838 13.3851 32.1286 13.2588 32.2875C13.0348 32.5646 12.8555 32.642 12.7333 32.5646C12.5907 32.4709 12.4766 32.3242 12.3625 32.1816C12.2729 32.0675 12.2077 31.9127 12.118 31.7986C11.9999 31.6479 11.8206 31.6275 11.568 31.7701C11.3072 31.9168 11.1443 31.876 11.0872 31.6316C10.9894 31.1997 10.745 31.0326 10.3172 31.1712C9.89343 31.3097 9.65305 31.1345 9.52267 30.7433C9.40859 30.4011 9.17228 30.2789 8.77706 30.4378C8.48779 30.5559 8.34111 30.4011 8.25147 30.1485C8.21073 30.0303 8.18221 29.8348 8.08035 29.8592C7.84811 29.9163 7.64847 30.0018 7.93367 29.4192C7.99886 29.2888 8.01924 29.1462 8.0559 29.0077C7.96219 29.1177 7.86441 29.2195 7.77477 29.3336C7.68106 29.4518 7.58735 29.6148 7.49364 29.6922C7.40401 29.7696 7.28585 29.8266 7.24103 29.7859C7.11473 29.6677 7.05361 29.4396 6.90286 29.3703C6.75211 29.301 6.50765 29.4029 6.33653 29.3662C6.20208 29.3377 6.03095 29.297 6.01466 29.1177C5.97391 28.694 5.55833 28.9792 5.4198 28.751C5.30165 28.5595 5.12237 28.4454 4.94718 28.3395C4.73939 28.2132 4.50715 28.148 4.1649 28.3191C3.98156 28.4128 3.87562 28.2987 3.77377 28.1928C3.66376 28.0746 3.66376 27.875 3.80636 27.5368L4.10786 26.8727C4.13638 26.8035 4.16083 26.722 4.16083 26.669C4.16083 26.5794 4.07934 26.6323 3.96526 26.8157L3.46004 27.655C3.34188 27.8424 3.10965 27.9809 3.08927 27.8587C3.00779 27.3372 2.66962 27.2394 2.33145 27.1498C2.1644 27.105 1.93216 27.1905 1.77326 27.1294C1.65103 27.0846 1.61029 26.8768 1.50028 26.7953C1.42694 26.7423 1.18248 26.9746 1.23952 26.7057C1.26397 26.5875 1.27619 26.502 1.26804 26.4449L0.457247 25.3571C0.526511 25.2226 0.485767 25.0963 0.379834 24.9374C0.18834 24.6603 -0.125385 24.4037 0.0375889 24.1307C0.147596 23.9514 -0.0520468 23.764 0.0905554 23.601C0.245381 23.4258 0.294273 23.2221 0.208711 23.0591C0.102778 22.8595 0.522436 22.6843 0.343165 22.5213C0.294273 22.4806 0.273901 22.4398 0.273901 22.4032V21.136L1.16618 20.7042C1.30471 20.639 1.49213 20.6838 1.6551 20.6675C2.07476 20.6186 2.41701 20.4434 2.5922 19.9341C2.76333 19.4248 3.12594 19.2455 3.59857 19.3474C3.94489 19.4289 4.20565 19.3393 4.45011 19.1763C4.78013 18.9644 5.102 18.7037 5.58685 18.8789C5.72945 18.9318 5.77427 18.7974 5.85168 18.72C6.25912 18.3288 6.70322 18.0355 7.34289 18.2514C7.53439 18.3166 7.69329 18.1984 7.83996 18.1006C7.98664 18.0029 8.09665 17.8236 8.22295 17.6769C8.68743 17.8806 8.96448 17.4732 9.42488 17.6851C9.51859 17.7299 9.57156 17.7136 9.60823 17.6199C9.65712 17.4936 9.71009 17.3387 9.8038 17.3143C10.2723 17.1961 10.5942 16.6869 11.1769 16.8946C11.3317 16.7439 11.4743 16.5646 11.6413 16.4546C11.9306 16.2631 12.2688 16.1735 12.5214 15.9127C12.6762 15.7538 12.8473 15.6886 13.0429 15.6357C13.5685 15.5012 14.0493 15.2445 14.5423 15.0327C15.0393 14.8127 15.5242 14.5804 16.0253 14.3726C16.1802 14.3074 16.3676 14.3115 16.5509 14.3156C16.7017 14.3156 16.8524 14.3074 16.9095 14.1322C17.0235 13.7737 17.2639 13.6474 17.5002 13.5129C18.1807 13.1259 18.857 12.7307 19.5211 12.3029C19.7493 12.1562 20.0915 12.2662 20.3034 12.0584C20.4704 11.8954 20.6823 11.761 20.996 11.8832L22.7236 10.9624C22.9069 10.8646 23.0902 10.7709 23.2777 10.6853C23.3754 10.6405 23.5181 10.7098 23.6647 10.8605C23.8603 11.0602 24.0559 11.2761 24.2433 11.5165C24.3166 11.6143 24.4185 11.8425 24.4226 11.928C24.4348 12.5229 24.3329 13.0036 24.1618 13.3785C24.0436 13.6352 23.7992 13.7167 23.6118 13.8796L23.6199 13.8715Z" fill="#1636FF"/>
<path d="M41.0142 1.8209C40.9327 2.04499 40.9041 2.27722 40.5986 2.4402C40.46 2.51354 40.7778 2.7091 40.5089 2.758C40.3419 2.78652 40.1708 2.81504 40.02 2.85171C39.8244 2.9006 39.8733 3.01875 40.1952 3.19803C40.3704 3.29581 40.5741 3.38545 40.4152 3.45878C40.2523 3.53212 40.183 3.62583 40.3134 3.78066C40.4275 3.91511 40.456 4.04549 40.5375 4.17587C40.7004 4.44478 39.9915 4.48959 40.3663 4.83184C40.6352 5.0763 40.4193 5.25965 40.3745 5.45929C40.3215 5.68745 40.2482 5.91154 40.1585 6.13156C40.1382 6.18452 40.0404 6.21712 39.9589 6.24971C39.7756 6.32305 39.7919 6.43713 39.8856 6.57973C40.0648 6.84864 40.2074 7.1094 40.3623 7.37423C40.4275 7.48831 40.3093 7.50054 39.9752 7.41498C39.6737 7.33756 39.5148 7.37016 39.6167 7.49646C39.7511 7.66758 39.857 7.83463 40.0445 8.00576C40.35 8.28689 40.1993 8.44171 39.8774 8.55987C39.747 8.60876 39.6493 8.66987 39.5718 8.73914C39.5229 8.78396 39.6574 8.84915 39.7796 8.92248C40.0282 9.06916 40.0526 9.1262 39.8489 9.15472C39.4048 9.21584 39.1888 9.35436 39.1726 9.5703C39.1563 9.7781 39.0911 9.97774 39.2948 10.2222C39.3885 10.3363 39.3437 10.4055 39.1644 10.4341C38.8833 10.483 38.594 10.5278 38.3169 10.5767C38.1866 10.6011 38.1866 10.6541 38.2558 10.7315C38.3781 10.87 38.4718 11.0045 38.594 11.1389C38.761 11.3263 38.484 11.3182 38.2069 11.3223C38.0562 11.3223 38.1091 11.3834 38.2966 11.469C38.4962 11.5586 38.7162 11.6441 38.8792 11.7419C39.2174 11.9456 39.2744 12.182 39.03 12.2757C38.9036 12.3246 38.7733 12.3775 38.6062 12.402C38.3047 12.4509 38.1499 12.5527 38.1254 12.7035C38.0806 13.0254 38.0521 13.3513 37.9951 13.6691C37.9584 13.8728 37.9543 14.0847 37.6528 14.211C37.335 14.3454 37.3472 14.541 37.5958 14.8018C37.7913 15.0055 37.9421 15.2092 38.2273 15.417C38.6144 15.7063 38.5899 15.7103 37.9828 15.7918C37.8402 15.8122 37.8362 15.8489 38.0032 15.9385C38.1173 15.9996 38.3129 16.1137 38.2884 16.1219C37.8973 16.2645 37.938 16.5782 37.3676 16.6556C37.0457 16.7004 37.2821 16.843 37.5754 16.9775C37.7262 17.0467 37.7343 17.1038 37.6162 17.1404C37.5061 17.173 37.5347 17.2301 37.6162 17.3116C37.9543 17.6334 37.6773 17.8657 37.9706 18.1794C37.8606 18.2976 37.7058 18.4076 37.6528 18.542C37.5673 18.762 37.5632 19.0024 37.1883 19.1369C37.0906 19.1735 37.168 19.3121 37.2617 19.4099C37.4206 19.5728 37.0376 19.5851 37.1802 19.7358C37.3513 19.9151 37.0172 19.9151 36.838 19.968C36.6954 20.0088 36.565 20.0536 36.6913 20.184C36.8665 20.3633 36.7402 20.4896 36.7442 20.6362C36.7442 20.7911 36.3857 20.8481 36.5487 21.0233C36.7768 21.2678 36.5853 21.4552 36.8909 21.7119C37.0906 21.8789 36.9113 21.9482 36.6098 21.9522C36.1249 21.9563 36.0068 22.0948 36.0638 22.2986C36.1249 22.5145 36.3124 22.7508 36.0638 22.9097C35.9864 22.9586 36.1535 23.1012 36.1942 23.1949C36.2309 23.2886 36.2838 23.3905 36.2635 23.4761C36.2187 23.6472 35.7745 23.6961 35.8357 23.8957C35.8886 24.0831 36.0475 24.2868 36.1046 24.4743C36.1453 24.6006 36.1005 24.7147 36.076 24.8287C36.0231 25.0854 36.0679 25.3747 35.5627 25.4969C35.5342 25.611 35.4038 25.7047 35.6034 25.8555C35.856 26.047 35.8601 26.1855 35.6279 26.2792C35.5871 26.2955 35.5219 26.3159 35.5382 26.3444C35.6768 26.5481 35.7868 26.7478 35.473 26.8496C35.5056 27.0044 35.4649 27.1389 35.3141 27.2489C35.1675 27.3548 35.5545 27.5871 35.3386 27.6889C35.1675 27.7704 35.2164 27.8926 35.3223 28.0312C35.4282 28.1738 35.3834 28.2797 35.2693 28.3734C35.1878 28.4386 35.086 28.5119 35.1308 28.6016C35.3956 29.1109 35.3345 29.5346 34.8619 29.8687C34.6867 29.995 34.6011 30.1702 34.7682 30.3821C34.9108 30.5613 34.7274 30.5817 34.4382 30.5858C34.2915 30.5858 34.373 30.651 34.5319 30.7365C34.9841 30.9851 34.9963 31.0543 34.6052 31.0992C34.43 31.1195 34.1896 31.0951 34.2833 31.2377C34.4137 31.4414 34.4585 31.6247 34.1815 31.7388C34.0674 31.7836 33.9737 31.8814 34.047 31.9629C34.2181 32.1544 34.153 32.2644 33.99 32.3785C33.77 32.5292 33.7129 32.7248 34.0063 32.9937C34.2426 33.2097 34.1652 33.3767 34.1163 33.5478C34.0552 33.7679 33.664 33.9064 33.9166 34.2038C33.9411 34.2323 33.9166 34.2649 33.88 34.2853C33.4522 34.5053 33.3381 34.7946 33.7089 35.2061C33.7903 35.2957 33.7537 35.4057 33.6559 35.4587C33.3177 35.642 33.1751 35.8661 33.4766 36.2043C33.5337 36.2654 33.5296 36.3428 33.4603 36.3754C32.9103 36.6525 33.0162 37.1047 32.9551 37.5081C32.9103 37.83 32.841 38.1437 32.6251 38.4248C32.568 38.5022 32.4988 38.5674 32.568 38.6734C32.7473 38.9545 32.6577 39.1704 32.3643 39.3334C32.181 39.4353 32.1443 39.5819 32.2747 39.7531C32.4865 40.0423 32.4051 40.2501 32.0995 40.4131C31.9569 40.4905 31.8509 40.5883 31.8347 40.7024C31.7939 40.9917 31.4883 41.2198 31.5861 41.5417C31.6839 41.8677 31.3335 42.0795 31.3702 42.3892C31.3905 42.5725 31.6432 42.8007 31.4394 42.9311C31.2357 43.0614 31.2968 43.2489 31.3172 43.4322C31.3335 43.5952 31.032 43.6481 30.812 43.7296C30.5757 43.8152 29.5734 43.6115 29.276 43.4241C29.2556 43.4118 29.3126 43.3833 29.3575 43.3752C29.4104 43.367 29.4919 43.3752 29.5612 43.3711C29.7608 43.3711 29.7812 43.3018 29.5856 43.2489C28.7585 43.0207 28.5996 42.7844 28.6811 42.5277C28.7259 42.3851 28.7219 42.2343 28.9256 42.1406C29.0926 42.0632 29.113 41.9573 28.9745 41.8106C28.8074 41.6313 28.7789 41.4684 28.9215 41.3584C29.386 40.9957 29.4104 40.515 29.5734 40.0749C29.6223 39.9364 29.6915 39.802 29.7608 39.6716C29.7893 39.6186 29.9075 39.586 29.8871 39.529C29.6304 38.873 29.9849 38.3474 29.9523 37.7403C29.9401 37.557 29.8953 37.3777 29.7853 37.174C29.6019 36.844 29.6101 36.5425 30.0786 36.3632C30.2497 36.298 30.3312 36.1962 30.486 36.1228C30.6083 36.0617 30.6409 35.9843 30.5838 35.8824C30.3312 35.4139 30.5105 35.0268 30.4453 34.5909C30.3964 34.2568 30.6164 34.0368 31.2724 33.9593C31.4028 33.943 31.3294 33.8656 31.142 33.7923C30.812 33.6619 30.6816 33.5275 30.7224 33.4093C30.7712 33.2708 30.869 33.1445 30.9709 33.0222C31.0524 32.9245 31.1787 32.8389 31.2602 32.7411C31.3702 32.6148 31.3335 32.4559 31.1216 32.2766C30.9057 32.0892 30.8935 31.9425 31.1094 31.8448C31.4843 31.6736 31.5739 31.4373 31.3091 31.1073C31.0483 30.7814 31.142 30.545 31.472 30.3535C31.7613 30.1906 31.8061 29.9665 31.5332 29.6691C31.3335 29.449 31.4394 29.2942 31.6513 29.1679C31.7491 29.1068 31.9284 29.0457 31.8754 28.9683C31.7491 28.7849 31.6106 28.6342 32.2462 28.7564C32.3888 28.7849 32.5314 28.7727 32.674 28.7768C32.5436 28.7197 32.4173 28.6586 32.2788 28.6057C32.1402 28.5486 31.9569 28.5038 31.855 28.4427C31.7572 28.3816 31.6676 28.2919 31.6921 28.2512C31.7654 28.1208 31.965 28.023 31.9854 27.8845C32.0058 27.7419 31.8387 27.5585 31.8224 27.4078C31.8102 27.2896 31.798 27.1389 31.965 27.09C32.3562 26.9718 31.965 26.6785 32.1362 26.5155C32.2828 26.377 32.3399 26.2059 32.3888 26.0388C32.4458 25.8392 32.4417 25.6314 32.1769 25.3788C32.0343 25.2402 32.1117 25.1302 32.185 25.0243C32.2625 24.9061 32.458 24.8695 32.8166 24.9265C33.0529 24.9632 33.2973 25.0121 33.5337 25.0528C33.607 25.065 33.6926 25.0691 33.7414 25.0569C33.827 25.0406 33.7537 24.9795 33.5459 24.9184C33.2362 24.8247 32.9144 24.7432 32.6006 24.6535C32.3888 24.5924 32.1891 24.4213 32.3032 24.3806C32.7758 24.2135 32.7718 23.9079 32.7636 23.6064C32.7595 23.4557 32.6129 23.2764 32.6251 23.1338C32.6332 23.0197 32.8206 22.9464 32.8655 22.8405C32.894 22.7671 32.6047 22.6041 32.8777 22.6041C33.224 22.6041 33.2729 22.543 33.167 22.3801C33.0407 22.1886 32.7636 21.9767 32.9592 21.8219C33.0896 21.72 32.9144 21.5326 33.0814 21.4144C33.2566 21.2881 33.3381 21.1129 33.2933 20.9296C33.2362 20.6973 33.6885 20.6118 33.5744 20.3836C33.4603 20.1636 33.7089 20.0617 33.8311 19.9151C34.0633 19.6421 34.1326 19.3284 33.8392 18.9372C33.55 18.5502 33.607 18.2324 33.9737 17.9961C34.2385 17.8249 34.3159 17.609 34.3282 17.3686C34.3445 17.0427 34.3119 16.6963 34.7234 16.4763C34.8456 16.4111 34.756 16.3093 34.7397 16.2196C34.646 15.747 34.6419 15.3029 35.1675 14.981C35.3264 14.8833 35.3101 14.7162 35.306 14.5655C35.3019 14.4147 35.2123 14.2477 35.1552 14.0888C35.5749 13.8769 35.3793 13.4776 35.8031 13.2698C35.8886 13.2291 35.9049 13.1843 35.8479 13.1109C35.7705 13.0131 35.6686 12.899 35.6971 12.8216C35.8479 12.4386 35.5953 11.9497 36.0801 11.6523C36.0394 11.469 35.966 11.2734 35.962 11.0982C35.962 10.7967 36.072 10.5156 35.9946 10.2018C35.9497 10.0103 35.9864 9.85551 36.0557 9.69254C36.2349 9.25251 36.3042 8.78396 36.4142 8.32763C36.5242 7.8713 36.622 7.4109 36.7524 6.95865C36.7931 6.82012 36.9072 6.69789 37.0172 6.57566C37.1109 6.47788 37.1883 6.37194 37.0865 6.23749C36.8705 5.95636 36.9154 5.7282 36.952 5.49596C37.062 4.82776 37.168 4.1555 37.2454 3.47916C37.2739 3.24692 37.5673 3.09209 37.5428 2.83541C37.5224 2.63169 37.5428 2.41983 37.8362 2.28945C37.9584 1.74348 38.0806 1.2016 38.2069 0.655634C38.2477 0.484511 38.2925 0.313389 38.3455 0.14634C38.374 0.0567047 38.5125 0.0118868 38.7244 0.0078125C39.0014 0.0078125 39.2907 0.0078125 39.5922 0.0363329C39.7144 0.048556 39.9508 0.11782 40.02 0.170786C40.4845 0.517106 40.7901 0.863425 40.9734 1.18937C41.0997 1.41346 41.006 1.61311 41.0142 1.82497V1.8209Z" fill="#1636FF"/>
</g>
<defs>
<clipPath id="clip0_235_5243">
<rect width="70.6044" height="43.7422" fill="white"/>
</clipPath>
</defs>
</svg>
