<svg width="1280" height="832" viewBox="0 0 1280 832" fill="none" xmlns="http://www.w3.org/2000/svg">
<rect width="1280" height="832" fill="#F2E6E0"/>
<rect y="608" width="1280" height="224" fill="#FFA3E8"/>
<path d="M465.3 120.7C463.3 120.7 461.433 120.417 459.7 119.85C458 119.283 456.55 118.533 455.35 117.6L455 116.95L455.4 109.95L455.9 109.45H457.9L458.4 109.95C458.633 112.45 459.367 114.367 460.6 115.7C461.833 117.033 463.3 117.7 465 117.7C466.567 117.7 467.783 117.167 468.65 116.1C469.517 115 469.95 113.733 469.95 112.3C469.95 110.933 469.717 109.8 469.25 108.9C468.783 107.967 468.117 107.167 467.25 106.5C466.383 105.833 465.2 105.133 463.7 104.4C460.967 103.033 458.9 101.517 457.5 99.85C456.1 98.15 455.4 96.1667 455.4 93.9C455.4 91.9333 455.9 90.2167 456.9 88.75C457.933 87.2833 459.283 86.1833 460.95 85.45C462.617 84.6833 464.383 84.3 466.25 84.3C469.617 84.3 472.3 85.1 474.3 86.7L474.6 87.2L474.85 93.9L474.35 94.4H472.55L472.05 93.9C471.817 91.7 471.233 90.05 470.3 88.95C469.4 87.85 468.167 87.3 466.6 87.3C465.2 87.3 464.067 87.75 463.2 88.65C462.367 89.55 461.95 90.6833 461.95 92.05C461.95 93.4167 462.417 94.6167 463.35 95.65C464.283 96.65 465.85 97.6833 468.05 98.75C471.05 100.25 473.25 101.867 474.65 103.6C476.05 105.3 476.75 107.517 476.75 110.25C476.75 112.083 476.283 113.8 475.35 115.4C474.417 117 473.083 118.283 471.35 119.25C469.617 120.217 467.6 120.7 465.3 120.7ZM479.939 119.6V117.4L480.339 117H480.939C481.439 117 481.889 116.8 482.289 116.4C482.723 115.967 482.939 115.5 482.939 115V91.1C482.939 90.6 482.723 90.15 482.289 89.75C481.889 89.3167 481.439 89.1 480.939 89.1H480.339L479.939 88.7V87.35L480.239 86.95L488.039 84H489.639L490.039 84.4L489.539 89.1V98.4C490.506 97.2 491.673 96.2667 493.039 95.6C494.406 94.9333 495.939 94.6 497.639 94.6C500.339 94.6 502.473 95.3333 504.039 96.8C505.639 98.2333 506.439 100.35 506.439 103.15V115C506.439 115.5 506.639 115.967 507.039 116.4C507.473 116.8 507.939 117 508.439 117H509.039L509.439 117.4V119.6L509.039 120H497.239L496.839 119.6V117.4L497.239 117H497.839C498.339 117 498.789 116.8 499.189 116.4C499.623 115.967 499.839 115.5 499.839 115V103.35C499.839 101.75 499.406 100.55 498.539 99.75C497.706 98.95 496.573 98.55 495.139 98.55C493.506 98.55 492.156 99.15 491.089 100.35C490.056 101.517 489.539 103.1 489.539 105.1V115C489.539 115.5 489.739 115.967 490.139 116.4C490.573 116.8 491.039 117 491.539 117H492.139L492.539 117.4V119.6L492.139 120H480.339L479.939 119.6ZM524.361 120.7C522.161 120.7 520.161 120.183 518.361 119.15C516.595 118.117 515.178 116.633 514.111 114.7C513.078 112.767 512.561 110.5 512.561 107.9C512.561 105.133 513.145 102.75 514.311 100.75C515.478 98.75 517.028 97.2333 518.961 96.2C520.895 95.1333 522.961 94.6 525.161 94.6C528.528 94.6 531.278 95.9 533.411 98.5H533.661L536.111 95.3H538.161L538.561 95.7V113.4C538.561 113.9 538.761 114.367 539.161 114.8C539.595 115.2 540.061 115.4 540.561 115.4H541.161L541.561 115.8V117.15L541.161 117.55L534.261 120.5H532.661L532.261 120.1V116.75C531.261 118.017 530.128 119 528.861 119.7C527.628 120.367 526.128 120.7 524.361 120.7ZM525.661 117.4C527.761 117.4 529.328 116.5 530.361 114.7C531.428 112.867 531.961 110.517 531.961 107.65C531.961 104.783 531.428 102.45 530.361 100.65C529.328 98.8167 527.761 97.9 525.661 97.9C523.561 97.9 521.978 98.8167 520.911 100.65C519.878 102.45 519.361 104.783 519.361 107.65C519.361 110.517 519.878 112.867 520.911 114.7C521.978 116.5 523.561 117.4 525.661 117.4ZM544.539 119.6V117.4L544.939 117H545.539C546.039 117 546.489 116.8 546.889 116.4C547.322 115.967 547.539 115.5 547.539 115V91.1C547.539 90.6 547.322 90.15 546.889 89.75C546.489 89.3167 546.039 89.1 545.539 89.1H544.939L544.539 88.7V87.35L544.839 86.95L552.639 84H554.239L554.639 84.4L554.139 89.1V107.45L562.639 99.8C562.939 99.5333 563.089 99.25 563.089 98.95C563.089 98.5167 562.806 98.3 562.239 98.3H561.239L560.839 97.9V95.7L561.239 95.3H570.389L570.789 95.7V97.9L570.389 98.3H569.489C569.022 98.3 568.656 98.4 568.389 98.6C568.122 98.7667 567.639 99.1667 566.939 99.8L561.139 105L568.339 115.85C568.606 116.283 568.872 116.583 569.139 116.75C569.439 116.917 569.772 117 570.139 117H571.589L571.989 117.4V119.6L571.589 120H563.489L562.839 119.6L556.389 109.5L554.139 111.65V115C554.139 115.5 554.339 115.967 554.739 116.4C555.172 116.8 555.639 117 556.139 117H556.739L557.139 117.4V119.6L556.739 120H544.939L544.539 119.6ZM586.65 120.7C584.083 120.7 581.8 120.117 579.8 118.95C577.8 117.783 576.233 116.2 575.1 114.2C574 112.167 573.45 109.917 573.45 107.45C573.45 105.05 574.017 102.867 575.15 100.9C576.317 98.9333 577.883 97.4 579.85 96.3C581.85 95.1667 584.067 94.6 586.5 94.6C589.167 94.6 591.417 95.2 593.25 96.4C595.083 97.6 596.45 99.2 597.35 101.2C598.25 103.167 598.7 105.367 598.7 107.8L598.3 108.2H579.7C579.7 109.667 580.05 111 580.75 112.2C581.45 113.367 582.433 114.3 583.7 115C584.967 115.667 586.433 116 588.1 116C592.2 116 595.35 114.333 597.55 111L597.95 110.8L598.7 111.1L598.85 111.5C598.05 114.333 596.567 116.583 594.4 118.25C592.233 119.883 589.65 120.7 586.65 120.7ZM590.15 105C590.85 105 591.35 104.833 591.65 104.5C591.983 104.133 592.15 103.683 592.15 103.15C592.15 101.517 591.633 100.217 590.6 99.25C589.567 98.2833 588.217 97.8 586.55 97.8C584.617 97.8 583.017 98.4667 581.75 99.8C580.517 101.1 579.833 102.7 579.7 104.6L580.1 105H590.15ZM623.195 120.7C621.128 120.7 619.395 120.1 617.995 118.9C616.628 117.667 615.945 115.833 615.945 113.4V98.5H612.245L611.845 98.1V97L621.295 88.4H622.145L622.545 88.8V95.3H628.845L629.245 95.7V98.1L628.845 98.5H622.545V113.85C622.545 114.85 622.812 115.617 623.345 116.15C623.878 116.65 624.562 116.9 625.395 116.9C626.795 116.9 627.878 116.167 628.645 114.7L629.045 114.55L630.045 114.95L630.245 115.35C629.078 118.917 626.728 120.7 623.195 120.7ZM645.984 120.7C643.451 120.7 641.151 120.15 639.084 119.05C637.018 117.917 635.384 116.367 634.184 114.4C633.018 112.4 632.434 110.15 632.434 107.65C632.434 105.15 633.018 102.917 634.184 100.95C635.384 98.95 637.018 97.4 639.084 96.3C641.151 95.1667 643.451 94.6 645.984 94.6C648.518 94.6 650.818 95.1667 652.884 96.3C654.951 97.4 656.568 98.95 657.734 100.95C658.934 102.917 659.534 105.15 659.534 107.65C659.534 110.15 658.934 112.4 657.734 114.4C656.568 116.367 654.951 117.917 652.884 119.05C650.818 120.15 648.518 120.7 645.984 120.7ZM645.984 117.5C648.184 117.5 649.834 116.6 650.934 114.8C652.068 112.967 652.634 110.583 652.634 107.65C652.634 104.717 652.068 102.35 650.934 100.55C649.834 98.7167 648.184 97.8 645.984 97.8C643.784 97.8 642.118 98.7167 640.984 100.55C639.884 102.35 639.334 104.717 639.334 107.65C639.334 110.583 639.884 112.967 640.984 114.8C642.118 116.6 643.784 117.5 645.984 117.5ZM673.938 119.6V117.4L674.338 117H675.938C676.438 117 676.888 116.8 677.288 116.4C677.722 115.967 677.938 115.5 677.938 115V90C677.938 89.5 677.722 89.05 677.288 88.65C676.888 88.2167 676.438 88 675.938 88H674.338L673.938 87.6V85.4L674.338 85H689.888C693.722 85 696.705 85.8167 698.838 87.45C701.005 89.05 702.088 91.2167 702.088 93.95C702.088 97.1833 700.155 99.6 696.288 101.2C698.555 101.8 700.355 102.883 701.688 104.45C703.055 106.017 703.738 107.9 703.738 110.1C703.738 112.2 703.188 114 702.088 115.5C701.022 116.967 699.588 118.083 697.788 118.85C695.988 119.617 694.005 120 691.838 120H674.338L673.938 119.6ZM688.588 100.1C690.555 100.1 692.038 99.5667 693.038 98.5C694.072 97.4333 694.588 95.9667 694.588 94.1C694.588 92.2 694.072 90.7167 693.038 89.65C692.038 88.55 690.555 88 688.588 88H686.888C686.422 88 685.988 88.2167 685.588 88.65C685.222 89.05 685.038 89.5 685.038 90V100.1H688.588ZM689.738 117C692.005 117 693.655 116.35 694.688 115.05C695.722 113.75 696.238 112.05 696.238 109.95C696.238 107.85 695.722 106.183 694.688 104.95C693.655 103.717 692.005 103.1 689.738 103.1H685.038V115C685.038 115.5 685.238 115.967 685.638 116.4C686.072 116.8 686.538 117 687.038 117H689.738ZM706.941 119.6V117.4L707.341 117H707.941C708.441 117 708.891 116.8 709.291 116.4C709.725 115.967 709.941 115.5 709.941 115V91.1C709.941 90.6 709.725 90.15 709.291 89.75C708.891 89.3167 708.441 89.1 707.941 89.1H707.341L706.941 88.7V87.35L707.241 86.95L715.041 84H716.641L717.041 84.4L716.541 89.1V115C716.541 115.5 716.741 115.967 717.141 116.4C717.575 116.8 718.041 117 718.541 117H719.141L719.541 117.4V119.6L719.141 120H707.341L706.941 119.6ZM735.625 120.7C733.058 120.7 730.775 120.117 728.775 118.95C726.775 117.783 725.208 116.2 724.075 114.2C722.975 112.167 722.425 109.917 722.425 107.45C722.425 105.05 722.991 102.867 724.125 100.9C725.291 98.9333 726.858 97.4 728.825 96.3C730.825 95.1667 733.041 94.6 735.475 94.6C738.141 94.6 740.391 95.2 742.225 96.4C744.058 97.6 745.425 99.2 746.325 101.2C747.225 103.167 747.675 105.367 747.675 107.8L747.275 108.2H728.675C728.675 109.667 729.025 111 729.725 112.2C730.425 113.367 731.408 114.3 732.675 115C733.941 115.667 735.408 116 737.075 116C741.175 116 744.325 114.333 746.525 111L746.925 110.8L747.675 111.1L747.825 111.5C747.025 114.333 745.541 116.583 743.375 118.25C741.208 119.883 738.625 120.7 735.625 120.7ZM739.125 105C739.825 105 740.325 104.833 740.625 104.5C740.958 104.133 741.125 103.683 741.125 103.15C741.125 101.517 740.608 100.217 739.575 99.25C738.541 98.2833 737.191 97.8 735.525 97.8C733.591 97.8 731.991 98.4667 730.725 99.8C729.491 101.1 728.808 102.7 728.675 104.6L729.075 105H739.125ZM751.233 119.6V117.4L751.633 117H752.233C752.733 117 753.183 116.8 753.583 116.4C754.017 115.967 754.233 115.5 754.233 115V102.4C754.233 101.9 754.017 101.45 753.583 101.05C753.183 100.617 752.733 100.4 752.233 100.4H751.633L751.233 100V98.65L751.533 98.25L758.833 95.3H760.433L760.833 95.7L760.333 99.05C761.267 97.6833 762.467 96.6 763.933 95.8C765.4 95 767.067 94.6 768.933 94.6C771.633 94.6 773.767 95.3333 775.333 96.8C776.933 98.2333 777.733 100.35 777.733 103.15V115C777.733 115.5 777.933 115.967 778.333 116.4C778.767 116.8 779.233 117 779.733 117H780.333L780.733 117.4V119.6L780.333 120H768.533L768.133 119.6V117.4L768.533 117H769.133C769.633 117 770.083 116.8 770.483 116.4C770.917 115.967 771.133 115.5 771.133 115V103.4C771.133 101.8 770.7 100.6 769.833 99.8C769 99 767.867 98.6 766.433 98.6C764.8 98.6 763.45 99.2 762.383 100.4C761.35 101.567 760.833 103.15 760.833 105.15V115C760.833 115.5 761.033 115.967 761.433 116.4C761.867 116.8 762.333 117 762.833 117H763.433L763.833 117.4V119.6L763.433 120H751.633L751.233 119.6ZM795.3 120.7C793.4 120.7 791.567 120.233 789.8 119.3C788.067 118.333 786.634 116.867 785.5 114.9C784.4 112.933 783.85 110.517 783.85 107.65C783.85 105.017 784.434 102.717 785.6 100.75C786.767 98.75 788.3 97.2333 790.2 96.2C792.134 95.1333 794.184 94.6 796.35 94.6C799.017 94.6 801.317 95.4 803.25 97V91.1C803.25 90.6 803.034 90.15 802.6 89.75C802.2 89.3167 801.75 89.1 801.25 89.1H800.65L800.25 88.7V87.35L800.65 86.95L808.35 84H809.95L810.35 84.4L809.85 89.1V115C809.85 115.5 810.05 115.967 810.45 116.4C810.884 116.8 811.35 117 811.85 117H812.45L812.85 117.4V119.6L812.45 120H803.35L802.95 119.6V117.45C801.184 119.617 798.634 120.7 795.3 120.7ZM797 117.4C799.1 117.4 800.667 116.5 801.7 114.7C802.734 112.867 803.25 110.517 803.25 107.65C803.25 104.783 802.734 102.45 801.7 100.65C800.667 98.8167 799.1 97.9 797 97.9C794.9 97.9 793.334 98.8167 792.3 100.65C791.267 102.45 790.75 104.783 790.75 107.65C790.75 110.517 791.267 112.867 792.3 114.7C793.334 116.5 794.9 117.4 797 117.4ZM817.885 108.5L816.085 85.5L816.585 85H822.985L823.485 85.5L821.685 108.5L821.185 109H818.385L817.885 108.5ZM819.735 120.7C818.702 120.7 817.802 120.333 817.035 119.6C816.302 118.833 815.935 117.933 815.935 116.9C815.935 115.833 816.302 114.917 817.035 114.15C817.802 113.383 818.702 113 819.735 113C820.802 113 821.718 113.383 822.485 114.15C823.252 114.917 823.635 115.833 823.635 116.9C823.635 117.933 823.252 118.833 822.485 119.6C821.718 120.333 820.802 120.7 819.735 120.7Z" fill="#2E61FF"/>
<path d="M425.986 167.225C421.211 167.225 419.486 164.6 419.161 161.55H421.261C421.536 163.675 422.386 165.475 425.986 165.475C428.286 165.475 430.061 164.125 430.061 162.1C430.061 160.075 429.136 159.225 425.736 158.675C421.986 158.1 419.761 156.925 419.761 153.75C419.761 151 422.136 148.9 425.511 148.9C429.086 148.9 431.311 150.65 431.661 153.825H429.711C429.286 151.575 427.986 150.65 425.511 150.65C423.061 150.65 421.786 151.875 421.786 153.55C421.786 155.3 422.436 156.2 426.086 156.75C430.061 157.375 432.161 158.575 432.161 161.95C432.161 164.95 429.536 167.225 425.986 167.225ZM439.71 167.175C437.335 167.175 436.185 165.775 436.185 163.725V155.675H434.31V153.925H436.185V150.95H438.26V153.925H441.31V155.675H438.26V163.525C438.26 164.8 438.835 165.425 439.885 165.425C440.535 165.425 441.035 165.325 441.485 165.15V166.9C441.06 167.05 440.56 167.175 439.71 167.175ZM448.019 167.225C445.594 167.225 443.669 166.05 443.669 163.375C443.669 160.35 446.869 159.325 450.219 159.325H452.094V158.375C452.094 156.3 451.294 155.425 449.294 155.425C447.494 155.425 446.494 156.175 446.294 157.775H444.219C444.494 154.8 446.869 153.7 449.394 153.7C451.894 153.7 454.169 154.725 454.169 158.375V167H452.094V165.35C451.119 166.575 449.944 167.225 448.019 167.225ZM448.219 165.575C450.419 165.575 452.094 164.45 452.094 162.425V160.8H450.294C447.669 160.8 445.744 161.45 445.744 163.375C445.744 164.725 446.394 165.575 448.219 165.575ZM458.245 167V153.925H460.32V156.275C461.145 154.8 462.27 153.775 464.62 153.7V155.65C461.995 155.775 460.32 156.6 460.32 159.825V167H458.245ZM471.741 167.175C469.366 167.175 468.216 165.775 468.216 163.725V155.675H466.341V153.925H468.216V150.95H470.291V153.925H473.341V155.675H470.291V163.525C470.291 164.8 470.866 165.425 471.916 165.425C472.566 165.425 473.066 165.325 473.516 165.15V166.9C473.091 167.05 472.591 167.175 471.741 167.175ZM487.319 167.225C484.194 167.225 482.319 165.65 482.194 162.975H484.219C484.369 164.525 485.194 165.5 487.294 165.5C489.269 165.5 490.144 164.825 490.144 163.425C490.144 162.05 489.119 161.6 487.094 161.225C483.694 160.6 482.544 159.65 482.544 157.375C482.544 154.95 484.919 153.7 486.969 153.7C489.319 153.7 491.344 154.65 491.694 157.475H489.694C489.394 156.05 488.594 155.425 486.944 155.425C485.444 155.425 484.469 156.175 484.469 157.3C484.469 158.475 485.119 158.95 487.519 159.375C490.219 159.875 492.119 160.475 492.119 163.25C492.119 165.625 490.494 167.225 487.319 167.225ZM495.281 167V147.675H497.356V156C497.956 154.775 499.406 153.7 501.556 153.7C504.256 153.7 506.156 155.175 506.156 158.975V167H504.081V158.825C504.081 156.525 503.106 155.5 501.006 155.5C499.081 155.5 497.356 156.725 497.356 159.075V167H495.281ZM513.497 167.225C511.072 167.225 509.147 166.05 509.147 163.375C509.147 160.35 512.347 159.325 515.697 159.325H517.572V158.375C517.572 156.3 516.772 155.425 514.772 155.425C512.972 155.425 511.972 156.175 511.772 157.775H509.697C509.972 154.8 512.347 153.7 514.872 153.7C517.372 153.7 519.647 154.725 519.647 158.375V167H517.572V165.35C516.597 166.575 515.422 167.225 513.497 167.225ZM513.697 165.575C515.897 165.575 517.572 164.45 517.572 162.425V160.8H515.772C513.147 160.8 511.222 161.45 511.222 163.375C511.222 164.725 511.872 165.575 513.697 165.575ZM523.723 167V147.675H525.798V159.95L531.223 153.925H533.648L528.048 160L534.123 167H531.598L525.798 160.225V167H523.723ZM537.664 151.2C536.914 151.2 536.289 150.575 536.289 149.825C536.289 149.075 536.914 148.45 537.664 148.45C538.414 148.45 539.039 149.075 539.039 149.825C539.039 150.575 538.414 151.2 537.664 151.2ZM536.664 167V153.925H538.739V167H536.664ZM542.986 167V153.925H545.061V156C545.661 154.775 547.111 153.7 549.261 153.7C551.961 153.7 553.861 155.175 553.861 158.975V167H551.786V158.825C551.786 156.525 550.811 155.5 548.711 155.5C546.786 155.5 545.061 156.725 545.061 159.075V167H542.986ZM563.152 171.775C559.277 171.775 557.577 169.95 557.227 167.75H559.352C559.652 169.25 560.902 170.025 563.127 170.025C565.702 170.025 567.327 168.8 567.327 166V164.1C566.577 165.375 564.802 166.575 562.902 166.575C559.477 166.575 556.952 163.975 556.952 160.375V160.2C556.952 156.65 559.452 153.7 563.052 153.7C565.227 153.7 566.577 154.75 567.327 156.025V153.925H569.402V166.125C569.377 169.925 566.802 171.775 563.152 171.775ZM563.127 164.85C565.552 164.85 567.402 163.15 567.402 160.225V160.05C567.402 157.125 565.802 155.425 563.252 155.425C560.652 155.425 559.102 157.35 559.102 160.1V160.3C559.102 163.15 560.927 164.85 563.127 164.85ZM581.392 171.55L583.867 165.65L578.742 153.925H580.967L584.967 163.3L588.592 153.925H590.717L583.492 171.55H581.392ZM598.508 167.225C594.783 167.225 592.108 164.4 592.108 160.575V160.375C592.108 156.45 594.833 153.7 598.533 153.7C602.233 153.7 604.958 156.425 604.958 160.35V160.55C604.958 164.5 602.233 167.225 598.508 167.225ZM598.533 165.5C601.158 165.5 602.808 163.525 602.808 160.575V160.4C602.808 157.375 601.133 155.425 598.533 155.425C595.908 155.425 594.258 157.375 594.258 160.375V160.575C594.258 163.55 595.883 165.5 598.533 165.5ZM612.596 167.225C609.996 167.225 608.046 165.8 608.046 162.2V153.925H610.121V162.1C610.121 164.4 611.096 165.425 613.146 165.425C614.996 165.425 616.746 164.2 616.746 161.85V153.925H618.821V167H616.746V164.925C616.146 166.15 614.696 167.225 612.596 167.225ZM623.015 167V153.925H625.09V156.275C625.915 154.8 627.04 153.775 629.39 153.7V155.65C626.765 155.775 625.09 156.6 625.09 159.825V167H623.015ZM639.031 171.55V153.925H641.106V156.125C641.856 154.85 643.631 153.7 645.531 153.7C648.956 153.7 651.481 156.2 651.481 160.275V160.475C651.481 164.475 649.131 167.225 645.531 167.225C643.381 167.225 641.856 166.15 641.106 164.85V171.55H639.031ZM645.331 165.5C647.931 165.5 649.331 163.75 649.331 160.575V160.375C649.331 157.075 647.506 155.425 645.306 155.425C642.881 155.425 641.031 157.025 641.031 160.375V160.575C641.031 163.925 642.781 165.5 645.331 165.5ZM654.704 167V147.675H656.779V156C657.379 154.775 658.829 153.7 660.979 153.7C663.679 153.7 665.579 155.175 665.579 158.975V167H663.504V158.825C663.504 156.525 662.529 155.5 660.429 155.5C658.504 155.5 656.779 156.725 656.779 159.075V167H654.704ZM675.071 167.225C671.346 167.225 668.671 164.4 668.671 160.575V160.375C668.671 156.45 671.396 153.7 675.096 153.7C678.796 153.7 681.521 156.425 681.521 160.35V160.55C681.521 164.5 678.796 167.225 675.071 167.225ZM675.096 165.5C677.721 165.5 679.371 163.525 679.371 160.575V160.4C679.371 157.375 677.696 155.425 675.096 155.425C672.471 155.425 670.821 157.375 670.821 160.375V160.575C670.821 163.55 672.446 165.5 675.096 165.5ZM684.734 167V153.925H686.809V156C687.409 154.775 688.859 153.7 691.009 153.7C693.709 153.7 695.609 155.175 695.609 158.975V167H693.534V158.825C693.534 156.525 692.559 155.5 690.459 155.5C688.534 155.5 686.809 156.725 686.809 159.075V167H684.734ZM705.025 167.225C701.325 167.225 698.7 164.625 698.7 160.6V160.4C698.7 156.45 701.225 153.7 704.825 153.7C707.85 153.7 710.7 155.525 710.7 160.2V160.875H700.85C700.95 163.85 702.375 165.5 705.05 165.5C707.075 165.5 708.25 164.75 708.525 163.225H710.6C710.15 165.85 707.975 167.225 705.025 167.225ZM700.925 159.2H708.575C708.375 156.5 706.975 155.425 704.825 155.425C702.7 155.425 701.275 156.875 700.925 159.2ZM724.475 167.175C722.1 167.175 720.95 165.775 720.95 163.725V155.675H719.075V153.925H720.95V150.95H723.025V153.925H726.075V155.675H723.025V163.525C723.025 164.8 723.6 165.425 724.65 165.425C725.3 165.425 725.8 165.325 726.25 165.15V166.9C725.825 167.05 725.325 167.175 724.475 167.175ZM734.812 167.225C731.087 167.225 728.412 164.4 728.412 160.575V160.375C728.412 156.45 731.137 153.7 734.837 153.7C738.537 153.7 741.262 156.425 741.262 160.35V160.55C741.262 164.5 738.537 167.225 734.812 167.225ZM734.837 165.5C737.462 165.5 739.112 163.525 739.112 160.575V160.4C739.112 157.375 737.437 155.425 734.837 155.425C732.212 155.425 730.562 157.375 730.562 160.375V160.575C730.562 163.55 732.187 165.5 734.837 165.5ZM757.591 167.225C755.466 167.225 753.916 166.15 753.166 164.85V167H751.091V147.675H753.166V156.125C753.916 154.85 755.691 153.7 757.591 153.7C761.016 153.7 763.541 156.2 763.541 160.275V160.475C763.541 164.475 761.191 167.225 757.591 167.225ZM757.391 165.5C759.991 165.5 761.391 163.75 761.391 160.575V160.375C761.391 157.075 759.566 155.425 757.366 155.425C754.941 155.425 753.091 157.025 753.091 160.375V160.575C753.091 163.925 754.841 165.5 757.391 165.5ZM766.815 167V147.675H768.915V167H766.815ZM778.512 167.225C774.812 167.225 772.187 164.625 772.187 160.6V160.4C772.187 156.45 774.712 153.7 778.312 153.7C781.337 153.7 784.187 155.525 784.187 160.2V160.875H774.337C774.437 163.85 775.862 165.5 778.537 165.5C780.562 165.5 781.737 164.75 782.012 163.225H784.087C783.637 165.85 781.462 167.225 778.512 167.225ZM774.412 159.2H782.062C781.862 156.5 780.462 155.425 778.312 155.425C776.187 155.425 774.762 156.875 774.412 159.2ZM787.371 167V153.925H789.446V156C790.046 154.775 791.496 153.7 793.646 153.7C796.346 153.7 798.246 155.175 798.246 158.975V167H796.171V158.825C796.171 156.525 795.196 155.5 793.096 155.5C791.171 155.5 789.446 156.725 789.446 159.075V167H787.371ZM807.237 167.225C803.812 167.225 801.337 164.8 801.337 160.725V160.525C801.337 156.525 803.837 153.7 807.437 153.7C809.612 153.7 810.962 154.75 811.712 156.025V147.675H813.787V167H811.712V164.75C810.962 166.025 809.137 167.225 807.237 167.225ZM807.462 165.5C809.887 165.5 811.787 163.9 811.787 160.55V160.35C811.787 157 810.187 155.425 807.637 155.425C805.037 155.425 803.487 157.25 803.487 160.425V160.625C803.487 163.925 805.262 165.5 807.462 165.5ZM818.686 161.95L818.336 149.125H820.636L820.286 161.95H818.686ZM819.461 167.125C818.586 167.125 817.861 166.425 817.861 165.525C817.861 164.625 818.586 163.925 819.461 163.925C820.336 163.925 821.061 164.625 821.061 165.525C821.061 166.425 820.336 167.125 819.461 167.125Z" fill="#2E61FF"/>
<g clip-path="url(#clip0_89_2)">
<path d="M608.5 734.254C687.201 734.254 751 721.321 751 705.366C751 689.412 687.201 676.479 608.5 676.479C529.799 676.479 466 689.412 466 705.366C466 721.321 529.799 734.254 608.5 734.254Z" fill="#FFC3F0"/>
<path d="M693.947 248.797C691.591 238.016 679.812 229.8 665.569 229.8H556.876C542.632 229.8 530.854 238.011 528.498 248.797H693.947Z" fill="#2E61FF"/>
<path d="M660.774 233.715C660.457 224.989 652.817 218 643.42 218H577.964C568.561 218 560.927 224.989 560.61 233.715H660.774Z" fill="#2E61FF"/>
<path d="M679.11 424.121C672.553 424.121 665.459 423.258 657.83 421.526C653.296 420.496 650.456 415.988 651.486 411.458C652.516 406.923 657.019 404.084 661.554 405.114C692.803 412.202 703.9 400.553 709.537 391.177C725.893 363.953 734.593 304.929 724.629 289.052C720.874 285.313 698.253 283.197 676.989 284.601C672.365 284.913 668.34 281.397 668.039 276.759C667.732 272.12 671.242 268.116 675.881 267.809C676.39 267.772 688.492 266.992 701.716 267.637C722.538 268.651 733.953 272.416 738.727 279.853C754.786 304.882 741.088 371.363 723.974 399.851C714.27 416.003 699.23 424.126 679.121 424.126L679.11 424.121Z" fill="#FDECE8"/>
<path d="M693.671 253.477L694.035 248.703L511.18 248.495L529.376 275.35L540.146 416.175C540.146 460.519 571.655 460.186 610.684 460.175C649.713 460.181 681.221 460.519 681.221 416.175L691.986 275.428L692.007 275.163L693.666 253.477H693.671Z" fill="#FFF1EE"/>
<path d="M610.689 259.083H536.038L547.235 410.132C547.235 450.024 575.582 449.723 610.689 449.717C645.797 449.723 674.144 450.024 674.144 410.132L685.34 259.083H610.689Z" fill="white"/>
<path d="M553.6 711.342C547.625 711.342 542.783 706.5 542.783 700.525V678.548C542.783 672.573 547.625 667.731 553.6 667.731C559.575 667.731 564.417 672.573 564.417 678.548V700.525C564.417 706.5 559.575 711.342 553.6 711.342Z" fill="#2E61FF"/>
<path d="M667.779 711.342C661.803 711.342 656.962 706.5 656.962 700.525V678.548C656.962 672.573 661.803 667.731 667.779 667.731C673.754 667.731 678.595 672.573 678.595 678.548V700.525C678.595 706.5 673.754 711.342 667.779 711.342Z" fill="#2E61FF"/>
<path d="M690.983 526.048C688.273 504.051 673.088 487.259 651.018 487.259H570.355C548.285 487.259 533.105 504.051 530.391 526.048L504.623 658.896C504.623 680.322 522.517 697.686 544.588 697.686H676.786C698.856 697.686 716.75 680.317 716.75 658.896L690.983 526.048Z" fill="#2E61FF"/>
<path d="M672.334 462.947C672.334 466.312 669.609 469.037 666.245 469.037H555.134C551.769 469.037 549.044 466.312 549.044 462.947C549.044 459.582 551.769 456.857 555.134 456.857H666.245C669.609 456.857 672.334 459.582 672.334 462.947Z" fill="#FFA3E8"/>
<path d="M672.334 475.126C672.334 478.49 669.609 481.215 666.245 481.215H555.134C551.769 481.215 549.044 478.49 549.044 475.126C549.044 471.761 551.769 469.036 555.134 469.036H666.245C669.609 469.036 672.334 471.761 672.334 475.126Z" fill="#FFA3E8"/>
<path d="M672.334 487.301C672.334 490.665 669.609 493.39 666.245 493.39H555.134C551.769 493.39 549.044 490.665 549.044 487.301C549.044 483.936 551.769 481.211 555.134 481.211H666.245C669.609 481.211 672.334 483.936 672.334 487.301Z" fill="#FFA3E8"/>
<path d="M633.633 610.544C633.633 623.217 623.363 633.488 610.689 633.488C598.016 633.488 587.745 623.217 587.745 610.544C587.745 597.87 598.016 587.6 610.689 587.6C623.363 587.6 633.633 597.87 633.633 610.544Z" fill="#2E61FF"/>
<path d="M629.13 610.543C629.13 620.73 620.872 628.983 610.689 628.983C600.507 628.983 592.249 620.725 592.249 610.543C592.249 600.361 600.507 592.103 610.689 592.103C620.872 592.103 629.13 600.361 629.13 610.543Z" fill="white"/>
<path d="M624.751 610.543C624.751 618.307 618.454 624.605 610.689 624.605C602.925 624.605 596.628 618.307 596.628 610.543C596.628 603.232 602.213 597.225 609.343 596.544C609.785 596.502 610.237 596.481 610.689 596.481C611.142 596.481 611.594 596.502 612.036 596.544C619.166 597.225 624.751 603.232 624.751 610.543Z" fill="#FFA3E8"/>
<path d="M612.036 596.544V603.154C612.036 603.897 611.433 604.5 610.689 604.5C609.946 604.5 609.342 603.897 609.342 603.154V596.544C609.784 596.502 610.237 596.481 610.689 596.481C611.142 596.481 611.594 596.502 612.036 596.544Z" fill="white"/>
<path d="M611.953 583.116C611.953 583.813 611.386 584.38 610.689 584.38C609.992 584.38 609.426 583.813 609.426 583.116V577.183C609.426 576.486 609.992 575.919 610.689 575.919C611.386 575.919 611.953 576.486 611.953 577.183V583.116Z" fill="#FFA3E8"/>
<path d="M611.953 643.456C611.953 644.153 611.386 644.72 610.689 644.72C609.992 644.72 609.426 644.153 609.426 643.456V637.522C609.426 636.826 609.992 636.259 610.689 636.259C611.386 636.259 611.953 636.826 611.953 637.522V643.456Z" fill="#FFA3E8"/>
<path d="M637.892 611.583C637.196 611.583 636.629 611.016 636.629 610.319C636.629 609.622 637.196 609.056 637.892 609.056H643.826C644.523 609.056 645.09 609.622 645.09 610.319C645.09 611.016 644.523 611.583 643.826 611.583H637.892Z" fill="#FFA3E8"/>
<path d="M577.553 611.583C576.856 611.583 576.289 611.016 576.289 610.319C576.289 609.622 576.856 609.056 577.553 609.056H583.486C584.183 609.056 584.75 609.622 584.75 610.319C584.75 611.016 584.183 611.583 583.486 611.583H577.553Z" fill="#FFA3E8"/>
<path d="M629.031 630.445C628.537 629.951 628.537 629.15 629.031 628.662C629.525 628.168 630.321 628.168 630.815 628.662L635.011 632.858C635.505 633.352 635.505 634.153 635.011 634.642C634.517 635.136 633.716 635.136 633.228 634.642L629.031 630.445Z" fill="#FFA3E8"/>
<path d="M586.367 587.781C585.873 587.287 585.873 586.492 586.367 585.997C586.861 585.503 587.657 585.503 588.151 585.997L592.348 590.194C592.842 590.688 592.842 591.484 592.348 591.978C591.854 592.472 591.058 592.472 590.564 591.978L586.367 587.781Z" fill="#FFA3E8"/>
<path d="M590.564 628.662C591.058 628.168 591.854 628.168 592.348 628.662C592.842 629.156 592.842 629.951 592.348 630.445L588.151 634.642C587.657 635.136 586.861 635.136 586.367 634.642C585.873 634.148 585.873 633.347 586.367 632.858L590.564 628.662Z" fill="#FFA3E8"/>
<path d="M633.228 585.997C633.722 585.503 634.522 585.503 635.011 585.997C635.505 586.492 635.505 587.287 635.011 587.781L630.815 591.978C630.321 592.472 629.52 592.472 629.031 591.978C628.537 591.484 628.537 590.688 629.031 590.194L633.228 585.997Z" fill="#FFA3E8"/>
<path d="M584.667 618.339C585.322 618.105 586.045 618.443 586.284 619.098C586.518 619.753 586.18 620.476 585.525 620.715L579.94 622.723C579.285 622.957 578.562 622.619 578.323 621.963C578.089 621.308 578.427 620.585 579.082 620.346L584.667 618.339Z" fill="#FFA3E8"/>
<path d="M641.439 597.912C642.094 597.678 642.817 598.016 643.057 598.671C643.291 599.327 642.953 600.049 642.297 600.289L636.712 602.296C636.057 602.53 635.334 602.192 635.095 601.537C634.861 600.881 635.199 600.159 635.854 599.919L641.439 597.912Z" fill="#FFA3E8"/>
<path d="M585.457 600.085C586.113 600.319 586.461 601.037 586.227 601.697C585.993 602.353 585.275 602.701 584.615 602.467L579.019 600.491C578.364 600.257 578.016 599.539 578.25 598.879C578.484 598.223 579.201 597.875 579.862 598.109L585.457 600.085Z" fill="#FFA3E8"/>
<path d="M642.36 620.149C643.015 620.383 643.363 621.1 643.129 621.761C642.895 622.416 642.178 622.764 641.517 622.53L635.922 620.554C635.266 620.32 634.918 619.603 635.152 618.942C635.386 618.287 636.104 617.939 636.764 618.173L642.36 620.149Z" fill="#FFA3E8"/>
<path d="M600.232 585.176C600.528 585.805 600.258 586.559 599.628 586.856C598.999 587.152 598.245 586.882 597.949 586.253L595.416 580.886C595.12 580.257 595.39 579.503 596.019 579.206C596.649 578.91 597.403 579.18 597.699 579.809L600.232 585.176Z" fill="#FFA3E8"/>
<path d="M625.958 639.753C626.254 640.383 625.984 641.137 625.354 641.433C624.725 641.729 623.971 641.459 623.675 640.83L621.142 635.463C620.846 634.834 621.116 634.08 621.745 633.783C622.375 633.487 623.129 633.757 623.425 634.387L625.958 639.753Z" fill="#FFA3E8"/>
<path d="M622.39 585.732C622.12 586.377 621.381 586.679 620.737 586.408C620.092 586.138 619.79 585.4 620.061 584.755L622.359 579.284C622.63 578.639 623.368 578.338 624.013 578.608C624.652 578.878 624.959 579.617 624.689 580.262L622.39 585.732Z" fill="#FFA3E8"/>
<path d="M599.015 641.355C598.744 642 598.006 642.302 597.361 642.031C596.716 641.761 596.414 641.023 596.685 640.378L598.983 634.907C599.254 634.262 599.992 633.961 600.637 634.231C601.282 634.501 601.584 635.24 601.313 635.885L599.015 641.355Z" fill="#FFA3E8"/>
<path d="M609.925 550.693C614.997 550.693 619.109 546.581 619.109 541.509C619.109 536.437 614.997 532.325 609.925 532.325C604.853 532.325 600.741 536.437 600.741 541.509C600.741 546.581 604.853 550.693 609.925 550.693Z" fill="#FFA3E8"/>
</g>
<rect x="353" y="799" width="21" height="557" rx="10" transform="rotate(-90 353 799)" fill="#2E61FF" fill-opacity="0.5"/>
<rect x="353" y="799" width="21" height="190" rx="10" transform="rotate(-90 353 799)" fill="#2E61FF"/>
<path d="M530.533 794.914C530.52 794.865 530.517 794.809 530.492 794.766C529.632 793.351 528.977 791.833 528.271 790.34C527.45 788.603 526.877 786.783 526.431 784.922C526.16 783.789 526.037 782.63 526.074 781.46C526.079 781.316 526.063 781.171 526.042 781.029C525.938 780.349 526.049 779.681 526.153 779.015C526.268 778.271 526.376 777.526 526.538 776.792C526.789 775.654 527.38 774.728 528.31 773.997C529.355 773.176 530.461 772.479 531.746 772.124C532.517 771.91 533.309 771.775 534.092 771.606C534.138 771.596 534.188 771.6 534.235 771.598C534.163 771.635 534.092 771.675 534.018 771.709C533.336 772.018 532.735 772.434 532.268 773.03C532.162 773.166 532.19 773.264 532.361 773.296C532.561 773.332 532.763 773.368 532.965 773.37C533.74 773.376 534.517 773.417 535.282 773.234C535.583 773.163 535.893 773.129 536.195 773.061C536.554 772.981 536.911 772.885 537.267 772.793C537.665 772.691 538.065 772.595 538.458 772.478C538.879 772.355 539.293 772.209 539.711 772.077C539.756 772.062 539.809 772.075 539.874 772.075C539.844 772.139 539.821 772.181 539.805 772.224C539.581 772.886 539.359 773.549 539.131 774.212C538.971 774.68 538.909 775.165 538.877 775.654C538.853 776.016 539.02 776.064 539.33 775.929C539.768 775.737 540.134 775.432 540.487 775.111C541.042 774.606 541.541 774.056 541.873 773.374C542.001 773.111 542.107 772.837 542.243 772.523C542.309 772.63 542.361 772.702 542.402 772.779C542.795 773.502 543.293 774.127 544.001 774.569C544.344 774.783 544.712 774.924 545.104 775.012C545.272 775.05 545.384 774.975 545.375 774.811C545.361 774.542 545.347 774.271 545.303 774.007C545.22 773.52 545.116 773.036 545.019 772.552C544.993 772.422 544.959 772.293 544.923 772.146C544.996 772.146 545.037 772.141 545.078 772.146C545.467 772.212 545.854 772.285 546.243 772.345C546.645 772.406 547.05 772.449 547.453 772.508C547.665 772.54 547.874 772.588 548.083 772.634C548.31 772.682 548.534 772.747 548.763 772.786C549.028 772.832 549.262 772.927 549.451 773.123C549.495 773.169 549.559 773.196 549.649 773.256C549.642 773.129 549.652 773.048 549.632 772.976C549.509 772.564 549.4 772.144 549.148 771.784C550.973 772.063 552.745 772.544 554.459 773.226C554.827 773.373 555.184 773.556 555.53 773.751C556.043 774.039 556.582 774.305 557.041 774.668C558.078 775.492 558.923 776.488 559.564 777.661C560.197 778.819 560.465 780.047 560.395 781.352C560.338 782.429 560.134 783.485 559.766 784.498C559.186 786.095 558.604 787.693 557.961 789.266C557.622 790.094 557.161 790.874 556.741 791.667C555.656 793.712 554.402 795.65 553.002 797.492C551.857 798.999 550.589 800.397 549.143 801.622C548.315 802.324 547.425 802.949 546.483 803.491C545.851 803.854 545.222 804.233 544.559 804.529C543.81 804.864 543.002 805.036 542.189 805.16C541.702 805.235 541.267 805.017 540.813 804.916C540.192 804.778 539.662 804.426 539.121 804.112C537.925 803.416 536.781 802.636 535.727 801.743C534.595 800.784 533.644 799.651 532.812 798.421C532.057 797.307 531.256 796.225 530.639 795.024C530.623 794.995 530.593 794.973 530.568 794.948L530.57 794.951C530.558 794.939 530.544 794.925 530.531 794.913H530.534L530.533 794.914ZM531.719 778.252C531.704 778.255 531.689 778.257 531.674 778.259C531.733 778.601 531.774 778.947 531.86 779.282C531.909 779.476 532.037 779.647 532.281 779.638C532.521 779.629 532.612 779.442 532.656 779.256C532.719 778.994 532.778 778.721 532.768 778.455C532.743 777.795 532.679 777.135 532.629 776.476C532.619 776.34 532.531 776.26 532.41 776.252C532.327 776.246 532.217 776.276 532.161 776.332C532.08 776.414 532.019 776.529 531.981 776.64C531.8 777.161 531.701 777.697 531.719 778.251V778.252ZM538.676 801.796C538.635 801.698 538.59 801.495 538.477 801.342C538.25 801.033 538.002 800.734 537.732 800.463C537.422 800.151 537.036 799.95 536.615 799.823C536.354 799.744 536.195 799.891 536.258 800.15C536.278 800.232 536.306 800.313 536.346 800.387C536.775 801.198 537.385 801.827 538.224 802.216C538.492 802.34 538.681 802.199 538.676 801.796ZM536.722 796.164C536.711 796.166 536.701 796.168 536.69 796.169C536.738 796.428 536.766 796.692 536.837 796.945C536.994 797.502 537.233 798.021 537.696 798.394C537.807 798.483 537.979 798.558 538.113 798.543C538.292 798.524 538.311 798.327 538.327 798.17C538.336 798.087 538.34 798.002 538.33 797.919C538.246 797.198 537.887 796.592 537.491 796.012C537.391 795.864 537.181 795.773 537.005 795.701C536.833 795.632 536.733 795.725 536.723 795.911C536.719 795.995 536.723 796.08 536.723 796.164H536.722ZM548.766 792.673C548.783 792.677 548.801 792.681 548.819 792.685C548.807 792.992 548.896 793.257 549.109 793.488C549.29 793.684 549.451 793.689 549.605 793.463C549.658 793.383 549.715 793.3 549.742 793.211C549.823 792.941 549.899 792.669 549.96 792.395C550.082 791.85 550.16 791.301 549.878 790.779C549.827 790.683 549.731 790.565 549.641 790.549C549.559 790.535 549.419 790.626 549.37 790.709C549.262 790.892 549.174 791.094 549.116 791.299C548.988 791.753 548.883 792.213 548.768 792.67L548.766 792.673ZM550.603 796.793C550.585 796.673 550.562 796.465 550.519 796.261C550.509 796.215 550.438 796.161 550.386 796.148C550.34 796.136 550.253 796.159 550.233 796.195C550.101 796.416 549.952 796.633 549.867 796.873C549.685 797.387 549.531 797.911 549.38 798.434C549.313 798.666 549.353 798.901 549.471 799.114C549.601 799.348 549.833 799.378 549.993 799.163C550.117 798.997 550.224 798.81 550.296 798.616C550.501 798.059 550.567 797.474 550.604 796.795L550.603 796.793ZM530.791 789.949C530.793 789.365 530.546 788.89 530.294 788.417C530.126 788.102 529.89 787.851 529.586 787.663C529.359 787.523 529.255 787.577 529.235 787.849C529.231 787.902 529.237 787.958 529.248 788.01C529.318 788.313 529.373 788.622 529.467 788.918C529.618 789.394 529.793 789.863 530.181 790.211C530.314 790.331 530.462 790.456 530.647 790.372C530.837 790.286 530.783 790.086 530.792 789.949H530.791ZM544.054 802.102C544.064 802.293 544.059 802.473 544.239 802.563C544.413 802.651 544.571 802.584 544.703 802.466C544.81 802.37 544.917 802.266 544.992 802.146C545.16 801.877 545.327 801.604 545.457 801.315C545.574 801.055 545.659 800.776 545.72 800.496C545.746 800.377 545.717 800.188 545.638 800.117C545.534 800.024 545.379 800.104 545.271 800.208C545.097 800.374 544.908 800.526 544.75 800.705C544.392 801.113 544.133 801.575 544.056 802.102H544.054ZM542.656 791.265C542.594 791.342 542.533 791.394 542.504 791.458C542.145 792.267 542.117 793.098 542.363 793.941C542.418 794.129 542.516 794.307 542.742 794.329C542.899 794.344 543.04 794.176 543.092 793.901C543.25 793.047 543.136 792.225 542.777 791.437C542.753 791.384 542.71 791.341 542.656 791.265ZM546.677 796.178C546.694 795.602 546.457 795.077 546.379 794.525C546.375 794.503 546.364 794.476 546.348 794.46C546.315 794.43 546.274 794.383 546.239 794.386C546.204 794.388 546.157 794.437 546.143 794.476C545.905 795.12 545.709 795.777 545.677 796.467C545.661 796.79 545.73 797.107 545.984 797.342C546.224 797.564 546.465 797.507 546.534 797.191C546.607 796.859 546.631 796.515 546.677 796.177L546.677 796.178ZM554.741 786.086C554.694 785.883 554.656 785.677 554.597 785.478C554.566 785.374 554.478 785.363 554.399 785.438C554.357 785.479 554.325 785.534 554.3 785.587C553.995 786.25 553.751 786.934 553.638 787.658C553.599 787.91 553.619 788.164 553.745 788.397C553.858 788.605 554.012 788.619 554.149 788.429C554.202 788.357 554.244 788.276 554.285 788.196C554.623 787.534 554.687 786.817 554.74 786.086H554.741ZM534.222 784.438C534.189 784.443 534.156 784.449 534.124 784.455C533.727 785.269 533.598 786.119 533.824 787.011C533.867 787.181 533.958 787.348 534.063 787.489C534.198 787.672 534.379 787.64 534.468 787.433C534.508 787.34 534.537 787.239 534.549 787.139C534.628 786.489 534.626 785.839 534.503 785.197C534.452 784.936 534.318 784.69 534.223 784.438H534.222ZM553.783 790.615C553.772 790.51 553.777 790.411 553.75 790.321C553.727 790.248 553.668 790.186 553.624 790.12C553.554 790.169 553.46 790.203 553.42 790.27C553.339 790.402 553.289 790.553 553.225 790.694C553.031 791.126 552.818 791.55 552.647 791.99C552.544 792.256 552.491 792.545 552.608 792.834C552.721 793.11 552.93 793.169 553.135 792.955C553.249 792.837 553.352 792.694 553.416 792.543C553.68 791.926 553.709 791.263 553.782 790.615H553.783ZM557.807 782.319C557.798 782.314 557.789 782.31 557.779 782.305C557.749 782.16 557.736 782.008 557.68 781.872C557.65 781.799 557.55 781.723 557.475 781.713C557.428 781.708 557.34 781.822 557.318 781.896C557.143 782.476 556.982 783.06 556.815 783.642C556.736 783.919 556.64 784.191 556.577 784.472C556.555 784.569 556.579 784.747 556.637 784.778C556.745 784.833 556.902 784.832 557.025 784.802C557.111 784.781 557.191 784.684 557.244 784.601C557.332 784.466 557.431 784.323 557.464 784.17C557.592 783.556 557.696 782.936 557.807 782.318V782.319ZM534.016 793.206C533.948 792.421 533.719 791.732 533.185 791.169C533.151 791.133 533.099 791.113 533.054 791.086C533.023 791.139 532.971 791.19 532.962 791.247C532.875 791.792 532.87 792.337 533.007 792.875C533.093 793.211 533.22 793.529 533.484 793.771C533.702 793.971 533.865 793.926 533.938 793.642C533.976 793.491 533.994 793.335 534.016 793.206ZM529.792 785.082C529.72 784.345 529.642 783.665 529.379 783.023C529.348 782.946 529.286 782.882 529.238 782.812C529.157 782.875 529.068 782.93 528.998 783.004C528.961 783.044 528.951 783.113 528.94 783.172C528.824 783.759 528.858 784.348 528.961 784.931C529.003 785.162 529.099 785.394 529.218 785.597C529.361 785.842 529.601 785.811 529.701 785.542C529.761 785.382 529.769 785.205 529.792 785.083V785.082ZM547.707 775.908C547.619 776.092 547.53 776.235 547.481 776.391C547.333 776.867 547.296 777.359 547.336 777.853C547.358 778.121 547.403 778.399 547.593 778.608C547.674 778.696 547.808 778.785 547.919 778.786C548.076 778.787 548.168 778.634 548.187 778.487C548.216 778.262 548.24 778.03 548.214 777.807C548.166 777.403 548.084 777.003 548.009 776.602C547.966 776.368 547.925 776.131 547.706 775.908H547.707ZM542.515 785.146C542.515 785.013 542.529 784.88 542.512 784.749C542.476 784.459 542.493 784.153 542.309 783.903C542.264 783.841 542.181 783.767 542.119 783.771C542.065 783.773 541.991 783.868 541.967 783.937C541.746 784.582 541.685 785.25 541.743 785.925C541.761 786.137 541.821 786.349 541.894 786.549C541.922 786.625 542.04 786.707 542.12 786.711C542.177 786.714 542.262 786.601 542.298 786.523C542.498 786.086 542.516 785.617 542.515 785.147V785.146ZM546.799 789.14C546.78 788.863 546.786 788.655 546.747 788.456C546.672 788.061 546.576 787.671 546.48 787.282C546.466 787.227 546.402 787.184 546.362 787.136C546.317 787.188 546.252 787.233 546.233 787.292C546.033 787.934 545.902 788.59 545.965 789.262C545.984 789.472 546.088 789.693 546.212 789.867C546.389 790.117 546.631 790.061 546.707 789.763C546.764 789.538 546.777 789.302 546.798 789.14H546.799ZM546.599 783.559C546.556 782.979 546.458 782.42 546.268 781.878C546.25 781.827 546.196 781.748 546.169 781.751C546.112 781.76 546.055 781.808 546.012 781.853C545.98 781.886 545.967 781.938 545.952 781.983C545.772 782.506 545.705 783.048 545.71 783.596C545.713 783.856 545.739 784.129 545.929 784.341C546.132 784.568 546.375 784.531 546.466 784.243C546.536 784.023 546.557 783.787 546.6 783.559H546.599ZM534.805 797.779C534.755 797.654 534.709 797.497 534.635 797.354C534.351 796.813 533.973 796.337 533.552 795.897C533.456 795.796 533.303 795.734 533.165 795.69C532.968 795.629 532.868 795.741 532.949 795.934C533.231 796.611 533.589 797.242 534.145 797.736C534.274 797.85 534.447 797.928 534.611 797.988C534.734 798.032 534.789 797.925 534.805 797.779ZM541.633 800.122C541.607 799.837 541.607 799.637 541.569 799.444C541.508 799.134 541.427 798.827 541.34 798.523C541.325 798.469 541.242 798.434 541.19 798.391C541.151 798.44 541.089 798.483 541.077 798.538C540.997 798.882 540.901 799.225 540.865 799.574C540.815 800.054 540.83 800.538 541.07 800.978C541.115 801.061 541.227 801.168 541.297 801.161C541.371 801.153 541.47 801.03 541.491 800.942C541.56 800.646 541.597 800.343 541.634 800.122H541.633ZM537.396 776.816C537.371 776.471 537.36 776.236 537.336 776.004C537.312 775.777 537.28 775.551 537.237 775.327C537.228 775.276 537.166 775.203 537.124 775.2C537.067 775.195 537.001 775.242 536.947 775.279C536.922 775.296 536.914 775.341 536.9 775.374C536.679 775.909 536.589 776.473 536.59 777.045C536.59 777.27 536.67 777.506 536.763 777.715C536.853 777.918 537.025 777.911 537.154 777.727C537.201 777.658 537.247 777.582 537.265 777.502C537.321 777.241 537.366 776.975 537.395 776.815L537.396 776.816ZM551.086 787.207C551.059 786.825 551.051 786.561 551.018 786.298C550.993 786.092 550.945 785.887 550.892 785.685C550.879 785.635 550.804 785.602 550.757 785.56C550.723 785.608 550.682 785.651 550.659 785.704C550.379 786.352 550.309 787.035 550.341 787.732C550.347 787.865 550.389 788.011 550.458 788.123C550.518 788.218 550.637 788.325 550.736 788.332C550.802 788.336 550.923 788.184 550.944 788.085C551.016 787.758 551.053 787.425 551.087 787.205L551.086 787.207ZM554.745 776.153C554.684 776.243 554.633 776.298 554.604 776.362C554.365 776.895 554.296 777.46 554.323 778.036C554.331 778.198 554.389 778.365 554.453 778.517C554.52 778.677 554.659 778.78 554.84 778.758C555.031 778.734 555.117 778.583 555.117 778.408C555.117 778.121 555.102 777.833 555.075 777.547C555.032 777.089 554.988 776.629 554.744 776.153H554.745ZM552.879 780.202C552.803 780.397 552.727 780.537 552.695 780.686C552.599 781.143 552.496 781.602 552.447 782.065C552.421 782.307 552.48 782.565 552.542 782.805C552.562 782.887 552.707 782.988 552.794 782.988C552.879 782.988 552.978 782.878 553.041 782.794C553.092 782.727 553.104 782.628 553.122 782.539C553.273 781.797 553.202 781.068 552.975 780.351C552.961 780.308 552.923 780.271 552.877 780.201L552.879 780.202ZM539.515 781.487C539.463 781.194 539.42 780.898 539.353 780.607C539.334 780.519 539.248 780.445 539.192 780.365C539.112 780.439 539.022 780.504 538.953 780.588C538.909 780.642 538.882 780.717 538.871 780.786C538.804 781.168 538.704 781.552 538.694 781.937C538.687 782.208 538.798 782.484 538.879 782.75C538.898 782.813 539.011 782.882 539.082 782.882C539.137 782.882 539.213 782.788 539.242 782.72C539.413 782.331 539.49 781.92 539.515 781.487ZM543.807 778.472C543.798 778.472 543.789 778.471 543.78 778.47C543.78 778.325 543.796 778.178 543.776 778.037C543.746 777.825 543.712 777.608 543.638 777.409C543.568 777.22 543.475 777.23 543.367 777.397C543.189 777.671 543.082 777.972 543.076 778.296C543.07 778.691 543.08 779.088 543.117 779.481C543.132 779.644 543.233 779.82 543.44 779.814C543.654 779.809 543.682 779.61 543.704 779.459C543.753 779.133 543.774 778.803 543.806 778.474L543.807 778.472ZM538.175 789.864C538.186 789.865 538.197 789.867 538.207 789.868C538.207 789.982 538.186 790.102 538.212 790.21C538.257 790.393 538.321 790.573 538.404 790.742C538.432 790.8 538.551 790.861 538.608 790.846C538.678 790.827 538.756 790.737 538.777 790.663C538.822 790.496 538.856 790.32 538.855 790.148C538.853 789.604 538.763 789.072 538.605 788.551C538.589 788.499 538.548 788.454 538.52 788.405C538.476 788.448 538.419 788.484 538.393 788.536C538.355 788.61 538.329 788.693 538.318 788.775C538.266 789.138 538.222 789.5 538.175 789.864Z" fill="#FF3838"/>
<path d="M549.149 771.786C549.401 772.146 549.511 772.565 549.633 772.978C549.654 773.049 549.643 773.13 549.65 773.258C549.559 773.197 549.496 773.17 549.452 773.124C549.263 772.928 549.029 772.833 548.764 772.787C548.535 772.748 548.312 772.684 548.084 772.635C547.875 772.59 547.666 772.541 547.453 772.509C547.051 772.45 546.646 772.408 546.243 772.346C545.854 772.288 545.467 772.214 545.079 772.148C545.039 772.141 544.996 772.148 544.924 772.148C544.959 772.296 544.994 772.424 545.02 772.554C545.117 773.038 545.221 773.522 545.304 774.008C545.349 774.273 545.363 774.543 545.376 774.812C545.385 774.976 545.273 775.051 545.105 775.013C544.713 774.925 544.345 774.783 544.002 774.57C543.293 774.129 542.795 773.503 542.403 772.78C542.362 772.703 542.31 772.63 542.244 772.524C542.108 772.838 542.002 773.112 541.874 773.376C541.542 774.057 541.042 774.606 540.488 775.113C540.136 775.434 539.769 775.738 539.331 775.93C539.021 776.066 538.854 776.018 538.878 775.656C538.91 775.167 538.972 774.68 539.132 774.213C539.359 773.552 539.581 772.888 539.806 772.225C539.822 772.181 539.845 772.14 539.875 772.076C539.81 772.076 539.757 772.064 539.712 772.078C539.294 772.21 538.88 772.355 538.459 772.48C538.066 772.596 537.666 772.692 537.268 772.795C536.912 772.887 536.555 772.982 536.196 773.063C535.894 773.13 535.584 773.164 535.283 773.236C534.518 773.418 533.741 773.378 532.966 773.371C532.765 773.369 532.562 773.334 532.362 773.297C532.191 773.266 532.163 773.166 532.269 773.031C532.736 772.436 533.337 772.02 534.019 771.71C534.093 771.677 534.164 771.636 534.236 771.599C535.342 771.22 536.448 770.842 537.553 770.463C537.556 770.445 537.558 770.427 537.561 770.409C537.195 770.311 536.833 770.196 536.463 770.122C536.099 770.049 535.725 770.02 535.356 769.969C535.135 769.939 535.076 769.738 535.224 769.535C535.404 769.29 535.66 769.142 535.93 769.037C536.591 768.783 537.28 768.748 537.973 768.868C538.463 768.953 538.947 769.068 539.435 769.169C539.451 769.173 539.47 769.166 539.488 769.165C539.39 768.909 539.288 768.659 539.204 768.402C539.181 768.334 539.192 768.22 539.236 768.175C539.279 768.131 539.392 768.122 539.461 768.143C539.822 768.251 540.11 768.483 540.396 768.716C540.602 768.884 540.804 769.057 541.035 769.249C541.006 769.089 540.977 768.953 540.955 768.816C540.887 768.401 540.821 767.986 540.758 767.57C540.745 767.481 540.733 767.387 540.747 767.3C540.761 767.22 540.793 767.102 540.848 767.079C540.919 767.05 541.037 767.076 541.108 767.12C541.441 767.329 541.694 767.623 541.902 767.952C542.087 768.242 542.257 768.542 542.429 768.832C542.561 768.593 542.687 768.335 542.839 768.095C543.099 767.687 543.394 767.306 543.823 767.055C544 766.951 544.082 766.992 544.069 767.198C544.031 767.817 543.983 768.434 543.939 769.053C543.931 769.166 543.925 769.279 543.916 769.423C544.122 769.353 544.304 769.287 544.488 769.23C545.45 768.925 546.428 768.708 547.447 768.819C548.45 768.928 549.363 769.259 550.113 769.963C550.209 770.053 550.366 770.158 550.283 770.295C550.244 770.359 550.049 770.348 549.926 770.338C549.057 770.264 548.192 770.112 547.315 770.192C547.042 770.218 546.771 770.272 546.5 770.339C547.484 770.653 548.469 770.94 549.149 771.789V771.786Z" fill="#2E61FF"/>
<path d="M530.568 794.948C530.569 794.978 530.582 795.014 530.568 795.036C530.541 795.082 530.509 795.138 530.465 795.154C530.439 795.163 530.352 795.095 530.356 795.075C530.367 795.022 530.41 794.973 530.448 794.931C530.464 794.914 530.504 794.92 530.533 794.915H530.531C530.543 794.928 530.557 794.941 530.569 794.954L530.568 794.95L530.568 794.948Z" fill="#693D35"/>
<path d="M531.719 778.252C531.702 777.698 531.801 777.161 531.98 776.641C532.019 776.53 532.08 776.415 532.161 776.333C532.216 776.277 532.327 776.247 532.41 776.253C532.531 776.261 532.619 776.341 532.629 776.476C532.679 777.136 532.743 777.796 532.768 778.456C532.778 778.721 532.719 778.995 532.656 779.256C532.612 779.442 532.521 779.63 532.281 779.639C532.036 779.648 531.909 779.477 531.86 779.283C531.775 778.948 531.733 778.601 531.674 778.26C531.689 778.258 531.703 778.256 531.719 778.253V778.252Z" fill="#FFA3E8"/>
<path d="M538.676 801.796C538.68 802.199 538.492 802.339 538.224 802.216C537.385 801.827 536.776 801.198 536.346 800.387C536.307 800.313 536.278 800.232 536.259 800.15C536.194 799.891 536.354 799.744 536.615 799.823C537.036 799.95 537.423 800.152 537.732 800.463C538.003 800.734 538.25 801.033 538.477 801.341C538.59 801.495 538.635 801.699 538.676 801.796Z" fill="#FFA3E8"/>
<path d="M536.722 796.164C536.722 796.08 536.719 795.995 536.722 795.911C536.732 795.724 536.832 795.631 537.004 795.701C537.181 795.773 537.39 795.864 537.49 796.011C537.886 796.592 538.245 797.198 538.329 797.919C538.339 798.001 538.335 798.086 538.327 798.169C538.31 798.327 538.291 798.524 538.112 798.543C537.978 798.557 537.806 798.483 537.695 798.393C537.232 798.02 536.993 797.501 536.836 796.944C536.765 796.692 536.737 796.428 536.689 796.169C536.7 796.167 536.71 796.165 536.721 796.164H536.722Z" fill="#FFA3E8"/>
<path d="M548.766 792.673C548.881 792.215 548.986 791.754 549.115 791.301C549.172 791.096 549.261 790.894 549.368 790.711C549.417 790.628 549.558 790.537 549.639 790.551C549.73 790.567 549.825 790.685 549.876 790.781C550.159 791.304 550.08 791.852 549.958 792.397C549.897 792.672 549.821 792.943 549.74 793.213C549.713 793.302 549.656 793.386 549.603 793.465C549.449 793.691 549.288 793.687 549.107 793.49C548.895 793.258 548.805 792.994 548.817 792.687C548.8 792.683 548.782 792.679 548.765 792.675L548.766 792.673Z" fill="#FFA3E8"/>
<path d="M550.603 796.793C550.567 797.473 550.501 798.057 550.295 798.614C550.224 798.808 550.116 798.995 549.993 799.161C549.833 799.377 549.6 799.346 549.47 799.112C549.352 798.898 549.312 798.664 549.379 798.432C549.53 797.909 549.684 797.385 549.866 796.871C549.951 796.632 550.1 796.414 550.232 796.193C550.253 796.157 550.34 796.134 550.385 796.146C550.437 796.159 550.508 796.212 550.518 796.259C550.561 796.463 550.584 796.671 550.603 796.791L550.603 796.793Z" fill="#FFA3E8"/>
<path d="M530.791 789.949C530.782 790.086 530.836 790.286 530.646 790.372C530.461 790.455 530.313 790.33 530.18 790.211C529.792 789.864 529.617 789.395 529.466 788.918C529.372 788.622 529.317 788.314 529.247 788.01C529.236 787.957 529.23 787.901 529.234 787.849C529.254 787.576 529.358 787.522 529.585 787.663C529.888 787.851 530.125 788.102 530.293 788.416C530.545 788.89 530.793 789.365 530.79 789.949H530.791Z" fill="#FFA3E8"/>
<path d="M544.054 802.102C544.131 801.575 544.39 801.113 544.748 800.705C544.906 800.526 545.096 800.374 545.269 800.208C545.377 800.104 545.532 800.024 545.636 800.117C545.716 800.188 545.744 800.376 545.718 800.496C545.657 800.776 545.572 801.055 545.455 801.315C545.325 801.604 545.158 801.878 544.99 802.146C544.915 802.266 544.808 802.37 544.701 802.466C544.57 802.583 544.411 802.65 544.238 802.563C544.057 802.473 544.063 802.294 544.053 802.102H544.054Z" fill="#FFA3E8"/>
<path d="M542.656 791.265C542.71 791.34 542.752 791.384 542.777 791.436C543.136 792.225 543.25 793.047 543.092 793.9C543.041 794.176 542.899 794.343 542.743 794.328C542.516 794.306 542.418 794.129 542.363 793.94C542.117 793.097 542.145 792.266 542.504 791.457C542.533 791.392 542.594 791.341 542.656 791.265Z" fill="#FFA3E8"/>
<path d="M546.677 796.177C546.631 796.515 546.606 796.858 546.533 797.191C546.464 797.508 546.222 797.565 545.984 797.343C545.729 797.106 545.661 796.79 545.676 796.467C545.708 795.777 545.904 795.12 546.142 794.476C546.157 794.437 546.204 794.389 546.238 794.386C546.273 794.383 546.314 794.43 546.347 794.461C546.363 794.476 546.374 794.502 546.378 794.526C546.457 795.076 546.693 795.602 546.676 796.178L546.677 796.177Z" fill="#FFA3E8"/>
<path d="M554.741 786.086C554.688 786.817 554.624 787.534 554.286 788.196C554.245 788.276 554.203 788.357 554.15 788.429C554.012 788.619 553.859 788.605 553.746 788.397C553.621 788.164 553.6 787.91 553.639 787.658C553.752 786.934 553.996 786.25 554.301 785.587C554.326 785.533 554.358 785.478 554.4 785.438C554.479 785.363 554.567 785.374 554.598 785.478C554.657 785.677 554.695 785.883 554.741 786.086H554.741Z" fill="#FFA3E8"/>
<path d="M534.222 784.438C534.318 784.69 534.452 784.936 534.502 785.197C534.624 785.839 534.627 786.49 534.549 787.139C534.537 787.239 534.507 787.34 534.467 787.433C534.378 787.64 534.197 787.671 534.062 787.489C533.958 787.347 533.866 787.181 533.823 787.011C533.598 786.119 533.727 785.268 534.123 784.455C534.155 784.449 534.189 784.443 534.221 784.438H534.222Z" fill="#FFA3E8"/>
<path d="M553.783 790.615C553.71 791.262 553.68 791.926 553.417 792.543C553.353 792.694 553.25 792.837 553.136 792.955C552.931 793.169 552.722 793.109 552.609 792.833C552.491 792.545 552.544 792.256 552.648 791.99C552.819 791.549 553.031 791.125 553.226 790.694C553.29 790.551 553.34 790.402 553.42 790.27C553.461 790.203 553.555 790.169 553.625 790.12C553.669 790.187 553.728 790.248 553.751 790.32C553.778 790.411 553.774 790.51 553.784 790.615H553.783Z" fill="#FFA3E8"/>
<path d="M557.807 782.319C557.695 782.937 557.591 783.557 557.464 784.171C557.432 784.324 557.333 784.466 557.244 784.601C557.191 784.684 557.11 784.782 557.025 784.803C556.902 784.832 556.745 784.833 556.637 784.778C556.578 784.748 556.554 784.57 556.577 784.472C556.64 784.192 556.735 783.919 556.815 783.642C556.982 783.06 557.144 782.477 557.317 781.896C557.34 781.822 557.428 781.709 557.474 781.714C557.55 781.722 557.65 781.8 557.68 781.873C557.736 782.008 557.749 782.161 557.779 782.306C557.789 782.31 557.798 782.315 557.807 782.32V782.319Z" fill="#FFA3E8"/>
<path d="M534.016 793.205C533.994 793.334 533.976 793.491 533.938 793.641C533.865 793.925 533.702 793.971 533.484 793.77C533.22 793.528 533.093 793.21 533.007 792.874C532.87 792.336 532.875 791.791 532.962 791.246C532.971 791.19 533.023 791.139 533.054 791.085C533.099 791.112 533.151 791.131 533.185 791.168C533.719 791.731 533.948 792.42 534.016 793.205Z" fill="#FFA3E8"/>
<path d="M529.792 785.082C529.769 785.203 529.761 785.381 529.701 785.541C529.601 785.81 529.361 785.841 529.218 785.596C529.099 785.393 529.003 785.161 528.962 784.93C528.858 784.348 528.823 783.759 528.94 783.171C528.952 783.112 528.961 783.042 528.999 783.003C529.068 782.929 529.157 782.874 529.239 782.811C529.286 782.881 529.348 782.945 529.379 783.022C529.642 783.664 529.721 784.344 529.792 785.081V785.082Z" fill="#FFA3E8"/>
<path d="M547.707 775.907C547.925 776.13 547.966 776.367 548.01 776.601C548.085 777.002 548.167 777.402 548.215 777.807C548.241 778.029 548.217 778.261 548.188 778.486C548.169 778.632 548.077 778.787 547.92 778.786C547.809 778.786 547.675 778.695 547.594 778.607C547.404 778.399 547.359 778.121 547.337 777.853C547.297 777.359 547.334 776.866 547.482 776.39C547.531 776.234 547.62 776.091 547.708 775.907H547.707Z" fill="#FFA3E8"/>
<path d="M542.515 785.146C542.515 785.616 542.498 786.085 542.298 786.522C542.262 786.6 542.177 786.713 542.12 786.71C542.04 786.706 541.922 786.624 541.894 786.548C541.821 786.348 541.761 786.136 541.743 785.924C541.685 785.249 541.746 784.581 541.967 783.936C541.991 783.867 542.064 783.773 542.119 783.77C542.181 783.766 542.264 783.84 542.309 783.901C542.493 784.153 542.476 784.459 542.512 784.748C542.529 784.879 542.515 785.012 542.515 785.145V785.146Z" fill="#FFA3E8"/>
<path d="M546.799 789.14C546.777 789.301 546.765 789.538 546.708 789.762C546.632 790.06 546.39 790.116 546.213 789.866C546.089 789.692 545.985 789.47 545.965 789.262C545.903 788.589 546.034 787.933 546.233 787.292C546.251 787.232 546.318 787.187 546.362 787.136C546.403 787.184 546.467 787.226 546.481 787.281C546.577 787.671 546.673 788.061 546.748 788.455C546.786 788.654 546.78 788.862 546.8 789.14H546.799Z" fill="#FFA3E8"/>
<path d="M546.599 783.558C546.557 783.787 546.535 784.022 546.465 784.242C546.375 784.53 546.132 784.566 545.929 784.341C545.738 784.128 545.712 783.855 545.709 783.595C545.704 783.048 545.771 782.505 545.951 781.983C545.966 781.938 545.979 781.886 546.011 781.853C546.054 781.808 546.111 781.76 546.168 781.751C546.194 781.747 546.249 781.827 546.267 781.877C546.458 782.42 546.556 782.979 546.598 783.558H546.599Z" fill="#FFA3E8"/>
<path d="M534.805 797.779C534.788 797.926 534.734 798.032 534.611 797.987C534.446 797.927 534.274 797.85 534.145 797.735C533.589 797.242 533.231 796.61 532.949 795.933C532.868 795.74 532.968 795.628 533.165 795.69C533.303 795.733 533.456 795.795 533.552 795.896C533.972 796.337 534.351 796.812 534.635 797.354C534.71 797.496 534.756 797.653 534.805 797.779Z" fill="#FFA3E8"/>
<path d="M541.633 800.122C541.597 800.342 541.559 800.646 541.49 800.941C541.469 801.03 541.37 801.153 541.296 801.161C541.226 801.168 541.114 801.061 541.069 800.978C540.83 800.537 540.814 800.053 540.864 799.574C540.9 799.224 540.997 798.881 541.076 798.538C541.089 798.483 541.15 798.439 541.189 798.391C541.24 798.434 541.324 798.469 541.339 798.522C541.426 798.826 541.507 799.133 541.569 799.444C541.606 799.637 541.606 799.837 541.632 800.122H541.633Z" fill="#FFA3E8"/>
<path d="M537.396 776.816C537.366 776.976 537.323 777.242 537.265 777.503C537.248 777.583 537.201 777.659 537.154 777.728C537.026 777.913 536.854 777.92 536.764 777.716C536.671 777.507 536.592 777.27 536.591 777.046C536.59 776.474 536.68 775.91 536.901 775.375C536.914 775.341 536.922 775.297 536.948 775.28C537.002 775.243 537.067 775.196 537.125 775.2C537.167 775.204 537.228 775.277 537.238 775.328C537.28 775.551 537.312 775.778 537.337 776.004C537.361 776.237 537.372 776.472 537.397 776.817L537.396 776.816Z" fill="#FFA3E8"/>
<path d="M551.086 787.206C551.053 787.427 551.015 787.76 550.943 788.086C550.922 788.185 550.801 788.338 550.735 788.333C550.636 788.326 550.517 788.22 550.457 788.124C550.388 788.011 550.346 787.866 550.34 787.733C550.307 787.037 550.378 786.353 550.658 785.705C550.681 785.653 550.723 785.609 550.756 785.562C550.803 785.603 550.878 785.636 550.891 785.686C550.945 785.887 550.992 786.092 551.017 786.3C551.05 786.561 551.058 786.827 551.085 787.208L551.086 787.206Z" fill="#FFA3E8"/>
<path d="M554.745 776.153C554.989 776.629 555.032 777.089 555.076 777.546C555.103 777.833 555.118 778.121 555.118 778.408C555.118 778.583 555.032 778.734 554.841 778.757C554.66 778.78 554.52 778.677 554.454 778.517C554.389 778.365 554.332 778.199 554.324 778.036C554.297 777.459 554.366 776.894 554.605 776.362C554.634 776.298 554.685 776.243 554.746 776.153H554.745Z" fill="#FFA3E8"/>
<path d="M552.879 780.201C552.925 780.271 552.962 780.307 552.977 780.351C553.204 781.068 553.275 781.796 553.124 782.539C553.106 782.627 553.094 782.727 553.043 782.794C552.98 782.878 552.881 782.987 552.796 782.988C552.709 782.988 552.564 782.886 552.543 782.805C552.482 782.565 552.423 782.307 552.449 782.065C552.498 781.602 552.601 781.143 552.697 780.686C552.728 780.537 552.804 780.398 552.881 780.202L552.879 780.201Z" fill="#FFA3E8"/>
<path d="M539.515 781.487C539.49 781.92 539.413 782.33 539.242 782.72C539.213 782.789 539.137 782.882 539.082 782.882C539.011 782.882 538.898 782.812 538.879 782.75C538.798 782.484 538.687 782.207 538.694 781.937C538.703 781.552 538.803 781.169 538.871 780.786C538.882 780.716 538.909 780.64 538.953 780.588C539.021 780.505 539.111 780.438 539.192 780.364C539.248 780.445 539.333 780.519 539.353 780.607C539.42 780.898 539.463 781.193 539.515 781.487Z" fill="#FFA3E8"/>
<path d="M543.807 778.472C543.775 778.801 543.754 779.131 543.705 779.457C543.683 779.608 543.655 779.807 543.441 779.812C543.234 779.818 543.133 779.643 543.118 779.479C543.081 779.086 543.07 778.689 543.077 778.294C543.083 777.971 543.19 777.67 543.368 777.395C543.476 777.228 543.569 777.218 543.639 777.407C543.713 777.606 543.747 777.823 543.777 778.035C543.797 778.176 543.781 778.324 543.781 778.468C543.79 778.468 543.799 778.47 543.808 778.471L543.807 778.472Z" fill="#FFA3E8"/>
<path d="M538.175 789.863C538.222 789.501 538.266 789.137 538.317 788.774C538.329 788.692 538.355 788.609 538.393 788.535C538.419 788.484 538.476 788.448 538.52 788.404C538.548 788.453 538.589 788.498 538.605 788.55C538.763 789.071 538.853 789.603 538.855 790.148C538.855 790.32 538.822 790.495 538.777 790.662C538.757 790.736 538.678 790.826 538.608 790.845C538.551 790.86 538.432 790.8 538.404 790.741C538.321 790.573 538.258 790.391 538.212 790.209C538.185 790.101 538.207 789.982 538.207 789.867C538.197 789.866 538.186 789.864 538.175 789.863Z" fill="#FFA3E8"/>
<defs>
<clipPath id="clip0_89_2">
<rect width="285" height="516.254" fill="white" transform="translate(466 218)"/>
</clipPath>
</defs>
</svg>
