<svg width="579" height="331" viewBox="0 0 579 331" fill="none" xmlns="http://www.w3.org/2000/svg">
<rect width="579" height="331" fill="#1F3A57"/>
<g clip-path="url(#clip0_417_12262)">
<path d="M557.497 122.637C556.327 125.77 556.647 129.287 557.611 132.49C558.578 135.689 560.153 138.665 561.518 141.719C568.209 156.684 570.625 174.065 567.891 190.334C567.405 193.225 566.709 196.079 566.337 198.984C565.236 207.591 565.748 216.153 565.609 224.774C565.306 243.291 565.216 261.849 565.591 280.368C565.789 290.04 568.552 298.195 566.77 307.704C566.182 310.843 564.869 314.715 562.61 317.067C559.85 319.944 556.149 321.204 552.533 322.608C548.623 324.125 544.393 324.419 540.262 324.864C535.289 325.403 530.115 324.821 525.177 324.203C520.592 323.63 515.948 322.849 511.819 320.776C507.691 318.704 504.092 315.137 503.001 310.65C501.912 306.178 501.519 302.14 501.429 297.537C501.411 296.722 501.396 295.907 501.461 295.092C501.528 294.239 501.679 293.397 501.839 292.559C502.04 291.499 502.252 290.43 502.651 289.429C502.908 288.782 503.239 288.165 503.469 287.51C504.107 285.679 503.903 283.676 503.688 281.751L503.729 266.064V215.399C503.874 209.594 503.664 203.398 502.94 197.636C501.731 188.026 499.786 178.869 500.619 169.127C501.417 159.802 503.83 150.558 507.659 142.019C508.736 139.62 510.003 137.299 510.894 134.825C512.373 130.719 512.777 126.233 512.058 121.93L557.5 122.637H557.497Z" fill="#91CAE4"/>
<path d="M557.821 119.672H511.531V124.581H557.821V119.672Z" fill="#4AA2DC"/>
<path d="M552.181 94.0116C552.015 94.0058 551.846 94 551.674 94C545.854 94 534.674 94 534.674 94C534.674 94 523.494 94 517.674 94C517.502 94 517.334 94.0029 517.168 94.0116C512.926 94.1922 509.633 97.7995 509.633 102.044V120.381C509.633 121.289 510.369 122.026 511.278 122.026H534.671H558.065C558.973 122.026 559.71 121.289 559.71 120.381V102.041C559.71 97.7965 556.417 94.1892 552.175 94.0087L552.181 94.0116Z" fill="#53B6E2"/>
<path d="M475.763 122.637C474.593 125.77 474.913 129.287 475.877 132.49C476.843 135.689 478.418 138.665 479.784 141.719C486.474 156.684 488.891 174.065 486.157 190.334C485.671 193.225 484.975 196.079 484.602 198.984C483.502 207.591 484.014 216.153 483.874 224.774C483.572 243.291 483.481 261.849 483.857 280.368C484.055 290.04 486.818 298.195 485.036 307.704C484.448 310.843 483.135 314.715 480.875 317.067C478.115 319.944 474.415 321.204 470.799 322.608C466.889 324.125 462.659 324.419 458.527 324.864C453.554 325.403 448.381 324.821 443.443 324.203C438.857 323.63 434.214 322.849 430.085 320.776C425.957 318.704 422.358 315.137 421.266 310.65C420.177 306.178 419.784 302.14 419.694 297.537C419.677 296.722 419.662 295.907 419.726 295.092C419.793 294.239 419.945 293.397 420.105 292.559C420.306 291.499 420.518 290.43 420.917 289.429C421.173 288.782 421.505 288.165 421.735 287.51C422.373 285.679 422.169 283.676 421.953 281.751L421.994 266.064V215.399C422.14 209.594 421.93 203.398 421.205 197.636C419.997 188.026 418.052 178.869 418.885 169.127C419.682 159.802 422.096 150.558 425.925 142.019C427.002 139.62 428.268 137.299 429.159 134.825C430.638 130.719 431.043 126.233 430.324 121.93L475.766 122.637H475.763Z" fill="#91CAE4"/>
<path d="M476.082 119.672H429.793V124.581H476.082V119.672Z" fill="#4AA2DC"/>
<path d="M470.446 94.0116C470.281 94.0058 470.112 94 469.94 94C464.12 94 452.94 94 452.94 94C452.94 94 441.76 94 435.94 94C435.768 94 435.599 94.0029 435.433 94.0116C431.191 94.1922 427.898 97.7995 427.898 102.044V120.381C427.898 121.289 428.635 122.026 429.543 122.026H452.937H476.331C477.239 122.026 477.976 121.289 477.976 120.381V102.041C477.976 97.7965 474.683 94.1892 470.441 94.0087L470.446 94.0116Z" fill="#53B6E2"/>
<path d="M394.029 122.637C392.858 125.77 393.178 129.287 394.142 132.49C395.109 135.689 396.684 138.665 398.049 141.719C404.74 156.684 407.156 174.065 404.423 190.334C403.936 193.225 403.24 196.079 402.868 198.984C401.767 207.591 402.28 216.153 402.14 224.774C401.837 243.291 401.747 261.849 402.122 280.368C402.32 290.04 405.083 298.195 403.302 307.704C402.713 310.843 401.4 314.715 399.141 317.067C396.381 319.944 392.681 321.204 389.065 322.608C385.154 324.125 380.924 324.419 376.793 324.864C371.82 325.403 366.646 324.821 361.709 324.203C357.123 323.63 352.479 322.849 348.351 320.776C344.222 318.704 340.624 315.137 339.532 310.65C338.443 306.178 338.05 302.14 337.96 297.537C337.942 296.722 337.928 295.907 337.992 295.092C338.059 294.239 338.21 293.397 338.37 292.559C338.571 291.499 338.784 290.43 339.183 289.429C339.439 288.782 339.771 288.165 340.001 287.51C340.638 285.679 340.434 283.676 340.219 281.751L340.26 266.064V215.399C340.405 209.594 340.196 203.398 339.471 197.636C338.263 188.026 336.318 178.869 337.15 169.127C337.948 159.802 340.362 150.558 344.19 142.019C345.267 139.62 346.534 137.299 347.425 134.825C348.904 130.719 349.309 126.233 348.589 121.93L394.032 122.637H394.029Z" fill="#91CAE4"/>
<path d="M394.348 119.672H348.059V124.581H394.348V119.672Z" fill="#4AA2DC"/>
<path d="M388.708 94.0116C388.542 94.0058 388.373 94 388.202 94C382.382 94 371.202 94 371.202 94C371.202 94 360.022 94 354.202 94C354.03 94 353.861 94.0029 353.695 94.0116C349.453 94.1922 346.16 97.7995 346.16 102.044V120.381C346.16 121.289 346.897 122.026 347.805 122.026H371.199H394.592C395.501 122.026 396.237 121.289 396.237 120.381V102.041C396.237 97.7965 392.944 94.1892 388.702 94.0087L388.708 94.0116Z" fill="#53B6E2"/>
<path d="M312.29 122.637C311.12 125.77 311.44 129.287 312.404 132.49C313.371 135.689 314.946 138.665 316.311 141.719C323.002 156.684 325.418 174.065 322.684 190.334C322.198 193.225 321.502 196.079 321.13 198.984C320.029 207.591 320.541 216.153 320.402 224.774C320.099 243.291 320.009 261.849 320.384 280.368C320.582 290.04 323.345 298.195 321.563 307.704C320.975 310.843 319.662 314.715 317.403 317.067C314.643 319.944 310.942 321.204 307.326 322.608C303.416 324.125 299.186 324.419 295.055 324.864C290.082 325.403 284.908 324.821 279.97 324.203C275.385 323.63 270.741 322.849 266.612 320.776C262.484 318.704 258.885 315.137 257.794 310.65C256.705 306.178 256.312 302.14 256.221 297.537C256.204 296.722 256.189 295.907 256.254 295.092C256.32 294.239 256.472 293.397 256.632 292.559C256.833 291.499 257.045 290.43 257.444 289.429C257.701 288.782 258.032 288.165 258.262 287.51C258.9 285.679 258.696 283.676 258.481 281.751L258.522 266.064V215.399C258.667 209.594 258.457 203.398 257.733 197.636C256.524 188.026 254.579 178.869 255.412 169.127C256.21 159.802 258.623 150.558 262.452 142.019C263.529 139.62 264.796 137.299 265.687 134.825C267.166 130.719 267.57 126.233 266.851 121.93L312.293 122.637H312.29Z" fill="#91CAE4"/>
<path d="M312.61 119.672H266.32V124.581H312.61V119.672Z" fill="#4AA2DC"/>
<path d="M306.974 94.0116C306.808 94.0058 306.639 94 306.467 94C300.647 94 289.467 94 289.467 94C289.467 94 278.287 94 272.467 94C272.295 94 272.127 94.0029 271.961 94.0116C267.719 94.1922 264.426 97.7995 264.426 102.044V120.381C264.426 121.289 265.162 122.026 266.071 122.026H289.464H312.858C313.766 122.026 314.503 121.289 314.503 120.381V102.041C314.503 97.7965 311.21 94.1892 306.968 94.0087L306.974 94.0116Z" fill="#53B6E2"/>
<path d="M230.552 122.637C229.382 125.77 229.702 129.287 230.666 132.49C231.632 135.689 233.207 138.665 234.573 141.719C241.263 156.684 243.68 174.065 240.946 190.334C240.46 193.225 239.764 196.079 239.391 198.984C238.291 207.591 238.803 216.153 238.663 224.774C238.361 243.291 238.27 261.849 238.646 280.368C238.844 290.04 241.607 298.195 239.825 307.704C239.237 310.843 237.924 314.715 235.665 317.067C232.905 319.944 229.204 321.204 225.588 322.608C221.678 324.125 217.448 324.419 213.316 324.864C208.343 325.403 203.17 324.821 198.232 324.203C193.646 323.63 189.003 322.849 184.874 320.776C180.746 318.704 177.147 315.137 176.055 310.65C174.966 306.178 174.573 302.14 174.483 297.537C174.466 296.722 174.451 295.907 174.515 295.092C174.582 294.239 174.734 293.397 174.894 292.559C175.095 291.499 175.307 290.43 175.706 289.429C175.962 288.782 176.294 288.165 176.524 287.51C177.162 285.679 176.958 283.676 176.742 281.751L176.783 266.064V215.399C176.929 209.594 176.719 203.398 175.994 197.636C174.786 188.026 172.841 178.869 173.674 169.127C174.472 159.802 176.885 150.558 180.714 142.019C181.791 139.62 183.057 137.299 183.948 134.825C185.427 130.719 185.832 126.233 185.113 121.93L230.555 122.637H230.552Z" fill="#91CAE4"/>
<path d="M230.875 119.672H184.586V124.581H230.875V119.672Z" fill="#4AA2DC"/>
<path d="M225.236 94.0116C225.07 94.0058 224.901 94 224.729 94C218.909 94 207.729 94 207.729 94C207.729 94 196.549 94 190.729 94C190.557 94 190.388 94.0029 190.222 94.0116C185.98 94.1922 182.688 97.7995 182.688 102.044V120.381C182.688 121.289 183.424 122.026 184.332 122.026H207.726H231.12C232.028 122.026 232.765 121.289 232.765 120.381V102.041C232.765 97.7965 229.472 94.1892 225.23 94.0087L225.236 94.0116Z" fill="#53B6E2"/>
<path d="M148.818 122.637C147.647 125.77 147.968 129.287 148.931 132.49C149.898 135.689 151.473 138.665 152.838 141.719C159.529 156.684 161.945 174.065 159.212 190.334C158.725 193.225 158.03 196.079 157.657 198.984C156.556 207.591 157.069 216.153 156.929 224.774C156.626 243.291 156.536 261.849 156.912 280.368C157.11 290.04 159.872 298.195 158.091 307.704C157.503 310.843 156.19 314.715 153.93 317.067C151.17 319.944 147.47 321.204 143.854 322.608C139.944 324.125 135.713 324.419 131.582 324.864C126.609 325.403 121.435 324.821 116.498 324.203C111.912 323.63 107.268 322.849 103.14 320.776C99.0114 318.704 95.4128 315.137 94.321 310.65C93.2321 306.178 92.8391 302.14 92.7488 297.537C92.7314 296.722 92.7168 295.907 92.7809 295.092C92.8478 294.239 92.9992 293.397 93.1593 292.559C93.3602 291.499 93.5728 290.43 93.9716 289.429C94.2278 288.782 94.5597 288.165 94.7898 287.51C95.4274 285.679 95.2236 283.676 95.0081 281.751L95.0489 266.064V215.399C95.1944 209.594 94.9848 203.398 94.2599 197.636C93.0516 188.026 91.1068 178.869 91.9394 169.127C92.7372 159.802 95.1508 150.558 98.9793 142.019C100.057 139.62 101.323 137.299 102.214 134.825C103.693 130.719 104.098 126.233 103.379 121.93L148.821 122.637H148.818Z" fill="#91CAE4"/>
<path d="M149.133 119.672H102.844V124.581H149.133V119.672Z" fill="#4AA2DC"/>
<path d="M143.501 94.0116C143.335 94.0058 143.166 94 142.995 94C137.175 94 125.995 94 125.995 94C125.995 94 114.815 94 108.995 94C108.823 94 108.654 94.0029 108.488 94.0116C104.246 94.1922 100.953 97.7995 100.953 102.044V120.381C100.953 121.289 101.69 122.026 102.598 122.026H125.992H149.385C150.294 122.026 151.03 121.289 151.03 120.381V102.041C151.03 97.7965 147.737 94.1892 143.495 94.0087L143.501 94.0116Z" fill="#53B6E2"/>
<path d="M67.0794 122.637C65.909 125.77 66.2293 129.287 67.1929 132.49C68.1596 135.689 69.7347 138.665 71.1001 141.719C77.7907 156.684 80.2072 174.065 77.4733 190.334C76.9871 193.225 76.2913 196.079 75.9186 198.984C74.8181 207.591 75.3305 216.153 75.1907 224.774C74.8879 243.291 74.7977 261.849 75.1733 280.368C75.3712 290.04 78.1342 298.195 76.3524 307.704C75.7643 310.843 74.4512 314.715 72.1919 317.067C69.4319 319.944 65.7314 321.204 62.1154 322.608C58.2053 324.125 53.9749 324.419 49.8436 324.864C44.8708 325.403 39.6971 324.821 34.7593 324.203C30.1738 323.63 25.53 322.849 21.4015 320.776C17.2731 318.704 13.6745 315.137 12.5827 310.65C11.4938 306.178 11.1008 302.14 11.0105 297.537C10.9931 296.722 10.9785 295.907 11.0426 295.092C11.1095 294.239 11.2609 293.397 11.4211 292.559C11.6219 291.499 11.8345 290.43 12.2334 289.429C12.4896 288.782 12.8215 288.165 13.0515 287.51C13.6891 285.679 13.4853 283.676 13.2698 281.751L13.3106 266.064V215.399C13.4562 209.594 13.2465 203.398 12.5216 197.636C11.3133 188.026 9.36848 178.869 10.2012 169.127C10.9989 159.802 13.4125 150.558 17.2411 142.019C18.3183 139.62 19.5848 137.299 20.4757 134.825C21.9547 130.719 22.3594 126.233 21.6403 121.93L67.0823 122.637H67.0794Z" fill="#91CAE4"/>
<path d="M67.4026 119.672H21.1133V124.581H67.4026V119.672Z" fill="#4AA2DC"/>
<path d="M61.76 94.0116C61.594 94.0058 61.4252 94 61.2534 94C55.4334 94 44.2534 94 44.2534 94C44.2563 94 33.0763 94 27.2563 94C27.0845 94 26.9157 94.0029 26.7497 94.0116C22.5077 94.1922 19.2148 97.7995 19.2148 102.044V120.381C19.2148 121.289 19.9514 122.026 20.8598 122.026H44.2534H67.647C68.5553 122.026 69.2919 121.289 69.2919 120.381V102.041C69.2919 97.7965 65.9991 94.1892 61.7571 94.0087L61.76 94.0116Z" fill="#53B6E2"/>
</g>
<defs>
<clipPath id="clip0_417_12262">
<rect width="559" height="231.082" fill="white" transform="translate(10 94)"/>
</clipPath>
</defs>
</svg>
