<svg width="1280" height="832" viewBox="0 0 1280 832" fill="none" xmlns="http://www.w3.org/2000/svg">
<g clip-path="url(#clip0_167_2)">
<rect width="1280" height="832" fill="#049F49"/>
<g clip-path="url(#clip1_167_2)">
<path d="M1013.51 637.923C1004.48 615.235 986.402 597.564 968.814 580.616C956.283 568.536 929.668 571.999 913.893 573.594C904.594 574.535 895.322 575.83 885.996 576.621C879.683 577.153 873.82 578.23 867.576 578.939C878.129 584.993 887.823 589.819 899.031 594.646C907.784 598.409 916.661 601.9 925.646 605.09C939.172 609.89 952.997 614.048 965.746 620.62C978.494 627.192 991.924 635.741 998.687 648.394C996.574 652.348 994.474 656.316 992.361 660.27C999.164 666.242 1005.74 672.473 1012.08 678.95C1013.32 680.218 1014.6 681.554 1015.2 683.231C1015.72 684.663 1015.7 686.231 1015.69 687.758C1015.54 700.915 1013.84 712.614 1013.44 725.758C1012.28 764.262 1005.52 799.031 999.26 837.044C997.01 850.734 993.983 864.314 990.206 877.662C988.325 884.343 986.252 890.97 984.003 897.528C981.889 903.704 981.535 904.591 987.807 904.754C1000.38 905.068 1012.99 904.754 1025.56 904.754C1033.41 863.577 1038.51 821.869 1040.85 780.024C1041.21 773.534 1041.5 767.03 1041.5 760.526C1041.5 754.35 1041.21 748.173 1040.94 742.01C1039.55 710.95 1037.48 679.904 1037.82 648.844C1038.05 627.983 1039.62 607.149 1042.51 586.479C1044.55 571.835 1047.31 557.151 1053.06 543.529C1042.82 541.416 1032.76 538.43 1023.03 534.626C1021.28 542.452 1019.82 550.974 1019.33 558.978C1019 564.213 1018.68 569.449 1018.33 574.685C1016.97 595.873 1014.89 616.748 1013.52 637.936L1013.51 637.923Z" fill="#F2E7C9"/>
<path d="M704.341 811.821C706.809 803.858 709.617 795.391 716.189 790.264C720.321 787.033 725.488 785.519 730.492 783.965C753.453 776.807 776.114 767.112 797.193 755.55C790.062 771.735 777.859 785.11 765.111 797.354C752.362 809.598 738.782 821.147 727.902 835.082C724.166 839.867 720.771 844.912 717.526 850.039C706.263 867.832 695.805 886.444 688.184 906.091C679.853 905.723 671.522 905.628 663.178 905.668C661.541 905.668 642.426 905.246 642.166 906.037C645.48 895.92 647.279 885.135 649.488 874.745C654.915 849.303 659.578 823.669 663 797.872C652.733 787.551 643.666 776.03 636.044 763.608C633.181 758.932 630.509 754.119 627.182 749.755C624.25 745.91 620.855 742.434 617.338 739.12C593.327 716.459 563.876 699.225 531.739 691.631C543.765 690.908 555.831 690.949 567.844 691.781C582.569 692.79 597.267 695.053 611.406 699.334C623.5 703.002 634.34 709.397 645.248 715.614C650.225 718.45 653.251 719.923 655.406 725.24C657.983 731.58 659.905 738.261 661.473 744.915C663.341 752.755 663.273 761.509 665.468 769.062C670.254 766.376 669.722 751.405 670.24 746.401C671.168 737.511 671.767 728.581 672.095 719.636C674.304 657.271 662.687 595.519 652.12 534.34C641.553 473.161 631.45 410.714 636.658 348.308C646.748 348.39 654.601 347.981 664.691 348.063C649.925 384.317 656.715 425.453 665.618 463.576C670.377 483.946 675.681 504.18 680.985 524.414C687.543 549.448 694.347 574.495 699.691 599.705C714.458 669.365 708.022 743.743 702.486 814.125" fill="#F2E7C9"/>
<path d="M654.646 376.456C667.672 388.407 673.345 404.123 678.679 419.29C681.696 427.885 686.73 433.406 686.65 442.331C686.511 457.043 686.391 471.755 686.251 486.467C686.251 488.208 685.991 490.247 684.093 491.125C682.495 491.862 680.457 491.376 678.759 490.811C662.577 485.432 651.75 473.527 641.761 462.187C627.257 445.734 612.294 428.277 610.056 408.358C609.477 403.261 609.697 397.849 606.5 393.395C600.667 420.717 585.664 446.785 563.389 468.273C546.867 484.208 526.231 497.901 514.484 516.252C513.025 518.526 511.048 521.224 507.791 521.224C506.373 521.224 505.034 520.659 503.856 520.031C492.488 513.946 490.231 501.414 480.941 493.446C478.504 491.345 475.527 489.525 473.969 486.969C472.531 484.616 472.431 481.918 472.371 479.315C472.071 466.845 471.792 454.282 474.688 442.017C480.442 417.847 498.162 396.563 516.741 376.769C528.228 364.536 540.934 352.113 558.654 345.981C561.571 346.828 555.917 346.953 558.175 345.275C551.402 341.526 543.991 338.499 536.199 336.272C529.906 334.468 523.354 333.198 517.221 331.096C508.231 328.006 500.36 323.238 492.588 318.517C481.96 312.055 471.232 305.515 462.862 297.265C453.252 287.807 446.72 276.138 434.454 268.813C441.546 266.006 450.196 267.01 457.528 269.425C464.859 271.825 471.392 275.51 478.564 278.193C484.497 280.404 490.83 281.91 497.123 283.415C520.917 289.078 544.69 294.74 568.483 300.402C570.88 298.818 571.719 295.963 570.441 293.72C575.156 263.449 540.315 240.377 541.214 209.887C541.593 197.088 548.466 184.556 546.688 171.82C543.811 151.211 555.198 133.503 573.018 118.211C575.515 116.062 578.332 113.96 581.888 113.129C587.781 111.749 594.014 114.18 598.969 117.066C618.087 128.186 628.656 146.082 636.487 163.712C646.735 186.783 653.667 210.922 654.447 235.358C666.293 215.251 665.274 191.018 680.717 172.479C696.08 154.05 724.648 145.204 752.277 141.44C758.65 140.577 765.242 139.918 771.575 140.953C777.808 141.957 783.462 144.545 788.616 147.494C811.41 160.559 826.154 181.921 827.612 204.068C828.052 210.687 827.352 217.337 827.832 223.956C828.191 229.053 829.25 234.151 828.551 239.232C827.552 246.431 823.077 253.019 818.103 259.12C802.4 278.396 781.264 294.504 760.328 310.424C744.326 322.58 729.722 324.368 710.604 333.323C708.406 334.359 705.909 335.786 706.029 337.794C706.169 340.099 709.545 341.276 712.362 341.919C720.812 343.863 729.243 345.808 737.693 347.769C742.767 348.945 747.922 350.137 752.397 352.38C755.913 354.137 758.869 356.474 761.786 358.795C770.856 365.979 779.906 373.162 788.975 380.346C779.626 382.745 769.477 380.063 759.648 380.424C750.039 380.769 741.049 383.984 731.82 386.086C706.428 391.858 677.221 387.294 654.646 376.487V376.456Z" fill="#FCB8E7"/>
<path d="M647.88 361.962C661.943 363.734 677.734 354.678 682.905 341.796C685.457 335.426 685.445 328.295 684.086 321.587C682.726 314.88 680.085 308.488 677.455 302.15C676.731 300.411 675.973 298.617 674.625 297.269C672.775 295.421 670.078 294.671 667.515 294.051C659.403 292.084 651.167 290.605 642.876 289.616C641.862 289.496 640.826 289.377 639.923 288.931C638.698 288.333 637.828 287.224 636.959 286.181C635.31 284.202 633.482 282.365 631.521 280.68C630.886 280.137 630.206 279.593 629.37 279.441C628.657 279.31 627.922 279.484 627.22 279.669C621.146 281.202 615.04 282.735 609.356 285.311C601.578 288.833 595.649 293.823 593.164 301.933C592.752 303.27 592.607 304.661 592.518 306.053C592.329 308.966 592.373 311.901 592.663 314.815C592.897 317.228 593.699 318.261 594.591 320.533C595.783 323.588 597.009 326.686 599.004 329.306C601.333 332.371 604.587 334.621 607.774 336.817C611.808 339.589 615.875 342.394 620.388 344.34C621.336 344.753 622.339 345.144 623.041 345.884C623.598 346.46 623.921 347.21 624.322 347.906C625.949 350.732 628.769 352.678 631.521 354.493C636.547 357.831 641.862 361.19 647.902 361.951L647.88 361.962Z" fill="#049F49"/>
<path d="M950.175 467.49C958.997 469.617 967.832 471.73 976.654 473.857C980.008 474.662 983.362 475.466 986.648 476.53C992.088 478.289 997.283 480.729 1002.6 482.802C1010.36 485.815 1018.39 488.024 1026.42 490.233C1031.9 491.733 1033.77 490.764 1034.98 485.992C1036.39 480.457 1037.86 475.016 1039.86 469.481C1045.89 452.86 1057.11 436.526 1069.18 423.668C1070.53 443.384 1068.74 463.304 1063.9 482.461C1095.34 469.985 1130.88 475.712 1163.68 483.988C1140.86 498.373 1118.05 512.771 1095.22 527.156C1111.64 539.127 1119.15 561.992 1113.06 581.367C1103.74 577.768 1093.44 577.263 1084.29 573.282C1076.19 569.75 1069.48 563.71 1062.93 557.766C1040.68 585.539 1025.3 619.531 998.51 642.955C992.006 648.641 984.739 653.768 980.185 661.103C977.417 655.636 978.644 651.027 979.64 644.973C982.966 624.876 980.403 604.083 984.357 584.094C986.389 573.841 990.097 564.01 993.806 554.234C987.97 559.17 979.544 558.965 971.922 559.484C950.707 560.929 929.137 569.9 908.834 563.574C910.198 563.997 925.837 551.248 927.773 549.667C933.363 545.099 938.845 540.654 945.007 536.7C958.778 527.878 973.49 520.502 988.802 514.762C977.022 498.795 964.382 483.456 950.939 468.84" fill="#FCB8E7"/>
<path d="M1082.76 509.607C1082.95 509.348 1083.14 509.089 1083.32 508.83C1077.8 508.394 1073.3 509.498 1067.5 508.244C1061.39 506.908 1055.41 505.013 1049.29 503.704C1046.29 503.063 1037.96 500.227 1034.97 501.658C1033.36 502.436 1030.95 507.467 1029.61 509.008C1027.99 510.875 1026.23 512.621 1024.65 514.53C1019.52 520.679 1014.56 526.964 1009.76 533.373C1005.56 538.977 1001.28 545.48 1002.37 552.393C1003.15 557.261 1006.51 561.338 1010.24 564.569C1013.77 567.637 1017.93 570.282 1022.58 570.786C1027.58 571.332 1032.58 569.3 1036.61 566.273C1040.63 563.246 1043.81 559.265 1046.95 555.338C1059.09 540.136 1071.37 525.342 1082.76 509.635V509.607Z" fill="#049F49"/>
<path d="M843.183 822.429C839.297 831.019 834.934 839.459 829.289 847.026C828.839 847.626 828.389 848.226 828.144 848.935C827.844 849.848 827.94 850.844 828.035 851.798C829.917 869.619 831.294 887.494 832.139 905.396C831.525 905.492 831.498 905.069 830.885 905.028C819.95 904.292 808.851 903.61 798.107 905.805C796.266 894.816 797.507 882.367 797.37 871.159C797.22 858.984 797.289 846.767 798.516 834.632C800.725 812.585 803.029 790.551 806.083 768.613C808.905 748.297 812.355 728.063 816.418 707.952C818.3 698.626 821.136 691.004 821.381 681.487C821.681 669.202 825.349 657.353 826.781 645.218C828.09 634.12 826.358 622.789 825.608 611.677C824.054 588.675 821.013 565.21 810.814 544.239C819.132 540.245 827.599 536.563 836.189 533.223C846.933 559.551 852.673 588.143 852.264 616.572C852.032 632.852 849.919 649.05 847.819 665.193C847.015 671.411 846.196 677.628 845.392 683.846C856.422 670.17 866.539 655.758 877.897 642.355C889.255 628.952 902.003 616.449 917.192 607.614C894.3 630.82 886.664 665.002 880.338 696.976C876.029 718.737 871.871 740.566 865.858 761.918C859.804 783.393 852.387 802.099 843.183 822.415V822.429Z" fill="#F2E7C9"/>
<path d="M470.228 805.743C476.908 812.841 484.005 819.631 492.063 825.139C492.704 825.574 493.345 826.01 493.823 826.621C494.423 827.414 494.663 828.419 494.89 829.385C499.025 847.443 503.673 865.385 508.849 883.176C509.481 883.064 509.366 882.641 509.952 882.395C520.399 878.009 531.024 873.62 542.267 872.164C540.382 860.8 534.995 849.042 531.37 838.036C527.433 826.079 523.27 814.155 518.001 802.699C508.448 781.879 498.806 761.104 488.463 740.675C478.89 721.754 468.732 703.123 458.015 684.818C453.047 676.329 447.718 669.826 444.287 660.602C439.874 648.689 432.314 638.331 426.845 626.944C421.843 616.53 419.737 604.869 416.744 593.75C410.551 570.735 405.656 546.768 408.598 522.841C399.125 521.723 389.61 520.962 380.09 520.576C378.411 549.926 382.385 579.812 392.318 607.475C398.004 623.318 405.502 638.45 412.969 653.533C415.841 659.344 418.725 665.149 421.597 670.96C406.224 661.285 391.498 650.584 375.897 641.285C360.295 631.986 343.635 624.034 325.819 620.487C355.988 635.505 374.917 666.372 391.825 695.518C403.336 715.354 414.723 735.307 427.763 754.172C440.884 773.142 454.41 788.949 470.223 805.73L470.228 805.743Z" fill="#F2E7C9"/>
<path d="M1097.99 903.433C1100.83 881.113 1104.32 858.725 1105.38 836.241C1108.01 780.312 1105.53 725.173 1104.96 669.175C1104.41 616.586 1094.8 567.869 1089.26 515.566C1086.67 491.078 1084.08 466.427 1085.76 441.857C1086.71 427.868 1089.02 413.974 1092.56 400.407C1094.38 393.481 1096.52 386.636 1098.98 379.914C1101.07 374.256 1104.7 368.148 1105.67 362.189C1110.1 361.78 1113.14 364.166 1117.2 365.243C1123.75 366.989 1130.3 368.734 1136.85 370.466C1126.24 393.304 1119 417.764 1115.48 442.702C1111.86 468.431 1113.33 493.628 1117.31 519.22C1118.51 526.951 1119.89 534.669 1121.3 542.359C1123.01 551.617 1125.24 560.561 1126.64 569.928C1128.22 580.631 1129.81 591.321 1131.39 602.024C1134.57 623.417 1137.75 644.81 1140.92 666.203C1144.85 692.654 1148.94 719.119 1150.97 745.802C1152.98 772.322 1151.67 798.582 1149.75 824.979C1148.75 838.641 1147.62 852.29 1146.34 865.911C1145.17 878.536 1144.74 891.176 1141.87 903.542C1141.69 904.32 1133.81 903.392 1132.62 903.392H1121.43C1114.61 903.392 1107.79 903.392 1100.99 903.392C1100.83 903.392 1097.99 903.338 1097.99 903.392V903.433Z" fill="#F2E7C9"/>
<path d="M142.692 910.423C140.233 888.059 137.121 865.615 136.437 843.116C134.75 787.15 138.161 732.061 139.679 676.081C141.111 623.508 151.545 574.961 157.962 522.759C160.965 498.318 163.972 473.713 162.709 449.119C161.991 435.116 159.922 421.185 156.606 407.56C154.91 400.604 152.885 393.725 150.531 386.962C148.54 381.269 145.017 375.1 144.15 369.127C139.726 368.643 136.646 370.977 132.565 371.986C125.992 373.62 119.405 375.255 112.832 376.876C123.053 399.889 129.879 424.469 132.976 449.463C136.168 475.249 134.27 500.417 129.858 525.939C128.528 533.648 127.02 541.341 125.473 549.006C123.613 558.234 121.226 567.14 119.677 576.482C117.915 587.157 116.14 597.818 114.378 608.493C110.84 629.829 107.303 651.166 103.766 672.502C99.393 698.883 94.8566 725.275 92.3751 751.921C89.9236 778.403 90.7892 804.681 92.2661 831.107C93.0307 844.784 93.932 858.449 94.9836 872.09C95.943 884.734 96.1524 897.378 98.8202 909.792C98.9843 910.572 106.88 909.778 108.066 909.798L119.258 909.987C126.075 910.102 132.891 910.217 139.694 910.332C139.857 910.334 142.694 910.328 142.693 910.382L142.692 910.423Z" fill="#F2E7C9"/>
<path d="M1289.52 700.357C1282.53 723.931 1280.01 748.801 1281.88 773.316C1282.81 785.397 1284.78 797.409 1287.84 809.135C1291.85 824.569 1295.3 839.854 1301.11 854.688C1307.49 870.996 1313.64 887.385 1319.54 903.869H1290.21C1269.8 866.605 1239.79 835.327 1202.84 814.384C1204.59 812.025 1206.1 809.189 1207.07 806.421C1197.77 801.922 1189.66 797.273 1180.36 792.773C1178.11 791.682 1175.86 790.592 1173.61 789.501C1157.25 781.579 1140.88 773.657 1124.54 765.735C1122.41 764.713 1120.28 763.677 1118.28 762.449C1114.77 760.309 1111.66 757.596 1108.57 754.882C1099.86 747.26 1091.14 739.652 1082.43 732.03C1091.13 731.717 1100.28 732.344 1108.87 733.707C1132.39 737.457 1155.92 741.22 1179.44 744.97C1182.66 745.488 1185.89 746.006 1188.92 747.22C1192.22 748.556 1195.12 750.669 1197.88 752.919C1208.31 761.468 1216.73 772.157 1225.08 782.738C1234.83 795.118 1243.44 807.758 1252.57 820.561C1258.93 829.491 1265.3 838.422 1271.67 847.353C1255.07 798.513 1249.47 745.665 1256.1 694.508C1256.26 693.281 1256.18 692.803 1256.29 691.576C1266.96 695.285 1278.46 698.121 1289.54 700.33L1289.52 700.357Z" fill="#F2E7C9"/>
<path d="M48.9969 685.52C42.4147 709.209 40.3123 734.117 42.5936 758.598C43.7245 770.661 45.9039 782.638 49.1555 794.31C53.424 809.675 57.1309 824.899 63.1888 839.634C69.8441 855.831 76.2691 872.114 82.4502 888.496L53.1261 888.991C32.089 852.077 1.55555 821.31 -35.7427 800.993C-34.0375 798.605 -32.5721 795.744 -31.6509 792.96C-41.0244 788.618 -49.2144 784.107 -58.5879 779.765C-60.8557 778.712 -63.1234 777.659 -65.3912 776.607C-81.8843 768.962 -98.3773 761.317 -114.857 753.673C-117.001 752.686 -119.145 751.686 -121.17 750.493C-124.709 748.412 -127.863 745.751 -131.004 743.09C-139.844 735.617 -148.684 728.157 -157.523 720.683C-148.831 720.223 -139.673 720.695 -131.061 721.914C-107.481 725.266 -83.8877 728.631 -60.3078 731.983C-57.0818 732.447 -53.842 732.911 -50.7951 734.073C-47.4734 735.353 -44.5339 737.417 -41.7422 739.62C-31.1688 747.992 -22.5634 758.538 -14.0416 768.976C-4.08524 781.19 4.74391 793.683 14.0803 806.33C20.5975 815.152 27.1147 823.974 33.6319 832.796C16.2167 784.243 9.72193 731.497 15.4843 680.235C15.6272 679.005 15.5372 678.53 15.6256 677.301C26.3627 680.829 37.903 683.47 49.0237 685.492L48.9969 685.52Z" fill="#F2E7C9"/>
<path d="M1139.55 400.297C1148.44 410.687 1152.31 424.349 1155.95 437.534C1158.01 445.006 1161.44 449.805 1161.39 457.563C1161.29 470.352 1161.21 483.142 1161.12 495.931C1161.12 497.445 1160.94 499.217 1159.65 499.981C1158.55 500.622 1157.16 500.199 1156 499.708C1144.96 495.031 1137.57 484.683 1130.75 474.825C1120.85 460.522 1110.64 445.346 1109.11 428.03C1108.72 423.599 1108.87 418.895 1106.69 415.023C1102.71 438.774 1092.47 461.435 1077.26 480.115C1065.99 493.968 1051.9 505.871 1043.89 521.824C1042.89 523.801 1041.54 526.146 1039.32 526.146C1038.35 526.146 1037.44 525.655 1036.63 525.11C1028.87 519.819 1027.33 508.925 1020.99 501.999C1019.33 500.172 1017.3 498.59 1016.24 496.368C1015.25 494.322 1015.19 491.977 1015.14 489.714C1014.94 478.874 1014.75 467.953 1016.73 457.29C1020.65 436.279 1032.75 417.777 1045.43 400.57C1053.27 389.935 1061.94 379.136 1074.03 373.805C1076.02 374.541 1072.16 374.65 1073.71 373.191C1069.08 369.933 1064.02 367.301 1058.71 365.365C1054.41 363.797 1049.94 362.693 1045.75 360.866C1039.62 358.18 1034.25 354.035 1028.94 349.931C1021.69 344.313 1014.37 338.627 1008.65 331.455C1002.1 323.234 997.637 313.09 989.266 306.722C994.106 304.281 1000.01 305.154 1005.01 307.254C1010.02 309.34 1014.48 312.544 1019.37 314.876C1023.42 316.798 1027.74 318.107 1032.04 319.416C1048.28 324.338 1064.5 329.26 1080.74 334.182C1082.38 332.805 1082.95 330.324 1082.08 328.374C1085.29 302.059 1061.52 282.002 1062.13 255.496C1062.39 244.37 1067.08 233.476 1065.87 222.405C1063.9 204.489 1071.67 189.095 1083.84 175.801C1085.54 173.933 1087.46 172.106 1089.89 171.384C1093.91 170.184 1098.17 172.297 1101.55 174.806C1114.6 184.473 1121.81 200.03 1127.15 215.356C1134.15 235.412 1138.88 256.396 1139.41 277.639C1147.5 260.159 1146.8 239.094 1157.34 222.978C1167.83 206.957 1187.32 199.267 1206.18 195.994C1210.53 195.245 1215.03 194.672 1219.35 195.572C1223.61 196.444 1227.46 198.694 1230.98 201.257C1246.54 212.615 1256.6 231.186 1257.6 250.438C1257.9 256.192 1257.42 261.973 1257.75 267.727C1257.99 272.158 1258.72 276.589 1258.24 281.007C1257.56 287.265 1254.5 292.992 1251.11 298.296C1240.39 315.053 1225.96 329.056 1211.68 342.895C1200.75 353.462 1190.79 355.016 1177.74 362.802C1176.24 363.702 1174.53 364.942 1174.62 366.688C1174.71 368.692 1177.02 369.715 1178.94 370.274C1184.71 371.964 1190.46 373.655 1196.23 375.359C1199.69 376.382 1203.21 377.418 1206.26 379.368C1208.66 380.895 1210.68 382.927 1212.67 384.945C1218.86 391.189 1225.04 397.434 1231.23 403.679C1224.85 405.765 1217.92 403.433 1211.21 403.747C1204.65 404.047 1198.52 406.842 1192.22 408.669C1174.89 413.687 1154.95 409.719 1139.55 400.324V400.297Z" fill="#FCB8E7"/>
<path d="M1103.65 334.906C1097.95 345.323 1095.25 357.635 1097.53 369.292C1098.44 373.969 1100.12 378.469 1101.79 382.927C1103.29 386.936 1104.81 390.944 1106.31 394.953C1107.82 398.975 1109.85 403.516 1114 404.674C1118.21 405.861 1122.41 402.888 1125.5 399.793C1136.27 388.981 1142.77 374.474 1146.27 359.625C1149.77 344.777 1150.54 329.411 1151.29 314.167C1151.93 301.132 1133.75 304.923 1126.14 309.368C1117 314.713 1108.61 325.838 1103.65 334.906Z" fill="#049F49"/>
<path d="M170.819 382.287C183.849 384.14 193.117 391.14 201.963 397.951C206.972 401.814 212.317 403.061 215.312 408.352C220.243 417.076 225.188 425.792 230.119 434.516C230.714 435.542 231.232 436.846 230.229 438.12C229.383 439.191 227.818 439.716 226.458 440.06C213.505 443.336 202 440.635 191.264 437.933C175.68 434.017 159.437 429.692 151.094 418.846C148.954 416.074 147.256 412.798 143.538 411.447C148.868 429.869 147.471 451.205 139.514 472.739C133.611 488.709 124.116 504.998 122.318 520.489C122.094 522.41 121.657 524.788 119.421 526.085C118.446 526.65 117.334 526.85 116.31 526.95C106.423 527.893 100.59 521.408 91.4868 520.414C89.0945 520.147 86.4283 520.26 84.4844 519.375C82.6925 518.562 81.702 517.012 80.7711 515.502C76.3043 508.274 71.8191 500.983 69.6175 492.603C65.3101 476.07 70.2081 456.471 76.2053 437.407C79.9147 425.623 84.3968 413.242 94.4723 402.57C96.7651 401.907 92.9247 404.233 93.9018 402.345C87.9692 402.834 81.844 404.003 75.7315 405.795C70.7928 407.239 65.858 409.101 60.9272 410.305C53.6966 412.066 46.6609 412.392 39.7099 412.706C30.2018 413.133 20.5983 413.552 12.0297 412.026C2.19772 410.281 -6.27683 406.008 -17.2049 406.579C-13.2931 402.099 -7.00861 399.245 -1.14737 397.748C4.70851 396.241 10.455 395.81 16.2976 394.533C21.1286 393.473 25.993 391.837 30.8298 390.218C49.1071 384.076 67.3708 377.942 85.6481 371.799C86.7534 369.911 86.3542 367.895 84.7096 367.083C77.6037 347.369 45.789 347.654 35.9873 329.331C31.8745 321.639 32.3124 311.517 26.7391 304.722C17.7205 293.724 19.4908 278.755 26.5048 262.646C27.4858 260.385 28.7023 258.025 30.8607 256.118C34.4369 252.957 39.5488 251.907 43.938 251.634C60.8696 250.57 74.2438 256.904 85.647 264.172C100.57 273.683 113.58 285.144 122.466 299.232C123.732 282.665 114.751 268.793 119.023 251.718C123.277 234.74 139.876 218.148 157.567 204.924C161.649 201.877 165.952 198.863 170.656 196.95C175.28 195.058 180.048 194.331 184.595 194.015C204.717 192.633 222.143 199.346 230.713 211.814C233.276 215.539 235.068 219.736 237.66 223.445C239.648 226.305 242.118 228.886 243.374 232.159C245.148 236.799 244.325 242.463 242.994 248.039C238.795 265.652 229.782 283.562 220.842 301.283C214.005 314.819 204.585 321.69 194.514 334.583C193.358 336.068 192.131 337.904 192.899 339.039C193.783 340.342 196.504 339.69 198.659 338.947C205.127 336.726 211.583 334.514 218.057 332.303C221.944 330.974 225.892 329.624 229.732 329.162C232.747 328.797 235.576 328.996 238.373 329.202C247.057 329.821 255.728 330.449 264.412 331.068C258.811 336.207 250.924 338.669 244.296 342.797C237.814 346.828 232.738 352.304 227.116 357.219C211.648 370.734 190.028 379.68 170.829 382.306L170.819 382.287Z" fill="#FCB8E7"/>
<path d="M108.985 358.919C107.344 369.306 109.467 379.226 116.341 385.799C119.098 388.435 122.555 390.506 125.995 392.549C129.08 394.391 132.179 396.224 135.264 398.066C138.369 399.909 142.198 401.8 146.825 400.166C151.531 398.511 154.589 394.046 156.487 390.141C163.077 376.526 163.906 362.905 161.596 350.796C159.285 338.687 154.013 327.827 148.776 317.057C144.297 307.848 127.496 321.026 121.587 328.479C114.48 337.441 110.415 349.877 108.985 358.919Z" fill="#049F49"/>
<path d="M660.096 520.951C676.253 536.794 698.764 544.853 721.247 547.47C743.718 550.102 766.447 547.757 788.958 545.425C781.745 554.206 772.937 561.664 763.106 567.336C759.016 569.695 754.448 572.054 752.539 576.362C750.139 581.762 752.935 588.17 756.93 592.533C768.942 605.636 790.212 606.427 806.355 598.996C822.499 591.565 834.62 577.658 845.828 563.859C854.909 587.379 872.293 607.6 894.19 620.103C895.418 613.981 896.645 607.872 897.872 601.75C898.567 598.314 899.249 594.769 898.513 591.347C897.913 588.566 896.426 586.057 894.954 583.616C886.787 570.05 878.592 556.442 868.993 543.857C898.663 552.243 931.768 547.566 957.96 531.313C958.601 530.918 959.255 530.495 959.651 529.868C960.782 528.082 959.419 525.791 958.001 524.223C943.616 508.23 920.737 503.403 899.358 501.099C883.828 499.435 868.216 498.631 852.591 498.713C851.296 498.713 849.864 498.685 848.882 497.84C847.273 496.436 847.846 493.859 848.555 491.841C854.172 475.834 859.79 459.813 865.407 443.806C866.662 440.206 867.943 436.32 866.853 432.666C841.601 443.042 820.59 463.331 809.314 488.2C806.696 487.314 805.715 484.233 804.406 481.792C801.706 476.829 796.538 473.788 791.63 471.007C778.241 463.412 764.838 455.818 751.448 448.21C749.621 447.173 747.985 470.993 748.299 473.079C749.703 482.351 755.362 488.432 758.348 496.586C742.327 500.526 725.161 500.649 708.881 505.039C692.355 509.498 676.212 515.238 660.096 520.978V520.951Z" fill="#FCB8E7"/>
<path d="M846.619 509.784C850.082 510.847 853.982 512.292 855.331 515.66C856.49 518.537 855.331 521.782 854.2 524.673C852.073 530.031 849.946 535.39 847.819 540.748C847.614 541.28 847.355 541.852 846.851 542.112C846.482 542.302 846.032 542.289 845.623 542.262C836.297 541.743 827.039 540.23 817.945 538.157C802.865 534.722 788.139 529.731 774.082 523.268C776.659 519.096 781.758 517.419 786.271 515.537C792.039 513.138 797.125 509.865 802.156 506.211C805.796 503.566 809.982 500.089 814.754 500.13C818.654 500.158 823.14 502.544 826.794 503.675C833.407 505.72 840.02 507.752 846.619 509.784Z" fill="#049F49"/>
<path d="M200.934 354.697C205.317 383.165 222.113 408.544 243.03 428.359C263.923 448.177 288.875 463.12 313.594 477.911C299.547 481.359 284.883 482.243 270.539 480.526C264.571 479.811 258.118 478.731 252.886 481.666C246.323 485.339 244.285 494.001 245.029 501.494C247.278 524.009 268.351 541.036 290.47 545.774C312.589 550.512 335.548 545.583 357.493 540.068C348.811 570.963 351.107 604.827 363.888 634.268C369.807 628.965 375.716 623.676 381.635 618.373C384.964 615.401 388.363 612.309 390.222 608.259C391.732 604.967 392.131 601.277 392.491 597.667C394.514 577.613 396.54 557.496 396.355 537.35C420.197 568.522 457.501 589.002 496.589 592.414C497.543 592.5 498.533 592.568 499.414 592.23C501.929 591.273 502.287 587.899 502.037 585.22C499.575 557.95 479.939 535.583 459.909 516.931C445.351 503.392 430.054 490.667 414.067 478.834C412.747 477.846 411.309 476.726 410.953 475.116C410.385 472.458 412.934 470.269 415.195 468.753C433.127 456.724 451.07 444.681 469.002 432.652C473.026 429.94 477.295 426.957 478.97 422.401C445.323 413.718 408.438 418.371 377.981 435.117C375.989 432.217 377.338 428.328 377.865 424.843C378.899 417.726 375.952 410.687 373.07 404.109C365.217 386.158 357.35 368.197 349.507 350.232C348.435 347.783 328.602 370.81 327.331 373.176C321.691 383.695 322.82 394.208 319.645 404.795C300.313 396.593 282.725 383.626 262.786 375.685C242.545 367.627 221.715 361.165 200.913 354.725L200.934 354.697Z" fill="#FCB8E7"/>
<path d="M399.538 485.562C402.256 489.287 405.128 493.734 403.936 498.196C402.923 502.011 399.267 504.435 395.909 506.517C389.655 510.356 383.401 514.195 377.147 518.034C376.533 518.42 375.832 518.806 375.12 518.685C374.6 518.599 374.151 518.242 373.755 517.902C364.646 510.262 356.365 501.659 348.678 492.611C335.93 477.609 324.729 461.294 315.331 443.987C321.139 441.7 327.615 443.88 333.649 445.404C341.357 447.357 349.036 447.901 356.95 448.014C362.677 448.094 369.594 447.743 374.426 451.424C378.38 454.426 381.132 460.278 383.993 464.218C389.172 471.346 394.362 478.459 399.538 485.562Z" fill="#049F49"/>
<path d="M1375.4 667.907C1368.03 673.197 1360.65 678.487 1353.27 683.777C1350.46 685.782 1347.67 687.8 1344.71 689.586C1339.83 692.558 1334.58 694.876 1329.53 697.562C1322.19 701.462 1315.26 706.097 1308.35 710.733C1303.63 713.896 1303.14 715.942 1305.96 719.978C1309.22 724.654 1312.38 729.331 1315.26 734.471C1323.89 749.892 1328.92 769.063 1330.76 786.61C1314.96 774.748 1301.05 760.364 1289.72 744.179C1278.61 776.139 1251.04 799.277 1223.33 818.693C1227.36 792.023 1231.39 765.34 1235.41 738.671C1215.63 743.266 1193.41 734.008 1182.74 716.733C1191.55 712.042 1198.68 704.57 1207.67 700.248C1215.64 696.417 1224.59 695.299 1233.37 694.235C1226.89 659.248 1211.23 625.38 1211.02 589.793C1210.97 581.162 1211.84 572.313 1209.26 564.064C1215.21 565.537 1217.91 569.491 1221.82 574.195C1234.85 589.861 1252.27 601.505 1264.81 617.567C1271.23 625.802 1276.25 635.047 1281.23 644.223C1281.29 636.574 1286.97 630.343 1291.56 624.235C1304.34 607.232 1311.65 585.035 1329.71 573.813C1328.5 574.563 1327.93 594.743 1327.86 597.238C1327.65 604.451 1327.43 611.5 1326.4 618.753C1324.07 634.951 1320.04 650.89 1314.37 666.243C1334.16 667.77 1354.04 668.22 1373.87 667.62" fill="#FCB8E7"/>
<path d="M1256.86 740.69C1256.93 741.004 1257.01 741.317 1257.08 741.631C1261.02 737.745 1263.12 733.613 1267.86 730.055C1272.87 726.305 1278.21 723.019 1283.2 719.242C1285.66 717.388 1293.25 712.943 1294.11 709.739C1294.57 708.021 1292.34 702.908 1292.05 700.877C1291.7 698.422 1291.52 695.954 1291.13 693.514C1289.82 685.619 1288.32 677.752 1286.6 669.926C1285.11 663.095 1282.99 655.596 1277.04 651.901C1272.85 649.296 1267.56 649.187 1262.68 649.883C1258.05 650.551 1253.33 651.969 1249.91 655.159C1246.23 658.595 1244.48 663.708 1244.15 668.726C1243.83 673.743 1244.75 678.761 1245.67 683.71C1249.24 702.84 1252.4 721.806 1256.85 740.69H1256.86Z" fill="#049F49"/>
<path d="M134.322 651.623C127.036 657.037 119.75 662.451 112.464 667.865C109.689 669.917 106.929 671.982 104 673.817C99.17 676.872 93.9605 679.278 88.9617 682.049C81.6794 686.072 74.8321 690.824 67.9985 695.575C63.3349 698.818 62.8787 700.871 65.7687 704.859C69.1059 709.48 72.3476 714.102 75.3109 719.193C84.2006 734.467 89.5546 753.549 91.6911 771.064C75.6905 759.47 61.5424 745.322 49.9405 729.331C39.369 761.474 12.194 785.074 -15.1803 804.954C-11.6086 778.221 -8.02354 751.473 -4.45187 724.74C-24.1555 729.668 -46.5332 720.786 -57.4855 703.693C-48.7579 698.855 -41.754 691.264 -32.8429 686.791C-24.9323 682.825 -16.0081 681.556 -7.24657 680.345C-14.3125 645.472 -30.548 611.873 -31.3529 576.295C-31.5531 567.666 -30.83 558.804 -33.5457 550.599C-27.577 551.971 -24.811 555.879 -20.819 560.517C-7.52168 575.961 10.0838 587.309 22.897 603.157C29.457 611.283 34.6299 620.441 39.7607 629.532C39.6998 621.883 45.2658 615.557 49.757 609.372C62.2441 592.157 69.1767 569.839 87.0508 558.314C85.8502 559.085 85.618 579.271 85.592 581.767C85.5092 588.982 85.4101 596.034 84.4964 603.304C82.4385 619.539 78.6857 635.544 73.2736 650.99C93.0805 652.183 112.965 652.297 132.79 651.363" fill="#FCB8E7"/>
<path d="M17.0266 726.395C17.1001 726.707 17.1871 727.02 17.2606 727.332C21.1349 723.38 23.1646 719.214 27.8488 715.576C32.7887 711.742 38.0773 708.367 43.0032 704.506C45.4258 702.611 52.9443 698.038 53.7491 694.82C54.1836 693.094 51.8616 688.02 51.5411 685.993C51.1452 683.546 50.9263 681.081 50.4898 678.647C49.0479 670.776 47.4155 662.935 45.5657 655.139C43.9645 648.334 41.7112 640.872 35.705 637.278C31.4758 634.745 26.1844 634.725 21.3156 635.502C16.6917 636.249 11.9987 637.746 8.63067 640.994C5.0078 644.491 3.34911 649.633 3.10659 654.656C2.86407 659.678 3.87574 664.679 4.87265 669.612C8.76722 688.679 12.2501 707.589 17.013 726.395L17.0266 726.395Z" fill="#049F49"/>
<path d="M549.342 685.877C556.323 709.452 558.845 734.322 556.977 758.837C556.05 770.917 554.073 782.929 551.019 794.655C547.01 810.09 543.56 825.374 537.752 840.209C531.371 856.516 525.222 872.905 519.318 889.389H548.646C569.057 852.126 599.067 820.848 636.017 799.905C634.272 797.546 632.759 794.71 631.791 791.942C641.09 787.443 649.202 782.793 658.501 778.294C660.751 777.203 663.001 776.112 665.25 775.021C681.612 767.1 697.974 759.178 714.322 751.256C716.449 750.233 718.576 749.197 720.58 747.97C724.084 745.829 727.193 743.116 730.288 740.403C739.001 732.781 747.713 725.173 756.426 717.551C747.727 717.237 738.578 717.865 729.988 719.228C706.468 722.978 682.935 726.741 659.415 730.49C656.197 731.008 652.965 731.527 649.939 732.74C646.639 734.076 643.735 736.19 640.981 738.439C630.55 746.988 622.124 757.678 613.779 768.258C604.03 780.639 595.413 793.278 586.292 806.081C579.924 815.012 573.557 823.943 567.189 832.873C583.783 784.034 589.387 731.186 582.76 680.028C582.597 678.801 582.678 678.324 582.569 677.097C571.893 680.805 560.399 683.641 549.314 685.85L549.342 685.877Z" fill="#F2E7C9"/>
<path d="M520.021 814.49C539.546 803.051 553.223 783.439 561.643 762.428C570.072 741.434 573.767 718.884 577.418 696.549C584.001 705.812 588.889 716.267 591.786 727.24C592.99 731.806 594.069 736.832 597.727 739.804C602.308 743.535 609.225 742.517 614.483 739.806C630.277 731.648 636.615 711.329 633.676 693.802C630.736 676.275 620.492 660.932 610.114 646.5C635.192 643.901 659.262 632.425 677.068 614.571C671.482 611.782 665.908 608.997 660.322 606.208C657.189 604.636 653.946 603.049 650.451 602.862C647.609 602.712 644.798 603.489 642.057 604.27C626.824 608.596 611.545 612.937 596.884 618.901C612.753 592.467 616.917 559.294 608.099 529.757C607.885 529.035 607.649 528.293 607.147 527.747C605.72 526.186 603.152 526.902 601.267 527.859C582.062 537.549 571.407 558.363 563.58 578.39C557.903 592.941 553.035 607.796 549.018 622.897C548.679 624.147 548.277 625.521 547.204 626.247C545.427 627.431 543.09 626.203 541.329 624.99C527.354 615.373 513.365 605.753 499.39 596.136C496.246 593.982 492.832 591.726 489.019 591.821C492.413 618.909 506.485 644.504 527.529 661.905C525.988 664.199 522.757 664.338 520.059 664.962C514.561 666.266 510.273 670.456 506.302 674.464C495.463 685.394 484.621 696.338 473.769 707.265C472.29 708.756 494.848 716.579 496.944 716.823C506.259 717.898 513.611 714.031 522.262 713.287C521.865 729.781 517.484 746.379 517.454 763.24C517.424 780.356 518.732 797.44 520.047 814.497L520.021 814.49Z" fill="#FCB8E7"/>
<path d="M558.137 631.561C560.071 628.498 562.488 625.114 566.092 624.694C569.172 624.329 572 626.298 574.493 628.148C579.106 631.605 583.72 635.063 588.333 638.52C588.793 638.857 589.277 639.257 589.395 639.812C589.483 640.217 589.352 640.647 589.218 641.035C586.274 649.899 582.386 658.437 578.003 666.67C570.734 680.322 562.058 693.225 552.137 705.096C548.786 701.516 548.504 696.155 547.871 691.307C547.067 685.112 545.242 679.346 543.035 673.533C541.436 669.327 539.178 664.376 540.469 659.781C541.517 656.025 544.996 652.322 547.046 649.092C550.753 643.246 554.447 637.397 558.137 631.561Z" fill="#049F49"/>
<path d="M233.094 708.424C242.373 693.505 260.648 682.071 278.425 671.11C291.089 663.296 317.661 666.046 333.416 667.372C342.703 668.154 351.959 669.171 361.275 669.853C367.581 670.313 373.431 671.128 379.667 671.704C369.047 675.547 359.3 678.59 348.04 681.607C339.245 683.96 330.331 686.128 321.312 688.096C307.734 691.056 293.864 693.585 281.043 697.736C268.223 701.887 254.699 707.339 247.795 715.63C249.864 718.292 251.919 720.963 253.988 723.626C247.118 727.478 240.477 731.506 234.065 735.702C232.811 736.523 231.514 737.389 230.895 738.493C230.361 739.435 230.357 740.477 230.354 741.492C230.356 750.235 231.929 758.035 232.177 766.773C232.905 792.37 239.277 815.581 245.108 840.938C247.204 850.07 250.078 859.142 253.705 868.073C255.511 872.543 257.509 876.98 259.685 881.374C261.729 885.513 262.073 886.108 255.8 886.11C243.227 886.107 230.621 885.685 218.051 885.473C210.66 857.988 206.029 830.195 204.167 802.359C203.872 798.041 203.658 793.716 203.731 789.395C203.801 785.292 204.156 781.194 204.498 777.105C206.237 756.496 208.657 735.907 208.664 715.269C208.666 701.407 207.332 687.541 204.674 673.761C202.793 663.999 200.204 654.198 194.603 645.052C204.865 643.821 214.96 642.007 224.736 639.645C226.393 644.873 227.757 650.559 228.158 655.883C228.426 659.367 228.695 662.851 228.977 666.334C230.103 680.433 231.954 694.335 233.08 708.433L233.094 708.424Z" fill="#F2E7C9"/>
<path d="M138.647 644.138C145.812 641.379 152.979 638.605 160.143 635.846C162.865 634.794 165.587 633.743 168.386 632.904C173.019 631.514 177.809 630.717 182.508 629.605C189.357 627.974 196.011 625.653 202.664 623.331C207.201 621.742 208.036 620.17 206.588 616.264C204.905 611.735 203.316 607.239 202.051 602.422C198.26 587.953 198.223 571.188 200.446 556.437C210.86 569.515 219.19 584.243 225.026 599.907C240.922 576.111 268.414 563.023 295.232 553.02C286.253 574.004 277.29 594.991 268.311 615.976C285.494 616.422 301.713 628.732 306.781 645.15C298.567 647.12 291.147 651.722 282.864 653.347C275.528 654.78 267.955 653.798 260.541 652.804C258.395 682.836 264.022 713.894 256.625 743.079C254.829 750.163 252.232 757.225 252.587 764.521C248.032 762.044 246.672 758.246 244.456 753.552C237.114 737.96 225.336 724.715 218.484 708.898C214.971 700.782 212.829 692.155 210.713 683.566C209.022 689.807 203.056 693.714 197.999 697.738C183.922 708.94 173.215 725.552 156.039 730.904C157.191 730.543 161.954 714.151 162.541 712.12C164.239 706.253 165.919 700.524 168.31 694.809C173.658 682.049 180.357 669.843 188.259 658.488C172.384 653.033 156.212 648.427 139.828 644.711" fill="#FCB8E7"/>
<path d="M251.201 609.747C251.21 609.474 251.218 609.202 251.217 608.937C247.163 611.287 244.561 614.218 239.923 616.129C235.028 618.135 229.95 619.692 225.058 621.722C222.662 622.718 215.498 624.746 214.107 627.178C213.361 628.493 214.098 633.155 213.908 634.87C213.676 636.951 213.29 639.011 213.106 641.1C212.492 647.845 212.057 654.607 211.795 661.375C211.564 667.295 211.709 673.881 215.79 678.17C218.671 681.185 222.975 682.405 227.119 682.867C231.052 683.305 235.219 683.149 238.699 681.266C242.445 679.241 244.953 675.421 246.298 671.381C247.644 667.34 247.943 663.042 248.249 658.794C249.392 642.377 250.836 626.173 251.214 609.766L251.201 609.747Z" fill="#049F49"/>
</g>
<path d="M63.9 128C63.4 128 63.1 127.75 63.1 127.2L63.4 93L63.1 58.8C63.1 58.25 63.4 58 63.9 58H90.3C107.2 58 116.9 65.6 116.9 80.5C116.9 95.2 106.9 103.7 90.2 103.7H78.4L78.5 127.2C78.5 127.75 78.2 128 77.7 128H63.9ZM78.3 92.6H91.3C97.2 92.6 102.2 89.2 102.2 80.8C102.2 72.8 98.1 69.1 90.9 69.1H78.4L78.3 92.6ZM122.055 128C121.555 128 121.255 127.75 121.255 127.2L121.555 93L121.255 58.8C121.255 58.25 121.555 58 122.055 58H135.255C135.755 58 136.055 58.25 136.055 58.8L135.755 93L136.055 127.2C136.055 127.75 135.755 128 135.255 128H122.055ZM163.293 129C148.693 129 140.993 117.4 140.993 102.4C140.993 87.5 149.593 75.5 163.593 75.5C169.993 75.5 174.993 77.8 178.493 82L178.243 77.3C178.193 76.8 178.493 76.5 178.993 76.5H192.493C192.993 76.5 193.293 76.75 193.293 77.3L193.093 102.3L193.293 127.2C193.293 127.75 192.993 128 192.493 128H179.093C178.593 128 178.343 127.7 178.343 127.2L178.493 122C174.893 126.4 169.793 129 163.293 129ZM167.493 119C174.793 119 178.693 113.5 178.793 102.6C178.893 91.6 174.993 85.6 167.793 85.5C160.193 85.3 156.293 91 156.293 101.6C156.293 113.2 160.293 119.1 167.493 119ZM199.48 128C198.98 128 198.68 127.75 198.68 127.2L198.88 103.3V77.3C198.88 76.8 199.18 76.5 199.68 76.5H212.58C213.08 76.5 213.33 76.75 213.33 77.3L213.08 83C216.58 78.5 222.48 75.3 229.68 75.3C240.58 75.3 247.68 82.7 247.68 95.3V106.1L247.88 127.2C247.88 127.75 247.58 128 247.08 128H233.48C232.98 128 232.68 127.75 232.68 127.2L232.88 106.1V95.5C232.88 89.9 229.58 86.3 225.08 86.3C219.68 86.3 213.88 91.3 213.88 102.3V106.1L214.08 127.2C214.08 127.75 213.78 128 213.28 128H199.48ZM273.566 129C264.866 129 256.566 124.6 256.566 112.9L256.666 87.1H250.766C250.266 87.1 249.966 86.8 249.966 86.3V77.3C249.966 76.8 250.266 76.5 250.766 76.5H256.616L256.566 64.4C256.566 63.85 256.866 63.6 257.366 63.6H270.766C271.266 63.6 271.566 63.85 271.566 64.4L271.516 76.5H283.066C283.566 76.5 283.866 76.8 283.866 77.3V86.3C283.866 86.8 283.566 87.1 283.066 87.1H271.466L271.566 112.5C271.566 116.9 273.766 118.3 277.066 118.3C279.466 118.3 281.316 117.9 282.866 117.45C283.416 117.3 283.766 117.6 283.766 118.15V126.3C283.766 126.75 283.566 127.05 283.166 127.2C280.216 128.2 276.816 129 273.566 129ZM336.059 129.6C317.659 129.6 304.959 121.85 304.359 105.2C304.359 104.7 304.659 104.4 305.159 104.4H319.509C320.009 104.4 320.259 104.65 320.359 105.15C321.259 113.05 324.809 118.2 336.359 118.2C345.459 118.2 350.459 115.5 350.459 108.9C350.459 93.1 305.759 105.6 305.759 77.8C305.759 64.7 315.959 56.5 333.859 56.5C350.259 56.5 361.559 62.85 363.659 77.85C363.709 78.4 363.409 78.7 362.909 78.7H348.509C348.009 78.7 347.759 78.45 347.709 77.95C346.959 71.5 341.809 68 333.259 68C326.059 68 320.859 70.5 320.859 76.3C320.859 91.2 365.759 79.1 365.759 106.8C365.759 121.6 354.359 129.6 336.059 129.6ZM390.797 129C382.097 129 373.797 124.6 373.797 112.9L373.897 87.1H367.997C367.497 87.1 367.197 86.8 367.197 86.3V77.3C367.197 76.8 367.497 76.5 367.997 76.5H373.847L373.797 64.4C373.797 63.85 374.097 63.6 374.597 63.6H387.997C388.497 63.6 388.797 63.85 388.797 64.4L388.747 76.5H400.297C400.797 76.5 401.097 76.8 401.097 77.3V86.3C401.097 86.8 400.797 87.1 400.297 87.1H388.697L388.797 112.5C388.797 116.9 390.997 118.3 394.297 118.3C396.697 118.3 398.547 117.9 400.097 117.45C400.647 117.3 400.997 117.6 400.997 118.15V126.3C400.997 126.75 400.797 127.05 400.397 127.2C397.447 128.2 394.047 129 390.797 129ZM424.512 129C409.912 129 402.212 117.4 402.212 102.4C402.212 87.5 410.812 75.5 424.812 75.5C431.212 75.5 436.212 77.8 439.712 82L439.462 77.3C439.412 76.8 439.712 76.5 440.212 76.5H453.712C454.212 76.5 454.512 76.75 454.512 77.3L454.312 102.3L454.512 127.2C454.512 127.75 454.212 128 453.712 128H440.312C439.812 128 439.562 127.7 439.562 127.2L439.712 122C436.112 126.4 431.012 129 424.512 129ZM428.712 119C436.012 119 439.912 113.5 440.012 102.6C440.112 91.6 436.212 85.6 429.012 85.5C421.412 85.3 417.512 91 417.512 101.6C417.512 113.2 421.512 119.1 428.712 119ZM482.199 129C473.499 129 465.199 124.6 465.199 112.9L465.299 87.1H459.399C458.899 87.1 458.599 86.8 458.599 86.3V77.3C458.599 76.8 458.899 76.5 459.399 76.5H465.249L465.199 64.4C465.199 63.85 465.499 63.6 465.999 63.6H479.399C479.899 63.6 480.199 63.85 480.199 64.4L480.149 76.5H491.699C492.199 76.5 492.499 76.8 492.499 77.3V86.3C492.499 86.8 492.199 87.1 491.699 87.1H480.099L480.199 112.5C480.199 116.9 482.399 118.3 485.699 118.3C488.099 118.3 489.949 117.9 491.499 117.45C492.049 117.3 492.399 117.6 492.399 118.15V126.3C492.399 126.75 492.199 127.05 491.799 127.2C488.849 128.2 485.449 129 482.199 129ZM514.267 129.2C503.367 129.2 496.267 121.8 496.267 109.2V98.4L496.067 77.3C496.067 76.75 496.367 76.5 496.867 76.5H510.467C510.967 76.5 511.267 76.75 511.267 77.3L511.067 98.4V109C511.067 114.6 514.367 118.2 518.867 118.2C524.267 118.2 530.067 113.2 530.067 102.2V98.4L529.867 77.3C529.867 76.75 530.167 76.5 530.667 76.5H544.467C544.967 76.5 545.267 76.75 545.267 77.3L545.067 101.2V127.2C545.067 127.7 544.767 128 544.267 128H531.367C530.867 128 530.617 127.75 530.617 127.2L530.867 121.5C527.367 126 521.467 129.2 514.267 129.2ZM574.318 129.2C559.068 129.2 549.918 123.1 549.518 111.5C549.518 111 549.818 110.7 550.318 110.7H563.318C563.818 110.7 564.118 111 564.118 111.5C564.468 117.35 568.218 119.9 575.318 119.9C581.218 119.9 584.418 117.6 584.418 113.6C584.418 103.8 550.718 113.3 550.718 91.7C550.718 81 559.318 75.3 573.218 75.3C586.768 75.3 595.868 80.7 596.768 91.55C596.818 92.1 596.468 92.4 595.968 92.4H583.568C583.068 92.4 582.818 92.15 582.718 91.65C581.918 87.2 579.168 84.4 573.018 84.4C568.118 84.4 565.018 86.2 565.018 90.6C565.018 100.4 598.718 90.4 598.718 112.3C598.718 123.1 588.518 129.2 574.318 129.2Z" fill="white"/>
<path d="M943.24 60.655H946.775L951.43 79.625L956.155 60.655H959.62V84H957.03L957.24 64.085L952.305 84H950.31L945.41 63.98L945.62 84H943.24V60.655ZM969.41 66.325C973.155 66.325 975.08 69.755 975.08 75.53C975.08 81.55 973.155 84.42 969.375 84.42C965.63 84.42 963.74 81.375 963.74 75.46C963.74 69.86 965.665 66.325 969.41 66.325ZM966.4 75.495C966.4 80.29 967.275 82.355 969.41 82.355C971.51 82.355 972.42 80.255 972.42 75.775C972.42 70.56 971.615 68.39 969.375 68.39C967.24 68.39 966.4 70.735 966.4 75.495ZM978.916 60.655H981.541V63.63H978.916V60.655ZM979.021 66.745H981.436V84H979.021V66.745ZM989.889 66.325C992.549 66.325 994.159 67.76 994.719 70.665L992.654 71.19C992.094 69.09 991.289 68.39 989.924 68.39C988.524 68.39 987.544 69.265 987.544 70.77C987.544 72.03 988.139 72.8 989.189 73.36L992.024 74.865C994.089 75.95 995.069 76.93 995.069 79.31C995.069 82.46 993.109 84.42 990.029 84.42C986.844 84.42 985.024 82.705 984.604 79.59L986.739 79.03C987.159 81.41 988.174 82.355 989.994 82.355C991.604 82.355 992.584 81.34 992.584 79.695C992.584 77.91 991.989 77.42 989.049 75.985C986.214 74.585 985.164 73.22 985.164 71.015C985.164 68.6 986.704 66.325 989.889 66.325ZM1000.92 62.125V66.745H1003.86V68.74H1000.92V78.365C1000.92 80.815 1001.13 81.725 1002.95 81.725C1003.58 81.725 1003.76 81.725 1004.32 81.62V83.72C1003.76 83.965 1003.27 84.07 1002.25 84.07C1001.34 84.07 1000.47 83.86 999.942 83.475C998.857 82.705 998.507 81.41 998.507 78.4V68.74H996.547V66.745H998.507V62.405L1000.92 62.125ZM1007.09 66.745H1009.51V78.925C1009.51 81.515 1010.28 82.215 1011.71 82.215C1013.67 82.215 1014.51 80.395 1014.51 77.98V66.745H1016.93V84H1014.72V81.935C1013.85 83.72 1012.66 84.42 1010.98 84.42C1010.17 84.42 1009.26 84.21 1008.67 83.825C1007.44 83.055 1007.09 82.145 1007.09 78.645V66.745ZM1027.55 66.395C1027.87 66.395 1028.15 66.465 1028.29 66.5V69.195C1028.15 69.195 1027.94 69.16 1027.73 69.16C1024.37 69.16 1024.16 72.555 1024.16 75.53V84H1021.74V66.745H1023.95V70.175C1024.65 67.55 1025.87 66.395 1027.55 66.395ZM1035.65 66.325C1039.25 66.325 1041.18 69.125 1041.18 75.25V75.67H1032.46V75.95C1032.46 80.395 1033.69 82.355 1035.89 82.355C1037.43 82.355 1038.41 81.165 1038.87 78.89L1041 79.45C1040.16 82.95 1038.62 84.42 1035.68 84.42C1031.8 84.42 1029.91 81.62 1029.91 75.6C1029.91 69.895 1031.9 66.325 1035.65 66.325ZM1032.53 73.675H1038.52C1038.48 69.79 1037.5 68.39 1035.58 68.39C1033.3 68.39 1032.6 71.19 1032.53 73.675ZM1052.93 60.655H1055.59V81.725H1062.87V84H1052.93V60.655ZM1070.25 66.325C1073.86 66.325 1075.78 69.125 1075.78 75.25V75.67H1067.07V75.95C1067.07 80.395 1068.29 82.355 1070.5 82.355C1072.04 82.355 1073.02 81.165 1073.47 78.89L1075.61 79.45C1074.77 82.95 1073.23 84.42 1070.29 84.42C1066.4 84.42 1064.51 81.62 1064.51 75.6C1064.51 69.895 1066.51 66.325 1070.25 66.325ZM1067.14 73.675H1073.12C1073.09 69.79 1072.11 68.39 1070.18 68.39C1067.91 68.39 1067.21 71.19 1067.14 73.675ZM1078.04 66.745H1080.56L1083.53 80.99L1086.4 66.745H1088.78L1084.72 84H1082.1L1078.04 66.745ZM1096.4 66.325C1100 66.325 1101.93 69.125 1101.93 75.25V75.67H1093.21V75.95C1093.21 80.395 1094.44 82.355 1096.64 82.355C1098.18 82.355 1099.16 81.165 1099.62 78.89L1101.75 79.45C1100.91 82.95 1099.37 84.42 1096.43 84.42C1092.55 84.42 1090.66 81.62 1090.66 75.6C1090.66 69.895 1092.65 66.325 1096.4 66.325ZM1093.28 73.675H1099.27C1099.23 69.79 1098.25 68.39 1096.33 68.39C1094.05 68.39 1093.35 71.19 1093.28 73.675ZM1105.36 60.655H1107.77V84H1105.36V60.655ZM1112.59 66.745H1115.63V70.525H1112.59V66.745ZM1112.59 80.22H1115.63V84H1112.59V80.22ZM1128.97 60.655H1138.98L1138.8 63.07H1131.14L1130.86 70.56C1131.52 69.125 1132.75 68.32 1134.57 68.32C1138.17 68.32 1140.1 71.155 1140.1 76.58C1140.1 81.62 1137.33 84.42 1133.69 84.42C1130.44 84.42 1128.51 82.74 1127.74 78.96L1129.91 78.26C1130.58 81.06 1131.87 82.285 1133.73 82.285C1136.07 82.285 1137.4 80.29 1137.4 76.37C1137.4 72.59 1136.32 70.63 1134.08 70.63C1132.4 70.63 1131.38 71.365 1130.4 73.745L1128.48 73.29L1128.97 60.655ZM1144.57 60.655H1154.58L1154.4 63.07H1146.74L1146.46 70.56C1147.12 69.125 1148.35 68.32 1150.17 68.32C1153.77 68.32 1155.7 71.155 1155.7 76.58C1155.7 81.62 1152.93 84.42 1149.29 84.42C1146.04 84.42 1144.11 82.74 1143.34 78.96L1145.51 78.26C1146.18 81.06 1147.47 82.285 1149.33 82.285C1151.67 82.285 1153 80.29 1153 76.37C1153 72.59 1151.92 70.63 1149.68 70.63C1148 70.63 1146.98 71.365 1146 73.745L1144.08 73.29L1144.57 60.655ZM1162.69 60.41C1165.32 60.41 1166.61 62.72 1166.61 66.535C1166.61 70.315 1165.21 72.555 1162.69 72.555C1160.17 72.555 1158.77 70.14 1158.77 66.36C1158.77 62.615 1160.14 60.41 1162.69 60.41ZM1161.4 84L1171.37 60.655H1173.09L1163.11 84H1161.4ZM1161.01 66.255C1161.01 69.23 1161.36 70.735 1162.73 70.735C1164.44 70.735 1164.37 68.67 1164.37 66.29C1164.37 63.245 1163.88 62.16 1162.73 62.16C1161.5 62.16 1161.01 63.42 1161.01 66.255ZM1171.83 72.03C1174.38 72.03 1175.75 74.27 1175.75 78.155C1175.75 81.935 1174.38 84.175 1171.83 84.175C1169.2 84.175 1167.91 81.655 1167.91 77.98C1167.91 74.06 1169.31 72.03 1171.83 72.03ZM1170.15 77.875C1170.15 80.85 1170.5 82.355 1171.86 82.355C1173.58 82.355 1173.51 80.29 1173.51 77.91C1173.51 74.865 1173.02 73.78 1171.86 73.78C1170.64 73.78 1170.15 75.04 1170.15 77.875Z" fill="white"/>
<path d="M948.14 108.235C951.255 108.235 953.425 110.09 954.265 113.905L951.85 114.5C951.255 111.735 949.995 110.51 948.07 110.51C946.005 110.51 944.85 112.155 944.85 114.395C944.85 116.285 945.655 117.23 948.49 118.56C952.69 120.555 954.615 121.85 954.615 125.805C954.615 130.04 951.71 132.42 948.28 132.42C944.605 132.42 942.085 130.18 941.49 126.12L943.975 125.49C944.325 128.01 945.69 130.145 948.315 130.145C950.59 130.145 951.92 128.535 951.92 125.98C951.92 124.895 951.71 124.125 951.29 123.46C950.485 122.2 948.63 121.64 946.705 120.59C943.485 118.84 942.295 117.72 942.295 114.535C942.295 110.72 944.815 108.235 948.14 108.235ZM960.711 110.125V114.745H963.651V116.74H960.711V126.365C960.711 128.815 960.921 129.725 962.741 129.725C963.371 129.725 963.546 129.725 964.106 129.62V131.72C963.546 131.965 963.056 132.07 962.041 132.07C961.131 132.07 960.256 131.86 959.731 131.475C958.646 130.705 958.296 129.41 958.296 126.4V116.74H956.336V114.745H958.296V110.405L960.711 110.125ZM972.096 114.325C973.286 114.325 974.301 114.57 975.036 115.025C976.611 115.97 976.961 117.125 976.961 120.765V128.43C976.961 129.445 976.961 130.74 977.206 132H975.036C974.756 131.125 974.686 130.565 974.686 129.48C973.881 131.615 972.726 132.42 970.766 132.42C967.931 132.42 966.251 130.495 966.251 127.31C966.251 123.6 968.561 121.325 972.901 121.325C973.566 121.325 974.091 121.325 974.476 121.36V120.94C974.476 118.28 974.441 116.32 971.886 116.32C969.821 116.32 969.296 117.72 968.911 119.575L966.706 118.98C967.371 115.725 969.261 114.325 972.096 114.325ZM968.841 127.31C968.841 129.27 969.611 130.355 971.116 130.355C972.971 130.355 974.476 128.78 974.476 124.23V123.25H973.181C969.996 123.25 968.841 124.65 968.841 127.31ZM984.157 110.125V114.745H987.097V116.74H984.157V126.365C984.157 128.815 984.367 129.725 986.187 129.725C986.817 129.725 986.992 129.725 987.552 129.62V131.72C986.992 131.965 986.502 132.07 985.487 132.07C984.577 132.07 983.702 131.86 983.177 131.475C982.092 130.705 981.742 129.41 981.742 126.4V116.74H979.782V114.745H981.742V110.405L984.157 110.125ZM990.327 114.745H992.742V126.925C992.742 129.515 993.512 130.215 994.947 130.215C996.907 130.215 997.747 128.395 997.747 125.98V114.745H1000.16V132H997.957V129.935C997.082 131.72 995.892 132.42 994.212 132.42C993.407 132.42 992.497 132.21 991.902 131.825C990.677 131.055 990.327 130.145 990.327 126.645V114.745ZM1008.62 114.325C1011.28 114.325 1012.89 115.76 1013.45 118.665L1011.38 119.19C1010.82 117.09 1010.02 116.39 1008.65 116.39C1007.25 116.39 1006.27 117.265 1006.27 118.77C1006.27 120.03 1006.87 120.8 1007.92 121.36L1010.75 122.865C1012.82 123.95 1013.8 124.93 1013.8 127.31C1013.8 130.46 1011.84 132.42 1008.76 132.42C1005.57 132.42 1003.75 130.705 1003.33 127.59L1005.47 127.03C1005.89 129.41 1006.9 130.355 1008.72 130.355C1010.33 130.355 1011.31 129.34 1011.31 127.695C1011.31 125.91 1010.72 125.42 1007.78 123.985C1004.94 122.585 1003.89 121.22 1003.89 119.015C1003.89 116.6 1005.43 114.325 1008.62 114.325ZM1017.03 114.745H1020.07V118.525H1017.03V114.745ZM1017.03 128.22H1020.07V132H1017.03V128.22ZM1033.41 108.655H1043.42L1043.24 111.07H1035.58L1035.3 118.56C1035.96 117.125 1037.19 116.32 1039.01 116.32C1042.61 116.32 1044.54 119.155 1044.54 124.58C1044.54 129.62 1041.77 132.42 1038.13 132.42C1034.88 132.42 1032.95 130.74 1032.18 126.96L1034.35 126.26C1035.02 129.06 1036.31 130.285 1038.17 130.285C1040.51 130.285 1041.84 128.29 1041.84 124.37C1041.84 120.59 1040.76 118.63 1038.52 118.63C1036.84 118.63 1035.82 119.365 1034.84 121.745L1032.92 121.29L1033.41 108.655ZM1049.01 108.655H1059.02L1058.84 111.07H1051.18L1050.9 118.56C1051.56 117.125 1052.79 116.32 1054.61 116.32C1058.21 116.32 1060.14 119.155 1060.14 124.58C1060.14 129.62 1057.37 132.42 1053.73 132.42C1050.48 132.42 1048.55 130.74 1047.78 126.96L1049.95 126.26C1050.62 129.06 1051.91 130.285 1053.77 130.285C1056.11 130.285 1057.44 128.29 1057.44 124.37C1057.44 120.59 1056.36 118.63 1054.12 118.63C1052.44 118.63 1051.42 119.365 1050.44 121.745L1048.52 121.29L1049.01 108.655ZM1067.13 108.41C1069.76 108.41 1071.05 110.72 1071.05 114.535C1071.05 118.315 1069.65 120.555 1067.13 120.555C1064.61 120.555 1063.21 118.14 1063.21 114.36C1063.21 110.615 1064.58 108.41 1067.13 108.41ZM1065.84 132L1075.81 108.655H1077.53L1067.55 132H1065.84ZM1065.45 114.255C1065.45 117.23 1065.8 118.735 1067.17 118.735C1068.88 118.735 1068.81 116.67 1068.81 114.29C1068.81 111.245 1068.32 110.16 1067.17 110.16C1065.94 110.16 1065.45 111.42 1065.45 114.255ZM1076.27 120.03C1078.82 120.03 1080.19 122.27 1080.19 126.155C1080.19 129.935 1078.82 132.175 1076.27 132.175C1073.64 132.175 1072.35 129.655 1072.35 125.98C1072.35 122.06 1073.75 120.03 1076.27 120.03ZM1074.59 125.875C1074.59 128.85 1074.94 130.355 1076.3 130.355C1078.02 130.355 1077.95 128.29 1077.95 125.91C1077.95 122.865 1077.46 121.78 1076.3 121.78C1075.08 121.78 1074.59 123.04 1074.59 125.875Z" fill="white"/>
<path d="M943.24 156.655H953.565V158.93H945.9V166.84H952.165V169.115H945.9V180H943.24V156.655ZM960.559 162.325C964.164 162.325 966.089 165.125 966.089 171.25V171.67H957.374V171.95C957.374 176.395 958.599 178.355 960.804 178.355C962.344 178.355 963.324 177.165 963.779 174.89L965.914 175.45C965.074 178.95 963.534 180.42 960.594 180.42C956.709 180.42 954.819 177.62 954.819 171.6C954.819 165.895 956.814 162.325 960.559 162.325ZM957.444 169.675H963.429C963.394 165.79 962.414 164.39 960.489 164.39C958.214 164.39 957.514 167.19 957.444 169.675ZM974.384 162.325C977.989 162.325 979.914 165.125 979.914 171.25V171.67H971.199V171.95C971.199 176.395 972.424 178.355 974.629 178.355C976.169 178.355 977.149 177.165 977.604 174.89L979.739 175.45C978.899 178.95 977.359 180.42 974.419 180.42C970.534 180.42 968.644 177.62 968.644 171.6C968.644 165.895 970.639 162.325 974.384 162.325ZM971.269 169.675H977.254C977.219 165.79 976.239 164.39 974.314 164.39C972.039 164.39 971.339 167.19 971.269 169.675ZM991.114 156.655H993.529V180H991.429V177.76C990.554 179.755 989.189 180.315 987.614 180.315C984.254 180.315 982.469 177.27 982.469 171.67C982.469 165.685 984.604 162.43 987.859 162.43C989.399 162.43 990.449 163.13 991.114 164.705V156.655ZM985.129 171.18C985.129 176.255 986.074 178.355 988.209 178.355C989.084 178.355 991.114 177.9 991.114 173.875V169.15C991.114 166.35 990.064 164.495 988.104 164.495C986.179 164.495 985.129 166.385 985.129 171.18ZM998.365 156.655H1000.78V165.195C1001.48 163.34 1002.67 162.43 1004.35 162.43C1007.57 162.43 1009.43 165.16 1009.43 171.18C1009.43 177.305 1007.39 180.315 1004 180.315C1002.04 180.315 1000.85 179.335 1000.25 177.9L999.66 180H998.365V156.655ZM1006.77 171.25C1006.77 166.35 1005.92 164.495 1003.82 164.495C1001.86 164.495 1000.78 166.735 1000.78 170.235V173.84C1000.78 176.955 1002.11 178.355 1003.58 178.355C1005.68 178.355 1006.77 176.255 1006.77 171.25ZM1018.36 162.325C1019.55 162.325 1020.56 162.57 1021.3 163.025C1022.87 163.97 1023.22 165.125 1023.22 168.765V176.43C1023.22 177.445 1023.22 178.74 1023.47 180H1021.3C1021.02 179.125 1020.95 178.565 1020.95 177.48C1020.14 179.615 1018.99 180.42 1017.03 180.42C1014.19 180.42 1012.51 178.495 1012.51 175.31C1012.51 171.6 1014.82 169.325 1019.16 169.325C1019.83 169.325 1020.35 169.325 1020.74 169.36V168.94C1020.74 166.28 1020.7 164.32 1018.15 164.32C1016.08 164.32 1015.56 165.72 1015.17 167.575L1012.97 166.98C1013.63 163.725 1015.52 162.325 1018.36 162.325ZM1015.1 175.31C1015.1 177.27 1015.87 178.355 1017.38 178.355C1019.23 178.355 1020.74 176.78 1020.74 172.23V171.25H1019.44C1016.26 171.25 1015.1 172.65 1015.1 175.31ZM1032.48 162.325C1035.39 162.325 1037.14 164.25 1037.56 167.925L1035.28 168.345C1034.97 165.65 1034.09 164.39 1032.45 164.39C1030.35 164.39 1029.58 166.21 1029.58 171.39C1029.58 175.38 1029.82 178.355 1032.45 178.355C1034.02 178.355 1034.97 177.2 1035.28 174.4L1037.56 174.68C1037.03 178.6 1035.53 180.42 1032.45 180.42C1028.77 180.42 1026.92 177.795 1026.92 171.775C1026.92 165.09 1028.88 162.325 1032.48 162.325ZM1041.04 156.655H1043.45V171.215L1048.21 162.745H1050.8L1046.99 169.115L1051.33 180H1048.46L1045.45 171.565L1043.45 174.68V180H1041.04V156.655ZM1054.28 162.745H1057.33V166.525H1054.28V162.745ZM1054.28 176.22H1057.33V180H1054.28V176.22ZM1070.66 156.655H1080.67L1080.49 159.07H1072.83L1072.55 166.56C1073.21 165.125 1074.44 164.32 1076.26 164.32C1079.86 164.32 1081.79 167.155 1081.79 172.58C1081.79 177.62 1079.02 180.42 1075.38 180.42C1072.13 180.42 1070.2 178.74 1069.43 174.96L1071.6 174.26C1072.27 177.06 1073.56 178.285 1075.42 178.285C1077.76 178.285 1079.09 176.29 1079.09 172.37C1079.09 168.59 1078.01 166.63 1075.77 166.63C1074.09 166.63 1073.07 167.365 1072.09 169.745L1070.17 169.29L1070.66 156.655ZM1086.26 156.655H1096.27L1096.1 159.07H1088.43L1088.15 166.56C1088.82 165.125 1090.04 164.32 1091.86 164.32C1095.47 164.32 1097.39 167.155 1097.39 172.58C1097.39 177.62 1094.63 180.42 1090.99 180.42C1087.73 180.42 1085.81 178.74 1085.04 174.96L1087.21 174.26C1087.87 177.06 1089.17 178.285 1091.02 178.285C1093.37 178.285 1094.7 176.29 1094.7 172.37C1094.7 168.59 1093.61 166.63 1091.37 166.63C1089.69 166.63 1088.68 167.365 1087.7 169.745L1085.77 169.29L1086.26 156.655ZM1104.38 156.41C1107.01 156.41 1108.3 158.72 1108.3 162.535C1108.3 166.315 1106.9 168.555 1104.38 168.555C1101.86 168.555 1100.46 166.14 1100.46 162.36C1100.46 158.615 1101.83 156.41 1104.38 156.41ZM1103.09 180L1113.06 156.655H1114.78L1104.8 180H1103.09ZM1102.7 162.255C1102.7 165.23 1103.05 166.735 1104.42 166.735C1106.13 166.735 1106.06 164.67 1106.06 162.29C1106.06 159.245 1105.57 158.16 1104.42 158.16C1103.19 158.16 1102.7 159.42 1102.7 162.255ZM1113.52 168.03C1116.07 168.03 1117.44 170.27 1117.44 174.155C1117.44 177.935 1116.07 180.175 1113.52 180.175C1110.89 180.175 1109.6 177.655 1109.6 173.98C1109.6 170.06 1111 168.03 1113.52 168.03ZM1111.84 173.875C1111.84 176.85 1112.19 178.355 1113.55 178.355C1115.27 178.355 1115.2 176.29 1115.2 173.91C1115.2 170.865 1114.71 169.78 1113.55 169.78C1112.33 169.78 1111.84 171.04 1111.84 173.875Z" fill="white"/>
</g>
<defs>
<clipPath id="clip0_167_2">
<rect width="1280" height="832" fill="white"/>
</clipPath>
<clipPath id="clip1_167_2">
<rect width="1551.62" height="788.858" fill="white" transform="translate(-176 116)"/>
</clipPath>
</defs>
</svg>
